<?xml version="1.0" standalone="no"?>
<!DOCTYPE svg PUBLIC "-//W3C//DTD SVG 1.1//EN" "http://www.w3.org/Graphics/SVG/1.1/DTD/svg11.dtd" >
<svg xmlns="http://www.w3.org/2000/svg">
<metadata>
<json>
<![CDATA[
{
	"fontFamily": "icomoon",
	"description": "Font generated by IcoMoon.",
	"majorVersion": 1,
	"minorVersion": 0,
	"version": "Version 1.0",
	"fontId": "icomoon",
	"psName": "icomoon",
	"subFamily": "Regular",
	"fullName": "icomoon"
}
]]>
</json>
</metadata>
<defs>
<font id="icomoon" horiz-adv-x="1024">
<font-face units-per-em="1024" ascent="960" descent="-64" />
<missing-glyph horiz-adv-x="1024" />
<glyph unicode="&#x20;" horiz-adv-x="512" d="" />
<glyph unicode="&#xe900;" horiz-adv-x="1035" d="M76.519-52.747v753.934l947.481 105.776v-660.536l-947.481-199.174z" />
<glyph unicode="&#xe901;" horiz-adv-x="1035" d="M76.519-56.123c-1.125 0-1.125 0-2.251 1.125s-1.125 1.125-1.125 2.251v753.934c0 2.251 1.125 3.376 3.376 3.376l947.481 105.776c1.125 0 2.251 0 2.251-1.125 1.125-1.125 1.125-1.125 1.125-2.251v-660.536c0-1.125-1.125-3.376-2.251-3.376l-948.607-199.174c1.125 0 0 0 0 0zM79.895 697.811v-746.057l940.73 196.923v653.785l-940.73-104.651z" />
<glyph unicode="&#xe902;" horiz-adv-x="1035" d="M76.519 701.187l-65.266 45.011v-692.044l65.266-106.901v753.934z" />
<glyph unicode="&#xe903;" horiz-adv-x="1035" d="M76.519-56.123c-1.125 0-2.251 1.125-3.376 1.125l-65.266 105.776c0 0 0 1.125 0 2.251v693.169c0 1.125 1.125 2.251 2.251 3.376s2.251 0 3.376 0l65.266-45.011c1.125-2.251 1.125-3.376 1.125-3.376v-753.934c0-1.125-1.125-3.376-3.376-3.376 1.125 0 0 0 0 0zM14.629 54.154l58.514-94.523v739.305l-58.514 40.51v-685.292z" />
<glyph unicode="&#xe904;" horiz-adv-x="1035" d="M76.519 701.187l54.013 123.78 893.468 94.523v-112.527l-947.481-105.776z" />
<glyph unicode="&#xe905;" horiz-adv-x="1035" d="M76.519 697.811c-1.125 0-2.251 0-2.251 1.125-1.125 1.125-1.125 2.251 0 3.376l54.013 123.78c0 1.125 1.125 2.251 2.251 2.251l893.468 94.523c1.125 0 2.251 0 2.251-1.125 1.125-1.125 1.125-1.125 1.125-2.251v-112.527c0-2.251-1.125-3.376-3.376-3.376l-947.481-105.776c0 0 0 0 0 0zM132.782 821.591l-50.637-117.029 938.479 104.651v106.901l-887.842-94.523z" />
<glyph unicode="&#xe906;" horiz-adv-x="1035" d="M87.771 842.971l42.76-18.004 40.51 38.259-83.27-20.255z" />
<glyph unicode="&#xe907;" horiz-adv-x="1035" d="M130.532 821.591c0 0-1.125 0-1.125 0l-42.76 18.004c-1.125 1.125-2.251 2.251-2.251 3.376s1.125 2.251 2.251 3.376l83.27 20.255c1.125 0 3.376 0 3.376-1.125 1.125-1.125 0-3.376-1.125-4.501l-40.51-38.259c1.125-1.125 0-1.125-1.125-1.125zM99.024 841.846l31.508-13.503 29.257 28.132-60.765-14.629z" />
<glyph unicode="&#xe908;" horiz-adv-x="1035" d="M130.532 824.967l40.51 38.259 852.958 85.521v-29.257l-893.468-94.523z" />
<glyph unicode="&#xe909;" horiz-adv-x="1035" d="M130.532 821.591c-1.125 0-2.251 1.125-3.376 2.251s0 3.376 1.125 3.376l40.51 38.259c0 0 1.125 1.125 2.251 1.125l852.958 85.521c1.125 0 2.251 0 2.251-1.125 1.125-1.125 1.125-1.125 1.125-2.251v-29.257c0-2.251-1.125-3.376-3.376-3.376l-893.468-94.523c0 0 0 0 0 0zM173.292 859.851l-32.633-30.382 879.965 93.398v22.505l-847.332-85.521z" />
<glyph unicode="&#xe90a;" horiz-adv-x="1035" d="M130.532 824.967l-42.76 18.004-76.519-96.774 65.266-45.011 54.013 123.78z" />
<glyph unicode="&#xe90b;" horiz-adv-x="1035" d="M76.519 697.811c-1.125 0-1.125 0-2.251 1.125l-65.266 45.011c-1.125 0-1.125 1.125-1.125 2.251s0 2.251 1.125 2.251l76.519 96.774c1.125 1.125 2.251 1.125 4.501 1.125l42.76-18.004c1.125 0 1.125-1.125 2.251-2.251 0-1.125 0-2.251 0-2.251l-54.013-123.78c-1.125-2.251-2.251-2.251-4.501-2.251 1.125 0 0 0 0 0zM15.754 746.198l58.514-40.51 50.637 117.029-37.134 15.754-72.018-92.273z" />
<glyph unicode="&#xe90c;" d="M137.366-7.805v691.824l559.454-571.941-559.454-119.883z" />
<glyph unicode="&#xe90d;" d="M137.366-11.551c-1.249 0-1.249 0-2.498 1.249s-1.249 1.249-1.249 2.498v691.824c0 1.249 1.249 2.498 2.498 3.746 1.249 0 2.498 0 3.746-1.249l559.454-571.941c1.249-1.249 1.249-2.498 1.249-3.746s-1.249-2.498-2.498-2.498l-560.702-119.883c0 0 0 0 0 0zM141.112 675.278v-678.088l548.215 117.385-548.215 560.702z" />
<glyph unicode="&#xe90e;" d="M37.463 43.395v741.776l99.902-101.151v-691.824l-99.902 51.2z" />
<glyph unicode="&#xe90f;" d="M137.366-11.551c0 0-1.249 0-1.249 0l-99.902 51.2c-1.249 1.249-2.498 2.498-2.498 3.746v741.776c0 1.249 1.249 2.498 2.498 3.746 1.249 0 2.498 0 3.746-1.249l99.902-101.151c1.249-1.249 1.249-1.249 1.249-2.498v-691.824c0-1.249-1.249-2.498-1.249-3.746-1.249 0-2.498 0-2.498 0zM41.21 45.893l92.41-47.454v684.332l-92.41 93.659v-730.537z" />
<glyph unicode="&#xe910;" d="M46.205 821.385l-33.717-11.239 684.332-698.068v49.951l-650.615 659.356z" />
<glyph unicode="&#xe911;" d="M696.82 108.332c-1.249 0-2.498 0-2.498 1.249l-684.332 698.068c-1.249 1.249-1.249 2.498-1.249 3.746s1.249 2.498 2.498 2.498l33.717 9.99c1.249 0 2.498 0 3.746-1.249l650.615-658.107c1.249-1.249 1.249-1.249 1.249-2.498v-49.951c0-1.249-1.249-2.498-2.498-3.746-1.249 0-1.249 0-1.249 0zM19.98 808.898l673.093-686.829v38.712l-648.117 655.61-24.976-7.493z" />
<glyph unicode="&#xe912;" d="M12.488 67.122v743.024l24.976-24.976v-741.776l-24.976 23.727z" />
<glyph unicode="&#xe913;" d="M37.463 39.649c-1.249 0-1.249 0-2.498 1.249l-24.976 22.478c-1.249 1.249-1.249 1.249-1.249 2.498v744.273c0 1.249 1.249 2.498 2.498 3.746 1.249 0 2.498 0 3.746-1.249l24.976-24.976c1.249-1.249 1.249-1.249 1.249-2.498v-741.776c0-1.249-1.249-2.498-2.498-3.746 0 1.249-1.249 0-1.249 0zM16.234 68.371l17.483-16.234v731.785l-17.483 17.483v-733.034z" />
<glyph unicode="&#xe914;" d="M1009.015 876.332v27.473l-889.132-93.659 24.976-24.976 864.156 91.161z" />
<glyph unicode="&#xe915;" d="M144.859 781.424c-1.249 0-2.498 0-2.498 1.249l-24.976 24.976c-1.249 1.249-1.249 2.498-1.249 3.746s1.249 2.498 3.746 2.498l889.132 93.659c1.249 0 2.498 0 2.498-1.249 1.249-1.249 1.249-1.249 1.249-2.498v-27.473c0-2.498-1.249-3.746-3.746-3.746l-864.156-91.161c0 0 0 0 0 0zM128.624 807.649l17.483-17.483 859.161 91.161v18.732l-876.644-92.41z" />
<glyph unicode="&#xe916;" d="M804.215 112.078l204.8 41.21v618.146l-766.751-84.917 561.951-574.439z" />
<glyph unicode="&#xe917;" d="M804.215 108.332c-1.249 0-2.498 0-2.498 1.249l-561.951 574.439c-1.249 1.249-1.249 2.498-1.249 3.746s1.249 2.498 2.498 2.498l766.751 84.917c1.249 0 2.498 0 2.498-1.249 1.249-1.249 1.249-1.249 1.249-2.498v-616.898c0-1.249-1.249-3.746-2.498-3.746l-204.8-42.459c0 0 0 0 0 0zM251.005 682.771l554.459-566.946 199.805 39.961v610.654l-754.263-83.668z" />
<glyph unicode="&#xe918;" d="M144.859 785.171l97.405-99.902 766.751 84.917v106.146l-864.156-91.161z" />
<glyph unicode="&#xe919;" d="M242.263 682.771c-1.249 0-2.498 0-2.498 1.249l-97.405 99.902c-1.249 1.249-1.249 2.498-1.249 3.746s1.249 2.498 3.746 2.498l864.156 91.161c1.249 0 2.498 0 2.498-1.249 1.249-1.249 1.249-1.249 1.249-2.498v-106.146c0-2.498-1.249-3.746-3.746-3.746l-766.751-84.917c0 0 0 0 0 0zM153.6 782.673l91.161-92.41 761.756 84.917v97.405l-852.917-89.912z" />
<glyph unicode="&#xe91a;" d="M194.673 703.437l824.826 103.525v-643.657l-824.826-196.923v737.055z" />
<glyph unicode="&#xe91b;" d="M194.673-36.993c-1.125 0-1.125 0-2.251 1.125s-1.125 1.125-1.125 2.251v737.055c0 2.251 1.125 3.376 3.376 3.376l824.826 103.525c1.125 0 2.251 0 2.251-1.125s1.125-1.125 1.125-2.251v-643.657c0-1.125-1.125-3.376-2.251-3.376l-825.952-196.923c0 0 0 0 0 0zM198.048 700.062v-729.178l818.075 194.673v636.905l-818.075-102.4z" />
<glyph unicode="&#xe91c;" d="M291.446 864.352l-41.635-39.385 769.688 92.273v28.132l-728.053-81.020z" />
<glyph unicode="&#xe91d;" d="M249.811 820.466c-1.125 0-2.251 1.125-3.376 2.251s0 3.376 1.125 3.376l41.635 39.385c0 0 1.125 1.125 2.251 1.125l726.927 82.145c1.125 0 2.251 0 2.251-1.125 1.125-1.125 1.125-1.125 1.125-2.251v-28.132c0-2.251-1.125-3.376-3.376-3.376l-768.563-93.398c0 0 0 0 0 0zM292.571 860.976l-33.758-31.508 756.185 91.147v21.38l-722.426-81.020z" />
<glyph unicode="&#xe91e;" d="M194.673 703.437l55.138 121.53 769.688 92.273v-110.277l-824.826-103.525z" />
<glyph unicode="&#xe91f;" d="M194.673 700.062c-1.125 0-2.251 0-2.251 1.125-1.125 1.125-1.125 2.251 0 3.376l55.138 121.53c0 1.125 1.125 2.251 2.251 2.251l769.688 92.273c1.125 0 2.251 0 2.251-1.125 1.125-1.125 1.125-1.125 1.125-2.251v-110.277c0-2.251-1.125-3.376-3.376-3.376l-824.826-103.525c0 0 0 0 0 0zM252.062 821.591l-51.763-113.653 815.824 102.4v102.4l-764.062-91.147z" />
<glyph unicode="&#xe920;" d="M137.284 140.8v41.635l-22.505-18.004 22.505-23.631z" />
<glyph unicode="&#xe921;" d="M137.284 137.424c-1.125 0-2.251 0-2.251 1.125l-22.505 24.756c-1.125 1.125-1.125 1.125-1.125 2.251s0 2.251 1.125 2.251l22.505 18.004c1.125 1.125 2.251 1.125 3.376 0 1.125 0 2.251-2.251 2.251-3.376v-41.635c0-1.125-1.125-2.251-2.251-3.376 0 0-1.125 0-1.125 0zM120.404 164.431l13.503-14.629v25.881l-13.503-11.253z" />
<glyph unicode="&#xe922;" d="M121.53 804.712l55.138 41.635v-158.664l-61.89-43.886v-234.057l48.387 34.884v-240.809l11.253 7.877v-52.888l-20.255-24.756-18.004 6.752v41.635l-22.505-18.004v-132.782l-48.387-84.396v735.93l56.264 121.53z" />
<glyph unicode="&#xe923;" d="M66.391-53.873c0 0 0 0 0 0-2.251 0-3.376 2.251-3.376 3.376v733.679c0 0 0 1.125 0 1.125l55.138 121.53c0 0 1.125 1.125 1.125 1.125l55.138 41.635c1.125 1.125 2.251 1.125 3.376 0 1.125 0 2.251-1.125 2.251-2.251v-158.664c0-1.125 0-2.251-1.125-2.251l-60.765-42.76v-225.055l42.76 31.508c1.125 1.125 2.251 1.125 3.376 0s2.251-2.251 2.251-3.376v-235.182l5.626 4.501c1.125 1.125 2.251 1.125 3.376 0s2.251-2.251 2.251-3.376v-52.888c0-1.125 0-1.125-1.125-2.251l-19.13-24.756c-1.125-1.125-2.251-1.125-3.376-1.125l-18.004 6.752c-1.125 0-2.251 2.251-2.251 3.376v34.884l-15.754-12.378v-130.532c0-1.125 0-1.125 0-2.251l-48.387-83.27c-1.125-1.125-2.251-1.125-3.376-1.125zM69.767 682.057v-721.301l41.635 72.018v132.782c0 1.125 0 2.251 1.125 2.251l22.505 18.004c1.125 1.125 2.251 1.125 3.376 0 1.125 0 2.251-2.251 2.251-3.376v-39.385l13.503-4.501 18.004 21.38v45.011l-5.626-4.501c-1.125-1.125-2.251-1.125-3.376 0s-2.251 2.251-2.251 3.376v235.182l-42.76-31.508c-1.125-1.125-2.251-1.125-3.376 0-2.251 0-3.376 1.125-3.376 2.251v234.057c0 1.125 0 2.251 1.125 2.251l60.765 42.76v150.787l-48.387-37.134-55.138-120.404z" />
<glyph unicode="&#xe924;" d="M163.165 444.624l-48.387-36.009v47.262l48.387-11.253z" />
<glyph unicode="&#xe925;" d="M114.778 405.24c0 0-1.125 0-1.125 0-1.125 1.125-2.251 2.251-2.251 3.376v47.262c0 1.125 0 2.251 1.125 2.251 1.125 1.125 2.251 1.125 3.376 1.125l48.387-11.253c1.125 0 2.251-1.125 2.251-2.251s0-2.251-1.125-3.376l-48.387-36.009c0-1.125-1.125-1.125-2.251-1.125zM118.154 451.376v-36.009l37.134 28.132-37.134 7.877z" />
<glyph unicode="&#xe926;" d="M176.668 846.347l-99.024-22.505 43.886-20.255 55.138 42.76z" />
<glyph unicode="&#xe927;" d="M121.53 801.336c0 0-1.125 0-1.125 0l-43.886 20.255c-1.125 1.125-2.251 2.251-2.251 3.376s1.125 2.251 2.251 3.376l99.024 22.505c1.125 0 3.376 0 3.376-2.251 1.125-1.125 0-3.376-1.125-4.501l-54.013-42.76c-1.125 0-1.125 0-2.251 0zM87.771 822.716l32.633-14.629 41.635 31.508-74.268-16.879z" />
<glyph unicode="&#xe928;" d="M121.53 804.712l-43.886 20.255-75.393-96.774 64.141-43.886 55.138 120.404z" />
<glyph unicode="&#xe929;" d="M66.391 679.807c-1.125 0-1.125 0-2.251 1.125l-64.141 43.886c-1.125 0-1.125 1.125-1.125 2.251s0 2.251 1.125 2.251l75.393 96.774c1.125 1.125 2.251 1.125 4.501 1.125l43.886-20.255c1.125 0 1.125-1.125 2.251-2.251s0-2.251 0-2.251l-56.264-120.404c0-1.125-1.125-2.251-3.376-2.251 1.125 0 0 0 0 0zM7.877 728.193l57.389-39.385 51.763 113.653-38.259 18.004-70.892-92.273z" />
<glyph unicode="&#xe92a;" d="M2.251 727.068l64.141-43.886v-733.679l-64.141 103.525v674.040z" />
<glyph unicode="&#xe92b;" d="M66.391-53.873c-1.125 0-2.251 1.125-3.376 1.125l-63.015 103.525c0 0 0 1.125 0 2.251v674.040c0 1.125 1.125 2.251 2.251 3.376s2.251 0 3.376 0l64.141-43.886c1.125-1.125 1.125-1.125 1.125-2.251v-733.679c-1.125-3.376-2.251-4.501-4.501-4.501 1.125 0 0 0 0 0zM5.626 54.154l57.389-92.273v720.176l-57.389 39.385v-667.288z" />
<glyph unicode="&#xe92c;" d="M174.418 211.692l-11.253 2.251v-11.253l11.253 9.002z" />
<glyph unicode="&#xe92d;" d="M163.165 199.314c0 0-1.125 0-1.125 0-1.125 0-2.251 2.251-2.251 3.376v11.253c0 1.125 0 2.251 1.125 2.251 1.125 1.125 2.251 1.125 2.251 1.125l11.253-2.251c1.125 0 2.251-1.125 2.251-2.251s0-2.251-1.125-3.376l-11.253-9.002c1.125-1.125 0-1.125-1.125-1.125z" />
<glyph unicode="&#xe92e;" d="M161.817-51.358v758.519l613.136-627.042-613.136-131.477z" />
<glyph unicode="&#xe92f;" d="M161.817-55.151c-1.264 0-1.264 0-2.528 1.264s-1.264 1.264-1.264 2.528v758.519c0 1.264 1.264 2.528 2.528 3.793 1.264 0 2.528 0 3.793-1.264l613.136-627.042c1.264-1.264 1.264-2.528 1.264-3.793s-1.264-2.528-2.528-2.528l-614.4-131.477c0 0 0 0 0 0zM165.61 697.047v-744.612l601.758 128.948-601.758 615.664z" />
<glyph unicode="&#xe930;" d="M53.096 5.531v812.879l108.721-111.249v-758.519l-108.721 56.889z" />
<glyph unicode="&#xe931;" d="M161.817-55.151c0 0-1.264 0-1.264 0l-109.985 56.889c-1.264 1.264-2.528 2.528-2.528 3.793v812.879c1.264 1.264 1.264 2.528 2.528 2.528s2.528 0 3.793-1.264l108.721-111.249c1.264-1.264 1.264-1.264 1.264-2.528v-758.519c0-1.264-1.264-2.528-1.264-3.793 0 1.264-1.264 1.264-1.264 1.264zM56.889 8.059l101.136-53.096v749.669l-101.136 103.664v-800.237z" />
<glyph unicode="&#xe932;" d="M25.284 30.815v814.143l27.812-27.812v-812.879l-27.812 26.548z" />
<glyph unicode="&#xe933;" d="M53.096 1.738c-1.264 0-1.264 0-2.528 1.264l-27.812 25.284c-1.264 1.264-1.264 1.264-1.264 2.528v814.143c0 1.264 1.264 2.528 2.528 3.793 1.264 0 2.528 0 3.793-1.264l27.812-26.548c1.264-1.264 1.264-1.264 1.264-2.528v-812.879c0-1.264-1.264-2.528-2.528-3.793-1.264 0-1.264 0-1.264 0zM29.077 32.079l20.227-17.699v801.501l-20.227 20.227v-804.030z" />
<glyph unicode="&#xe934;" d="M998.716 918.281v29.077l-973.432-102.4 27.812-27.812 945.62 101.136z" />
<glyph unicode="&#xe935;" d="M53.096 814.617c-1.264 0-2.528 0-2.528 1.264l-27.812 26.548c-1.264 1.264-1.264 2.528-1.264 3.793s2.528 2.528 3.793 2.528l973.432 102.4c1.264 0 2.528 0 2.528-1.264 1.264-1.264 1.264-1.264 1.264-2.528v-29.077c0-2.528-1.264-3.793-3.793-3.793l-945.62-99.872c0 0 0 0 0 0zM34.133 842.43l20.227-20.227 941.827 99.872v21.491l-962.054-101.136z" />
<glyph unicode="&#xe936;" d="M773.689 80.119l225.027 45.511v676.346l-839.427-93.551 614.4-628.306z" />
<glyph unicode="&#xe937;" d="M774.953 76.326c-1.264 0-2.528 0-2.528 1.264l-615.664 628.306c-1.264 1.264-1.264 2.528-1.264 3.793s1.264 2.528 2.528 2.528l840.691 93.551c1.264 0 2.528 0 2.528-1.264 1.264-1.264 1.264-1.264 1.264-2.528v-676.346c0-1.264-1.264-3.793-2.528-3.793l-225.027-45.511c0 0 0 0 0 0zM166.874 705.896l608.079-621.985 219.97 44.247v670.025l-828.049-92.286z" />
<glyph unicode="&#xe938;" d="M53.096 818.41l106.193-108.721 839.427 92.286v116.306l-945.62-99.872z" />
<glyph unicode="&#xe939;" d="M159.289 704.632c-1.264 0-2.528 0-2.528 1.264l-106.193 108.721c-1.264 1.264-1.264 2.528-1.264 3.793s1.264 2.528 3.793 2.528l945.62 101.136c1.264 0 2.528 0 2.528-1.264 1.264-1.264 1.264-1.264 1.264-2.528v-116.306c0-2.528-1.264-3.793-3.793-3.793l-839.427-93.551c0 0 0 0 0 0zM60.681 814.617l99.872-102.4 834.37 92.286v108.721l-934.242-98.607z" />
</font>
</defs>
</svg>
