<svg width="23" height="23" viewBox="0 0 23 23" fill="none" xmlns="http://www.w3.org/2000/svg">
<g clip-path="url(#clip0_308_2915)">
<path d="M11.5 21.0833C15.4458 21.0833 18.6874 17.9563 18.6874 13.9428C18.6874 12.9575 18.6373 11.9013 18.0912 10.2597C17.545 8.61816 17.435 8.40627 16.8575 7.3925C16.6108 9.4613 15.2907 10.3235 14.9553 10.5812C14.9553 10.3131 14.1567 7.34841 12.9459 5.57454C11.7573 3.83329 10.1408 2.69092 9.19296 1.91663C9.19296 3.38756 8.77924 5.57454 8.18675 6.68884C7.59426 7.80314 7.483 7.84373 6.74293 8.67297C6.0029 9.50222 5.66322 9.75833 5.04438 10.7645C4.42556 11.7707 4.3125 13.1108 4.3125 14.0961C4.3125 18.1097 7.55421 21.0833 11.5 21.0833Z" stroke="#666" stroke-width="1.7" stroke-linejoin="round"/>
</g>
<defs>
<clipPath id="clip0_308_2915">
<rect width="23" height="23" fill="white"/>
</clipPath>
</defs>
</svg>
