<svg width="49" height="60" viewBox="0 0 49 60" fill="none" xmlns="http://www.w3.org/2000/svg">
<path d="M24.5 3.38025C22.3767 3.38025 20.6889 5.06851 20.6889 7.19246C20.6889 9.3164 22.3767 11.0047 24.5 11.0047C26.6233 11.0047 28.3111 9.3164 28.3111 7.19246C28.3111 5.06851 26.6233 3.38025 24.5 3.38025ZM24.5 8.82626C23.5744 8.82626 22.8667 8.11828 22.8667 7.19246C22.8667 6.26663 23.5744 5.55865 24.5 5.55865C25.4256 5.55865 26.1333 6.26663 26.1333 7.19246C26.1333 8.11828 25.4256 8.82626 24.5 8.82626ZM24.5 44.7699C22.3767 44.7699 20.6889 46.4582 20.6889 48.5821C20.6889 50.7061 22.3767 52.3943 24.5 52.3943C26.6233 52.3943 28.3111 50.7061 28.3111 48.5821C28.3111 46.4582 26.6233 44.7699 24.5 44.7699ZM24.5 50.2159C23.5744 50.2159 22.8667 49.5079 22.8667 48.5821C22.8667 47.6563 23.5744 46.9483 24.5 46.9483C25.4256 46.9483 26.1333 47.6563 26.1333 48.5821C26.1333 49.5079 25.4256 50.2159 24.5 50.2159ZM45.1889 24.0751C43.0656 24.0751 41.3778 25.7633 41.3778 27.8873C41.3778 30.0112 43.0656 31.6995 45.1889 31.6995C47.3122 31.6995 49 30.0112 49 27.8873C49 25.7633 47.3122 24.0751 45.1889 24.0751ZM45.1889 29.5211C44.2633 29.5211 43.5556 28.8131 43.5556 27.8873C43.5556 26.9615 44.2633 26.2535 45.1889 26.2535C46.1144 26.2535 46.8222 26.9615 46.8222 27.8873C46.8222 28.8131 46.1144 29.5211 45.1889 29.5211ZM7.62222 27.8873C7.62222 25.7633 5.93444 24.0751 3.81111 24.0751C1.68778 24.0751 0 25.7633 0 27.8873C0 30.0112 1.68778 31.6995 3.81111 31.6995C5.93444 31.6995 7.62222 30.0112 7.62222 27.8873ZM2.17778 27.8873C2.17778 26.9615 2.88556 26.2535 3.81111 26.2535C4.73667 26.2535 5.44444 26.9615 5.44444 27.8873C5.44444 28.8131 4.73667 29.5211 3.81111 29.5211C2.88556 29.5211 2.17778 28.8131 2.17778 27.8873ZM15.7889 42.3737C14.9178 41.8291 13.8833 41.7202 12.9033 41.938C11.9233 42.2103 11.1067 42.8094 10.5622 43.6807C9.47333 45.4779 10.0722 47.8197 11.8689 48.9089C12.4678 49.2901 13.1756 49.4535 13.8289 49.4535C15.1356 49.4535 16.3878 48.8 17.0956 47.6018C17.64 46.7305 17.7489 45.6957 17.5311 44.7155C17.2589 43.7352 16.66 42.8638 15.7889 42.3737ZM15.2444 46.4582C14.7544 47.2206 13.7744 47.4929 13.0122 47.0028C12.25 46.5126 11.9778 45.5324 12.4678 44.7699C12.6856 44.3887 13.0667 44.1164 13.4478 44.0075C13.5567 43.953 13.72 43.953 13.8289 43.953C14.1011 43.953 14.4278 44.0075 14.6456 44.1709C15.0267 44.3887 15.2989 44.7699 15.4078 45.1511C15.5167 45.6413 15.4622 46.077 15.2444 46.4582ZM44.2089 35.2939C43.3378 34.7493 42.3033 34.6403 41.3233 34.8582C40.3433 35.1305 39.5267 35.7295 38.9822 36.6009C38.4378 37.4723 38.3289 38.507 38.5467 39.4873C38.8189 40.4676 39.4178 41.2845 40.2889 41.8291C40.8878 42.2103 41.5956 42.3737 42.2489 42.3737C43.5556 42.3737 44.8078 41.7201 45.5156 40.522C46.06 39.6507 46.1689 38.6159 45.9511 37.6356C45.6789 36.6554 45.08 35.8385 44.2089 35.2939ZM43.61 39.3784C43.12 40.1408 42.14 40.4131 41.3778 39.923C40.9967 39.7051 40.7244 39.3239 40.6156 38.9427C40.5067 38.507 40.5611 38.0713 40.7789 37.6901C40.9967 37.3089 41.3778 37.0366 41.7589 36.9277C41.8678 36.8732 42.0311 36.8732 42.14 36.8732C42.4122 36.8732 42.7389 36.9277 42.9567 37.091C43.8278 37.6356 44.1 38.6159 43.61 39.3784ZM4.79111 20.4807C5.39 20.8619 6.09778 21.0253 6.75111 21.0253C8.05778 21.0253 9.31 20.3718 10.0178 19.1737C10.5622 18.3023 10.6711 17.2676 10.4533 16.2873C10.2356 15.307 9.58222 14.4901 8.71111 13.9455C6.91444 12.8563 4.57333 13.4554 3.48444 15.2525C2.45 17.0497 2.99444 19.3915 4.79111 20.4807ZM5.39 16.3962C5.71667 15.9061 6.26111 15.5793 6.80556 15.5793C7.07778 15.5793 7.40444 15.6338 7.62222 15.7971C8.00333 16.015 8.27556 16.3962 8.38444 16.7774C8.49333 17.2131 8.43889 17.6488 8.22111 18.03C7.73111 18.7925 6.75111 19.0648 5.98889 18.5746C5.17222 18.1389 4.9 17.1587 5.39 16.3962ZM41.2689 20.8619C41.5956 20.9164 41.8678 20.9709 42.1944 20.9709C42.9022 20.9709 43.5556 20.8075 44.1544 20.4263C45.9511 19.3371 46.55 16.9953 45.4611 15.1981C44.9167 14.3267 44.1 13.7277 43.12 13.4554C42.14 13.2375 41.1056 13.3464 40.2344 13.891C38.4378 14.9802 37.8389 17.322 38.9278 19.1192C39.4722 19.9906 40.2889 20.6441 41.2689 20.8619ZM41.3233 15.7427C41.5956 15.5793 41.8678 15.5248 42.14 15.5248C42.2489 15.5248 42.4122 15.5248 42.5211 15.5793C42.9567 15.6882 43.2833 15.9605 43.5556 16.3418C44.0456 17.1042 43.7733 18.1389 43.0111 18.5746C42.63 18.7925 42.1944 18.8469 41.7589 18.738C41.3233 18.6291 40.9967 18.3568 40.7244 17.9756C40.3433 17.2676 40.5611 16.2328 41.3233 15.7427ZM10.0722 36.6554C9.52778 35.784 8.71111 35.1849 7.73111 34.9126C6.75111 34.6948 5.71667 34.8037 4.84556 35.3483C3.97444 35.8929 3.37556 36.7098 3.10333 37.6901C2.88556 38.6704 2.99444 39.7051 3.53889 40.5765C4.08333 41.4479 4.9 42.0469 5.88 42.3192C6.20667 42.3737 6.47889 42.4281 6.80556 42.4281C7.51333 42.4281 8.16667 42.2648 8.76556 41.8835C9.63667 41.3389 10.2356 40.522 10.5078 39.5417C10.7256 38.507 10.6167 37.5267 10.0722 36.6554ZM8.38444 38.9972C8.27556 39.4328 8.00333 39.7596 7.62222 40.0319C7.24111 40.2497 6.80556 40.3042 6.37 40.1953C5.93444 40.0863 5.60778 39.814 5.33556 39.4328C5.11778 39.0516 5.06333 38.6159 5.17222 38.1802C5.28111 37.7446 5.55333 37.4178 5.93444 37.1455C6.20667 36.9821 6.47889 36.9277 6.75111 36.9277C6.86 36.9277 7.02333 36.9277 7.13222 36.9821C7.56778 37.091 7.89444 37.3633 8.16667 37.7446C8.43889 38.1258 8.49333 38.5615 8.38444 38.9972ZM33.2656 42.3192C32.3944 42.8638 31.7956 43.6807 31.5233 44.661C31.3056 45.6413 31.4144 46.676 31.9589 47.5474C32.5033 48.4187 33.32 49.0178 34.3 49.2901C34.6267 49.3446 34.8989 49.399 35.2256 49.399C35.9333 49.399 36.5867 49.2356 37.1856 48.8544C38.0567 48.3098 38.6556 47.4929 38.9278 46.5126C39.1456 45.5324 39.0367 44.4976 38.4922 43.6263C37.4033 41.8291 35.0622 41.23 33.2656 42.3192ZM36.8044 45.968C36.6956 46.4037 36.4233 46.7305 36.0422 47.0028C35.6611 47.2206 35.2256 47.2751 34.79 47.1662C34.3544 47.0572 34.0278 46.7849 33.7556 46.4037C33.5378 46.0225 33.4833 45.5868 33.5922 45.1511C33.7011 44.7155 33.9733 44.3887 34.3544 44.1164C34.7356 43.8986 35.1711 43.8441 35.6067 43.953C36.0422 44.0619 36.3689 44.3342 36.6411 44.7155C36.8589 45.0967 36.9133 45.5324 36.8044 45.968ZM12.8489 13.891C13.1756 13.9455 13.4478 14 13.7744 14C14.4822 14 15.1356 13.8366 15.7344 13.4554C16.6056 12.9108 17.2044 12.0939 17.4767 11.1136C17.6944 10.1333 17.5856 9.09856 17.0411 8.2272C15.9522 6.43001 13.6111 5.83095 11.8144 6.92015C10.9433 7.46476 10.3444 8.28166 10.0722 9.26194C9.8 10.2422 9.96333 11.277 10.5078 12.1483C11.0522 13.0197 11.8689 13.6732 12.8489 13.891ZM12.1956 9.80654C12.3044 9.37086 12.5767 9.0441 12.9578 8.7718C13.23 8.60842 13.5022 8.55396 13.7744 8.55396C14.3189 8.55396 14.8633 8.82626 15.19 9.3164C15.4078 9.69762 15.4622 10.1333 15.3533 10.569C15.2444 11.0047 14.9722 11.3314 14.5911 11.6037C13.8289 12.0939 12.7944 11.8216 12.3589 11.0591C12.1411 10.6779 12.0867 10.2422 12.1956 9.80654Z" fill="#D9D9D9"/>
</svg>
