<svg width="20" height="21" viewBox="0 0 20 21" fill="none" xmlns="http://www.w3.org/2000/svg">
<path d="M18.305 15.6455C18.5588 15.6455 18.8126 15.506 18.9279 15.2503C19.0433 15.0178 19.0202 14.7388 18.8587 14.5296L17.8206 13.1348C17.3361 12.4839 16.9209 11.0659 16.9209 10.0662V7.97403C16.9209 4.13831 13.8065 1 10 1C6.19353 1 3.07914 4.13831 3.07914 7.97403V10.0662C3.07914 11.0659 2.66389 12.4839 2.17943 13.1348L1.1413 14.5296C0.979814 14.7388 0.956745 15.0178 1.07209 15.2503C1.18744 15.506 1.4412 15.6455 1.69497 15.6455H18.305ZM3.28677 13.9717C3.95578 13.0883 4.46331 11.3681 4.46331 10.0662V7.97403C4.46331 4.90546 6.95482 2.39481 10 2.39481C13.0452 2.39481 15.5367 4.90546 15.5367 7.97403V10.0662C15.5367 11.3681 16.0442 13.0883 16.7132 13.9717L16.9209 14.2507H3.07914L3.28677 13.9717Z" fill="#666"/>
<path d="M12.7453 17.3034C12.4223 17.1174 11.984 17.2336 11.7994 17.5591C11.4303 18.21 10.7382 18.6052 10 18.6052C9.26178 18.6052 8.56969 18.21 8.20058 17.5591C8.01602 17.2336 7.5777 17.1174 7.25473 17.3034C6.93175 17.4893 6.8164 17.931 7.00096 18.2565C7.62384 19.3258 8.77731 20 10 20C11.2227 20 12.3762 19.3258 12.999 18.2565C13.1836 17.931 13.0682 17.4893 12.7453 17.3034Z" fill="#666"/>
<path d="M18.305 15.6455C18.5588 15.6455 18.8126 15.506 18.9279 15.2503C19.0433 15.0178 19.0202 14.7388 18.8587 14.5296L17.8206 13.1348C17.3361 12.4839 16.9209 11.0659 16.9209 10.0662V7.97403C16.9209 4.13831 13.8065 1 10 1C6.19353 1 3.07914 4.13831 3.07914 7.97403V10.0662C3.07914 11.0659 2.66389 12.4839 2.17943 13.1348L1.1413 14.5296C0.979814 14.7388 0.956745 15.0178 1.07209 15.2503C1.18744 15.506 1.4412 15.6455 1.69497 15.6455H18.305ZM3.28677 13.9717C3.95578 13.0883 4.46331 11.3681 4.46331 10.0662V7.97403C4.46331 4.90546 6.95482 2.39481 10 2.39481C13.0452 2.39481 15.5367 4.90546 15.5367 7.97403V10.0662C15.5367 11.3681 16.0442 13.0883 16.7132 13.9717L16.9209 14.2507H3.07914L3.28677 13.9717Z" stroke="#666" stroke-width="0.4"/>
<path d="M12.7453 17.3034C12.4223 17.1174 11.984 17.2336 11.7994 17.5591C11.4303 18.21 10.7382 18.6052 10 18.6052C9.26178 18.6052 8.56969 18.21 8.20058 17.5591C8.01602 17.2336 7.5777 17.1174 7.25473 17.3034C6.93175 17.4893 6.8164 17.931 7.00096 18.2565C7.62384 19.3258 8.77731 20 10 20C11.2227 20 12.3762 19.3258 12.999 18.2565C13.1836 17.931 13.0682 17.4893 12.7453 17.3034Z" stroke="#666" stroke-width="0.4"/>
</svg>
