<?xml version="1.0" standalone="no"?>
<!DOCTYPE svg PUBLIC "-//W3C//DTD SVG 1.1//EN" "http://www.w3.org/Graphics/SVG/1.1/DTD/svg11.dtd" >
<svg xmlns="http://www.w3.org/2000/svg">
<metadata>
<json>
<![CDATA[
{
	"fontFamily": "icomoon",
	"majorVersion": 1,
	"minorVersion": 0,
	"version": "Version 1.0",
	"fontId": "icomoon",
	"psName": "icomoon",
	"subFamily": "Regular",
	"fullName": "icomoon",
	"description": "Font generated by IcoMoon."
}
]]>
</json>
</metadata>
<defs>
<font id="icomoon" horiz-adv-x="1024">
<font-face units-per-em="1024" ascent="960" descent="-64" />
<missing-glyph horiz-adv-x="1024" />
<glyph unicode="&#x20;" horiz-adv-x="512" d="" />
<glyph unicode="&#xe901;" glyph-name="cornice-hidden" data-tags="Карниз, натяжной потолок" d="M421.888 734.72h3.072l-116.736 163.84h-3.072zM798.72 206.336v-4.096l144.384-204.8h3.072zM455.68 734.72h3.072l-115.712 163.84h-3.072zM962.56 23.040l-163.84 232.448v-5.12l163.84-231.424zM490.496 734.72h3.072l-115.712 163.84h-3.072zM798.72 303.616v-4.096l163.84-231.424v4.096zM798.72 352.768v-5.12l163.84-231.424v4.096zM524.288 734.72h4.096l-116.736 163.84h-3.072zM559.104 734.72h3.072l-115.712 163.84h-3.072zM798.72 400.896v-4.096l163.84-231.424v4.096zM798.72 450.048v-5.12l163.84-231.424v5.12zM593.92 734.72h3.072l-115.712 163.84h-4.096zM697.344 734.72h3.072l-116.736 163.84h-3.072zM798.72 595.456v-4.096l163.84-231.424v4.096zM798.72 498.176v-4.096l163.84-231.424v4.096zM627.712 734.72h3.072l-115.712 163.84h-3.072zM798.72 692.736v-4.096l163.84-231.424v4.096zM653.312 898.56h-3.072l115.712-163.84h3.072zM721.92 898.56h-3.072l243.712-344.064v4.096zM798.72 547.328v-5.12l163.84-231.424v5.12zM662.528 734.72h3.072l-115.712 163.84h-3.072zM798.72 644.608v-4.096l163.84-231.424v4.096zM731.136 734.72h3.072l-115.712 163.84h-3.072zM687.104 898.56h-3.072l278.528-392.192v4.096zM756.736 898.56h-3.072l208.896-294.912v4.096zM790.528 898.56h-3.072l175.104-246.784v4.096zM825.344 898.56h-3.072l140.288-197.632v4.096zM859.136 898.56h-3.072l106.496-149.504v4.096zM893.952 898.56h-3.072l71.68-101.376v5.12zM928.768 898.56h-3.072l36.864-52.224v4.096zM962.56 895.488v3.072h-3.072zM61.44 762.368v-5.12l16.384-22.528h3.072zM61.44 810.496v-4.096l50.176-71.68h3.072zM61.44 859.648v-5.12l84.992-119.808h3.072zM67.584 898.56h-3.072l115.712-163.84h4.096zM102.4 898.56h-3.072l115.712-163.84h3.072zM171.008 898.56h-3.072l115.712-163.84h3.072zM808.96-2.56l-10.24 14.336v-4.096l7.168-10.24zM137.216 898.56h-4.096l116.736-163.84h3.072zM798.72 60.928v-4.096l40.96-59.392h4.096zM318.464 734.72h3.072l-115.712 163.84h-3.072zM798.72 109.056v-4.096l75.776-107.52h3.072zM353.28 734.72h3.072l-116.736 163.84h-3.072zM387.072 734.72h3.072l-115.712 163.84h-3.072zM798.72 157.184v-4.096l109.568-155.648h4.096zM952.32 888.32v-880.64h-143.36v737.28h-737.28v143.36h880.64zM962.56 898.56h-901.12v-163.84h737.28v-737.28h163.84v901.12zM798.72 642.56h-737.28v-10.24h737.28v10.24zM184.32 611.84l1.024-63.488c0 0 5.12-17.408 16.384-17.408 3.072 0 7.168 0 10.24 0 5.12 0 9.216-7.168 9.216-7.168s48.128-87.040 103.424-94.208c16.384-2.048 25.6-6.144 25.6-24.576 0-3.072 1.024-5.12 5.12-4.096 25.6 6.144 51.2 8.192 77.824 4.096 47.104-6.144 84.992-26.624 110.592-66.56 29.696-47.104 31.744-98.304 23.552-151.552-1.024-6.144-1.024-9.216 6.144-10.24 9.216-1.024 13.312-6.144 14.336-15.36 9.216-55.296 34.816-99.328 90.112-119.808 2.048-1.024 4.096-2.048 6.144-3.072 9.216-2.048 14.336-4.096 8.192-14.336s6.144-27.648 6.144-27.648h79.872v228.352l-390.144 387.072h-203.776z" />
<glyph unicode="&#xe903;" glyph-name="cornice-light" data-tags="Карниз, подсветка" d="M798.72 206.336v-5.12l144.384-203.776h3.072zM421.888 734.72h3.072l-116.736 163.84h-3.072zM962.56 23.040l-163.84 231.424v-4.096l163.84-231.424zM455.68 734.72h3.072l-115.712 163.84h-3.072zM490.496 734.72h3.072l-115.712 163.84h-3.072zM798.72 303.616v-5.12l163.84-231.424v5.12zM798.72 351.744v-4.096l163.84-231.424v4.096zM524.288 734.72h4.096l-116.736 163.84h-3.072zM559.104 734.72h3.072l-115.712 163.84h-3.072zM798.72 400.896v-5.12l163.84-231.424v5.12zM798.72 449.024v-4.096l163.84-231.424v4.096zM593.92 734.72h3.072l-115.712 163.84h-4.096zM798.72 595.456v-4.096l163.84-232.448v5.12zM697.344 734.72h3.072l-116.736 163.84h-3.072zM627.712 734.72h3.072l-115.712 163.84h-3.072zM798.72 498.176v-4.096l163.84-232.448v5.12zM653.312 898.56h-3.072l115.712-163.84h3.072zM798.72 692.736v-4.096l163.84-231.424v4.096zM721.92 898.56h-3.072l243.712-344.064v4.096zM662.528 734.72h3.072l-115.712 163.84h-3.072zM798.72 546.304v-4.096l163.84-231.424v4.096zM798.72 644.608v-5.12l163.84-231.424v5.12zM731.136 734.72h3.072l-115.712 163.84h-3.072zM687.104 898.56h-3.072l278.528-393.216v5.12zM756.736 898.56h-3.072l208.896-295.936v5.12zM790.528 898.56h-3.072l175.104-246.784v4.096zM825.344 898.56h-3.072l140.288-198.656v5.12zM859.136 898.56h-3.072l106.496-149.504v4.096zM893.952 898.56h-3.072l71.68-101.376v5.12zM928.768 898.56h-3.072l36.864-52.224v4.096zM962.56 894.464v4.096h-3.072zM61.44 761.344v-4.096l16.384-22.528h3.072zM61.44 810.496v-5.12l50.176-70.656h3.072zM61.44 858.624v-4.096l84.992-119.808h3.072zM67.584 898.56h-3.072l115.712-163.84h4.096zM102.4 898.56h-3.072l115.712-163.84h3.072zM808.96-2.56l-10.24 14.336v-4.096l7.168-10.24zM171.008 898.56h-3.072l115.712-163.84h3.072zM137.216 898.56h-4.096l116.736-163.84h3.072zM798.72 60.928v-5.12l40.96-58.368h4.096zM318.464 734.72h3.072l-115.712 163.84h-3.072zM353.28 734.72h3.072l-116.736 163.84h-3.072zM798.72 109.056v-4.096l75.776-107.52h3.072zM387.072 734.72h3.072l-115.712 163.84h-3.072zM798.72 157.184v-4.096l109.568-155.648h4.096zM952.32 888.32v-880.64h-143.36v737.28h-737.28v143.36h880.64zM962.56 898.56h-901.12v-163.84h737.28v-737.28h163.84v901.12zM184.32 611.84l1.024-63.488c0 0 5.12-17.408 16.384-17.408 3.072 0 7.168 0 10.24 0 5.12 0 9.216-7.168 9.216-7.168s48.128-87.040 103.424-94.208c16.384-2.048 25.6-6.144 25.6-24.576 0-3.072 1.024-5.12 5.12-4.096 25.6 6.144 51.2 8.192 77.824 4.096 47.104-6.144 84.992-26.624 110.592-66.56 29.696-46.080 31.744-98.304 23.552-151.552-1.024-6.144-1.024-9.216 6.144-10.24 9.216-1.024 13.312-6.144 14.336-15.36 9.216-55.296 34.816-99.328 90.112-119.808 2.048-1.024 4.096-2.048 6.144-3.072 9.216-2.048 14.336-4.096 8.192-14.336s6.144-27.648 6.144-27.648h79.872v227.328l-390.144 388.096h-203.776zM574.464 591.36c0-2.048-1.024-5.12 0-6.144 0-1.024 1.024-2.048 3.072-2.048s4.096-1.024 6.144-1.024c5.12 0 36.864-2.048 43.008-3.072 6.144 0 12.288-1.024 18.432-2.048 0 2.048 0 1.024 0 3.072s1.024 6.144 1.024 7.168c0 1.024-1.024 2.048-5.12 2.048-1.024 0-2.048 0-4.096 0-6.144 0-12.288 1.024-19.456 2.048-5.12 0-36.864 2.048-43.008 3.072 0 0 0-2.048 0-3.072zM654.336 622.080c-1.024 0-2.048 1.024-4.096 1.024-6.144 2.048-12.288 4.096-18.432 6.144-5.12 2.048-38.912 11.264-44.032 13.312 0-1.024-1.024-2.048-1.024-3.072-1.024-2.048-2.048-4.096-2.048-6.144 0-1.024 0-2.048 2.048-3.072s4.096-2.048 5.12-2.048c5.12-2.048 38.912-11.264 44.032-13.312 6.144-2.048 12.288-4.096 18.432-6.144 0 2.048 0 1.024 1.024 3.072s3.072 5.12 3.072 6.144c0 2.048 0 3.072-4.096 4.096zM658.432 514.56c-5.12-3.072-11.264-5.12-16.384-8.192-5.12-2.048-27.648-15.36-32.768-18.432 0-1.024 1.024-2.048 2.048-3.072 1.024-2.048 2.048-4.096 4.096-5.12 1.024-1.024 2.048-1.024 4.096 0 2.048 0 21.504 12.288 23.552 13.312 5.12 2.048 10.24 5.12 14.336 7.168 5.12 3.072 11.264 5.12 16.384 8.192-1.024 2.048-1.024 1.024-2.048 2.048-1.024 2.048-3.072 5.12-4.096 6.144s-2.048 1.024-5.12-1.024c-1.024 0-3.072-1.024-4.096-1.024zM651.264 542.208c0 2.048 0 6.144 0 7.168s-1.024 2.048-5.12 1.024c-1.024 0-2.048 0-4.096 0-6.144-1.024-12.288-2.048-18.432-2.048-5.12-1.024-33.792-4.096-39.936-5.12 0-1.024 0-2.048 0-3.072 0-2.048 0-5.12 1.024-6.144 0-1.024 2.048-2.048 3.072-2.048 2.048 0 4.096 1.024 6.144 1.024 5.12 1.024 33.792 4.096 39.936 5.12s12.288 2.048 18.432 2.048c-1.024 1.024-1.024 0-1.024 2.048zM711.68 528.896c3.072 2.048 6.144 2.048 8.192 3.072s4.096 2.048 6.144 3.072c3.072 1.024 6.144 2.048 9.216 3.072 8.192 3.072 16.384 7.168 25.6 10.24 5.12 2.048 11.264 5.12 17.408 7.168v43.008c-3.072 0-6.144 1.024-9.216 1.024-6.144 1.024-13.312 2.048-19.456 3.072-9.216 1.024-18.432 3.072-27.648 4.096-4.096 0-7.168 1.024-10.24 2.048-3.072 0-5.12 1.024-7.168 1.024s-4.096 1.024-6.144 1.024c-13.312 3.072-25.6-3.072-30.72-14.336-4.096-8.192-6.144-20.48-3.072-32.768 1.024-8.192 5.12-17.408 11.264-24.576 8.192-10.24 20.48-16.384 35.84-10.24z" />
<glyph unicode="&#xe905;" glyph-name="cornice-standart" data-tags="Карниз, стандарт" d="M798.72 206.336v-5.12l144.384-203.776h3.072zM421.888 734.72h3.072l-116.736 163.84h-3.072zM962.56 23.040l-163.84 231.424v-4.096l163.84-231.424zM455.68 734.72h3.072l-115.712 163.84h-3.072zM798.72 303.616v-5.12l163.84-231.424v5.12zM490.496 734.72h3.072l-115.712 163.84h-3.072zM524.288 734.72h4.096l-116.736 163.84h-3.072zM798.72 351.744v-4.096l163.84-231.424v4.096zM798.72 400.896v-5.12l163.84-231.424v5.12zM559.104 734.72h3.072l-115.712 163.84h-3.072zM798.72 449.024v-4.096l163.84-231.424v4.096zM593.92 734.72h3.072l-115.712 163.84h-4.096zM697.344 734.72h3.072l-116.736 163.84h-3.072zM798.72 595.456v-4.096l163.84-232.448v5.12zM627.712 734.72h3.072l-115.712 163.84h-3.072zM798.72 498.176v-4.096l163.84-232.448v5.12zM798.72 692.736v-4.096l163.84-231.424v4.096zM653.312 898.56h-3.072l115.712-163.84h3.072zM721.92 898.56h-3.072l243.712-344.064v4.096zM798.72 546.304v-4.096l163.84-231.424v4.096zM662.528 734.72h3.072l-115.712 163.84h-3.072zM798.72 644.608v-5.12l163.84-231.424v5.12zM731.136 734.72h3.072l-115.712 163.84h-3.072zM687.104 898.56h-3.072l278.528-393.216v5.12zM756.736 898.56h-3.072l208.896-295.936v5.12zM790.528 898.56h-3.072l175.104-246.784v4.096zM825.344 898.56h-3.072l140.288-198.656v5.12zM859.136 898.56h-3.072l106.496-149.504v4.096zM893.952 898.56h-3.072l71.68-101.376v4.096zM928.768 898.56h-3.072l36.864-52.224v4.096zM962.56 894.464v4.096h-3.072zM61.44 761.344v-4.096l16.384-22.528h3.072zM61.44 810.496v-4.096l50.176-71.68h3.072zM61.44 858.624v-4.096l84.992-119.808h3.072zM67.584 898.56h-3.072l115.712-163.84h4.096zM102.4 898.56h-3.072l115.712-163.84h3.072zM171.008 898.56h-3.072l115.712-163.84h3.072zM808.96-2.56l-10.24 14.336v-4.096l7.168-10.24zM137.216 898.56h-4.096l116.736-163.84h3.072zM798.72 60.928v-5.12l40.96-58.368h4.096zM318.464 734.72h3.072l-115.712 163.84h-3.072zM798.72 109.056v-4.096l75.776-107.52h3.072zM353.28 734.72h3.072l-116.736 163.84h-3.072zM387.072 734.72h3.072l-115.712 163.84h-3.072zM798.72 157.184v-4.096l109.568-155.648h4.096zM952.32 888.32v-880.64h-143.36v737.28h-737.28v143.36h880.64zM962.56 898.56h-901.12v-163.84h737.28v-737.28h163.84v901.12zM184.32 714.24l1.024-63.488c0 0 5.12-17.408 16.384-17.408 3.072 0 7.168 0 10.24 0 5.12 0 9.216-7.168 9.216-7.168s48.128-87.040 103.424-94.208c16.384-2.048 25.6-6.144 25.6-24.576 0-3.072 1.024-5.12 5.12-4.096 25.6 6.144 51.2 8.192 77.824 4.096 47.104-6.144 84.992-26.624 110.592-66.56 29.696-46.080 31.744-98.304 23.552-151.552-1.024-6.144-1.024-9.216 6.144-10.24 9.216-1.024 13.312-6.144 14.336-15.36 9.216-55.296 34.816-99.328 90.112-119.808 2.048-1.024 4.096-2.048 6.144-3.072 9.216-2.048 14.336-4.096 8.192-14.336s6.144-27.648 6.144-27.648h79.872v227.328l-390.144 388.096h-203.776z" />
<glyph unicode="&#xe906;" d="M308.224 750.080h412.672l219.136 143.36h-855.040l219.136-143.36z" />
<glyph unicode="&#xe907;" d="M131.072 6.656l215.040 313.344h-3.072l-215.040-313.344z" />
<glyph unicode="&#xe908;" d="M382.976 320h-3.072l-174.080-313.344h2.048z" />
<glyph unicode="&#xe909;" d="M416.768 320h-2.048l-137.216-313.344h3.072z" />
<glyph unicode="&#xe90a;" d="M449.536 320h-3.072l-100.352-313.344h2.048z" />
<glyph unicode="&#xe90b;" d="M480.256 320h-2.048l-66.56-313.344h2.048z" />
<glyph unicode="&#xe90c;" d="M510.976 320h-3.072l-32.768-313.344h3.072z" />
<glyph unicode="&#xe90d;" d="M538.624 320h3.072v-313.344h-3.072v313.344z" />
<glyph unicode="&#xe90e;" d="M571.392 320h-3.072l32.768-313.344h3.072z" />
<glyph unicode="&#xe90f;" d="M601.088 320h-2.048l66.56-313.344h2.048z" />
<glyph unicode="&#xe910;" d="M632.832 320h-3.072l101.376-313.344h3.072z" />
<glyph unicode="&#xe911;" d="M664.576 320h-2.048l136.192-313.344h3.072z" />
<glyph unicode="&#xe912;" d="M699.392 320h-3.072l175.104-313.344h3.072z" />
<glyph unicode="&#xe913;" d="M857.088 144.896l-25.6 31.744 116.736-169.984h3.072z" />
<glyph unicode="&#xe914;" d="M145.408 105.984h51.2v-3.072h-51.2v3.072z" />
<glyph unicode="&#xe915;" d="M227.328 223.744h51.2v-3.072h-51.2v3.072z" />
<glyph unicode="&#xe916;" d="M244.736 174.592h54.272v-3.072h-54.272v3.072z" />
<glyph unicode="&#xe917;" d="M272.384 125.44h57.344v-3.072h-57.344v3.072z" />
<glyph unicode="&#xe918;" d="M446.464 164.352h45.056v-3.072h-45.056v3.072z" />
<glyph unicode="&#xe919;" d="M368.64 75.264h57.344v-3.072h-57.344v3.072z" />
<glyph unicode="&#xe91a;" d="M349.184 260.608h38.912v-3.072h-38.912v3.072z" />
<glyph unicode="&#xe91b;" d="M362.496 198.144h46.080v-3.072h-46.080v3.072z" />
<glyph unicode="&#xe91c;" d="M430.080 265.728h36.864v-3.072h-36.864v3.072z" />
<glyph unicode="&#xe91d;" d="M500.736 236.032h36.864v-3.072h-36.864v3.072z" />
<glyph unicode="&#xe91e;" d="M538.624 292.352h34.816v-3.072h-34.816v3.072z" />
<glyph unicode="&#xe91f;" d="M596.992 75.264h55.296v-3.072h-55.296v3.072z" />
<glyph unicode="&#xe920;" d="M580.608 207.36h43.008v-3.072h-43.008v3.072z" />
<glyph unicode="&#xe921;" d="M633.856 162.304h47.104v-3.072h-47.104v3.072z" />
<glyph unicode="&#xe922;" d="M607.232 283.136h34.816v-3.072h-34.816v3.072z" />
<glyph unicode="&#xe923;" d="M657.408 239.104h40.96v-3.072h-40.96v3.072z" />
<glyph unicode="&#xe924;" d="M709.632 75.264h60.416v-3.072h-60.416v3.072z" />
<glyph unicode="&#xe925;" d="M538.624 125.44h51.2v-3.072h-51.2v3.072z" />
<glyph unicode="&#xe926;" d="M733.184 162.304h53.248v-3.072h-53.248v3.072z" />
<glyph unicode="&#xe927;" d="M680.96 283.136h36.864v-3.072h-36.864v3.072z" />
<glyph unicode="&#xe928;" d="M834.56 75.264h71.68v-3.072h-71.68v3.072z" />
<glyph unicode="&#xe929;" d="M743.424 239.104h48.128v-3.072h-48.128v3.072z" />
<glyph unicode="&#xe92a;" d="M62.464 903.68v-901.12h901.12v901.12h-901.12zM940.032 893.44l-220.16-143.36h-415.744l-219.136 143.36h855.040zM717.824 509.44v-179.2h-409.6v409.6h409.6v-230.4zM72.704 889.344l225.28-146.432v-415.744l-225.28-304.128v866.304zM77.824 12.8l228.352 307.2h413.696l228.352-307.2h-870.4zM953.344 22.016l-225.28 304.128v416.768l225.28 146.432v-867.328z" />
<glyph unicode="&#xe92b;" d="M697.344 770.56h-373.76l-166.912 102.4h707.584l-166.912-102.4zM328.704 791.040h362.496l100.352 61.44h-562.176l99.328-61.44z" />
<glyph unicode="&#xe92c;" d="M130.048 1.536l216.064 313.344h-3.072l-216.064-313.344z" />
<glyph unicode="&#xe92d;" d="M381.952 314.88h-3.072l-174.080-313.344h3.072z" />
<glyph unicode="&#xe92e;" d="M416.768 314.88h-3.072l-137.216-313.344h3.072z" />
<glyph unicode="&#xe92f;" d="M448.512 314.88h-2.048l-101.376-313.344h2.048z" />
<glyph unicode="&#xe930;" d="M480.256 314.88h-3.072l-66.56-313.344h2.048z" />
<glyph unicode="&#xe931;" d="M509.952 314.88h-2.048l-33.792-313.344h3.072z" />
<glyph unicode="&#xe932;" d="M537.6 314.88h3.072v-313.344h-3.072v313.344z" />
<glyph unicode="&#xe933;" d="M570.368 314.88h-3.072l33.792-313.344h2.048z" />
<glyph unicode="&#xe934;" d="M600.064 314.88h-2.048l66.56-313.344h3.072z" />
<glyph unicode="&#xe935;" d="M631.808 314.88h-3.072l101.376-313.344h3.072z" />
<glyph unicode="&#xe936;" d="M664.576 314.88h-3.072l137.216-313.344h2.048z" />
<glyph unicode="&#xe937;" d="M698.368 314.88h-3.072l175.104-313.344h3.072z" />
<glyph unicode="&#xe938;" d="M856.064 139.776l-25.6 31.744 116.736-169.984h3.072z" />
<glyph unicode="&#xe939;" d="M144.384 100.864h51.2v-3.072h-51.2v3.072z" />
<glyph unicode="&#xe93a;" d="M226.304 218.624h51.2v-3.072h-51.2v3.072z" />
<glyph unicode="&#xe93b;" d="M243.712 169.472h54.272v-3.072h-54.272v3.072z" />
<glyph unicode="&#xe93c;" d="M271.36 120.32h57.344v-3.072h-57.344v3.072z" />
<glyph unicode="&#xe93d;" d="M446.464 159.232h45.056v-3.072h-45.056v3.072z" />
<glyph unicode="&#xe93e;" d="M367.616 70.144h57.344v-3.072h-57.344v3.072z" />
<glyph unicode="&#xe93f;" d="M348.16 255.488h38.912v-3.072h-38.912v3.072z" />
<glyph unicode="&#xe940;" d="M361.472 193.024h46.080v-3.072h-46.080v3.072z" />
<glyph unicode="&#xe941;" d="M430.080 260.608h36.864v-3.072h-36.864v3.072z" />
<glyph unicode="&#xe942;" d="M500.736 230.912h36.864v-3.072h-36.864v3.072z" />
<glyph unicode="&#xe943;" d="M537.6 287.232h34.816v-3.072h-34.816v3.072z" />
<glyph unicode="&#xe944;" d="M595.968 70.144h55.296v-3.072h-55.296v3.072z" />
<glyph unicode="&#xe945;" d="M580.608 202.24h43.008v-3.072h-43.008v3.072z" />
<glyph unicode="&#xe946;" d="M632.832 157.184h47.104v-3.072h-47.104v3.072z" />
<glyph unicode="&#xe947;" d="M606.208 278.016h34.816v-3.072h-34.816v3.072z" />
<glyph unicode="&#xe948;" d="M656.384 233.984h40.96v-3.072h-40.96v3.072z" />
<glyph unicode="&#xe949;" d="M709.632 70.144h60.416v-3.072h-60.416v3.072z" />
<glyph unicode="&#xe94a;" d="M537.6 120.32h51.2v-3.072h-51.2v3.072z" />
<glyph unicode="&#xe94b;" d="M732.16 157.184h53.248v-3.072h-53.248v3.072z" />
<glyph unicode="&#xe94c;" d="M680.96 278.016h36.864v-3.072h-36.864v3.072z" />
<glyph unicode="&#xe94d;" d="M833.536 70.144h71.68v-3.072h-71.68v3.072z" />
<glyph unicode="&#xe94e;" d="M742.4 233.984h48.128v-3.072h-48.128v3.072z" />
<glyph unicode="&#xe94f;" d="M61.44 898.56v-901.12h901.12v901.12h-901.12zM939.008 888.32l-219.136-143.36h-416.768l-219.136 143.36h855.040zM716.8 504.32v-179.2h-409.6v409.6h409.6v-230.4zM71.68 884.224l225.28-146.432v-415.744l-225.28-304.128v866.304zM76.8 7.68l228.352 307.2h413.696l228.352-307.2h-870.4zM952.32 16.896l-225.28 304.128v416.768l225.28 146.432v-867.328z" />
<glyph unicode="&#xe950;" d="M812.032 852.48l-116.736-71.68h-365.568l-116.736 71.68h599.040zM830.464 857.6h-634.88l133.12-81.92h368.64l133.12 81.92z" />
<glyph unicode="&#xe951;" d="M700.416 765.44h-374.784l-166.912 102.4h707.584l-165.888-102.4zM331.776 785.92h362.496l100.352 61.44h-563.2l100.352-61.44z" />
<glyph unicode="&#xe952;" d="M304.128 748.032l1.024-430.080h412.672v430.080z" />
<glyph unicode="&#xe953;" d="M297.984 328.192v411.648l-225.28 147.456v-866.304l225.28 304.128z" />
<glyph unicode="&#xe954;" d="M728.064 737.792v-413.696l225.28-304.128v867.328l-225.28-146.432z" />
<glyph unicode="&#xe955;" d="M131.072 4.608l215.040 313.344h-3.072l-215.040-313.344z" />
<glyph unicode="&#xe956;" d="M382.976 317.952h-3.072l-174.080-313.344h2.048z" />
<glyph unicode="&#xe957;" d="M416.768 317.952h-2.048l-137.216-313.344h3.072z" />
<glyph unicode="&#xe958;" d="M449.536 317.952h-3.072l-100.352-313.344h2.048z" />
<glyph unicode="&#xe959;" d="M480.256 317.952h-2.048l-66.56-313.344h2.048z" />
<glyph unicode="&#xe95a;" d="M510.976 317.952h-3.072l-32.768-313.344h3.072z" />
<glyph unicode="&#xe95b;" d="M538.624 317.952h2.048v-313.344h-2.048v313.344z" />
<glyph unicode="&#xe95c;" d="M571.392 317.952h-3.072l32.768-313.344h3.072z" />
<glyph unicode="&#xe95d;" d="M601.088 317.952h-2.048l66.56-313.344h2.048z" />
<glyph unicode="&#xe95e;" d="M632.832 317.952h-3.072l101.376-313.344h3.072z" />
<glyph unicode="&#xe95f;" d="M664.576 317.952h-2.048l136.192-313.344h3.072z" />
<glyph unicode="&#xe960;" d="M699.392 317.952h-3.072l175.104-313.344h3.072z" />
<glyph unicode="&#xe961;" d="M857.088 142.848l-25.6 31.744 116.736-169.984h3.072z" />
<glyph unicode="&#xe962;" d="M145.408 103.936h51.2v-3.072h-51.2v3.072z" />
<glyph unicode="&#xe963;" d="M227.328 221.696h51.2v-3.072h-51.2v3.072z" />
<glyph unicode="&#xe964;" d="M244.736 172.544h54.272v-3.072h-54.272v3.072z" />
<glyph unicode="&#xe965;" d="M272.384 123.392h57.344v-3.072h-57.344v3.072z" />
<glyph unicode="&#xe966;" d="M446.464 162.304h45.056v-3.072h-45.056v3.072z" />
<glyph unicode="&#xe967;" d="M368.64 73.216h57.344v-3.072h-57.344v3.072z" />
<glyph unicode="&#xe968;" d="M349.184 258.56h38.912v-3.072h-38.912v3.072z" />
<glyph unicode="&#xe969;" d="M362.496 196.096h46.080v-3.072h-46.080v3.072z" />
<glyph unicode="&#xe96a;" d="M430.080 263.68h36.864v-3.072h-36.864v3.072z" />
<glyph unicode="&#xe96b;" d="M500.736 233.984h36.864v-3.072h-36.864v3.072z" />
<glyph unicode="&#xe96c;" d="M538.624 290.304h34.816v-3.072h-34.816v3.072z" />
<glyph unicode="&#xe96d;" d="M596.992 73.216h55.296v-3.072h-55.296v3.072z" />
<glyph unicode="&#xe96e;" d="M580.608 205.312h43.008v-3.072h-43.008v3.072z" />
<glyph unicode="&#xe96f;" d="M633.856 160.256h47.104v-3.072h-47.104v3.072z" />
<glyph unicode="&#xe970;" d="M607.232 281.088h34.816v-3.072h-34.816v3.072z" />
<glyph unicode="&#xe971;" d="M657.408 237.056h40.96v-3.072h-40.96v3.072z" />
<glyph unicode="&#xe972;" d="M709.632 73.216h60.416v-3.072h-60.416v3.072z" />
<glyph unicode="&#xe973;" d="M538.624 123.392h51.2v-3.072h-51.2v3.072z" />
<glyph unicode="&#xe974;" d="M733.184 160.256h53.248v-3.072h-53.248v3.072z" />
<glyph unicode="&#xe975;" d="M680.96 281.088h36.864v-3.072h-36.864v3.072z" />
<glyph unicode="&#xe976;" d="M834.56 73.216h71.68v-3.072h-71.68v3.072z" />
<glyph unicode="&#xe977;" d="M743.424 237.056h48.128v-3.072h-48.128v3.072z" />
<glyph unicode="&#xe978;" d="M62.464 901.632v-901.12h901.12v901.12h-901.12zM72.704 887.296l225.28-146.432v-415.744l-225.28-304.128v866.304zM77.824 10.752l220.16 296.96v444.416l-212.992 139.264h856.064l-217.088-141.312v-438.272l223.232-301.056h-869.376zM953.344 19.968l-225.28 304.128v416.768l225.28 146.432v-867.328z" />
<glyph unicode="&#xe979;" d="M123.904 774.656l30.72-17.408v-324.608l-30.72-21.504v363.52zM103.424 809.472v-437.248l71.68 50.176v348.16l-71.68 38.912z" />
<glyph unicode="&#xe97a;" d="M154.624 348.672v-126.976l-30.72-33.792v135.168l30.72 25.6zM175.104 391.68l-71.68-59.392v-198.656l71.68 79.872v178.176z" />
<glyph unicode="&#xe97b;" d="M224.256 719.36l14.336-9.216v-220.16l-14.336-11.264v240.64zM205.824 754.176v-312.32l51.2 39.936v238.592l-51.2 33.792z" />
<glyph unicode="&#xe97c;" d="M238.592 414.208v-94.208l-14.336-16.384v100.352l14.336 10.24zM257.024 452.096l-51.2-39.936v-158.72l51.2 59.392v139.264z" />
<glyph unicode="&#xe97d;" d="M902.144 774.656v-363.52l-30.72 21.504v324.608l30.72 17.408zM922.624 809.472l-71.68-39.936v-348.16l71.68-50.176v438.272z" />
<glyph unicode="&#xe97e;" d="M871.424 348.672l30.72-25.6v-136.192l-30.72 33.792v128zM850.944 391.68v-179.2l71.68-79.872v199.68l-71.68 59.392z" />
<glyph unicode="&#xe97f;" d="M801.792 719.36v-240.64l-14.336 11.264v220.16l14.336 9.216zM820.224 754.176l-51.2-33.792v-238.592l51.2-39.936v312.32z" />
<glyph unicode="&#xe980;" d="M787.456 414.208l14.336-11.264v-100.352l-14.336 16.384v95.232zM769.024 452.096v-139.264l51.2-59.392v158.72l-51.2 39.936z" />
<glyph unicode="&#xe981;" d="M687.104 501.248h-348.16v198.656h348.16v-198.656zM359.424 521.728h307.2v157.696h-307.2v-157.696z" />
<glyph unicode="&#xe982;" d="M687.104 361.984h-348.16v119.808h348.16v-119.808zM359.424 382.464h307.2v78.848h-307.2v-78.848z" />
<glyph unicode="&#xe983;" d="M130.048 1.536l216.064 313.344h-3.072l-216.064-313.344z" />
<glyph unicode="&#xe984;" d="M381.952 314.88h-3.072l-174.080-313.344h3.072z" />
<glyph unicode="&#xe985;" d="M416.768 314.88h-3.072l-137.216-313.344h3.072z" />
<glyph unicode="&#xe986;" d="M448.512 314.88h-2.048l-101.376-313.344h2.048z" />
<glyph unicode="&#xe987;" d="M480.256 314.88h-3.072l-66.56-313.344h2.048z" />
<glyph unicode="&#xe988;" d="M509.952 314.88h-2.048l-33.792-313.344h3.072z" />
<glyph unicode="&#xe989;" d="M537.6 314.88h2.048v-313.344h-2.048v313.344z" />
<glyph unicode="&#xe98a;" d="M570.368 314.88h-3.072l33.792-313.344h2.048z" />
<glyph unicode="&#xe98b;" d="M600.064 314.88h-2.048l66.56-313.344h3.072z" />
<glyph unicode="&#xe98c;" d="M631.808 314.88h-3.072l101.376-313.344h3.072z" />
<glyph unicode="&#xe98d;" d="M664.576 314.88h-3.072l137.216-313.344h2.048z" />
<glyph unicode="&#xe98e;" d="M698.368 314.88h-3.072l175.104-313.344h3.072z" />
<glyph unicode="&#xe98f;" d="M856.064 139.776l-25.6 31.744 116.736-169.984h3.072z" />
<glyph unicode="&#xe990;" d="M144.384 100.864h51.2v-3.072h-51.2v3.072z" />
<glyph unicode="&#xe991;" d="M226.304 218.624h51.2v-3.072h-51.2v3.072z" />
<glyph unicode="&#xe992;" d="M243.712 169.472h54.272v-3.072h-54.272v3.072z" />
<glyph unicode="&#xe993;" d="M271.36 120.32h57.344v-3.072h-57.344v3.072z" />
<glyph unicode="&#xe994;" d="M446.464 159.232h45.056v-3.072h-45.056v3.072z" />
<glyph unicode="&#xe995;" d="M367.616 70.144h57.344v-3.072h-57.344v3.072z" />
<glyph unicode="&#xe996;" d="M348.16 255.488h38.912v-3.072h-38.912v3.072z" />
<glyph unicode="&#xe997;" d="M361.472 193.024h46.080v-3.072h-46.080v3.072z" />
<glyph unicode="&#xe998;" d="M430.080 260.608h36.864v-3.072h-36.864v3.072z" />
<glyph unicode="&#xe999;" d="M500.736 230.912h36.864v-3.072h-36.864v3.072z" />
<glyph unicode="&#xe99a;" d="M537.6 287.232h34.816v-3.072h-34.816v3.072z" />
<glyph unicode="&#xe99b;" d="M595.968 70.144h55.296v-3.072h-55.296v3.072z" />
<glyph unicode="&#xe99c;" d="M580.608 202.24h43.008v-3.072h-43.008v3.072z" />
<glyph unicode="&#xe99d;" d="M632.832 157.184h47.104v-3.072h-47.104v3.072z" />
<glyph unicode="&#xe99e;" d="M606.208 278.016h34.816v-3.072h-34.816v3.072z" />
<glyph unicode="&#xe99f;" d="M656.384 233.984h40.96v-3.072h-40.96v3.072z" />
<glyph unicode="&#xe9a0;" d="M709.632 70.144h60.416v-3.072h-60.416v3.072z" />
<glyph unicode="&#xe9a1;" d="M537.6 120.32h51.2v-3.072h-51.2v3.072z" />
<glyph unicode="&#xe9a2;" d="M732.16 157.184h53.248v-3.072h-53.248v3.072z" />
<glyph unicode="&#xe9a3;" d="M680.96 278.016h36.864v-3.072h-36.864v3.072z" />
<glyph unicode="&#xe9a4;" d="M833.536 70.144h71.68v-3.072h-71.68v3.072z" />
<glyph unicode="&#xe9a5;" d="M742.4 233.984h48.128v-3.072h-48.128v3.072z" />
<glyph unicode="&#xe9a6;" d="M61.44 898.56v-901.12h901.12v901.12h-901.12zM939.008 888.32l-219.136-143.36h-416.768l-219.136 143.36h855.040zM716.8 504.32v-179.2h-409.6v409.6h409.6v-230.4zM71.68 884.224l225.28-146.432v-415.744l-225.28-304.128v866.304zM76.8 7.68l228.352 307.2h413.696l228.352-307.2h-870.4zM952.32 16.896l-225.28 304.128v416.768l225.28 146.432v-867.328z" />
<glyph unicode="&#xe9a7;" d="M122.88 771.584l30.72-17.408v-324.608l-30.72-21.504v363.52zM102.4 806.4v-437.248l71.68 50.176v348.16l-71.68 38.912z" />
<glyph unicode="&#xe9a8;" d="M153.6 345.6v-126.976l-30.72-33.792v135.168l30.72 25.6zM174.080 388.608l-71.68-59.392v-198.656l71.68 79.872v178.176z" />
<glyph unicode="&#xe9a9;" d="M223.232 716.288l14.336-9.216v-220.16l-14.336-11.264v240.64zM204.8 751.104v-312.32l51.2 39.936v238.592l-51.2 33.792z" />
<glyph unicode="&#xe9aa;" d="M237.568 411.136v-94.208l-14.336-16.384v100.352l14.336 10.24zM256 449.024l-51.2-39.936v-158.72l51.2 59.392v139.264z" />
<glyph unicode="&#xe9ab;" d="M901.12 771.584v-363.52l-30.72 21.504v324.608l30.72 17.408zM921.6 806.4l-71.68-39.936v-348.16l71.68-50.176v438.272z" />
<glyph unicode="&#xe9ac;" d="M870.4 345.6l30.72-25.6v-136.192l-30.72 33.792v128zM849.92 388.608v-179.2l71.68-79.872v199.68l-71.68 59.392z" />
<glyph unicode="&#xe9ad;" d="M800.768 716.288v-240.64l-14.336 11.264v220.16l14.336 9.216zM819.2 751.104l-51.2-33.792v-238.592l51.2-39.936v312.32z" />
<glyph unicode="&#xe9ae;" d="M786.432 411.136l14.336-11.264v-100.352l-14.336 16.384v95.232zM768 449.024v-139.264l51.2-59.392v158.72l-51.2 39.936z" />
<glyph unicode="&#xe9af;" d="M686.080 498.176h-348.16v199.68h348.16v-199.68zM358.4 518.656h307.2v158.72h-307.2v-158.72z" />
<glyph unicode="&#xe9b0;" d="M686.080 358.912h-348.16v119.808h348.16v-119.808zM358.4 379.392h307.2v78.848h-307.2v-78.848z" />
<glyph unicode="&#xe9b1;" d="M306.176 744.96v-430.080h413.696v430.080z" />
<glyph unicode="&#xe9b2;" d="M297.984 325.12v412.672l-225.28 146.432v-865.28l225.28 303.104z" />
<glyph unicode="&#xe9b3;" d="M728.064 734.72v-413.696l225.28-303.104v867.328l-225.28-147.456z" />
<glyph unicode="&#xe9b4;" d="M131.072 2.56l215.040 312.32h-3.072l-215.040-312.32z" />
<glyph unicode="&#xe9b5;" d="M382.976 314.88h-3.072l-174.080-312.32h2.048z" />
<glyph unicode="&#xe9b6;" d="M416.768 314.88h-2.048l-137.216-312.32h3.072z" />
<glyph unicode="&#xe9b7;" d="M449.536 314.88h-3.072l-100.352-312.32h2.048z" />
<glyph unicode="&#xe9b8;" d="M480.256 314.88h-2.048l-66.56-312.32h2.048z" />
<glyph unicode="&#xe9b9;" d="M510.976 314.88h-3.072l-32.768-312.32h3.072z" />
<glyph unicode="&#xe9ba;" d="M538.624 314.88h3.072v-313.344h-3.072v313.344z" />
<glyph unicode="&#xe9bb;" d="M571.392 314.88h-3.072l32.768-312.32h3.072z" />
<glyph unicode="&#xe9bc;" d="M601.088 314.88h-2.048l66.56-312.32h2.048z" />
<glyph unicode="&#xe9bd;" d="M632.832 314.88h-3.072l101.376-312.32h3.072z" />
<glyph unicode="&#xe9be;" d="M664.576 314.88h-2.048l136.192-312.32h3.072z" />
<glyph unicode="&#xe9bf;" d="M699.392 314.88h-3.072l175.104-312.32h3.072z" />
<glyph unicode="&#xe9c0;" d="M857.088 139.776l-25.6 31.744 116.736-168.96h3.072z" />
<glyph unicode="&#xe9c1;" d="M145.408 100.864h51.2v-3.072h-51.2v3.072z" />
<glyph unicode="&#xe9c2;" d="M227.328 218.624h51.2v-3.072h-51.2v3.072z" />
<glyph unicode="&#xe9c3;" d="M244.736 169.472h54.272v-3.072h-54.272v3.072z" />
<glyph unicode="&#xe9c4;" d="M272.384 121.344h57.344v-3.072h-57.344v3.072z" />
<glyph unicode="&#xe9c5;" d="M446.464 160.256h45.056v-3.072h-45.056v3.072z" />
<glyph unicode="&#xe9c6;" d="M368.64 71.168h57.344v-3.072h-57.344v3.072z" />
<glyph unicode="&#xe9c7;" d="M349.184 255.488h38.912v-3.072h-38.912v3.072z" />
<glyph unicode="&#xe9c8;" d="M362.496 193.024h46.080v-3.072h-46.080v3.072z" />
<glyph unicode="&#xe9c9;" d="M430.080 261.632h36.864v-3.072h-36.864v3.072z" />
<glyph unicode="&#xe9ca;" d="M500.736 231.936h36.864v-3.072h-36.864v3.072z" />
<glyph unicode="&#xe9cb;" d="M538.624 287.232h34.816v-3.072h-34.816v3.072z" />
<glyph unicode="&#xe9cc;" d="M596.992 71.168h55.296v-3.072h-55.296v3.072z" />
<glyph unicode="&#xe9cd;" d="M580.608 202.24h43.008v-3.072h-43.008v3.072z" />
<glyph unicode="&#xe9ce;" d="M633.856 157.184h47.104v-3.072h-47.104v3.072z" />
<glyph unicode="&#xe9cf;" d="M607.232 279.040h34.816v-3.072h-34.816v3.072z" />
<glyph unicode="&#xe9d0;" d="M657.408 235.008h40.96v-3.072h-40.96v3.072z" />
<glyph unicode="&#xe9d1;" d="M709.632 71.168h60.416v-3.072h-60.416v3.072z" />
<glyph unicode="&#xe9d2;" d="M538.624 121.344h51.2v-3.072h-51.2v3.072z" />
<glyph unicode="&#xe9d3;" d="M733.184 157.184h53.248v-3.072h-53.248v3.072z" />
<glyph unicode="&#xe9d4;" d="M680.96 279.040h36.864v-3.072h-36.864v3.072z" />
<glyph unicode="&#xe9d5;" d="M834.56 71.168h71.68v-3.072h-71.68v3.072z" />
<glyph unicode="&#xe9d6;" d="M743.424 235.008h48.128v-3.072h-48.128v3.072z" />
<glyph unicode="&#xe9d7;" d="M297.984 468.48l-204.8-225.28v51.2l204.8 225.28z" />
<glyph unicode="&#xe9d8;" d="M728.064 468.48l204.8-225.28v51.2l-204.8 225.28z" />
<glyph unicode="&#xe9d9;" d="M308.224 516.608h409.6v-45.056h-409.6v45.056z" />
<glyph unicode="&#xe9da;" d="M62.464 898.56v-901.12h901.12v901.12h-901.12zM72.704 884.224l225.28-146.432v-415.744l-225.28-304.128v866.304zM77.824 7.68l222.208 300.032v440.32l-215.040 140.288h856.064l-215.040-139.264v-442.368l221.184-299.008h-869.376zM953.344 17.92l-225.28 304.128v415.744l225.28 146.432v-866.304z" />
<glyph unicode="&#xe9db;" d="M131.072 1.536l215.040 313.344h-3.072l-215.040-313.344z" />
<glyph unicode="&#xe9dc;" d="M382.976 314.88h-3.072l-174.080-313.344h2.048z" />
<glyph unicode="&#xe9dd;" d="M416.768 314.88h-2.048l-137.216-313.344h3.072z" />
<glyph unicode="&#xe9de;" d="M449.536 314.88h-3.072l-100.352-313.344h2.048z" />
<glyph unicode="&#xe9df;" d="M480.256 314.88h-2.048l-66.56-313.344h2.048z" />
<glyph unicode="&#xe9e0;" d="M510.976 314.88h-3.072l-32.768-313.344h3.072z" />
<glyph unicode="&#xe9e1;" d="M538.624 314.88h3.072v-313.344h-3.072v313.344z" />
<glyph unicode="&#xe9e2;" d="M571.392 314.88h-3.072l32.768-313.344h3.072z" />
<glyph unicode="&#xe9e3;" d="M601.088 314.88h-2.048l66.56-313.344h2.048z" />
<glyph unicode="&#xe9e4;" d="M632.832 314.88h-3.072l101.376-313.344h3.072z" />
<glyph unicode="&#xe9e5;" d="M664.576 314.88h-2.048l136.192-313.344h3.072z" />
<glyph unicode="&#xe9e6;" d="M699.392 314.88h-3.072l175.104-313.344h3.072z" />
<glyph unicode="&#xe9e7;" d="M857.088 139.776l-25.6 31.744 116.736-169.984h3.072z" />
<glyph unicode="&#xe9e8;" d="M145.408 100.864h51.2v-3.072h-51.2v3.072z" />
<glyph unicode="&#xe9e9;" d="M227.328 218.624h51.2v-3.072h-51.2v3.072z" />
<glyph unicode="&#xe9ea;" d="M244.736 169.472h54.272v-3.072h-54.272v3.072z" />
<glyph unicode="&#xe9eb;" d="M272.384 120.32h57.344v-3.072h-57.344v3.072z" />
<glyph unicode="&#xe9ec;" d="M446.464 159.232h45.056v-3.072h-45.056v3.072z" />
<glyph unicode="&#xe9ed;" d="M368.64 70.144h57.344v-3.072h-57.344v3.072z" />
<glyph unicode="&#xe9ee;" d="M349.184 255.488h38.912v-3.072h-38.912v3.072z" />
<glyph unicode="&#xe9ef;" d="M362.496 193.024h46.080v-3.072h-46.080v3.072z" />
<glyph unicode="&#xe9f0;" d="M430.080 260.608h36.864v-3.072h-36.864v3.072z" />
<glyph unicode="&#xe9f1;" d="M500.736 230.912h36.864v-3.072h-36.864v3.072z" />
<glyph unicode="&#xe9f2;" d="M538.624 287.232h34.816v-3.072h-34.816v3.072z" />
<glyph unicode="&#xe9f3;" d="M596.992 70.144h55.296v-3.072h-55.296v3.072z" />
<glyph unicode="&#xe9f4;" d="M580.608 202.24h43.008v-3.072h-43.008v3.072z" />
<glyph unicode="&#xe9f5;" d="M633.856 157.184h47.104v-3.072h-47.104v3.072z" />
<glyph unicode="&#xe9f6;" d="M607.232 278.016h34.816v-3.072h-34.816v3.072z" />
<glyph unicode="&#xe9f7;" d="M657.408 233.984h40.96v-3.072h-40.96v3.072z" />
<glyph unicode="&#xe9f8;" d="M709.632 70.144h60.416v-3.072h-60.416v3.072z" />
<glyph unicode="&#xe9f9;" d="M538.624 120.32h51.2v-3.072h-51.2v3.072z" />
<glyph unicode="&#xe9fa;" d="M733.184 157.184h53.248v-3.072h-53.248v3.072z" />
<glyph unicode="&#xe9fb;" d="M680.96 278.016h36.864v-3.072h-36.864v3.072z" />
<glyph unicode="&#xe9fc;" d="M834.56 70.144h71.68v-3.072h-71.68v3.072z" />
<glyph unicode="&#xe9fd;" d="M743.424 233.984h48.128v-3.072h-48.128v3.072z" />
<glyph unicode="&#xe9fe;" d="M308.224 468.48l-215.040-225.28v51.2l215.040 225.28z" />
<glyph unicode="&#xe9ff;" d="M717.824 468.48l215.040-225.28v51.2l-215.040 225.28z" />
<glyph unicode="&#xea00;" d="M297.984 509.44h430.080v-40.96h-430.080v40.96z" />
<glyph unicode="&#xea01;" d="M62.464 898.56v-901.12h901.12v901.12h-901.12zM940.032 888.32l-219.136-143.36h-416.768l-219.136 143.36h855.040zM717.824 325.12h-409.6v409.6h409.6v-409.6zM72.704 884.224l225.28-146.432v-415.744l-225.28-304.128v866.304zM77.824 7.68l228.352 307.2h413.696l228.352-307.2h-870.4zM953.344 16.896l-225.28 304.128v416.768l225.28 146.432v-867.328z" />
<glyph unicode="&#xea03;" glyph-name="plintus-light" data-tags="Плинтус, подсветка" d="M798.72 538.112v-3.072l163.84 116.736v3.072zM270.336 161.28h-5.12l-203.776-144.384v-3.072zM318.464 161.28h-4.096l-231.424-163.84h4.096zM798.72 504.32v-3.072l163.84 115.712v3.072zM798.72 469.504v-3.072l163.84 115.712v3.072zM367.616 161.28h-5.12l-231.424-163.84h5.12zM415.744 161.28h-4.096l-231.424-163.84h4.096zM798.72 435.712v-4.096l163.84 116.736v3.072zM464.896 161.28h-5.12l-231.424-163.84h5.12zM798.72 400.896v-3.072l163.84 115.712v3.072zM513.024 161.28h-4.096l-231.424-163.84h4.096zM798.72 366.080v-3.072l163.84 115.712v4.096zM659.456 161.28h-4.096l-232.448-163.84h5.12zM798.72 262.656v-3.072l163.84 116.736v3.072zM798.72 332.288v-3.072l163.84 115.712v3.072zM562.176 161.28h-4.096l-232.448-163.84h5.12zM798.72 194.048v-3.072l163.84 115.712v3.072zM756.736 161.28h-4.096l-231.424-163.84h4.096zM618.496-2.56h4.096l339.968 240.64v3.072zM798.72 297.472v-3.072l163.84 115.712v3.072zM610.304 161.28h-4.096l-231.424-163.84h4.096zM798.72 228.864v-3.072l163.84 115.712v3.072zM708.608 161.28h-5.12l-231.424-163.84h5.12zM569.344-2.56h5.12l388.096 275.456v3.072zM666.624-2.56h5.12l290.816 205.824v3.072zM715.776-2.56h4.096l242.688 172.032v3.072zM763.904-2.56h5.12l193.536 137.216v3.072zM813.056-2.56h4.096l145.408 103.424v3.072zM861.184-2.56h4.096l97.28 68.608v3.072zM910.336-2.56h4.096l48.128 33.792v3.072zM958.464-2.56h4.096v3.072zM798.72 882.176v-3.072l26.624 19.456h-4.096zM798.72 848.384v-3.072l75.776 53.248h-4.096zM798.72 813.568v-3.072l123.904 88.064h-4.096zM798.72 779.776v-4.096l163.84 116.736v3.072zM798.72 744.96v-3.072l163.84 115.712v3.072zM798.72 676.352v-3.072l163.84 115.712v3.072zM75.776 161.28h-4.096l-10.24-7.168v-3.072zM798.72 710.144v-3.072l163.84 115.712v4.096zM798.72 641.536v-3.072l163.84 115.712v3.072zM124.928 161.28h-5.12l-58.368-40.96v-4.096zM173.056 161.28h-4.096l-107.52-75.776v-3.072zM798.72 606.72v-3.072l163.84 116.736v3.072zM221.184 161.28h-4.096l-155.648-109.568v-4.096zM798.72 572.928v-3.072l163.84 115.712v3.072zM952.32 888.32v-880.64h-880.64v143.36h737.28v737.28h143.36zM962.56 898.56h-163.84v-737.28h-737.28v-163.84h901.12v901.12zM624.64 266.752c0-1.024-1.024-3.072 0-5.12 0-1.024 1.024-1.024 2.048-1.024s3.072-1.024 4.096-1.024c4.096 0 27.648-2.048 31.744-2.048 5.12 0 9.216-1.024 14.336-1.024 0 1.024 0 1.024 0 2.048 0 2.048 1.024 4.096 1.024 5.12s-1.024 1.024-4.096 1.024c-1.024 0-2.048 0-3.072 0-5.12 0-9.216 1.024-14.336 1.024-4.096 0-27.648 2.048-31.744 2.048 1.024 0 0 0 0-1.024zM685.056 289.28c-1.024 0-2.048 1.024-3.072 1.024-4.096 1.024-9.216 3.072-13.312 4.096s-29.696 8.192-33.792 10.24c0-1.024-1.024-1.024-1.024-2.048-1.024-1.024-2.048-3.072-2.048-4.096s0-2.048 2.048-2.048c1.024-1.024 3.072-1.024 4.096-1.024 4.096-1.024 29.696-8.192 33.792-10.24 4.096-1.024 9.216-3.072 13.312-4.096 0 1.024 0 1.024 1.024 2.048s2.048 4.096 2.048 5.12c1.024 0 0 0-3.072 1.024zM689.152 208.384c-4.096-2.048-8.192-4.096-12.288-6.144s-20.48-12.288-24.576-13.312c0-1.024 1.024-1.024 1.024-2.048 1.024-1.024 2.048-3.072 3.072-4.096s2.048-1.024 3.072 0c1.024 0 16.384 9.216 17.408 10.24 4.096 2.048 7.168 4.096 11.264 5.12 4.096 2.048 8.192 4.096 12.288 6.144-1.024 1.024-1.024 1.024-1.024 2.048-1.024 1.024-2.048 4.096-3.072 5.12s-1.024 1.024-4.096-1.024c-2.048-1.024-3.072-2.048-3.072-2.048zM683.008 229.888c0 2.048 0 4.096 0 5.12s-1.024 1.024-4.096 1.024c-1.024 0-2.048 0-3.072 0-5.12-1.024-9.216-1.024-14.336-1.024-4.096-1.024-25.6-3.072-29.696-4.096 0-1.024 0-1.024 0-2.048 0-2.048 0-3.072 1.024-5.12 0-1.024 1.024-1.024 2.048-1.024 2.048 0 3.072 1.024 4.096 1.024 4.096 1.024 25.6 3.072 29.696 4.096 5.12 1.024 9.216 1.024 14.336 1.024 0 0 0-1.024 0 1.024zM728.064 219.648c2.048 1.024 5.12 2.048 6.144 3.072 2.048 1.024 3.072 1.024 5.12 2.048s5.12 2.048 7.168 3.072c6.144 3.072 12.288 5.12 18.432 7.168 4.096 2.048 8.192 3.072 12.288 5.12v32.768c-2.048 0-4.096 1.024-7.168 1.024-5.12 1.024-10.24 1.024-14.336 2.048-7.168 1.024-13.312 2.048-20.48 3.072-3.072 0-5.12 1.024-8.192 1.024-2.048 0-4.096 1.024-5.12 1.024-2.048 0-3.072 1.024-5.12 1.024-10.24 2.048-18.432-3.072-22.528-11.264-3.072-6.144-4.096-15.36-2.048-24.576 1.024-6.144 4.096-13.312 8.192-18.432 7.168-8.192 16.384-13.312 27.648-8.192zM778.24 460.288c0 0-63.488-18.432-94.208-26.624-2.048-1.024-5.12-1.024-7.168-2.048-19.456-5.12-32.768 5.12-29.696 23.552 13.312 72.704 27.648 145.408 41.984 219.136 8.192 41.984 16.384 82.944 23.552 124.928 1.024 8.192 5.12 9.216 13.312 9.216 16.384 0 52.224 2.048 52.224 2.048v67.584c0 0-24.576 0-33.792 0-26.624 0-53.248-1.024-79.872-2.048-14.336 0-18.432-4.096-20.48-16.384-4.096-19.456-7.168-38.912-11.264-58.368-1.024-6.144 1.024-8.192 8.192-8.192 21.504-2.048 20.48-2.048 18.432-20.48-1.024-7.168-5.12-10.24-12.288-10.24-4.096 0-8.192-1.024-12.288-1.024-6.144 0-9.216-2.048-9.216-7.168-2.048-15.36-4.096-14.336 13.312-15.36 15.36-1.024 15.36-1.024 12.288-14.336-3.072-14.336-3.072-14.336-19.456-16.384-15.36-2.048-15.36-2.048-17.408-15.36-1.024-5.12 2.048-7.168 7.168-7.168 22.528-2.048 22.528-2.048 18.432-21.504-1.024-6.144-4.096-9.216-11.264-9.216-1.024 0-3.072 0-4.096 0-19.456-2.048-20.48-2.048-20.48-22.528 6.144-1.024 12.288-2.048 18.432-2.048 9.216 0 11.264-3.072 9.216-10.24 0 0 0-1.024 0-1.024-4.096-18.432 2.048-16.384-21.504-18.432-14.336-1.024-15.36-3.072-16.384-22.528 9.216-1.024 18.432-2.048 28.672-3.072-1.024-8.192-3.072-16.384-4.096-23.552 0-1.024-3.072-3.072-5.12-4.096-3.072-1.024-5.12-1.024-8.192-1.024-21.504-2.048-21.504-2.048-21.504-22.528 4.096 0 9.216-1.024 14.336-1.024s9.216-1.024 15.36-2.048c-2.048-8.192-3.072-16.384-4.096-23.552 0-2.048-3.072-3.072-6.144-4.096s-6.144-1.024-9.216-1.024c-19.456-2.048-19.456-3.072-19.456-22.528 9.216-1.024 18.432-2.048 28.672-3.072-2.048-8.192-3.072-16.384-5.12-24.576 0-1.024-3.072-3.072-5.12-4.096s-5.12 0-7.168-1.024c-21.504-1.024-21.504-1.024-22.528-22.528 7.168 0 14.336-1.024 21.504-1.024s8.192-3.072 7.168-8.192c-3.072-19.456-3.072-19.456-25.6-22.528-7.168-1.024-10.24-3.072-12.288-10.24-9.216-36.864-31.744-129.024-31.744-129.024h81.92c0 0 2.048 55.296 1.024 63.488 0 7.168 2.048 10.24 9.216 12.288 31.744 10.24 64.512 20.48 96.256 30.72 22.528 7.168 67.584 22.528 67.584 22.528v88.064z" />
<glyph unicode="&#xea05;" glyph-name="11" data-tags="Плинтус, стандарт" d="M798.72 538.112v-3.072l163.84 116.736v3.072zM270.336 161.28h-5.12l-203.776-144.384v-3.072zM318.464 161.28h-4.096l-231.424-163.84h4.096zM798.72 504.32v-3.072l163.84 115.712v3.072zM367.616 161.28h-5.12l-231.424-163.84h5.12zM798.72 469.504v-3.072l163.84 115.712v3.072zM415.744 161.28h-4.096l-231.424-163.84h4.096zM798.72 435.712v-4.096l163.84 116.736v3.072zM464.896 161.28h-5.12l-231.424-163.84h5.12zM798.72 400.896v-3.072l163.84 115.712v3.072zM513.024 161.28h-4.096l-231.424-163.84h4.096zM798.72 366.080v-3.072l163.84 115.712v4.096zM659.456 161.28h-4.096l-232.448-163.84h5.12zM798.72 262.656v-3.072l163.84 116.736v3.072zM798.72 332.288v-3.072l163.84 115.712v3.072zM562.176 161.28h-4.096l-232.448-163.84h5.12zM756.736 161.28h-4.096l-231.424-163.84h4.096zM798.72 194.048v-3.072l163.84 115.712v3.072zM618.496-2.56h4.096l339.968 240.64v3.072zM798.72 297.472v-3.072l163.84 115.712v3.072zM610.304 161.28h-4.096l-231.424-163.84h4.096zM798.72 228.864v-3.072l163.84 115.712v3.072zM708.608 161.28h-5.12l-231.424-163.84h5.12zM569.344-2.56h5.12l388.096 275.456v3.072zM666.624-2.56h5.12l290.816 205.824v3.072zM715.776-2.56h4.096l242.688 172.032v3.072zM763.904-2.56h5.12l193.536 137.216v3.072zM813.056-2.56h4.096l145.408 103.424v3.072zM861.184-2.56h4.096l97.28 68.608v3.072zM910.336-2.56h4.096l48.128 33.792v3.072zM958.464-2.56h4.096v3.072zM798.72 882.176v-3.072l26.624 19.456h-4.096zM798.72 848.384v-3.072l75.776 53.248h-4.096zM798.72 813.568v-3.072l123.904 88.064h-4.096zM798.72 779.776v-4.096l163.84 116.736v3.072zM798.72 744.96v-3.072l163.84 115.712v3.072zM798.72 676.352v-3.072l163.84 115.712v3.072zM75.776 161.28h-4.096l-10.24-7.168v-3.072zM798.72 710.144v-3.072l163.84 115.712v4.096zM124.928 161.28h-5.12l-58.368-40.96v-4.096zM798.72 641.536v-3.072l163.84 115.712v3.072zM798.72 606.72v-3.072l163.84 116.736v3.072zM173.056 161.28h-4.096l-107.52-75.776v-3.072zM221.184 161.28h-4.096l-155.648-109.568v-4.096zM798.72 572.928v-3.072l163.84 115.712v3.072zM952.32 888.32v-880.64h-880.64v143.36h737.28v737.28h143.36zM962.56 898.56h-163.84v-737.28h-737.28v-163.84h901.12v901.12zM672.768 181.76c0 0 0 66.56 0 70.656 18.432 0 105.472 0 105.472 0v68.608c0 0-82.944 0-106.496 0 0 146.432 0 292.864 0 439.296 17.408 0 105.472 0 105.472 0v55.296c0 0-119.808-1.024-156.672-2.048-10.24 0-18.432-7.168-18.432-16.384 0-23.552 0-47.104 0-71.68 10.24-3.072 27.648 2.048 23.552-17.408-3.072-13.312-14.336-5.12-21.504-10.24 0-4.096 0-9.216 0-14.336 6.144-1.024 12.288-2.048 19.456-2.048 0-7.168 0-14.336 0-21.504-6.144-1.024-12.288-2.048-19.456-3.072 0-5.12 0-9.216 0-14.336 6.144-1.024 13.312-2.048 19.456-5.12 2.048-1.024 1.024-8.192 1.024-12.288 0-15.36-14.336-5.12-21.504-12.288 0-3.072 0-8.192 0-13.312 6.144-5.12 19.456 3.072 20.48-12.288 1.024-16.384-10.24-14.336-22.528-15.36 0-14.336 0-27.648 0-40.96 0-18.432 0-35.84 0-54.272 0-6.144 2.048-9.216 9.216-9.216 11.264 0 17.408-12.288 12.288-20.48-1.024-2.048-4.096-3.072-7.168-3.072-4.096-1.024-8.192-1.024-13.312-1.024 0-5.12 0-10.24 0-16.384 3.072 0 6.144-1.024 9.216-1.024 10.24 1.024 12.288-4.096 12.288-12.288 0-6.144 0-11.264-9.216-12.288-14.336-1.024-14.336-2.048-12.288-16.384 6.144-1.024 12.288-2.048 20.48-3.072 0-7.168 0-13.312 0-21.504-7.168-1.024-13.312-2.048-22.528-3.072 0-4.096 0-8.192 0-12.288 0-44.032-8.192-158.72-8.192-161.792 22.528-1.024 80.896-1.024 80.896-1.024z" />
<glyph unicode="&#xea07;" glyph-name="4-corners" data-tags="Тип помещения, 4 угла" d="M868.352 79.36h-4.096l58.368-81.92h3.072zM343.040 816.64h3.072l-58.368 81.92h-3.072zM377.856 816.64h3.072l-58.368 81.92h-3.072zM880.64 110.080v-4.096l76.8-108.544h3.072zM411.648 816.64h3.072l-57.344 81.92h-3.072zM880.64 158.208v-4.096l81.92-115.712v4.096zM880.64 207.36v-4.096l81.92-115.712v4.096zM446.464 816.64h3.072l-58.368 81.92h-3.072zM880.64 255.488v-4.096l81.92-115.712v4.096zM480.256 816.64h4.096l-58.368 81.92h-3.072zM515.072 816.64h3.072l-57.344 81.92h-4.096zM880.64 304.64v-4.096l81.92-115.712v4.096zM618.496 816.64h3.072l-58.368 81.92h-3.072zM880.64 451.072v-5.12l81.92-115.712v5.12zM880.64 353.792v-5.12l81.92-115.712v4.096zM549.888 816.64h3.072l-58.368 81.92h-3.072zM687.104 816.64h3.072l-57.344 81.92h-3.072zM880.64 548.352v-5.12l81.92-115.712v5.12zM880.64 645.632v-5.12l81.92-115.712v5.12zM756.736 816.64h3.072l-58.368 81.92h-3.072zM583.68 816.64h3.072l-57.344 81.92h-3.072zM880.64 401.92v-4.096l81.92-115.712v4.096zM880.64 499.2v-4.096l81.92-115.712v4.096zM653.312 816.64h3.072l-58.368 81.92h-3.072zM880.64 596.48v-4.096l81.92-115.712v4.096zM721.92 816.64h3.072l-58.368 81.92h-3.072zM880.64 693.76v-4.096l81.92-115.712v4.096zM790.528 816.64h3.072l-57.344 81.92h-3.072zM825.344 816.64h3.072l-58.368 81.92h-3.072zM880.64 742.912v-5.12l81.92-115.712v5.12zM880.64 791.040v-4.096l81.92-115.712v4.096zM804.864 898.56h-3.072l57.344-81.92h4.096zM838.656 898.56h-3.072l126.976-179.2v5.12zM873.472 898.56h-3.072l92.16-130.048v4.096zM908.288 898.56h-3.072l57.344-81.92v5.12zM942.080 898.56h-3.072l23.552-32.768v4.096zM62.464-2.56h3.072l-4.096 5.12v-4.096zM61.44 51.712v-5.12l34.816-49.152h3.072zM61.44 99.84v-4.096l69.632-98.304h3.072zM61.44 148.992v-5.12l103.424-146.432h4.096zM143.36 174.592v4.096l-81.92 115.712v-4.096zM214.016 79.36h-3.072l57.344-81.92h3.072zM145.408 79.36h-2.048v2.048l-81.92 115.712v-4.096l138.24-195.584h3.072zM143.36 271.872v5.12l-81.92 115.712v-5.12zM282.624 79.36h-3.072l58.368-81.92h3.072zM352.256 79.36h-3.072l57.344-81.92h3.072zM143.36 369.152v5.12l-81.92 115.712v-5.12zM143.36 125.44v5.12l-81.92 115.712v-5.12zM179.2 79.36h-3.072l58.368-81.92h3.072zM143.36 223.744v4.096l-81.92 115.712v-4.096zM248.832 79.36h-3.072l57.344-81.92h3.072zM317.44 79.36h-3.072l58.368-81.92h3.072zM143.36 321.024v4.096l-81.92 115.712v-4.096zM143.36 418.304v4.096l-81.92 115.712v-4.096zM386.048 79.36h-3.072l58.368-81.92h3.072zM420.864 79.36h-3.072l57.344-81.92h4.096zM143.36 466.432v5.12l-81.92 115.712v-5.12zM143.36 515.584v4.096l-81.92 115.712v-4.096zM455.68 79.36h-4.096l58.368-81.92h3.072zM143.36 563.712v4.096l-81.92 116.736v-5.12zM489.472 79.36h-3.072l57.344-81.92h4.096zM143.36 612.864v4.096l-81.92 115.712v-4.096zM524.288 79.36h-4.096l58.368-81.92h3.072zM143.36 660.992v5.12l-81.92 115.712v-5.12zM558.080 79.36h-3.072l58.368-81.92h3.072zM143.36 710.144v4.096l-81.92 115.712v-4.096zM592.896 79.36h-3.072l57.344-81.92h3.072zM626.688 79.36h-3.072l58.368-81.92h3.072zM61.44 879.104v-5.12l81.92-115.712v5.12zM143.36 807.424v4.096l-61.44 87.040h-3.072zM661.504 79.36h-3.072l58.368-81.92h3.072zM205.824 816.64h3.072l-58.368 81.92h-3.072zM730.112 79.36h-3.072l58.368-81.92h3.072zM171.008 816.64h3.072l-57.344 81.92h-4.096zM696.32 79.36h-3.072l57.344-81.92h3.072zM239.616 816.64h3.072l-57.344 81.92h-3.072zM764.928 79.36h-3.072l57.344-81.92h4.096zM799.744 79.36h-3.072l57.344-81.92h3.072zM274.432 816.64h3.072l-58.368 81.92h-3.072zM308.224 816.64h3.072l-57.344 81.92h-3.072zM833.536 79.36h-3.072l57.344-81.92h4.096zM952.32 888.32v-880.64h-880.64v880.64h880.64zM962.56 898.56h-901.12v-901.12h901.12v901.12zM880.64 816.64v-737.28h-737.28v737.28h737.28zM890.88 826.88h-757.76v-757.76h757.76v757.76z" />
<glyph unicode="&#xea09;" glyph-name="6-corners" data-tags="Тип помещения, 6 углов" d="M139.264 747.008v4.096l-81.92 115.712v-4.096zM548.864 172.544v-5.12l81.92-115.712v5.12zM548.864 220.672v-4.096l81.92-115.712v4.096zM139.264 795.136v5.12l-69.632 97.28h-3.072zM158.72 815.616h3.072l-57.344 81.92h-3.072zM548.864 269.824v-5.12l81.92-115.712v5.12zM193.536 815.616h3.072l-58.368 81.92h-3.072zM548.864 317.952v-4.096l81.92-115.712v4.096zM548.864 367.104v-4.096l81.92-116.736v5.12zM228.352 815.616h3.072l-58.368 81.92h-3.072zM555.008 406.016h-3.072l78.848-110.592v4.096zM262.144 815.616h3.072l-57.344 81.92h-3.072zM658.432 406.016h-3.072l58.368-81.92h3.072zM365.568 815.616h3.072l-57.344 81.92h-3.072zM589.824 406.016h-3.072l58.368-81.92h3.072zM296.96 815.616h3.072l-58.368 81.92h-3.072zM728.064 406.016h-3.072l57.344-81.92h3.072zM434.176 815.616h4.096l-58.368 81.92h-3.072zM796.672 406.016h-3.072l58.368-81.92h3.072zM503.808 815.616h3.072l-58.368 81.92h-3.072zM331.776 815.616h3.072l-58.368 81.92h-3.072zM624.64 406.016h-3.072l57.344-81.92h3.072zM400.384 815.616h3.072l-58.368 81.92h-3.072zM693.248 406.016h-3.072l58.368-81.92h3.072zM468.992 815.616h3.072l-57.344 81.92h-4.096zM761.856 406.016h-3.072l58.368-81.92h3.072zM537.6 815.616h3.072l-57.344 81.92h-3.072zM831.488 406.016h-3.072l57.344-81.92h3.072zM865.28 406.016h-3.072l58.368-81.92h3.072zM572.416 815.616h3.072l-58.368 81.92h-3.072zM876.544 439.808v-5.12l77.824-110.592h4.096zM607.232 815.616h3.072l-58.368 81.92h-3.072zM876.544 487.936v-4.096l81.92-115.712v4.096zM641.024 815.616h3.072l-57.344 81.92h-3.072zM876.544 536.064v-4.096l81.92-115.712v4.096zM675.84 815.616h3.072l-58.368 81.92h-3.072zM709.632 815.616h4.096l-58.368 81.92h-3.072zM876.544 585.216v-4.096l81.92-115.712v4.096zM876.544 634.368v-5.12l81.92-115.712v4.096zM744.448 815.616h3.072l-57.344 81.92h-4.096zM779.264 815.616h3.072l-58.368 81.92h-3.072zM876.544 682.496v-4.096l81.92-115.712v4.096zM876.544 731.648v-5.12l81.92-115.712v5.12zM813.056 815.616h3.072l-57.344 81.92h-3.072zM827.392 897.536h-3.072l134.144-189.44v5.12zM876.544 779.776v-4.096l81.92-115.712v4.096zM792.576 897.536h-3.072l58.368-81.92h3.072zM862.208 897.536h-3.072l99.328-140.288v4.096zM896 897.536h-3.072l65.536-92.16v5.12zM930.816 897.536h-3.072l30.72-43.008v4.096zM81.92 2.56l2.048 1.024-26.624 36.864v-4.096zM150.528 2.56l2.048 1.024-95.232 134.144v-4.096zM115.712 2.56l2.048 1.024-60.416 84.992v-4.096zM184.32 2.56l2.048 1.024-129.024 182.272v-4.096zM219.136 2.56l2.048 1.024-53.248 74.752h-3.072zM139.264 115.2v4.096l-81.92 115.712v-4.096zM256 3.584l-53.248 74.752h-3.072l54.272-75.776zM139.264 163.328v4.096l-81.92 115.712v-4.096zM139.264 211.456v5.12l-81.92 115.712v-5.12zM289.792 3.584l-53.248 74.752h-3.072l54.272-75.776zM324.608 3.584l-53.248 74.752h-3.072l54.272-75.776zM139.264 260.608v4.096l-81.92 115.712v-4.096zM358.4 3.584l-53.248 74.752h-3.072l54.272-75.776zM139.264 308.736v5.12l-81.92 115.712v-5.12zM139.264 357.888v4.096l-81.92 115.712v-4.096zM393.216 3.584l-53.248 74.752h-3.072l54.272-75.776zM139.264 406.016v5.12l-81.92 115.712v-5.12zM428.032 3.584l-53.248 74.752h-3.072l54.272-75.776zM461.824 3.584l-53.248 74.752h-3.072l54.272-75.776zM139.264 455.168v4.096l-81.92 115.712v-4.096zM139.264 552.448v4.096l-81.92 115.712v-4.096zM530.432 3.584l-53.248 74.752h-3.072l54.272-75.776zM139.264 503.296v5.12l-81.92 115.712v-4.096zM496.64 3.584l-53.248 74.752h-3.072l54.272-75.776zM565.248 3.584l-53.248 74.752h-3.072l54.272-75.776zM139.264 601.6v4.096l-81.92 115.712v-4.096zM139.264 649.728v4.096l-81.92 115.712v-4.096zM543.744 78.336l54.272-75.776 2.048 1.024-53.248 74.752zM139.264 697.856v4.096l-81.92 116.736v-5.12zM630.784 7.68l-81.92 115.712v-4.096l81.92-115.712zM948.224 887.296v-552.96h-327.68v-327.68h-552.96v880.64h880.64zM958.464 897.536h-901.12v-901.12h573.44v327.68h327.68v573.44zM876.544 815.616v-409.6h-327.68v-327.68h-409.6v737.28h737.28zM886.784 825.856h-757.76v-757.76h430.080v327.68h327.68v430.080z" />
<glyph unicode="&#xea0b;" glyph-name="8-corners" data-tags="Тип помещения, 8 углов" d="M267.264 652.8h3.072l-57.344 81.92h-4.096zM675.84 79.36h-3.072l58.368-81.92h3.072zM302.080 652.8h3.072l-58.368 81.92h-3.072zM710.656 79.36h-3.072l58.368-81.92h3.072zM335.872 652.8h3.072l-57.344 81.92h-3.072zM745.472 79.36h-3.072l57.344-81.92h3.072zM779.264 79.36h-3.072l58.368-81.92h3.072zM370.688 652.8h3.072l-66.56 94.208v-4.096zM814.080 79.36h-3.072l58.368-81.92h3.072zM389.12 675.328v4.096l-81.92 115.712v-4.096zM848.896 79.36h-3.072l57.344-81.92h3.072zM389.12 724.48v4.096l-81.92 115.712v-4.096zM880.64 179.712v-4.096l81.92-115.712v4.096zM427.008 816.64h3.072l-58.368 81.92h-3.072zM307.2 892.416v-4.096l81.92-115.712v4.096zM880.64 82.432v-3.072h-1.024l58.368-81.92h3.072zM880.64 278.016v-5.12l81.92-115.712v5.12zM495.616 816.64h3.072l-57.344 81.92h-3.072zM880.64 375.296v-5.12l81.92-115.712v5.12zM564.224 816.64h4.096l-58.368 81.92h-3.072zM634.88 722.432v-5.12l46.080-64.512h3.072zM392.192 816.64h3.072l-57.344 81.92h-3.072zM962.56 15.872l-81.92 115.712v-5.12l81.92-115.712zM461.824 816.64h3.072l-58.368 81.92h-3.072zM880.64 228.864v-4.096l81.92-115.712v4.096zM634.88 673.28v-4.096l11.264-16.384h3.072zM880.64 326.144v-4.096l81.92-115.712v4.096zM530.432 816.64h3.072l-58.368 81.92h-3.072zM634.88 770.56v-4.096l79.872-113.664h3.072zM599.040 816.64h3.072l-57.344 81.92h-4.096zM880.64 423.424v-4.096l81.92-115.712v4.096zM633.856 816.64h1.024v-2.048l114.688-161.792h3.072l-174.080 245.76h-3.072zM880.64 472.576v-5.12l81.92-115.712v5.12zM880.64 520.704v-4.096l81.92-115.712v4.096zM716.8 748.032v4.096l-103.424 146.432h-3.072zM784.384 652.8h3.072l-58.368 81.92h-3.072zM880.64 568.832v-4.096l81.92-115.712v4.096zM716.8 796.16v5.12l-69.632 97.28h-3.072zM763.904 734.72h-3.072l57.344-81.92h3.072zM716.8 845.312v4.096l-34.816 49.152h-3.072zM797.696 734.72h-3.072l58.368-81.92h3.072zM880.64 617.984v-4.096l81.92-115.712v4.096zM716.8 898.56h-3.072l3.072-5.12v5.12zM832.512 734.72h-3.072l133.12-188.416v4.096zM867.328 734.72h-4.096l99.328-139.264v4.096zM901.12 734.72h-3.072l64.512-91.136v4.096zM935.936 734.72h-3.072l29.696-41.984v4.096zM76.8-2.56h3.072l-18.432 26.624v-4.096zM61.44 121.344v-4.096l84.992-119.808h3.072zM143.36 98.816v4.096l-81.92 115.712v-4.096zM160.768 79.36h-4.096l58.368-81.92h3.072zM61.44 73.216v-4.096l50.176-71.68h3.072zM61.44 170.496v-4.096l119.808-168.96h3.072zM143.36 147.968v4.096l-81.92 115.712v-4.096zM194.56 79.36h-3.072l58.368-81.92h3.072zM229.376 79.36h-3.072l57.344-81.92h3.072zM143.36 196.096v4.096l-81.92 115.712v-4.096zM263.168 79.36h-3.072l58.368-81.92h3.072zM143.36 245.248v4.096l-81.92 115.712v-4.096zM143.36 293.376v4.096l-81.92 115.712v-4.096zM297.984 79.36h-3.072l57.344-81.92h3.072zM143.36 341.504v5.12l-81.92 115.712v-5.12zM331.776 79.36h-3.072l58.368-81.92h3.072zM143.36 390.656v4.096l-81.92 115.712v-4.096zM366.592 79.36h-3.072l58.368-81.92h3.072zM143.36 438.784v5.12l-81.92 115.712v-5.12zM401.408 79.36h-3.072l57.344-81.92h3.072zM143.36 487.936v4.096l-81.92 115.712v-4.096zM435.2 79.36h-3.072l58.368-81.92h3.072zM470.016 79.36h-3.072l58.368-81.92h3.072zM143.36 536.064v5.12l-81.92 115.712v-5.12zM538.624 79.36h-3.072l58.368-81.92h3.072zM143.36 633.344v5.12l-68.608 96.256h-3.072zM504.832 79.36h-3.072l57.344-81.92h3.072zM143.36 585.216v4.096l-81.92 115.712v-4.096zM164.864 652.8h3.072l-58.368 81.92h-3.072zM573.44 79.36h-3.072l57.344-81.92h3.072zM607.232 79.36h-3.072l58.368-81.92h3.072zM198.656 652.8h3.072l-57.344 81.92h-3.072zM232.448 652.8h4.096l-58.368 81.92h-3.072zM642.048 79.36h-3.072l57.344-81.92h3.072zM706.56 888.32v-163.84h245.76v-716.8h-880.64v716.8h245.76v163.84h389.12zM716.8 898.56h-409.6v-163.84h-245.76v-737.28h901.12v737.28h-245.76v163.84zM634.88 816.64v-163.84h245.76v-573.44h-737.28v573.44h245.76v163.84h245.76zM645.12 826.88h-266.24v-163.84h-245.76v-593.92h757.76v593.92h-245.76v163.84z" />
<glyph unicode="&#xea0d;" glyph-name="12-corners" data-tags="Тип помещения, 12 углов" d="M312.32 816.64h3.072l-58.368 81.92h-3.072zM720.896 243.2h-3.072l80.896-113.664v4.096zM347.136 816.64h3.072l-58.368 81.92h-3.072zM755.712 243.2h-3.072l57.344-81.92h4.096zM380.928 816.64h3.072l-57.344 81.92h-3.072zM790.528 243.2h-3.072l57.344-81.92h3.072zM415.744 816.64h3.072l-58.368 81.92h-3.072zM824.32 243.2h-3.072l58.368-81.92h3.072zM449.536 816.64h4.096l-58.368 81.92h-3.072zM859.136 243.2h-3.072l57.344-81.92h3.072zM880.64 261.632v-5.12l67.584-95.232h3.072zM484.352 816.64h3.072l-57.344 81.92h-4.096zM880.64 407.040v-4.096l81.92-115.712v4.096zM587.776 816.64h3.072l-58.368 81.92h-3.072zM519.168 816.64h3.072l-58.368 81.92h-3.072zM880.64 309.76v-4.096l81.92-115.712v4.096zM716.8 735.744v-4.096l56.32-78.848h3.072zM880.64 504.32v-4.096l81.92-115.712v4.096zM656.384 816.64h3.072l-57.344 81.92h-3.072zM841.728 652.8h3.072l-174.080 245.76h-3.072zM880.64 601.6v-4.096l81.92-115.712v4.096zM880.64 358.912v-5.12l81.92-115.712v5.12zM552.96 816.64h3.072l-57.344 81.92h-3.072zM880.64 456.192v-4.096l81.92-115.712v4.096zM716.8 687.616v-4.096l21.504-30.72h3.072zM622.592 816.64h3.072l-58.368 81.92h-3.072zM716.8 784.896v-4.096l90.112-128h3.072zM880.64 553.472v-4.096l81.92-115.712v4.096zM691.2 816.64h3.072l-58.368 81.92h-3.072zM879.616 652.8l-58.368 81.92h-3.072l57.344-81.92zM880.64 650.752v-4.096l81.92-115.712v4.096zM798.72 762.368v4.096l-93.184 132.096h-3.072zM856.064 734.72h-4.096l110.592-155.648v4.096zM798.72 810.496v4.096l-59.392 83.968h-3.072zM889.856 734.72h-3.072l75.776-106.496v4.096zM798.72 859.648v4.096l-24.576 34.816h-3.072zM924.672 734.72h-3.072l40.96-58.368v4.096zM958.464 734.72h-3.072l7.168-9.216v4.096zM240.64-2.56l-15.36 22.528v-4.096l12.288-18.432zM61.44 251.392v-4.096l60.416-86.016h3.072zM191.488 161.28h3.072l-133.12 187.392v-4.096zM225.28 117.248v-4.096l81.92-115.712h3.072zM143.36 326.144v4.096l-81.92 115.712v-4.096zM204.8 243.2h-3.072l105.472-148.48v4.096zM321.536 79.36h-3.072l57.344-81.92h3.072zM61.44 202.24v-4.096l26.624-36.864h3.072zM225.28 69.12v-5.12l47.104-66.56h3.072zM156.672 161.28h3.072l-98.304 139.264v-5.12zM143.36 276.992v5.12l-81.92 115.712v-5.12zM171.008 243.2h-3.072l174.080-245.76h3.072zM355.328 79.36h-3.072l58.368-81.92h3.072zM239.616 243.2h-3.072l70.656-100.352v5.12zM143.36 374.272v5.12l-81.92 115.712v-5.12zM390.144 79.36h-3.072l57.344-81.92h4.096zM143.36 423.424v4.096l-81.92 115.712v-4.096zM274.432 243.2h-3.072l35.84-51.2v4.096zM143.36 471.552v5.12l-81.92 115.712v-5.12zM307.2 240.128v3.072h-2.048zM424.96 79.36h-4.096l58.368-81.92h3.072zM143.36 520.704v4.096l-81.92 115.712v-4.096zM458.752 79.36h-3.072l57.344-81.92h4.096zM143.36 568.832v5.12l-81.92 115.712v-5.12zM493.568 79.36h-4.096l58.368-81.92h3.072zM527.36 79.36h-3.072l58.368-81.92h3.072zM143.36 617.984v4.096l-79.872 112.64h-2.048v-1.024zM152.576 652.8h3.072l-57.344 81.92h-3.072zM562.176 79.36h-3.072l57.344-81.92h3.072zM595.968 79.36h-3.072l58.368-81.92h3.072zM187.392 652.8h3.072l-57.344 81.92h-4.096zM222.208 652.8h3.072l-58.368 81.92h-3.072zM630.784 79.36h-3.072l58.368-81.92h3.072zM699.392 79.36h-3.072l58.368-81.92h3.072zM290.816 652.8h3.072l-68.608 97.28v-5.12zM665.6 79.36h-3.072l57.344-81.92h3.072zM256 652.8h3.072l-57.344 81.92h-3.072zM307.2 678.4v4.096l-81.92 115.712v-4.096zM716.8 103.936v-4.096l71.68-102.4h4.096zM798.72 36.352l-81.92 115.712v-4.096l81.92-115.712zM307.2 726.528v5.12l-81.92 115.712v-5.12zM716.8 201.216v-5.12l81.92-115.712v5.12zM225.28 895.488v-4.096l81.92-116.736v5.12zM788.48 888.32v-163.84h163.84v-552.96h-163.84v-163.84h-552.96v163.84h-163.84v552.96h163.84v163.84h552.96zM798.72 898.56h-573.44v-163.84h-163.84v-573.44h163.84v-163.84h573.44v163.84h163.84v573.44h-163.84v163.84zM716.8 816.64v-163.84h163.84v-409.6h-163.84v-163.84h-409.6v163.84h-163.84v409.6h163.84v163.84h409.6zM727.040 826.88h-430.080v-163.84h-163.84v-430.080h163.84v-163.84h430.080v163.84h163.84v430.080h-163.84v163.84z" />
</font>
</defs>
</svg>
