<svg width="20" height="20" viewBox="0 0 20 20" fill="none" xmlns="http://www.w3.org/2000/svg">
<path d="M10 18.3333C14.6024 18.3333 18.3334 14.6023 18.3334 9.99996C18.3334 5.39758 14.6024 1.66663 10 1.66663C5.39765 1.66663 1.66669 5.39758 1.66669 9.99996C1.66669 14.6023 5.39765 18.3333 10 18.3333Z" stroke="#D9D9D9" stroke-width="1.7" stroke-linejoin="round"/>
<path d="M10 18.3333C13.2217 18.3333 15.8334 15.7216 15.8334 12.5C15.8334 9.27829 13.2217 6.66663 10 6.66663C6.77835 6.66663 4.16669 9.27829 4.16669 12.5C4.16669 15.7216 6.77835 18.3333 10 18.3333Z" stroke="#D9D9D9" stroke-width="1.7" stroke-linejoin="round"/>
<path d="M10 18.3333C11.841 18.3333 13.3334 16.8409 13.3334 15C13.3334 13.159 11.841 11.6666 10 11.6666C8.15906 11.6666 6.66669 13.159 6.66669 15C6.66669 16.8409 8.15906 18.3333 10 18.3333Z" stroke="#D9D9D9" stroke-width="1.7" stroke-linejoin="round"/>
</svg>
