<svg width="20" height="20" viewBox="0 0 20 20" fill="none" xmlns="http://www.w3.org/2000/svg">
<path d="M13.5355 10.2023C14.4404 9.29746 15 8.04746 15 6.66675C15 3.90532 12.7614 1.66675 10 1.66675C7.23858 1.66675 5 3.90532 5 6.66675C5 8.04746 5.55964 9.29746 6.46447 10.2023" stroke="#D9D9D9" stroke-width="1.7" stroke-linecap="round"/>
<path d="M2.5 18.3334L2.91667 16.2501L7.5 12.9167L10 15.4167L12.5 12.9167L17.0833 16.2501L17.5 18.3334" stroke="#D9D9D9" stroke-width="1.7" stroke-linecap="round" stroke-linejoin="round"/>
<path d="M5.41388 8.75295C5.41915 7.04019 5.69785 5.7892 6.24998 4.99997C7.07817 3.81613 7.6612 3.90314 8.08554 4.08754C8.50988 4.27193 8.75939 5.47675 9.46814 5.82405C10.1769 6.17134 11.9907 6.2142 12.6119 6.63197C13.2332 7.04974 14.6539 7.82682 14.2998 9.15351" stroke="#D9D9D9" stroke-width="1.7"/>
</svg>
