<?xml version="1.0" standalone="no"?>
<!DOCTYPE svg PUBLIC "-//W3C//DTD SVG 1.1//EN" "http://www.w3.org/Graphics/SVG/1.1/DTD/svg11.dtd" >
<svg xmlns="http://www.w3.org/2000/svg" xmlns:xlink="http://www.w3.org/1999/xlink" version="1.1">
<metadata></metadata>
<defs>
<font id="nekstbold" horiz-adv-x="1300" >
<font-face units-per-em="2048" ascent="1604" descent="-444" />
<missing-glyph horiz-adv-x="485" />
<glyph unicode="&#xd;" horiz-adv-x="681" />
<glyph unicode=" "  horiz-adv-x="485" />
<glyph unicode="&#x09;" horiz-adv-x="485" />
<glyph unicode="&#xa0;" horiz-adv-x="485" />
<glyph unicode="!" horiz-adv-x="606" d="M156 0v307h297v-307h-297zM160 1372h291l-21 -917h-252z" />
<glyph unicode="&#x22;" horiz-adv-x="894" d="M160 885v590h243l-61 -590h-182zM551 885v590h244l-62 -590h-182z" />
<glyph unicode="#" horiz-adv-x="1525" d="M57 352l62 211h260l74 246h-260l63 211h260l105 352h223l-105 -352h246l105 352h225l-105 -352h260l-63 -211h-260l-74 -246h260l-63 -211h-260l-105 -352h-225l104 352h-245l-105 -352h-223l104 352h-258zM602 563h246l74 246h-246z" />
<glyph unicode="$" horiz-adv-x="1134" d="M88 831q0 139 95.5 232.5t242.5 93.5h12v215h254v-215h289v-262h-551q-33 0 -50.5 -17.5t-17.5 -41.5q1 -50 54 -68l381 -129q117 -39 182 -121t65 -188q0 -139 -96 -234.5t-241 -95.5h-15v-223h-254v223h-305v262h574q33 0 52 18.5t19 45.5q0 45 -51 65l-391 135 q-115 41 -181.5 121t-66.5 184z" />
<glyph unicode="%" horiz-adv-x="1624" d="M78 1065q0 139 98 238.5t242 99.5q141 0 238.5 -99.5t97.5 -238.5q0 -143 -96.5 -241.5t-240 -98.5t-241.5 98.5t-98 241.5zM221 0l963 1372h223l-963 -1372h-223zM276 1065q0 -61 41 -103t100.5 -42t102.5 42t43 103q0 59 -43 101t-102 42q-57 0 -99.5 -42t-42.5 -101z M868 309q0 139 98.5 238.5t241.5 99.5q141 0 238.5 -99t97.5 -239q0 -143 -96 -241.5t-239.5 -98.5t-242 98.5t-98.5 241.5zM1067 309q0 -61 41 -103t100.5 -42t102.5 42t43 103q0 59 -43 101.5t-103 42.5q-57 0 -99 -42t-42 -102z" />
<glyph unicode="&#x26;" horiz-adv-x="1552" d="M86.5 393.5q26.5 157.5 151.5 241.5l184 123l-96 102q-76 80 -93.5 173t16.5 167t115.5 123t190.5 49h492v-262h-476q-35 0 -45 -24.5t13 -51.5l438 -475l369 250v-315l-189 -129l336 -365h-358l-201 213l-234 -160q-141 -94 -300.5 -75.5t-249.5 139.5 q-90 119 -63.5 276.5zM362.5 374q-10.5 -46 16.5 -83q27 -39 73 -47.5t95 20.5l207 142l-158 165l-180 -120q-43 -31 -53.5 -77z" />
<glyph unicode="'" horiz-adv-x="518" d="M131 885v590h244l-62 -590h-182z" />
<glyph unicode="(" horiz-adv-x="636" d="M98 532.5q0 483.5 260 942.5h256q-258 -471 -258 -943q0 -473 258 -942h-256q-260 459 -260 942.5z" />
<glyph unicode=")" horiz-adv-x="636" d="M20 -410q260 473 260.5 942t-260.5 943h259q262 -451 262 -942.5t-262 -942.5h-259z" />
<glyph unicode="*" horiz-adv-x="864" d="M90 922l205 102l-205 102l84 142l191 -125l-15 229h164l-14 -229l192 127l82 -144l-205 -102l207 -102l-84 -142l-192 125l14 -229h-164l15 229l-193 -127z" />
<glyph unicode="+" horiz-adv-x="1173" d="M90 535v256h369v366h256v-366h366v-256h-366v-369h-256v369h-369z" />
<glyph unicode="," horiz-adv-x="581" d="M51 -283l152 590h297l-201 -590h-248z" />
<glyph unicode="-" horiz-adv-x="946" d="M109 432v250h729v-250h-729z" />
<glyph unicode="." horiz-adv-x="583" d="M143 0v307h297v-307h-297z" />
<glyph unicode="/" horiz-adv-x="1026" d="M10 -410l791 2048h215l-791 -2048h-215z" />
<glyph unicode="0" horiz-adv-x="1280" d="M84 528v316q0 248 157.5 403.5t397.5 155.5t399.5 -155.5t159.5 -401.5v-318q0 -246 -162 -402.5t-401 -156.5q-238 0 -394.5 156.5t-156.5 402.5zM375 528q0 -125 72.5 -196.5t187.5 -71.5q119 0 194.5 73t75.5 195v318q0 123 -74.5 195.5t-191.5 72.5t-190.5 -72.5 t-73.5 -197.5v-316z" />
<glyph unicode="1" horiz-adv-x="782" d="M45 1090v282h606v-1372h-291v1090h-315z" />
<glyph unicode="2" horiz-adv-x="1118" d="M66 0v227l632 625q51 51 52 115q0 51 -39 87t-101 36h-532v282h532q190 0 309 -110.5t119 -272.5q1 -183 -151 -330l-385 -376h542v-283h-978z" />
<glyph unicode="3" horiz-adv-x="1140" d="M74 0v283h561q68 0 109.5 43t41.5 102t-42 101t-109 42h-305v179l303 340h-559v282h952v-213l-315 -352q152 -10 261 -111.5t109 -273.5q0 -182 -119.5 -302t-295.5 -120h-592z" />
<glyph unicode="4" horiz-adv-x="1294" d="M45 330v209l563 833h420v-778h219v-264h-219v-330h-293v330h-690zM406 594h329v508z" />
<glyph unicode="5" horiz-adv-x="1136" d="M90 571l72 801h827v-282h-594l-24 -252h286q188 0 305 -116t117 -292q0 -184 -118.5 -307t-303.5 -123h-548v283h530q68 0 106.5 43t38.5 102q2 59 -36.5 101t-108.5 42h-549z" />
<glyph unicode="6" horiz-adv-x="1222" d="M66 428q0 45 8 80l98 584q23 131 111 205.5t229 74.5h502v-282h-473q-82 0 -97 -78l-36 -217h8q104 76 266 79q231 4 360 -118.5t129 -325.5q0 -199 -153.5 -329t-396.5 -130q-250 0 -402.5 128t-152.5 329zM352 428q0 -80 71 -130t198 -50q125 0 194.5 51t69.5 131 q0 84 -71 134t-198 50q-121 0 -192.5 -51t-71.5 -135z" />
<glyph unicode="7" horiz-adv-x="1062" d="M45 1090v282h973v-217l-539 -1155h-317l524 1090h-641z" />
<glyph unicode="8" horiz-adv-x="1243" d="M66 387q0 111 60 197t179 125v8q-102 41 -154.5 119.5t-52.5 175.5q0 178 145.5 284.5t377.5 106.5q233 0 379.5 -106.5t146.5 -284.5q0 -96 -53.5 -175t-157.5 -120v-8q119 -39 180.5 -126t61.5 -196q0 -195 -156 -305.5t-401 -110.5q-244 0 -399.5 113t-155.5 303z M358 409.5q0 -71.5 72 -122.5t191 -51q125 0 194.5 50t69.5 124q0 72 -71 120t-193 48q-125 0 -194 -48.5t-69 -120zM385 983q0 -68 62.5 -111t173.5 -43q111 2 174 44t63 110q0 70 -64.5 113t-172.5 43q-106 0 -171 -44t-65 -112z" />
<glyph unicode="9" horiz-adv-x="1214" d="M45 942q0 199 153.5 329t395.5 130q250 0 402.5 -128t152.5 -329q0 -41 -6 -80l-99 -583q-23 -131 -111.5 -206t-230.5 -75h-501v283h473q82 0 96 77l37 218h-8q-102 -76 -264 -80q-233 -4 -361.5 117.5t-128.5 326.5zM330 942q0 -84 70.5 -134t197.5 -50q123 0 193.5 51 t70.5 135q0 80 -70.5 130t-197.5 50q-125 0 -194.5 -51t-69.5 -131z" />
<glyph unicode=":" horiz-adv-x="602" d="M143 0v307h297v-307h-297zM143 713v307h297v-307h-297z" />
<glyph unicode=";" horiz-adv-x="579" d="M27 -283l151 590h297l-203 -590h-245zM145 713v307h297v-307h-297z" />
<glyph unicode="&#x3c;" horiz-adv-x="1150" d="M90 514v256l938 395v-276l-592 -236v-8l592 -211v-274z" />
<glyph unicode="=" horiz-adv-x="1288" d="M162 315v256h964v-256h-964zM162 754v254h964v-254h-964z" />
<glyph unicode="&#x3e;" horiz-adv-x="1150" d="M123 160v274l592 211v8l-592 236v276l938 -395v-256z" />
<glyph unicode="?" horiz-adv-x="1042" d="M53 1104v268h518q184 0 289 -114.5t105 -266t-105.5 -265.5t-292.5 -114h-78v-139h-268v385h328q63 0 98 37t35 88q0 49 -35 85t-98 36h-496zM207 0v307h297v-307h-297z" />
<glyph unicode="@" horiz-adv-x="1982" d="M129 111v796q0 201 133 333t336 132h805q203 0 336 -132t133 -333v-540q0 -150 -95.5 -234t-226.5 -84q-102 -4 -189 47t-122 148q-31 -80 -108.5 -137.5t-194.5 -57.5q-178 0 -299 127t-121 328t120 331t300 130q199 0 285 -152v123h233v-578q0 -47 26.5 -71.5 t65.5 -24.5q37 0 62.5 24.5t25.5 71.5v531q0 109 -71.5 180.5t-182.5 71.5h-759q-111 0 -182.5 -72t-71.5 -180v-758q0 -109 71.5 -180.5t182.5 -71.5h811v-231h-834q-203 0 -336 131t-133 332zM756 508q0 -102 64.5 -168t164.5 -66q102 0 167 68t65 166t-65 163.5 t-165 65.5t-165.5 -64.5t-65.5 -164.5z" />
<glyph unicode="A" horiz-adv-x="1521" d="M35 0l563 1372h324l565 -1372h-330l-115 291h-575l-113 -291h-319zM567 547h373l-186 475z" />
<glyph unicode="B" horiz-adv-x="1368" d="M135 0v1372h723q172 0 287 -101.5t115 -262.5q0 -92 -47.5 -168t-129.5 -117v-10q96 -37 155.5 -119t59.5 -199q0 -170 -119.5 -282.5t-295.5 -112.5h-748zM426 264h416q70 0 114.5 46t44.5 110q0 61 -46 104t-117 43h-412v-303zM426 817h383q68 0 111 43t43 102.5 t-43 101.5t-109 42h-385v-289z" />
<glyph unicode="C" horiz-adv-x="1527" d="M66 684q0 303 196.5 511t511.5 208q274 0 463.5 -162t226.5 -410h-303q-35 129 -138 208q-100 77 -244 77h-7q-184 -2 -297 -126t-113 -304t113 -305t301 -125q150 0 255 82t136 217h301q-33 -254 -222 -419t-472 -165q-315 0 -511.5 206t-196.5 507z" />
<glyph unicode="D" horiz-adv-x="1482" d="M135 0v1372h578q305 0 503.5 -192.5t198.5 -489.5v-6q0 -297 -198.5 -490.5t-503.5 -193.5h-578zM426 285h283q182 0 295.5 110.5t113.5 288.5v6q0 178 -113.5 289t-295.5 111h-283v-805z" />
<glyph unicode="E" horiz-adv-x="1269" d="M135 0v1372h1051v-282h-760v-256h672v-271h-672v-280h760v-283h-1051z" />
<glyph unicode="F" horiz-adv-x="1241" d="M135 0v1372h1049v-282h-758v-289h682v-271h-682v-530h-291z" />
<glyph unicode="G" horiz-adv-x="1558" d="M68 684q0 301 197.5 510t516.5 209q256 0 440.5 -139.5t241.5 -362.5h-323q-45 98 -141 157q-92 56 -212 56h-8q-188 -2 -301.5 -125t-113.5 -301q0 -180 115.5 -304t305.5 -126h8q136 0 236 64q103 67 141 180h-407v262h731q2 -34 2 -68q0 -293 -182 -498 q-203 -227 -535 -227q-315 0 -513.5 205t-198.5 508z" />
<glyph unicode="H" horiz-adv-x="1499" d="M135 0v1372h291v-530h645v530h293v-1372h-293v559h-645v-559h-291z" />
<glyph unicode="I" horiz-adv-x="561" d="M135 0v1372h291v-1372h-291z" />
<glyph unicode="J" horiz-adv-x="980" d="M51 0v283h418q96 0 96 94v995h291v-1059q0 -150 -81 -231.5t-230 -81.5h-494z" />
<glyph unicode="K" horiz-adv-x="1435" d="M135 0v1372h291v-532h301l303 532h320l-310 -532q281 -2 281 -295v-545h-291v483q0 82 -84 82h-520v-565h-291z" />
<glyph unicode="L" horiz-adv-x="1183" d="M135 0v1372h293v-1087h705v-285h-998z" />
<glyph unicode="M" horiz-adv-x="1818" d="M135 0v1372h404l372 -913l373 913h399v-1372h-290v942l-392 -942h-186l-389 938v-938h-291z" />
<glyph unicode="N" horiz-adv-x="1554" d="M135 0v1372h332l661 -901v901h291v-1372h-291l-702 956v-956h-291z" />
<glyph unicode="O" horiz-adv-x="1581" d="M68 684q0 301 200.5 510t522 209t522 -209t200.5 -510t-199.5 -507t-523 -206t-523 206t-199.5 507zM365 686q0 -178 116.5 -304t309 -126t309.5 125t117 305t-117 305t-309.5 125t-309 -125t-116.5 -305z" />
<glyph unicode="P" horiz-adv-x="1359" d="M135 0v1372h688q203 0 340 -134t137 -337q0 -207 -138 -339t-339 -132h-397v-430h-291zM426 707h375q88 0 146.5 53t58.5 141q0 82 -59.5 135.5t-145.5 53.5h-375v-383z" />
<glyph unicode="Q" horiz-adv-x="1587" d="M68 692q0 297 196.5 504t513.5 207q313 0 512 -197.5t199 -480.5q0 -143 -59 -264t-168 -197v-6h245v-268h-729q-315 0 -512.5 203.5t-197.5 498.5zM362 694q0 -172 115 -296t301.5 -124t301 124t114.5 296q0 176 -114.5 299t-301 123t-301.5 -123t-115 -299z" />
<glyph unicode="R" horiz-adv-x="1447" d="M135 0v1372h703q213 0 343 -100.5t130 -282.5q0 -190 -135 -289v-6q168 -43 167 -256v-438h-290v385q0 82 -86 82h-541v-467h-291zM426 731h389q92 0 148.5 48t56.5 132q0 82 -57.5 130.5t-145.5 48.5h-391v-359z" />
<glyph unicode="S" horiz-adv-x="1329" d="M68 985q0 158 107.5 272.5t297.5 114.5h707v-282h-686q-53 0 -82 -29t-29 -70q0 -35 22.5 -63.5t63.5 -38.5l489 -115q152 -35 232 -140.5t80 -236.5q0 -162 -109.5 -279.5t-304.5 -117.5h-735v285h725q51 0 83 32.5t32 75.5q0 84 -93 105l-491 116q-150 37 -229.5 140.5 t-79.5 230.5z" />
<glyph unicode="T" horiz-adv-x="1312" d="M51 1090v282h1213v-282h-461v-1090h-293v1090h-459z" />
<glyph unicode="U" horiz-adv-x="1435" d="M109 588v784h292v-780q0 -152 85 -249t231 -97q147 0 232 97t85 249v780h291v-784q0 -285 -165 -455t-443 -170q-276 0 -442 170t-166 455z" />
<glyph unicode="V" horiz-adv-x="1527" d="M35 1372h315l418 -1014l414 1014h311l-571 -1372h-318z" />
<glyph unicode="W" horiz-adv-x="2004" d="M41 1372h311l260 -913l250 913h281l250 -911l258 911h313l-393 -1372h-326l-241 872l-244 -872h-326z" />
<glyph unicode="X" horiz-adv-x="1409" d="M37 0l495 696l-481 676h367l291 -428l301 428h336l-472 -670l500 -702h-366l-308 453l-307 -453h-356z" />
<glyph unicode="Y" horiz-adv-x="1449" d="M31 1372h336l362 -573l361 573h329l-549 -842v-530h-290v528z" />
<glyph unicode="Z" horiz-adv-x="1253" d="M70 0v229l684 861h-666v282h1063v-229l-690 -860h727v-283h-1118z" />
<glyph unicode="[" horiz-adv-x="681" d="M133 -410v1885h518v-240h-260v-1405h260v-240h-518z" />
<glyph unicode="\" horiz-adv-x="1026" d="M2 1638h215l791 -2048h-215z" />
<glyph unicode="]" horiz-adv-x="681" d="M31 -170h260v1405h-260v240h518v-1885h-518v240z" />
<glyph unicode="^" horiz-adv-x="1036" d="M74 815l307 557h276l308 -557h-281l-164 330l-166 -330h-280z" />
<glyph unicode="_" horiz-adv-x="1443" d="M109 -254h1228v-156h-1228v156z" />
<glyph unicode="`" horiz-adv-x="561" d="M31 1475h270l242 -324h-262z" />
<glyph unicode="a" horiz-adv-x="1259" d="M51 508q1 237 137 391q135 152 346 152h5q106 0 192 -45t135 -117h11v131h274v-1020h-274v135h-11q-49 -74 -135 -119t-194 -47q-209 0 -347.5 150.5t-138.5 388.5zM330 510q0 -121 76.5 -200t197.5 -79t197 81t76 198q0 119 -77 198.5t-196 79.5q-121 0 -197.5 -78.5 t-76.5 -199.5z" />
<glyph unicode="b" horiz-adv-x="1259" d="M109 0v1475h274v-590h8q51 74 138.5 120t193.5 46h5q205 -1 342 -149q138 -150 138 -390q0 -238 -136 -390.5t-351 -152.5q-106 2 -193.5 47t-136.5 117h-8v-133h-274zM383 510q0 -119 76.5 -199t195.5 -80q121 0 198 79t77 200t-77 199.5t-197.5 78.5t-196.5 -80.5 t-76 -197.5z" />
<glyph unicode="c" horiz-adv-x="1144" d="M49 509.5q0 233.5 147.5 387.5t389.5 154q207 0 347 -116t171 -302h-289q-25 68 -85 109.5t-142 41.5q-119 0 -190.5 -78.5t-71.5 -195.5q0 -115 71.5 -193.5t190.5 -78.5q80 0 141.5 42t85.5 109h289q-33 -186 -173 -303t-345 -117q-242 0 -389.5 153.5t-147.5 387z" />
<glyph unicode="d" horiz-adv-x="1259" d="M51 512q1 240 139 390q137 149 342 149h5q106 0 193 -46.5t138 -119.5h9v590h274v-1475h-274v133h-9q-49 -72 -136 -117t-193 -47q-215 0 -351.5 152.5t-136.5 390.5zM330 510q0 -121 76.5 -200t197.5 -79q119 0 196 80t77 199q0 117 -76 197.5t-197 80.5t-197.5 -78.5 t-76.5 -199.5z" />
<glyph unicode="e" horiz-adv-x="1155" d="M49 510q0 229 151 385t382 156q254 -1 401 -181q123 -152 123 -367q0 -41 -4 -85h-770q12 -82 78.5 -138.5t169.5 -60.5h17q62 -1 117 25q62 30 89 80h289q-49 -168 -188.5 -261.5t-323.5 -93.5q-248 0 -389.5 157t-141.5 384zM334 633h487q-23 80 -87 125t-154.5 45 t-157 -46t-88.5 -124z" />
<glyph unicode="f" horiz-adv-x="903" d="M31 754v266h143v156q0 133 85 216t220 83h391v-269h-338q-37 0 -59 -20.5t-22 -55.5v-110h419v-266h-419v-754h-277v754h-143z" />
<glyph unicode="g" horiz-adv-x="1259" d="M51 507.5q0 237.5 137 391.5q134 152 346 152h5q106 0 192 -45t135 -117h11v131h274v-1124q0 -147 -81 -226.5t-230 -79.5h-656v277h596q96 0 97 92v176h-11q-49 -74 -135 -119t-194 -47q-209 0 -347.5 150.5t-138.5 388zM330 510q0 -121 76.5 -200t197.5 -79t197 81 t76 198q0 119 -77 198.5t-196 79.5q-121 0 -197.5 -78.5t-76.5 -199.5z" />
<glyph unicode="h" horiz-adv-x="1187" d="M109 0v1475h276v-578h8q108 152 303 152q188 0 297 -121t109 -338v-590h-277v549q0 106 -59 167.5t-150 61.5q-96 0 -163.5 -68.5t-67.5 -181.5v-528h-276z" />
<glyph unicode="i" horiz-adv-x="491" d="M109 0v1020h276v-1020h-276zM109 1151v324h276v-324h-276z" />
<glyph unicode="j" horiz-adv-x="491" d="M-209 -139h236q37 0 59.5 20.5t22.5 55.5v1083h276v-1131q0 -141 -83 -220t-224 -79h-287v271zM109 1151v324h276v-324h-276z" />
<glyph unicode="k" horiz-adv-x="1177" d="M109 0v1475h276v-813h211l203 366h301l-213 -371q86 -14 139 -74.5t53 -158.5v-424h-276v332q0 76 -82 76h-336v-408h-276z" />
<glyph unicode="l" horiz-adv-x="622" d="M96 295v1180h277v-1131q0 -76 82 -76h137v-268h-191q-145 0 -225 78t-80 217z" />
<glyph unicode="m" horiz-adv-x="1773" d="M109 0v1020h264v-129h8q104 158 291 158q201 0 289 -166h8q120 166 329 166q166 0 277 -111t111 -322v-616h-277v573q0 104 -49 155.5t-129 51.5t-138.5 -59t-58.5 -178v-543h-276v571q0 104 -49.5 155.5t-126.5 51.5q-88 -2 -142.5 -69.5t-54.5 -178.5v-530h-276z" />
<glyph unicode="n" horiz-adv-x="1187" d="M109 0v1020h268v-123h10q108 152 309 152q188 0 297 -121t109 -338v-590h-277v549q0 106 -59 167.5t-150 61.5q-96 0 -163.5 -68.5t-67.5 -181.5v-528h-276z" />
<glyph unicode="o" horiz-adv-x="1193" d="M49 510q0 231 151.5 386t397.5 155t397.5 -155t151.5 -386q0 -233 -151.5 -387t-397.5 -154t-397.5 153.5t-151.5 387.5zM326 510q0 -117 75.5 -194.5t196.5 -77.5q119 0 195.5 78.5t76.5 193.5q0 117 -75.5 195.5t-196.5 78.5t-196.5 -78.5t-75.5 -195.5z" />
<glyph unicode="p" horiz-adv-x="1259" d="M109 -410v1430h274v-131h10q49 72 136.5 117t191.5 45h5q212 0 346 -152q136 -154 136 -391.5t-138 -388t-347 -150.5q-109 2 -195 47t-135 119h-10v-545h-274zM383 510q0 -117 76 -198t196.5 -81t197.5 79t77 200t-77 199.5t-198 78.5q-119 0 -195.5 -79.5t-76.5 -198.5 z" />
<glyph unicode="q" horiz-adv-x="1259" d="M51 507.5q0 237.5 137 391.5q134 152 346 152h5q104 0 191 -45t136 -117h11v131h274v-1430h-274v545h-11q-49 -74 -135 -119t-194 -47q-209 0 -347.5 150.5t-138.5 388zM330 510q0 -121 76.5 -200t197.5 -79t197 81t76 198q0 119 -77 198.5t-196 79.5 q-121 0 -197.5 -78.5t-76.5 -199.5z" />
<glyph unicode="r" horiz-adv-x="874" d="M109 0v1020h262v-160h10q60 160 246 160h215v-277h-230q-100 0 -163.5 -65.5t-63.5 -169.5v-508h-276z" />
<glyph unicode="s" horiz-adv-x="1058" d="M51 719q0 131 94.5 216t235.5 85h561v-266h-553q-43 0 -43 -43q0 -37 35 -43l383 -78q117 -25 184.5 -100.5t67.5 -182.5q0 -133 -95.5 -220t-236.5 -87h-590v268h586q45 0 45 45q0 35 -35 45l-389 84q-111 23 -180.5 98.5t-69.5 178.5z" />
<glyph unicode="t" horiz-adv-x="935" d="M31 754v266h143v352h277v-352h419v-266h-419v-408q0 -37 22.5 -57.5t58.5 -20.5h338v-268h-389q-141 0 -224 81t-83 218v455h-143z" />
<glyph unicode="u" horiz-adv-x="1163" d="M82 471v549h276v-545q0 -102 59.5 -169.5t164 -67.5t163 67.5t58.5 169.5v545h276v-549q0 -231 -134 -366.5t-363.5 -135.5t-364.5 136.5t-135 365.5z" />
<glyph unicode="v" horiz-adv-x="1175" d="M12 1020h297l291 -688l279 688h282l-436 -1020h-276z" />
<glyph unicode="w" horiz-adv-x="1611" d="M16 1020h287l189 -637l190 637h248l194 -637l185 637h286l-325 -1020h-264l-199 649l-201 -649h-264z" />
<glyph unicode="x" horiz-adv-x="1146" d="M12 0l385 512l-381 508h355l211 -303l204 303h326l-362 -502l385 -518h-355l-213 301l-207 -301h-348z" />
<glyph unicode="y" horiz-adv-x="1169" d="M14 1020h303l308 -774l249 774h281l-405 -1186q-41 -117 -125 -180.5t-203 -63.5h-291v271h283q41 0 69 18z" />
<glyph unicode="z" horiz-adv-x="1036" d="M55 0v227l533 527h-512v266h885v-225l-531 -527h551v-268h-926z" />
<glyph unicode="{" horiz-adv-x="684" d="M82 406v253h35q35 0 55.5 20.5t20.5 55.5v461q0 125 77.5 202t204.5 77h162v-240h-109q-35 0 -56 -21.5t-21 -54.5v-430q0 -76 -33 -126t-90 -66v-11q55 -14 89 -64t34 -126v-430q0 -33 21.5 -54.5t55.5 -21.5h109v-240h-162q-127 0 -204.5 76t-77.5 201v463 q0 35 -20.5 55.5t-55.5 20.5h-35z" />
<glyph unicode="|" horiz-adv-x="530" d="M162 -266v1904h205v-1904h-205z" />
<glyph unicode="}" horiz-adv-x="684" d="M47 -170h111q33 0 54 21.5t21 54.5v430q0 76 34 127t91 63v11q-57 14 -91 65t-34 127v430q0 33 -21.5 54.5t-53.5 21.5h-111v240h164q125 0 203 -77t78 -202v-461q0 -33 21 -54.5t54 -21.5h35v-253h-35q-33 0 -54 -22t-21 -54v-463q0 -125 -78 -201t-203 -76h-164v240z " />
<glyph unicode="~" d="M152 391v350q0 109 90 157t198 -9l455 -244q20 -8 20 17v247h234v-348q0 -111 -90 -159t-199 10l-454 243q-6 4 -13.5 0t-7.5 -14v-250h-233z" />
<glyph unicode="&#xa1;" horiz-adv-x="595" d="M141 713v307h297v-307h-297zM145 -410l19 977h252l20 -977h-291z" />
<glyph unicode="&#xa2;" horiz-adv-x="1245" d="M96 510q0 197 107.5 340t292.5 186v215h270v-215q156 -33 258 -141.5t129 -261.5h-291q-23 68 -84 109.5t-143 41.5q-119 0 -190.5 -78.5t-71.5 -195.5q0 -115 71.5 -193.5t190.5 -78.5q80 0 142.5 42t84.5 109h291q-27 -154 -130 -262.5t-257 -142.5v-213h-270v213 q-184 43 -292 186t-108 340z" />
<glyph unicode="&#xa3;" horiz-adv-x="1253" d="M117 0v268h145v193h-145v239h145v35q0 182 119 302t295 120h403v-268h-383q-68 0 -110.5 -44t-42.5 -108v-37h385v-239h-385v-193h616v-268h-1042z" />
<glyph unicode="&#xa4;" horiz-adv-x="1220" d="M92 219l144 148q-51 92 -52 202q0 104 49 199l-141 145l170 172l146 -143q92 51 202 51q109 0 201 -51l145 143l172 -172l-143 -143q51 -97 51 -201q0 -111 -53 -204l145 -146l-172 -172l-147 146q-94 -49 -199 -50q-109 0 -200 52l-148 -148zM408 569q0 -84 59 -143 t143 -59t142.5 59t58.5 143q0 82 -59.5 141.5t-141.5 59.5q-84 0 -143 -59.5t-59 -141.5z" />
<glyph unicode="&#xa5;" horiz-adv-x="1411" d="M72 1157h325l312 -440l313 440h317l-401 -553h295v-231h-385v-142h385v-229h-385v-229h-283v229h-387v229h387v142h-387v231h293z" />
<glyph unicode="&#xa6;" horiz-adv-x="528" d="M162 -266v821h205v-821h-205zM162 829v809h205v-809h-205z" />
<glyph unicode="&#xa7;" horiz-adv-x="1138" d="M94 528q0 129 77 224.5t191 132.5l-94 51q-98 53 -138 146.5t-18.5 179.5t106.5 149.5t212 63.5h541v-261h-539q-39 0 -45 -33.5t29 -47.5l356 -187q123 -63 197.5 -170.5t74.5 -238.5q0 -129 -76.5 -224.5t-191.5 -132.5l94 -51q133 -72 161 -202t-62 -233.5 t-258 -103.5h-543v260h539q39 0 45 34t-29 48l-354 187q-123 63 -199 170.5t-76 238.5zM354 532.5q0 -88.5 62.5 -148.5t152.5 -60q92 0 153.5 60t61.5 148.5t-61 148.5t-154 60q-90 0 -152.5 -60t-62.5 -148.5z" />
<glyph unicode="&#xa8;" horiz-adv-x="858" d="M143 1151v324h248v-324h-248zM539 1151v324h247v-324h-247z" />
<glyph unicode="&#xa9;" horiz-adv-x="1615" d="M90 686q0 297 210 507t509 210q297 0 507 -210t210 -507t-210 -507t-507 -210q-299 0 -509 210t-210 507zM262 686q0 -229 159 -388t388 -159q227 0 386 159t159 388q0 227 -159 387t-386 160q-229 0 -388 -160t-159 -387zM451 686q0 158 99 262.5t263 104.5 q139 0 233 -79t117 -204h-196q-16 45 -57.5 74.5t-96.5 29.5q-80 0 -129 -54t-49 -134q0 -78 49 -132t129 -54q55 0 96 28.5t58 75.5h196q-23 -125 -118 -203.5t-232 -78.5q-164 0 -263 104t-99 260z" />
<glyph unicode="&#xab;" horiz-adv-x="1005" d="M45 502l293 389h258l-303 -389l303 -389h-258zM444 502l293 389h258l-303 -389l303 -389h-258z" />
<glyph unicode="&#xad;" horiz-adv-x="946" d="M109 432v250h729v-250h-729z" />
<glyph unicode="&#xae;" horiz-adv-x="1058" d="M102 977q0 178 125 302t303 124q176 0 301 -124t125 -302t-124.5 -302t-301.5 -124q-178 0 -303 124t-125 302zM193 977q0 -141 98 -239.5t239 -98.5q139 0 237.5 98.5t98.5 239.5t-98 239.5t-238 98.5q-141 0 -239 -98.5t-98 -239.5zM342 760v438h233q70 0 111 -32.5 t39 -90.5q0 -71 -61 -98q63 -6 63 -78v-139h-92v125q0 27 -29 26h-170v-151h-94zM436 993h131q29 0 47.5 15.5t18.5 42t-18.5 42t-47.5 15.5h-131v-115z" />
<glyph unicode="&#xb0;" horiz-adv-x="790" d="M115 1120q0 117 82 200t200 83q117 0 198 -83t81 -200q0 -119 -81 -200.5t-198 -81.5q-119 0 -200.5 81.5t-81.5 200.5zM289 1120q0 -47 31.5 -78.5t76.5 -31.5t77 32.5t32 77.5t-32 77t-77 32t-76.5 -31t-31.5 -78z" />
<glyph unicode="&#xb2;" horiz-adv-x="686" d="M35 565v156l381 348q29 29 28 59q0 23 -18 38.5t-47 15.5h-338v190h344q115 0 185.5 -68.5t68.5 -162.5q-4 -113 -100 -201l-203 -182h301v-193h-602z" />
<glyph unicode="&#xb3;" horiz-adv-x="692" d="M41 565v191h338q33 0 56.5 19.5t23.5 47.5q0 27 -21.5 47.5t-58.5 20.5h-184v115l165 176h-319v190h586v-143l-174 -185q84 -12 144 -70.5t60 -154.5q0 -109 -74.5 -181.5t-181.5 -72.5h-360z" />
<glyph unicode="&#xb4;" horiz-adv-x="561" d="M33 1151l241 324h271l-250 -324h-262z" />
<glyph unicode="&#xb6;" horiz-adv-x="1161" d="M86 901q0 203 137 337t340 134h436v-1372h-292v430h-144q-201 0 -339 132t-138 339z" />
<glyph unicode="&#xb7;" horiz-adv-x="602" d="M143 532v308h297v-308h-297z" />
<glyph unicode="&#xb8;" horiz-adv-x="571" d="M59 -254h258q27 0 27 22.5t-27 22.5h-165v223h159v-84h23q84 0 129 -49t45 -118.5t-46 -121t-128 -51.5h-275v156z" />
<glyph unicode="&#xb9;" horiz-adv-x="481" d="M8 1182v190h387v-807h-194v617h-193z" />
<glyph unicode="&#xbb;" horiz-adv-x="1013" d="M0 113l303 389l-303 389h258l293 -389l-293 -389h-258zM410 113l301 389l-301 389h256l292 -389l-292 -389h-256z" />
<glyph unicode="&#xbc;" horiz-adv-x="1619" d="M23 1182v190h387v-807h-195v617h-192zM184 0l963 1372h211l-963 -1372h-211zM829 188v144l324 475h279v-438h135v-181h-135v-188h-197v188h-406zM1067 369h168v260z" />
<glyph unicode="&#xbd;" horiz-adv-x="1728" d="M29 1182v190h385v-807h-195v617h-190zM190 0l963 1372h211l-963 -1372h-211zM1036 0v156l381 348q31 31 31 59q0 23 -19.5 38t-48.5 15h-338v191h344q115 0 185.5 -69t68.5 -163q-4 -113 -100 -200l-201 -182h301v-193h-604z" />
<glyph unicode="&#xbe;" horiz-adv-x="1769" d="M68 565v191h338q33 0 56 19.5t23 47.5q0 27 -21.5 47.5t-57.5 20.5h-185v115l166 176h-319v190h585v-143l-174 -185q84 -12 144.5 -70.5t60.5 -154.5q0 -109 -74.5 -181.5t-181.5 -72.5h-360zM322 0l962 1372h211l-963 -1372h-210zM967 188v144l323 475h279v-438h135 v-181h-135v-188h-197v188h-405zM1204 369h168v260z" />
<glyph unicode="&#xbf;" horiz-adv-x="1007" d="M76 -28.5q0 151.5 105.5 265t291.5 113.5h78v197h270v-443h-329q-61 0 -97.5 -36.5t-36.5 -87.5q0 -49 35.5 -85t98.5 -36h495v-269h-516q-184 0 -289.5 115t-105.5 266.5zM537 713v307h297v-307h-297z" />
<glyph unicode="&#xc0;" horiz-adv-x="1521" d="M35 0l563 1372h324l565 -1372h-330l-115 291h-575l-113 -291h-319zM459 1737h276l236 -262h-262zM567 547h373l-186 475z" />
<glyph unicode="&#xc1;" horiz-adv-x="1521" d="M35 0l563 1372h324l565 -1372h-330l-115 291h-575l-113 -291h-319zM547 1475l233 262h279l-250 -262h-262zM567 547h373l-186 475z" />
<glyph unicode="&#xc2;" horiz-adv-x="1521" d="M35 0l563 1372h324l565 -1372h-330l-115 291h-575l-113 -291h-319zM383 1475l242 262h270l242 -262h-256l-121 141l-121 -141h-256zM567 547h373l-186 475z" />
<glyph unicode="&#xc3;" horiz-adv-x="1521" d="M35 0l563 1372h324l565 -1372h-330l-115 291h-575l-113 -291h-319zM426 1475v174q0 96 70.5 134t171.5 1l184 -72q10 -4 17.5 1t7.5 16v81h217v-170q0 -94 -73 -136t-171 -3l-184 74q-25 9 -25 -16v-84h-215zM567 547h373l-186 475z" />
<glyph unicode="&#xc4;" horiz-adv-x="1521" d="M35 0l563 1372h324l565 -1372h-330l-115 291h-575l-113 -291h-319zM440 1475v262h246v-262h-246zM567 547h373l-186 475zM836 1475v262h245v-262h-245z" />
<glyph unicode="&#xc5;" horiz-adv-x="1521" d="M35 0l563 1372h324l565 -1372h-330l-115 291h-575l-113 -291h-319zM510 1689.5q0 104.5 72.5 175t177 70.5t177.5 -70.5t73 -175t-73 -175t-177.5 -70.5t-177 70.5t-72.5 175zM567 547h373l-186 475zM680 1690q0 -33 23.5 -55.5t56.5 -22.5t56.5 22.5t23.5 55.5 q0 35 -22.5 57t-57.5 22t-57.5 -22.5t-22.5 -56.5z" />
<glyph unicode="&#xc6;" horiz-adv-x="2019" d="M33 0l735 1372h1169v-282h-610v-256h520v-271h-520v-280h610v-283h-901v350h-487l-180 -350h-336zM686 618h350v472h-108z" />
<glyph unicode="&#xc7;" horiz-adv-x="1527" d="M66 684q0 303 196.5 511t511.5 208q274 0 463.5 -162t226.5 -410h-303q-35 129 -138 208t-251 77q-184 -2 -297 -126t-113 -304t113 -305t301 -125q150 0 255 82t136 217h301q-33 -252 -218 -416t-462 -168v-41h37q84 0 129 -49t45 -118.5t-46 -121t-128 -51.5h-274v156 h256q27 0 27 22.5t-27 22.5h-178v193q-256 47 -409.5 241.5t-153.5 458.5z" />
<glyph unicode="&#xc8;" horiz-adv-x="1269" d="M135 0v1372h1051v-282h-760v-256h672v-271h-672v-280h760v-283h-1051zM360 1737h277l235 -262h-262z" />
<glyph unicode="&#xc9;" horiz-adv-x="1269" d="M135 0v1372h1051v-282h-760v-256h672v-271h-672v-280h760v-283h-1051zM449 1475l233 262h279l-250 -262h-262z" />
<glyph unicode="&#xca;" horiz-adv-x="1269" d="M135 0v1372h1051v-282h-760v-256h672v-271h-672v-280h760v-283h-1051zM285 1475l241 262h271l241 -262h-256l-120 141l-121 -141h-256z" />
<glyph unicode="&#xcb;" horiz-adv-x="1269" d="M135 0v1372h1051v-282h-760v-256h672v-271h-672v-280h760v-283h-1051zM342 1475v262h246v-262h-246zM737 1475v262h246v-262h-246z" />
<glyph unicode="&#xcc;" horiz-adv-x="561" d="M-18 1737h276l236 -262h-263zM135 0v1372h291v-1372h-291z" />
<glyph unicode="&#xcd;" horiz-adv-x="561" d="M68 1475l233 262h279l-250 -262h-262zM135 0v1372h291v-1372h-291z" />
<glyph unicode="&#xce;" horiz-adv-x="561" d="M-96 1475l241 262h271l241 -262h-256l-120 141l-121 -141h-256zM135 0v1372h291v-1372h-291z" />
<glyph unicode="&#xcf;" horiz-adv-x="561" d="M-39 1475v262h246v-262h-246zM135 0v1372h291v-1372h-291zM356 1475v262h246v-262h-246z" />
<glyph unicode="&#xd0;" horiz-adv-x="1548" d="M49 594v213h152v565h579q305 0 503 -192.5t198 -489.5v-6q0 -297 -198 -490.5t-503 -193.5h-579v594h-152zM494 285h280q182 0 297 110.5t115 288.5v6q0 178 -115 289t-297 111h-280v-283h358v-213h-358v-309z" />
<glyph unicode="&#xd1;" horiz-adv-x="1554" d="M135 0v1372h332l661 -901v901h291v-1372h-291l-702 956v-956h-291zM444 1475v174q0 96 71 134t171 1l184 -72q10 -4 17.5 1t7.5 16v81h217v-170q0 -94 -72.5 -136t-171.5 -3l-184 74q-25 9 -25 -16v-84h-215z" />
<glyph unicode="&#xd2;" horiz-adv-x="1581" d="M68 684q0 301 200.5 510t522 209t522 -209t200.5 -510t-199.5 -507t-523 -206t-523 206t-199.5 507zM365 686q0 -178 116.5 -304t309 -126t309.5 125t117 305t-117 305t-309.5 125t-309 -125t-116.5 -305zM489 1737h277l235 -262h-262z" />
<glyph unicode="&#xd3;" horiz-adv-x="1581" d="M68 684q0 301 200.5 510t522 209t522 -209t200.5 -510t-199.5 -507t-523 -206t-523 206t-199.5 507zM365 686q0 -178 116.5 -304t309 -126t309.5 125t117 305t-117 305t-309.5 125t-309 -125t-116.5 -305zM575 1475l234 262h278l-249 -262h-263z" />
<glyph unicode="&#xd4;" horiz-adv-x="1581" d="M68 684q0 301 200.5 510t522 209t522 -209t200.5 -510t-199.5 -507t-523 -206t-523 206t-199.5 507zM365 686q0 -178 116.5 -304t309 -126t309.5 125t117 305t-117 305t-309.5 125t-309 -125t-116.5 -305zM412 1475l241 262h271l241 -262h-256l-121 141l-120 -141h-256z " />
<glyph unicode="&#xd5;" horiz-adv-x="1581" d="M68 684q0 301 200.5 510t522 209t522 -209t200.5 -510t-199.5 -507t-523 -206t-523 206t-199.5 507zM365 686q0 -178 116.5 -304t309 -126t309.5 125t117 305t-117 305t-309.5 125t-309 -125t-116.5 -305zM457 1475v174q0 96 70.5 134t170.5 1l185 -72q10 -4 17 1t7 16 v81h217v-170q0 -94 -72.5 -136t-170.5 -3l-185 74q-25 8 -24 -16v-84h-215z" />
<glyph unicode="&#xd6;" horiz-adv-x="1581" d="M68 684q0 301 200.5 510t522 209t522 -209t200.5 -510t-199.5 -507t-523 -206t-523 206t-199.5 507zM365 686q0 -178 116.5 -304t309 -126t309.5 125t117 305t-117 305t-309.5 125t-309 -125t-116.5 -305zM469 1475v262h246v-262h-246zM864 1475v262h246v-262h-246z" />
<glyph unicode="&#xd7;" horiz-adv-x="1122" d="M78 358l303 306l-303 303l180 180l303 -303l303 303l180 -180l-303 -303l303 -306l-180 -180l-303 303l-303 -303z" />
<glyph unicode="&#xd8;" horiz-adv-x="1587" d="M72 684q0 301 200.5 510t522.5 209q217 0 387 -103l59 72h252l-162 -194q186 -203 187 -494q0 -301 -200 -507t-523 -206q-215 0 -387 101l-58 -70l-252 -2l160 193q-186 199 -186 491zM369 686q0 -150 82 -262l540 649q-90 43 -196 43q-193 0 -309.5 -125t-116.5 -305z M598 299q93 -43 197 -43q193 0 309.5 125t116.5 305q0 150 -82 262z" />
<glyph unicode="&#xd9;" horiz-adv-x="1435" d="M109 588v784h292v-780q0 -152 85 -249t231 -97q147 0 232 97t85 249v780h291v-784q0 -285 -165 -455t-443 -170q-276 0 -442 170t-166 455zM416 1737h276l236 -262h-262z" />
<glyph unicode="&#xda;" horiz-adv-x="1435" d="M109 588v784h292v-780q0 -152 85 -249t231 -97q147 0 232 97t85 249v780h291v-784q0 -285 -165 -455t-443 -170q-276 0 -442 170t-166 455zM504 1475l233 262h279l-250 -262h-262z" />
<glyph unicode="&#xdb;" horiz-adv-x="1435" d="M109 588v784h292v-780q0 -152 85 -249t231 -97q147 0 232 97t85 249v780h291v-784q0 -285 -165 -455t-443 -170q-276 0 -442 170t-166 455zM340 1475l242 262h270l242 -262h-256l-121 141l-121 -141h-256z" />
<glyph unicode="&#xdc;" horiz-adv-x="1435" d="M109 588v784h292v-780q0 -152 85 -249t231 -97q147 0 232 97t85 249v780h291v-784q0 -285 -165 -455t-443 -170q-276 0 -442 170t-166 455zM397 1475v262h246v-262h-246zM793 1475v262h245v-262h-245z" />
<glyph unicode="&#xdd;" horiz-adv-x="1449" d="M31 1372h336l362 -573l361 573h329l-549 -842v-530h-290v528zM512 1475l233 262h279l-250 -262h-262z" />
<glyph unicode="&#xde;" horiz-adv-x="1359" d="M135 0v1372h291v-188h397q203 0 340 -134.5t137 -334.5q0 -207 -138 -340t-339 -133h-397v-242h-291zM426 518h375q88 0 146.5 53.5t58.5 141.5q0 82 -59.5 135t-145.5 53h-375v-383z" />
<glyph unicode="&#xdf;" horiz-adv-x="1339" d="M31 754v266h143v156q0 133 85 216t220 83h647v-187l-149 -305q150 -45 232.5 -176t82.5 -295q0 -211 -134 -361.5t-363 -150.5h-166v268h151q109 0 169.5 69t62.5 167q2 104 -63.5 178t-176.5 74h-88v182l125 268h-277q-37 0 -59 -20.5t-22 -55.5v-1130h-277v754h-143z " />
<glyph unicode="&#xe0;" horiz-adv-x="1259" d="M51 507.5q0 237.5 136.5 391.5t351.5 152q106 0 192 -45t135 -117h11v131h274v-1020h-274v135h-11q-49 -74 -135 -119t-194 -47q-209 0 -347.5 150.5t-138.5 388zM330 510q0 -121 76.5 -200t197.5 -79t197 81t76 198q0 119 -77 198.5t-196 79.5q-121 0 -197.5 -78.5 t-76.5 -199.5zM342 1475h270l242 -324h-262z" />
<glyph unicode="&#xe1;" horiz-adv-x="1259" d="M51 507.5q0 237.5 136.5 391.5t351.5 152q106 0 192 -45t135 -117h11v131h274v-1020h-274v135h-11q-49 -74 -135 -119t-194 -47q-209 0 -347.5 150.5t-138.5 388zM330 510q0 -121 76.5 -200t197.5 -79t197 81t76 198q0 119 -77 198.5t-196 79.5q-121 0 -197.5 -78.5 t-76.5 -199.5zM379 1151l242 324h270l-250 -324h-262z" />
<glyph unicode="&#xe2;" horiz-adv-x="1259" d="M51 507.5q0 237.5 136.5 391.5t351.5 152q106 0 192 -45t135 -117h11v131h274v-1020h-274v135h-11q-49 -74 -135 -119t-194 -47q-209 0 -347.5 150.5t-138.5 388zM238 1151l241 324h269l241 -324h-250l-125 176l-125 -176h-251zM330 510q0 -121 76.5 -200t197.5 -79 t197 81t76 198q0 119 -77 198.5t-196 79.5q-121 0 -197.5 -78.5t-76.5 -199.5z" />
<glyph unicode="&#xe3;" horiz-adv-x="1259" d="M51 507.5q0 237.5 136.5 391.5t351.5 152q106 0 192 -45t135 -117h11v131h274v-1020h-274v135h-11q-49 -74 -135 -119t-194 -47q-209 0 -347.5 150.5t-138.5 388zM281 1151v174q0 94 70.5 133t170.5 2l185 -71q25 -10 24 16v80h217v-168q0 -94 -72.5 -136t-170.5 -3 l-185 71q-8 4 -16 0t-8 -16v-82h-215zM330 510q0 -121 76.5 -200t197.5 -79t197 81t76 198q0 119 -77 198.5t-196 79.5q-121 0 -197.5 -78.5t-76.5 -199.5z" />
<glyph unicode="&#xe4;" horiz-adv-x="1259" d="M51 507.5q0 237.5 136.5 391.5t351.5 152q106 0 192 -45t135 -117h11v131h274v-1020h-274v135h-11q-49 -74 -135 -119t-194 -47q-209 0 -347.5 150.5t-138.5 388zM293 1151v324h246v-324h-246zM330 510q0 -121 76.5 -200t197.5 -79t197 81t76 198q0 119 -77 198.5 t-196 79.5q-121 0 -197.5 -78.5t-76.5 -199.5zM688 1151v324h246v-324h-246z" />
<glyph unicode="&#xe5;" horiz-adv-x="1259" d="M51 507.5q0 237.5 136.5 391.5t351.5 152q106 0 192 -45t135 -117h11v131h274v-1020h-274v135h-11q-49 -74 -135 -119t-194 -47q-209 0 -347.5 150.5t-138.5 388zM330 510q0 -121 76.5 -200t197.5 -79t197 81t76 198q0 119 -77 198.5t-196 79.5q-121 0 -197.5 -78.5 t-76.5 -199.5zM365 1351.5q0 104.5 72.5 175t177 70.5t177 -70.5t72.5 -175t-72.5 -175t-177 -70.5t-177 70.5t-72.5 175zM535 1351.5q0 -32.5 23.5 -56t56 -23.5t56 23.5t23.5 56t-23.5 56.5t-56 24t-56 -24t-23.5 -56.5z" />
<glyph unicode="&#xe6;" horiz-adv-x="1992" d="M51 507.5q0 237.5 140.5 390.5t353.5 153q229 0 332 -172v141h274v-125q114 150 317 156q233 6 363.5 -174.5t105.5 -458.5h-774q16 -92 96 -146.5t179 -54.5q145 0 200 107h289q-45 -170 -169 -264.5t-294 -90.5q-203 6 -313 150v-119h-274v147q-106 -178 -332 -178 q-209 0 -351.5 150.5t-142.5 388zM330 510q0 -121 76.5 -200t197.5 -79t197 81t76 198q0 119 -77 198.5t-196 79.5q-121 0 -197.5 -78.5t-76.5 -199.5zM1165 629h494q-20 84 -90 131t-162 45q-86 -2 -153.5 -49t-88.5 -127z" />
<glyph unicode="&#xe7;" horiz-adv-x="1144" d="M49 510q0 233 147.5 387t389.5 154q207 0 347 -116t171 -302h-289q-25 68 -85 109.5t-142 41.5q-119 0 -190.5 -78.5t-71.5 -195.5q0 -115 71.5 -193.5t190.5 -78.5q80 0 141.5 42t85.5 109h289q-29 -162 -139.5 -273.5t-278.5 -138.5v-47h23q84 0 129 -49t45 -118.5 t-46 -121t-128 -51.5h-275v156h258q27 0 27 22.5t-27 22.5h-166v180q-217 20 -347 171t-130 368z" />
<glyph unicode="&#xe8;" horiz-adv-x="1155" d="M49 510q0 229 151 385t382 156q254 0 401 -180.5t119 -452.5h-770q12 -82 78.5 -138.5t169.5 -60.5q72 -4 134 25.5t89 79.5h289q-49 -168 -188.5 -261.5t-323.5 -93.5q-248 0 -389.5 157t-141.5 384zM309 1475h271l241 -324h-262zM334 633h487q-23 80 -87 125t-154.5 45 t-157 -46t-88.5 -124z" />
<glyph unicode="&#xe9;" horiz-adv-x="1155" d="M49 510q0 229 151 385t382 156q254 0 401 -180.5t119 -452.5h-770q12 -82 78.5 -138.5t169.5 -60.5q72 -4 134 25.5t89 79.5h289q-49 -168 -188.5 -261.5t-323.5 -93.5q-248 0 -389.5 157t-141.5 384zM334 633h487q-23 80 -87 125t-154.5 45t-157 -46t-88.5 -124z M346 1151l242 324h270l-250 -324h-262z" />
<glyph unicode="&#xea;" horiz-adv-x="1155" d="M49 510q0 229 151 385t382 156q254 0 401 -180.5t119 -452.5h-770q12 -82 78.5 -138.5t169.5 -60.5q72 -4 134 25.5t89 79.5h289q-49 -168 -188.5 -261.5t-323.5 -93.5q-248 0 -389.5 157t-141.5 384zM205 1151l241 324h269l241 -324h-249l-125 176l-125 -176h-252z M334 633h487q-23 80 -87 125t-154.5 45t-157 -46t-88.5 -124z" />
<glyph unicode="&#xeb;" horiz-adv-x="1155" d="M49 510q0 229 151 385t382 156q254 0 401 -180.5t119 -452.5h-770q12 -82 78.5 -138.5t169.5 -60.5q72 -4 134 25.5t89 79.5h289q-49 -168 -188.5 -261.5t-323.5 -93.5q-248 0 -389.5 157t-141.5 384zM262 1151v324h246v-324h-246zM334 633h487q-23 80 -87 125t-154.5 45 t-157 -46t-88.5 -124zM657 1151v324h246v-324h-246z" />
<glyph unicode="&#xec;" horiz-adv-x="491" d="M-25 1475h271l241 -324h-262zM109 0v1020h276v-1020h-276z" />
<glyph unicode="&#xed;" horiz-adv-x="491" d="M12 1151l242 324h270l-250 -324h-262zM109 0v1020h276v-1020h-276z" />
<glyph unicode="&#xee;" horiz-adv-x="491" d="M-131 1151l242 324h268l242 -324h-250l-125 176l-125 -176h-252zM109 0v1020h276v-1020h-276z" />
<glyph unicode="&#xef;" horiz-adv-x="491" d="M-74 1151v324h246v-324h-246zM109 0v1020h276v-1020h-276zM322 1151v324h245v-324h-245z" />
<glyph unicode="&#xf0;" horiz-adv-x="1185" d="M47 487q0 225 148.5 361.5t355.5 132.5q100 -2 178 -43l6 6l-141 207h-342v211h190l-84 113h320l80 -113h252v-211h-109q115 -178 172 -323.5t57 -297.5q0 -242 -145 -400.5t-397 -158.5q-233 0 -387 144.5t-154 371.5zM324 494q0 -109 74.5 -182.5t193.5 -73.5 q117 0 191.5 73.5t74.5 184t-74.5 183.5t-191.5 73q-119 0 -193.5 -74t-74.5 -184z" />
<glyph unicode="&#xf1;" horiz-adv-x="1187" d="M109 0v1020h268v-123h10q108 152 309 152q188 0 297 -121t109 -338v-590h-277v549q0 106 -59 167.5t-150 61.5q-96 0 -163.5 -68.5t-67.5 -181.5v-528h-276zM270 1151v174q0 94 71 133t171 2l184 -71q25 -10 25 16v80h217v-168q0 -94 -72.5 -136t-171.5 -3l-184 71 q-10 4 -17.5 0t-7.5 -16v-82h-215z" />
<glyph unicode="&#xf2;" horiz-adv-x="1193" d="M49 510q0 231 151.5 386t397.5 155t397.5 -155t151.5 -386q0 -233 -151.5 -387t-397.5 -154t-397.5 153.5t-151.5 387.5zM326 510q0 -117 75.5 -194.5t196.5 -77.5q119 0 195.5 78.5t76.5 193.5q0 117 -75.5 195.5t-196.5 78.5t-196.5 -78.5t-75.5 -195.5zM326 1475h270 l242 -324h-263z" />
<glyph unicode="&#xf3;" horiz-adv-x="1193" d="M49 510q0 231 151.5 386t397.5 155t397.5 -155t151.5 -386q0 -233 -151.5 -387t-397.5 -154t-397.5 153.5t-151.5 387.5zM326 510q0 -117 75.5 -194.5t196.5 -77.5q119 0 195.5 78.5t76.5 193.5q0 117 -75.5 195.5t-196.5 78.5t-196.5 -78.5t-75.5 -195.5zM362 1151 l242 324h270l-249 -324h-263z" />
<glyph unicode="&#xf4;" horiz-adv-x="1193" d="M49 510q0 231 151.5 386t397.5 155t397.5 -155t151.5 -386q0 -233 -151.5 -387t-397.5 -154t-397.5 153.5t-151.5 387.5zM221 1151l242 324h268l242 -324h-250l-125 176l-125 -176h-252zM326 510q0 -117 75.5 -194.5t196.5 -77.5q119 0 195.5 78.5t76.5 193.5 q0 117 -75.5 195.5t-196.5 78.5t-196.5 -78.5t-75.5 -195.5z" />
<glyph unicode="&#xf5;" horiz-adv-x="1193" d="M49 510q0 231 151.5 386t397.5 155t397.5 -155t151.5 -386q0 -233 -151.5 -387t-397.5 -154t-397.5 153.5t-151.5 387.5zM264 1151v174q0 94 71 133t171 2l184 -71q25 -10 25 16v80h217v-168q0 -94 -73 -136t-171 -3l-184 71q-8 4 -16.5 0t-8.5 -16v-82h-215zM326 510 q0 -117 75.5 -194.5t196.5 -77.5q119 0 195.5 78.5t76.5 193.5q0 117 -75.5 195.5t-196.5 78.5t-196.5 -78.5t-75.5 -195.5z" />
<glyph unicode="&#xf6;" horiz-adv-x="1193" d="M49 510q0 231 151.5 386t397.5 155t397.5 -155t151.5 -386q0 -233 -151.5 -387t-397.5 -154t-397.5 153.5t-151.5 387.5zM279 1151v324h245v-324h-245zM326 510q0 -117 75.5 -194.5t196.5 -77.5q119 0 195.5 78.5t76.5 193.5q0 117 -75.5 195.5t-196.5 78.5t-196.5 -78.5 t-75.5 -195.5zM674 1151v324h246v-324h-246z" />
<glyph unicode="&#xf7;" horiz-adv-x="1171" d="M90 535v256h991v-256h-991zM446 145v287h279v-287h-279zM446 891v287h279v-287h-279z" />
<glyph unicode="&#xf8;" horiz-adv-x="1202" d="M51 510q0 231 151.5 386t399.5 155q162 0 285 -70l55 70h199l-133 -164q141 -152 141 -377q0 -233 -151.5 -387t-395.5 -154q-156 0 -280 68l-54 -68h-198l129 160q-147 152 -148 381zM330 510q0 -90 47 -160l334 414q-55 20 -109 20q-121 0 -196.5 -78.5t-75.5 -195.5z M500 256q47 -18 102 -18q119 0 194.5 78.5t75.5 193.5q0 88 -43 156z" />
<glyph unicode="&#xf9;" horiz-adv-x="1163" d="M82 471v549h276v-545q0 -102 59.5 -169.5t164 -67.5t163 67.5t58.5 169.5v545h276v-549q0 -231 -134 -366.5t-363.5 -135.5t-364.5 136.5t-135 365.5zM309 1475h271l241 -324h-262z" />
<glyph unicode="&#xfa;" horiz-adv-x="1163" d="M82 471v549h276v-545q0 -102 59.5 -169.5t164 -67.5t163 67.5t58.5 169.5v545h276v-549q0 -231 -134 -366.5t-363.5 -135.5t-364.5 136.5t-135 365.5zM346 1151l242 324h270l-250 -324h-262z" />
<glyph unicode="&#xfb;" horiz-adv-x="1163" d="M82 471v549h276v-545q0 -102 59.5 -169.5t164 -67.5t163 67.5t58.5 169.5v545h276v-549q0 -231 -134 -366.5t-363.5 -135.5t-364.5 136.5t-135 365.5zM205 1151l241 324h269l241 -324h-249l-125 176l-125 -176h-252z" />
<glyph unicode="&#xfc;" horiz-adv-x="1163" d="M82 471v549h276v-545q0 -102 59.5 -169.5t164 -67.5t163 67.5t58.5 169.5v545h276v-549q0 -231 -134 -366.5t-363.5 -135.5t-364.5 136.5t-135 365.5zM260 1151v324h246v-324h-246zM655 1151v324h246v-324h-246z" />
<glyph unicode="&#xfd;" horiz-adv-x="1169" d="M14 1020h303l308 -774l249 774h281l-405 -1186q-41 -117 -125 -180.5t-203 -63.5h-291v271h283q41 0 69 18zM367 1151l241 324h271l-250 -324h-262z" />
<glyph unicode="&#xfe;" horiz-adv-x="1259" d="M109 -410v1885h274v-586h10q49 72 136.5 117t191.5 45q215 2 351 -152t136 -391.5t-138 -388t-347 -150.5q-109 2 -195 47t-135 119h-10v-545h-274zM383 510q0 -117 76 -198t196.5 -81t197.5 79t77 200t-77 199.5t-198 78.5q-119 0 -195.5 -79.5t-76.5 -198.5z" />
<glyph unicode="&#xff;" horiz-adv-x="1169" d="M14 1020h303l308 -774l249 774h281l-405 -1186q-41 -117 -125 -180.5t-203 -63.5h-291v271h283q41 0 69 18zM281 1151v324h245v-324h-245zM676 1151v324h246v-324h-246z" />
<glyph unicode="&#x100;" horiz-adv-x="1521" d="M35 0l563 1372h324l565 -1372h-330l-115 291h-575l-113 -291h-319zM430 1475v213h662v-213h-662zM567 547h373l-186 475z" />
<glyph unicode="&#x101;" horiz-adv-x="1259" d="M51 507.5q0 237.5 136.5 391.5t351.5 152q106 0 192 -45t135 -117h11v131h274v-1020h-274v135h-11q-49 -74 -135 -119t-194 -47q-209 0 -347.5 150.5t-138.5 388zM285 1151v213h661v-213h-661zM330 510q0 -121 76.5 -200t197.5 -79t197 81t76 198q0 119 -77 198.5 t-196 79.5q-121 0 -197.5 -78.5t-76.5 -199.5z" />
<glyph unicode="&#x102;" horiz-adv-x="1521" d="M35 0l563 1372h324l565 -1372h-330l-115 291h-575l-113 -291h-319zM422 1626v111h217v-47q0 -31 31 -31h182q31 0 31 31v47h215v-111q0 -66 -43 -108.5t-109 -42.5h-373q-66 0 -108.5 43t-42.5 108zM567 547h373l-186 475z" />
<glyph unicode="&#x103;" horiz-adv-x="1259" d="M51 507.5q0 237.5 136.5 391.5t351.5 152q106 0 192 -45t135 -117h11v131h274v-1020h-274v135h-11q-49 -74 -135 -119t-194 -47q-209 0 -347.5 150.5t-138.5 388zM276 1303v172h213v-101q0 -31 31 -31h189q31 0 30 31v101h213v-172q0 -66 -42.5 -109t-108.5 -43h-371 q-66 0 -110 43t-44 109zM330 510q0 -121 76.5 -200t197.5 -79t197 81t76 198q0 119 -77 198.5t-196 79.5q-121 0 -197.5 -78.5t-76.5 -199.5z" />
<glyph unicode="&#x104;" horiz-adv-x="1521" d="M35 0l563 1372h324l565 -1372l-146 -158q-14 -14 -7 -31.5t28 -17.5h125v-203h-232q-139 0 -187 113t50 213l76 84h-37l-115 291h-575l-113 -291h-319zM567 547h373l-186 475z" />
<glyph unicode="&#x105;" horiz-adv-x="1259" d="M51 507.5q0 237.5 136.5 391.5t351.5 152q106 0 192 -45t135 -117h11v131h274v-1020l-145 -156q-14 -16 -6 -32.5t28 -16.5h125v-205h-215q-139 0 -187.5 113t50.5 213l76 84v135h-11q-49 -74 -135 -119t-194 -47q-209 0 -347.5 150.5t-138.5 388zM330 510 q0 -121 76.5 -200t197.5 -79t197 81t76 198q0 119 -77 198.5t-196 79.5q-121 0 -197.5 -78.5t-76.5 -199.5z" />
<glyph unicode="&#x106;" horiz-adv-x="1527" d="M66 684q0 303 196.5 511t511.5 208q274 0 463.5 -162t226.5 -410h-303q-35 129 -138 208t-251 77q-184 -2 -297 -126t-113 -304t113 -305t301 -125q150 0 255 82t136 217h301q-33 -254 -222 -419t-472 -165q-315 0 -511.5 206t-196.5 507zM557 1475l234 262h278 l-250 -262h-262z" />
<glyph unicode="&#x107;" horiz-adv-x="1144" d="M49 509.5q0 233.5 147.5 387.5t389.5 154q207 0 347 -116t171 -302h-289q-25 68 -85 109.5t-142 41.5q-119 0 -190.5 -78.5t-71.5 -195.5q0 -115 71.5 -193.5t190.5 -78.5q80 0 141.5 42t85.5 109h289q-33 -186 -173 -303t-345 -117q-242 0 -389.5 153.5t-147.5 387z M354 1151l242 324h270l-250 -324h-262z" />
<glyph unicode="&#x10a;" horiz-adv-x="1527" d="M66 684q0 303 196.5 511t511.5 208q274 0 463.5 -162t226.5 -410h-303q-35 129 -138 208t-251 77q-184 -2 -297 -126t-113 -304t113 -305t301 -125q150 0 255 82t136 217h301q-33 -254 -222 -419t-472 -165q-315 0 -511.5 206t-196.5 507zM633 1475v262h276v-262h-276z " />
<glyph unicode="&#x10b;" horiz-adv-x="1144" d="M49 509.5q0 233.5 147.5 387.5t389.5 154q207 0 347 -116t171 -302h-289q-25 68 -85 109.5t-142 41.5q-119 0 -190.5 -78.5t-71.5 -195.5q0 -115 71.5 -193.5t190.5 -78.5q80 0 141.5 42t85.5 109h289q-33 -186 -173 -303t-345 -117q-242 0 -389.5 153.5t-147.5 387z M451 1151v324h276v-324h-276z" />
<glyph unicode="&#x10c;" horiz-adv-x="1527" d="M66 684q0 303 196.5 511t511.5 208q274 0 463.5 -162t226.5 -410h-303q-35 129 -138 208t-251 77q-184 -2 -297 -126t-113 -304t113 -305t301 -125q150 0 255 82t136 217h301q-33 -254 -222 -419t-472 -165q-315 0 -511.5 206t-196.5 507zM395 1737h256l121 -142l121 142 h256l-242 -262h-270z" />
<glyph unicode="&#x10d;" horiz-adv-x="1144" d="M49 509.5q0 233.5 147.5 387.5t389.5 154q207 0 347 -116t171 -302h-289q-25 68 -85 109.5t-142 41.5q-119 0 -190.5 -78.5t-71.5 -195.5q0 -115 71.5 -193.5t190.5 -78.5q80 0 141.5 42t85.5 109h289q-33 -186 -173 -303t-345 -117q-242 0 -389.5 153.5t-147.5 387z M213 1475h252l125 -177l125 177h250l-242 -324h-268z" />
<glyph unicode="&#x10e;" horiz-adv-x="1482" d="M135 0v1372h578q305 0 503.5 -192.5t198.5 -489.5v-6q0 -297 -198.5 -490.5t-503.5 -193.5h-578zM324 1737h256l120 -142l121 142h256l-241 -262h-271zM426 285h283q182 0 295.5 110.5t113.5 288.5v6q0 178 -113.5 289t-295.5 111h-283v-805z" />
<glyph unicode="&#x10f;" horiz-adv-x="1550" d="M51 512q0 240 138.5 390.5t347.5 148.5q106 0 193 -46t138 -120h9v590h274v-1475h-274v133h-9q-49 -72 -136 -117t-193 -47q-215 0 -351.5 152.5t-136.5 390.5zM330 510q0 -121 76.5 -200t197.5 -79q119 0 196 80t77 199q0 117 -76 197.5t-197 80.5t-197.5 -78.5 t-76.5 -199.5zM1241 1051l76 424h233l-102 -424h-207z" />
<glyph unicode="&#x110;" horiz-adv-x="1548" d="M49 594v213h152v565h579q305 0 503 -192.5t198 -489.5v-6q0 -297 -198 -490.5t-503 -193.5h-579v594h-152zM494 285h280q182 0 297 110.5t115 288.5v6q0 178 -115 289t-297 111h-280v-283h358v-213h-358v-309z" />
<glyph unicode="&#x111;" horiz-adv-x="1259" d="M51 512q0 240 138.5 390.5t347.5 148.5q106 0 193 -46.5t138 -119.5h9v266h-318v213h318v111h274v-111h139v-213h-139v-1151h-274v133h-9q-49 -72 -136 -117t-193 -47q-215 0 -351.5 152.5t-136.5 390.5zM330 510q0 -121 76.5 -200t197.5 -79q119 0 196 80t77 199 q0 117 -76 197.5t-197 80.5t-197.5 -78.5t-76.5 -199.5z" />
<glyph unicode="&#x112;" horiz-adv-x="1269" d="M135 0v1372h1051v-282h-760v-256h672v-271h-672v-280h760v-283h-1051zM332 1475v213h661v-213h-661z" />
<glyph unicode="&#x113;" horiz-adv-x="1155" d="M49 510q0 229 151 385t382 156q254 0 401 -180.5t119 -452.5h-770q12 -82 78.5 -138.5t169.5 -60.5q72 -4 134 25.5t89 79.5h289q-49 -168 -188.5 -261.5t-323.5 -93.5q-248 0 -389.5 157t-141.5 384zM252 1151v213h661v-213h-661zM334 633h487q-23 80 -87 125t-154.5 45 t-157 -46t-88.5 -124z" />
<glyph unicode="&#x116;" horiz-adv-x="1269" d="M135 0v1372h1051v-282h-760v-256h672v-271h-672v-280h760v-283h-1051zM524 1475v262h277v-262h-277z" />
<glyph unicode="&#x117;" horiz-adv-x="1155" d="M49 510q0 229 151 385t382 156q254 0 401 -180.5t119 -452.5h-770q12 -82 78.5 -138.5t169.5 -60.5q72 -4 134 25.5t89 79.5h289q-49 -168 -188.5 -261.5t-323.5 -93.5q-248 0 -389.5 157t-141.5 384zM334 633h487q-23 80 -87 125t-154.5 45t-157 -46t-88.5 -124z M444 1151v324h277v-324h-277z" />
<glyph unicode="&#x118;" horiz-adv-x="1269" d="M135 0v1372h1051v-282h-760v-256h672v-271h-672v-280h760v-283h2l-146 -158q-14 -14 -7 -31.5t28 -17.5h125v-203h-232q-139 0 -187 113t50 213l76 84h-760z" />
<glyph unicode="&#x119;" horiz-adv-x="1155" d="M49 510q0 229 151 385t382 156q254 0 401 -180.5t119 -452.5h-770q12 -82 78.5 -138.5t169.5 -60.5q72 -4 134 25.5t89 79.5h289q-74 -246 -322 -326l-143 -154q-14 -16 -6 -32.5t28 -16.5h125v-205h-215q-139 0 -187 113t50 213l55 61q-201 33 -314.5 182.5 t-113.5 350.5zM334 633h487q-23 80 -87 125t-154.5 45t-157 -46t-88.5 -124z" />
<glyph unicode="&#x11a;" horiz-adv-x="1269" d="M135 0v1372h1051v-282h-760v-256h672v-271h-672v-280h760v-283h-1051zM285 1737h256l121 -142l120 142h256l-241 -262h-271z" />
<glyph unicode="&#x11b;" horiz-adv-x="1155" d="M49 510q0 229 151 385t382 156q254 0 401 -180.5t119 -452.5h-770q12 -82 78.5 -138.5t169.5 -60.5q72 -4 134 25.5t89 79.5h289q-49 -168 -188.5 -261.5t-323.5 -93.5q-248 0 -389.5 157t-141.5 384zM205 1475h252l125 -177l125 177h249l-241 -324h-269zM334 633h487 q-23 80 -87 125t-154.5 45t-157 -46t-88.5 -124z" />
<glyph unicode="&#x11e;" horiz-adv-x="1558" d="M68 684q0 301 197.5 510t516.5 209q256 0 440.5 -139.5t241.5 -362.5h-323q-45 98 -140.5 156.5t-220.5 56.5q-188 -2 -301.5 -125t-113.5 -301q0 -180 115.5 -304t305.5 -126q141 -2 244 64.5t141 179.5h-407v262h731q23 -338 -180 -565.5t-535 -227.5 q-315 0 -513.5 205t-198.5 508zM440 1626v111h217v-47q0 -31 31 -31h182q31 0 31 31v47h215v-111q0 -66 -42.5 -108.5t-108.5 -42.5h-373q-66 0 -109 43t-43 108z" />
<glyph unicode="&#x11f;" horiz-adv-x="1259" d="M51 507.5q0 237.5 136.5 391.5t351.5 152q106 0 192 -45t135 -117h11v131h274v-1124q0 -147 -81 -226.5t-230 -79.5h-656v277h596q96 0 97 92v176h-11q-49 -74 -135 -119t-194 -47q-209 0 -347.5 150.5t-138.5 388zM297 1303v172h213v-101q0 -31 31 -31h188q31 0 31 31 v101h213v-172q0 -66 -43 -109t-109 -43h-370q-66 0 -110 43t-44 109zM330 510q0 -121 76.5 -200t197.5 -79t197 81t76 198q0 119 -77 198.5t-196 79.5q-121 0 -197.5 -78.5t-76.5 -199.5z" />
<glyph unicode="&#x120;" horiz-adv-x="1558" d="M68 684q0 301 197.5 510t516.5 209q256 0 440.5 -139.5t241.5 -362.5h-323q-45 98 -140.5 156.5t-220.5 56.5q-188 -2 -301.5 -125t-113.5 -301q0 -180 115.5 -304t305.5 -126q141 -2 244 64.5t141 179.5h-407v262h731q23 -338 -180 -565.5t-535 -227.5 q-315 0 -513.5 205t-198.5 508zM641 1475v262h277v-262h-277z" />
<glyph unicode="&#x121;" horiz-adv-x="1259" d="M51 507.5q0 237.5 136.5 391.5t351.5 152q106 0 192 -45t135 -117h11v131h274v-1124q0 -147 -81 -226.5t-230 -79.5h-656v277h596q96 0 97 92v176h-11q-49 -74 -135 -119t-194 -47q-209 0 -347.5 150.5t-138.5 388zM330 510q0 -121 76.5 -200t197.5 -79t197 81t76 198 q0 119 -77 198.5t-196 79.5q-121 0 -197.5 -78.5t-76.5 -199.5zM498 1151v324h276v-324h-276z" />
<glyph unicode="&#x122;" horiz-adv-x="1558" d="M68 684q0 301 197.5 510t516.5 209q256 0 440.5 -139.5t241.5 -362.5h-323q-45 98 -140.5 156.5t-220.5 56.5q-188 -2 -301.5 -125t-113.5 -301q0 -180 115.5 -304t305.5 -126q141 -2 244 64.5t141 179.5h-407v262h731q23 -338 -180 -565.5t-535 -227.5 q-315 0 -513.5 205t-198.5 508zM487 -410l242 324h270l-249 -324h-263z" />
<glyph unicode="&#x123;" horiz-adv-x="1259" d="M51 507.5q0 237.5 136.5 391.5t351.5 152q106 0 192 -45t135 -117h11v131h274v-1124q0 -147 -81 -226.5t-230 -79.5h-656v277h596q96 0 97 92v176h-11q-49 -74 -135 -119t-194 -47q-209 0 -347.5 150.5t-138.5 388zM330 510q0 -121 76.5 -200t197.5 -79t197 81t76 198 q0 119 -77 198.5t-196 79.5q-121 0 -197.5 -78.5t-76.5 -199.5zM381 1151l250 324h262l-242 -324h-270z" />
<glyph unicode="&#x126;" horiz-adv-x="1562" d="M59 1020v213h105v139h293v-139h645v139h291v-139h112v-213h-112v-1020h-291v559h-645v-559h-293v1020h-105zM457 842h645v178h-645v-178z" />
<glyph unicode="&#x127;" horiz-adv-x="1187" d="M-20 1151v213h129v111h276v-111h324v-213h-324v-254h8q108 152 303 152q188 0 297 -121t109 -338v-590h-277v549q0 106 -59 167.5t-150 61.5q-96 0 -163.5 -68.5t-67.5 -181.5v-528h-276v1151h-129z" />
<glyph unicode="&#x12a;" horiz-adv-x="561" d="M-49 1475v213h661v-213h-661zM135 0v1372h291v-1372h-291z" />
<glyph unicode="&#x12b;" horiz-adv-x="491" d="M-84 1151v213h662v-213h-662zM109 0v1020h276v-1020h-276z" />
<glyph unicode="&#x12e;" horiz-adv-x="561" d="M9.5 -297q-48.5 113 49.5 213l76 84v1372h291v-1372h2l-145 -158q-14 -14 -7 -31.5t27 -17.5h125v-203h-231q-139 0 -187.5 113z" />
<glyph unicode="&#x12f;" horiz-adv-x="491" d="M-19.5 -297q-48.5 113 50.5 213l75 84h3v1020h276v-1020h-4l-145 -156q-14 -16 -6 -32.5t28 -16.5h125v-205h-215q-139 0 -187.5 113zM109 1151v324h276v-324h-276z" />
<glyph unicode="&#x130;" horiz-adv-x="561" d="M135 0v1372h291v-1372h-291zM143 1475v262h277v-262h-277z" />
<glyph unicode="&#x131;" horiz-adv-x="491" d="M109 0v1020h276v-1020h-276z" />
<glyph unicode="&#x136;" horiz-adv-x="1435" d="M135 0v1372h291v-532h301l303 532h320l-310 -532q281 -2 281 -295v-545h-291v483q0 82 -84 82h-520v-565h-291zM418 -410l241 324h271l-250 -324h-262z" />
<glyph unicode="&#x137;" horiz-adv-x="1177" d="M109 0v1475h276v-813h211l203 366h301l-213 -371q86 -14 139 -74.5t53 -158.5v-424h-276v332q0 76 -82 76h-336v-408h-276zM322 -410l241 324h271l-250 -324h-262z" />
<glyph unicode="&#x139;" horiz-adv-x="1183" d="M135 0v1372h293v-1087h705v-285h-998zM311 1475l234 262h278l-250 -262h-262z" />
<glyph unicode="&#x13a;" horiz-adv-x="622" d="M86 1577l233 262h279l-250 -262h-262zM96 295v1180h277v-1131q0 -76 82 -76h137v-268h-191q-145 0 -225 78t-80 217z" />
<glyph unicode="&#x13b;" horiz-adv-x="1183" d="M135 0v1372h293v-1087h705v-285h-998zM283 -410l241 324h271l-250 -324h-262z" />
<glyph unicode="&#x13c;" horiz-adv-x="622" d="M31 -410l241 324h271l-250 -324h-262zM96 295v1180h277v-1131q0 -76 82 -76h137v-268h-191q-145 0 -225 78t-80 217z" />
<glyph unicode="&#x13d;" horiz-adv-x="1183" d="M135 0v1372h293v-1087h705v-285h-998zM610 948l74 424h234l-103 -424h-205z" />
<glyph unicode="&#x13e;" horiz-adv-x="755" d="M96 295v1180h277v-1131q0 -76 82 -76h137v-268h-191q-145 0 -225 78t-80 217zM446 1051l76 424h234l-103 -424h-207z" />
<glyph unicode="&#x141;" horiz-adv-x="1253" d="M53 424v252l152 72v624h293v-489l358 168v-252l-358 -168v-346h704v-285h-997v496z" />
<glyph unicode="&#x142;" horiz-adv-x="702" d="M35 502v229l108 57v687h277v-543l225 119v-230l-225 -119v-358q0 -76 82 -76h137v-268h-190q-145 0 -225.5 78t-80.5 217v264z" />
<glyph unicode="&#x143;" horiz-adv-x="1554" d="M135 0v1372h332l661 -901v901h291v-1372h-291l-702 956v-956h-291zM563 1475l234 262h278l-250 -262h-262z" />
<glyph unicode="&#x144;" horiz-adv-x="1187" d="M109 0v1020h268v-123h10q108 152 309 152q188 0 297 -121t109 -338v-590h-277v549q0 106 -59 167.5t-150 61.5q-96 0 -163.5 -68.5t-67.5 -181.5v-528h-276zM369 1151l241 324h271l-250 -324h-262z" />
<glyph unicode="&#x145;" horiz-adv-x="1554" d="M135 0v1372h332l661 -901v901h291v-1372h-291l-702 956v-956h-291zM481 -410l242 324h270l-250 -324h-262z" />
<glyph unicode="&#x146;" horiz-adv-x="1187" d="M109 0v1020h268v-123h10q108 152 309 152q188 0 297 -121t109 -338v-590h-277v549q0 106 -59 167.5t-150 61.5q-96 0 -163.5 -68.5t-67.5 -181.5v-528h-276zM334 -410l241 324h271l-250 -324h-262z" />
<glyph unicode="&#x147;" horiz-adv-x="1554" d="M135 0v1372h332l661 -901v901h291v-1372h-291l-702 956v-956h-291zM401 1737h256l121 -142l121 142h256l-242 -262h-270z" />
<glyph unicode="&#x148;" horiz-adv-x="1187" d="M109 0v1020h268v-123h10q108 152 309 152q188 0 297 -121t109 -338v-590h-277v549q0 106 -59 167.5t-150 61.5q-96 0 -163.5 -68.5t-67.5 -181.5v-528h-276zM227 1475h252l125 -177l125 177h250l-242 -324h-268z" />
<glyph unicode="&#x14a;" horiz-adv-x="1554" d="M135 0v1372h332l661 -901v901h291v-1483q0 -141 -83 -220t-224 -79h-287v277h222q82 0 81 76v57l-702 956v-956h-291z" />
<glyph unicode="&#x14b;" horiz-adv-x="1189" d="M109 0v1020h268v-123h10q108 152 309 152q188 0 297 -121t109 -338v-701q0 -141 -83 -220t-224 -79h-217v271h165q37 0 59.5 20.5t22.5 55.5v612q0 106 -59 167.5t-150 61.5q-96 0 -163.5 -68.5t-67.5 -181.5v-528h-276z" />
<glyph unicode="&#x14c;" horiz-adv-x="1581" d="M68 684q0 301 200.5 510t522 209t522 -209t200.5 -510t-199.5 -507t-523 -206t-523 206t-199.5 507zM365 686q0 -178 116.5 -304t309 -126t309.5 125t117 305t-117 305t-309.5 125t-309 -125t-116.5 -305zM461 1475v213h661v-213h-661z" />
<glyph unicode="&#x14d;" horiz-adv-x="1193" d="M49 510q0 231 151.5 386t397.5 155t397.5 -155t151.5 -386q0 -233 -151.5 -387t-397.5 -154t-397.5 153.5t-151.5 387.5zM268 1151v213h662v-213h-662zM326 510q0 -117 75.5 -194.5t196.5 -77.5q119 0 195.5 78.5t76.5 193.5q0 117 -75.5 195.5t-196.5 78.5t-196.5 -78.5 t-75.5 -195.5z" />
<glyph unicode="&#x150;" horiz-adv-x="1581" d="M68 684q0 301 200.5 510t522 209t522 -209t200.5 -510t-199.5 -507t-523 -206t-523 206t-199.5 507zM342 1475l233 262h279l-250 -262h-262zM365 686q0 -178 116.5 -304t309 -126t309.5 125t117 305t-117 305t-309.5 125t-309 -125t-116.5 -305zM743 1475l234 262h276 l-249 -262h-261z" />
<glyph unicode="&#x151;" horiz-adv-x="1193" d="M49 510q0 231 151.5 386t397.5 155t397.5 -155t151.5 -386q0 -233 -151.5 -387t-397.5 -154t-397.5 153.5t-151.5 387.5zM184 1151l242 324h256l-250 -324h-248zM326 510q0 -117 75.5 -194.5t196.5 -77.5q119 0 195.5 78.5t76.5 193.5q0 117 -75.5 195.5t-196.5 78.5 t-196.5 -78.5t-75.5 -195.5zM586 1151l241 324h256l-249 -324h-248z" />
<glyph unicode="&#x152;" horiz-adv-x="2197" d="M70 684q0 303 182 511t481 208q244 0 414 -143v112h969v-282h-678v-256h590v-271h-590v-280h678v-283h-969v113q-170 -141 -414 -142q-299 0 -481 206t-182 507zM367 686q0 -180 104.5 -305t282.5 -125q180 0 284.5 124t104.5 306t-104.5 306t-284.5 124 q-178 0 -282.5 -124t-104.5 -306z" />
<glyph unicode="&#x153;" horiz-adv-x="1945" d="M49 510q0 231 145.5 386t383.5 155q268 0 413 -193q150 193 402 193q244 0 385 -180.5t114 -452.5h-770q14 -82 81 -138.5t167 -60.5q72 -2 134.5 26.5t90.5 78.5h287q-47 -168 -181 -261.5t-312 -93.5q-256 0 -400 189q-150 -188 -411 -189q-236 0 -382.5 153.5 t-146.5 387.5zM326 510q0 -117 75.5 -194.5t196.5 -77.5q119 0 195.5 78.5t76.5 193.5q0 117 -75.5 195.5t-196.5 78.5t-196.5 -78.5t-75.5 -195.5zM1126 629h490q-23 82 -88.5 128t-157.5 46t-157.5 -47t-86.5 -127z" />
<glyph unicode="&#x154;" horiz-adv-x="1447" d="M135 0v1372h703q213 0 343 -100.5t130 -282.5q0 -190 -135 -289v-6q168 -43 167 -256v-438h-290v385q0 82 -86 82h-541v-467h-291zM426 731h389q92 0 148.5 48t56.5 132q0 82 -57.5 130.5t-145.5 48.5h-391v-359zM500 1475l233 262h279l-250 -262h-262z" />
<glyph unicode="&#x155;" horiz-adv-x="874" d="M109 0v1020h262v-160h10q60 160 246 160h215v-277h-230q-100 0 -163.5 -65.5t-63.5 -169.5v-508h-276zM252 1151l242 324h270l-250 -324h-262z" />
<glyph unicode="&#x156;" horiz-adv-x="1447" d="M135 0v1372h703q213 0 343 -100.5t130 -282.5q0 -190 -135 -289v-6q168 -43 167 -256v-438h-290v385q0 82 -86 82h-541v-467h-291zM422 -410l242 324h270l-250 -324h-262zM426 731h389q92 0 148.5 48t56.5 132q0 82 -57.5 130.5t-145.5 48.5h-391v-359z" />
<glyph unicode="&#x157;" horiz-adv-x="874" d="M109 0v1020h262v-160h10q60 160 246 160h215v-277h-230q-100 0 -163.5 -65.5t-63.5 -169.5v-508h-276zM115 -410l241 324h271l-250 -324h-262z" />
<glyph unicode="&#x158;" horiz-adv-x="1447" d="M135 0v1372h703q213 0 343 -100.5t130 -282.5q0 -191 -135 -289v-6q168 -43 167 -256v-438h-290v385q0 82 -86 82h-541v-467h-291zM336 1737h256l121 -142l121 142h256l-242 -262h-270zM426 731h389q92 0 148.5 48t56.5 132q0 82 -57.5 130.5t-145.5 48.5h-391v-359z" />
<glyph unicode="&#x159;" horiz-adv-x="874" d="M109 0v1020h262v-160h10q59 160 246 160h215v-277h-230q-100 0 -163.5 -65.5t-63.5 -169.5v-508h-276zM111 1475h251l125 -177l125 177h250l-241 -324h-269z" />
<glyph unicode="&#x15a;" horiz-adv-x="1329" d="M68 985q0 158 107.5 272.5t297.5 114.5h707v-282h-686q-53 0 -82 -29t-29 -70q0 -35 22.5 -63.5t63.5 -38.5l489 -115q152 -35 232 -140.5t80 -236.5q0 -162 -109.5 -279.5t-304.5 -117.5h-735v285h725q51 0 83 32.5t32 75.5q0 84 -93 105l-491 116q-150 37 -229.5 140.5 t-79.5 230.5zM455 1475l233 262h279l-250 -262h-262z" />
<glyph unicode="&#x15b;" horiz-adv-x="1058" d="M51 719q0 131 94.5 216t235.5 85h561v-266h-553q-43 0 -43 -43q0 -37 35 -43l383 -78q117 -25 184.5 -100.5t67.5 -182.5q0 -133 -95.5 -220t-236.5 -87h-590v268h586q45 0 45 45q0 35 -35 45l-389 84q-111 23 -180.5 98.5t-69.5 178.5zM299 1151l242 324h270l-250 -324 h-262z" />
<glyph unicode="&#x15e;" horiz-adv-x="1329" d="M68 985q0 158 107.5 272.5t297.5 114.5h707v-282h-686q-53 0 -82 -29t-29 -70q0 -35 22.5 -63.5t63.5 -38.5l489 -115q152 -35 232 -140.5t80 -236.5q0 -162 -109.5 -279.5t-304.5 -117.5h-180v-70h37q84 0 129 -49t45 -118.5t-46 -121t-128 -51.5h-275v156h256 q27 0 27 22.5t-27 22.5h-178v209h-395v285h725q51 0 83 32.5t32 75.5q0 84 -93 105l-491 116q-150 37 -229.5 140.5t-79.5 230.5z" />
<glyph unicode="&#x15f;" horiz-adv-x="1058" d="M51 719q0 131 94.5 216t235.5 85h561v-266h-553q-43 0 -43 -43q0 -37 35 -43l383 -78q117 -25 184.5 -100.5t67.5 -182.5q0 -133 -95.5 -220t-236.5 -87h-117v-70h23q84 0 129 -49t45 -118.5t-46 -121t-128 -51.5h-275v156h258q27 0 27 22.5t-27 22.5h-165v209h-314v268 h586q45 0 45 45q0 35 -35 45l-389 84q-111 23 -180.5 98.5t-69.5 178.5z" />
<glyph unicode="&#x160;" horiz-adv-x="1329" d="M68 985q0 158 107.5 272.5t297.5 114.5h707v-282h-686q-53 0 -82 -29t-29 -70q0 -35 22.5 -63.5t63.5 -38.5l489 -115q152 -35 232 -140.5t80 -236.5q0 -162 -109.5 -279.5t-304.5 -117.5h-735v285h725q51 0 83 32.5t32 75.5q0 84 -93 105l-491 116q-150 37 -229.5 140.5 t-79.5 230.5zM293 1737h256l121 -142l121 142h256l-242 -262h-270z" />
<glyph unicode="&#x161;" horiz-adv-x="1058" d="M51 719q0 131 94.5 216t235.5 85h561v-266h-553q-43 0 -43 -43q0 -37 35 -43l383 -78q117 -25 184.5 -100.5t67.5 -182.5q0 -133 -95.5 -220t-236.5 -87h-590v268h586q45 0 45 45q0 35 -35 45l-389 84q-111 23 -180.5 98.5t-69.5 178.5zM158 1475h252l125 -177l124 177 h250l-241 -324h-269z" />
<glyph unicode="&#x162;" horiz-adv-x="1312" d="M51 1090v282h1213v-282h-461v-1090h-199v-70h37q84 0 129 -49t45 -118.5t-46 -121t-128 -51.5h-274v156h256q27 0 26.5 22.5t-26.5 22.5h-179v361h66v938h-459z" />
<glyph unicode="&#x163;" horiz-adv-x="935" d="M31 754v266h143v352h277v-352h419v-266h-419v-408q0 -37 22.5 -57.5t58.5 -20.5h338v-268h-303v-70h23q84 0 129 -49t45 -118.5t-46 -121t-128 -51.5h-275v156h258q27 0 27 22.5t-27 22.5h-165v215q-109 20 -171.5 98t-62.5 195v455h-143z" />
<glyph unicode="&#x164;" horiz-adv-x="1312" d="M51 1090v282h1213v-282h-461v-1090h-293v1090h-459zM281 1737h256l120 -142l121 142h256l-241 -262h-271z" />
<glyph unicode="&#x165;" horiz-adv-x="935" d="M31 754v266h143v352h277v-352h419v-266h-419v-408q0 -37 22.5 -57.5t58.5 -20.5h338v-268h-389q-141 0 -224 81t-83 218v455h-143zM569 1098l68 377h233l-96 -377h-205z" />
<glyph unicode="&#x166;" horiz-adv-x="1312" d="M51 1090v282h1213v-282h-461v-283h233v-213h-233v-594h-293v594h-277v213h277v283h-459z" />
<glyph unicode="&#x167;" horiz-adv-x="1003" d="M66 416v219h145v119h-143v266h143v352h276v-352h420v-266h-420v-119h418v-219h-418v-70q0 -78 82 -78h338v-268h-391q-139 0 -222 81t-83 218v117h-145z" />
<glyph unicode="&#x16a;" horiz-adv-x="1435" d="M109 588v784h292v-780q0 -152 85 -249t231 -97q147 0 232 97t85 249v780h291v-784q0 -285 -165 -455t-443 -170q-276 0 -442 170t-166 455zM387 1475v213h662v-213h-662z" />
<glyph unicode="&#x16b;" horiz-adv-x="1163" d="M82 471v549h276v-545q0 -102 59.5 -169.5t164 -67.5t163 67.5t58.5 169.5v545h276v-549q0 -231 -134 -366.5t-363.5 -135.5t-364.5 136.5t-135 365.5zM252 1151v213h661v-213h-661z" />
<glyph unicode="&#x16e;" horiz-adv-x="1435" d="M109 588v784h292v-780q0 -152 85 -249t231 -97q147 0 232 97t85 249v780h291v-784q0 -285 -165 -455t-443 -170q-276 0 -442 170t-166 455zM467 1689.5q0 104.5 72.5 175t177 70.5t177.5 -70.5t73 -175t-73 -175t-177.5 -70.5t-177 70.5t-72.5 175zM637 1690 q0 -33 23.5 -55.5t56.5 -22.5t56.5 22.5t23.5 55.5q0 35 -23.5 57t-56.5 22t-56.5 -22.5t-23.5 -56.5z" />
<glyph unicode="&#x16f;" horiz-adv-x="1163" d="M82 471v549h276v-545q0 -102 59.5 -169.5t164 -67.5t163 67.5t58.5 169.5v545h276v-549q0 -231 -134 -366.5t-363.5 -135.5t-364.5 136.5t-135 365.5zM332 1351.5q0 104.5 72.5 175t177 70.5t177 -70.5t72.5 -175t-72.5 -175t-177 -70.5t-177 70.5t-72.5 175zM502 1351.5 q0 -32.5 23.5 -56t56 -23.5t56.5 23.5t24 56t-24 56.5t-56.5 24t-56 -24t-23.5 -56.5z" />
<glyph unicode="&#x170;" horiz-adv-x="1435" d="M109 588v784h292v-780q0 -152 85 -249t231 -97q147 0 232 97t85 249v780h291v-784q0 -285 -165 -455t-443 -170q-276 0 -442 170t-166 455zM268 1475l234 262h278l-250 -262h-262zM670 1475l233 262h277l-250 -262h-260z" />
<glyph unicode="&#x171;" horiz-adv-x="1163" d="M82 471v549h276v-545q0 -102 59.5 -169.5t164 -67.5t163 67.5t58.5 169.5v545h276v-549q0 -231 -134 -366.5t-363.5 -135.5t-364.5 136.5t-135 365.5zM168 1151l242 324h256l-250 -324h-248zM569 1151l242 324h256l-250 -324h-248z" />
<glyph unicode="&#x172;" horiz-adv-x="1435" d="M109 588v784h292v-780q0 -152 85 -249t231 -97q147 0 232 97t85 249v780h291v-784q0 -219 -99.5 -373t-277.5 -215l-145 -158q-14 -14 -7 -31.5t27 -17.5h125v-203h-231q-139 0 -187.5 113t50.5 213l47 53q-238 29 -378 194t-140 425z" />
<glyph unicode="&#x173;" horiz-adv-x="1163" d="M82 471v549h276v-545q0 -102 59.5 -169.5t164 -67.5t163 67.5t58.5 169.5v545h276v-549q0 -178 -80.5 -302t-228.5 -171l-143 -154q-14 -16 -6 -32.5t28 -16.5h125v-205h-215q-139 0 -187 113t50 213l55 61q-184 29 -289.5 160t-105.5 334z" />
<glyph unicode="&#x174;" horiz-adv-x="2004" d="M41 1372h311l260 -913l250 913h281l250 -911l258 911h313l-393 -1372h-326l-241 872l-244 -872h-326zM625 1475l241 262h271l241 -262h-256l-121 141l-120 -141h-256z" />
<glyph unicode="&#x175;" horiz-adv-x="1611" d="M16 1020h287l189 -637l190 637h248l194 -637l185 637h286l-325 -1020h-264l-199 649l-201 -649h-264zM430 1151l242 324h268l242 -324h-250l-125 176l-125 -176h-252z" />
<glyph unicode="&#x176;" horiz-adv-x="1449" d="M31 1372h336l362 -573l361 573h329l-549 -842v-530h-290v528zM348 1475l242 262h270l242 -262h-256l-121 141l-121 -141h-256z" />
<glyph unicode="&#x177;" horiz-adv-x="1169" d="M14 1020h303l308 -774l249 774h281l-405 -1186q-41 -117 -125 -180.5t-203 -63.5h-291v271h283q41 0 69 18zM225 1151l242 324h268l242 -324h-250l-125 176l-125 -176h-252z" />
<glyph unicode="&#x178;" horiz-adv-x="1449" d="M31 1372h336l362 -573l361 573h329l-549 -842v-530h-290v528zM406 1475v262h245v-262h-245zM801 1475v262h246v-262h-246z" />
<glyph unicode="&#x179;" horiz-adv-x="1253" d="M70 0v229l684 861h-666v282h1063v-229l-690 -860h727v-283h-1118zM416 1475l233 262h279l-250 -262h-262z" />
<glyph unicode="&#x17a;" horiz-adv-x="1036" d="M55 0v227l533 527h-512v266h885v-225l-531 -527h551v-268h-926zM283 1151l241 324h271l-250 -324h-262z" />
<glyph unicode="&#x17b;" horiz-adv-x="1253" d="M70 0v229l684 861h-666v282h1063v-229l-690 -860h727v-283h-1118zM492 1475v262h276v-262h-276z" />
<glyph unicode="&#x17c;" horiz-adv-x="1036" d="M55 0v227l533 527h-512v266h885v-225l-531 -527h551v-268h-926zM381 1151v324h276v-324h-276z" />
<glyph unicode="&#x17d;" horiz-adv-x="1253" d="M70 0v229l684 861h-666v282h1063v-229l-690 -860h727v-283h-1118zM254 1737h256l121 -142l121 142h256l-242 -262h-270z" />
<glyph unicode="&#x17e;" horiz-adv-x="1036" d="M55 0v227l533 527h-512v266h885v-225l-531 -527h551v-268h-926zM141 1475h252l125 -177l125 177h250l-242 -324h-268z" />
<glyph unicode="&#x218;" horiz-adv-x="1329" d="M68 985q0 158 107.5 272.5t297.5 114.5h707v-282h-686q-53 0 -82 -29t-29 -70q0 -35 22.5 -63.5t63.5 -38.5l489 -115q152 -35 232 -140.5t80 -236.5q0 -162 -109.5 -279.5t-304.5 -117.5h-735v285h725q51 0 83 32.5t32 75.5q0 84 -93 105l-491 116q-150 37 -229.5 140.5 t-79.5 230.5zM379 -410l242 324h270l-250 -324h-262z" />
<glyph unicode="&#x219;" horiz-adv-x="1058" d="M51 719q0 131 94.5 216t235.5 85h561v-266h-553q-43 0 -43 -43q0 -37 35 -43l383 -78q117 -25 184.5 -100.5t67.5 -182.5q0 -133 -95.5 -220t-236.5 -87h-590v268h586q45 0 45 45q0 35 -35 45l-389 84q-111 23 -180.5 98.5t-69.5 178.5zM219 -410l242 324h270l-250 -324 h-262z" />
<glyph unicode="&#x21a;" horiz-adv-x="1312" d="M51 1090v282h1213v-282h-461v-1090h-293v1090h-459zM307 -410l242 324h270l-250 -324h-262z" />
<glyph unicode="&#x21b;" horiz-adv-x="935" d="M31 754v266h143v352h277v-352h419v-266h-419v-408q0 -37 22.5 -57.5t58.5 -20.5h338v-268h-389q-141 0 -224 81t-83 218v455h-143zM219 -410l242 324h270l-250 -324h-262z" />
<glyph unicode="&#x2c6;" horiz-adv-x="800" d="M31 1151l241 324h269l241 -324h-252l-124 176l-125 -176h-250z" />
<glyph unicode="&#x2d9;" horiz-adv-x="491" d="M143 1151v324h277v-324h-277z" />
<glyph unicode="&#x2da;" horiz-adv-x="626" d="M84 1351.5q0 104.5 72.5 175t177 70.5t177.5 -70.5t73 -175t-73 -175t-177.5 -70.5t-177 70.5t-72.5 175zM254 1351.5q0 -32.5 22.5 -56t57.5 -23.5t57.5 23.5t22.5 56t-22.5 56.5t-57.5 24t-57.5 -24t-22.5 -56.5z" />
<glyph unicode="&#x2dc;" horiz-adv-x="856" d="M96 1151v174q0 94 71 133t171 2l184 -71q25 -10 25 16v80h217v-168q0 -94 -73 -136t-171 -3l-184 71q-8 4 -16.5 0t-8.5 -16v-82h-215z" />
<glyph unicode="&#x300;" horiz-adv-x="0" d="M-537 1475h271l241 -324h-262z" />
<glyph unicode="&#x301;" horiz-adv-x="0" d="M-537 1151l242 324h270l-249 -324h-263z" />
<glyph unicode="&#x302;" horiz-adv-x="0" d="M-776 1151l241 324h269l241 -324h-249l-125 176l-125 -176h-252z" />
<glyph unicode="&#x303;" horiz-adv-x="0" d="M-760 1151v174q0 94 71 133t171 2l184 -71q25 -10 25 16v80h217v-168q0 -94 -73 -136t-171 -3l-184 71q-8 4 -16.5 0t-8.5 -16v-82h-215z" />
<glyph unicode="&#x304;" horiz-adv-x="0" d="M-770 1151v213h661v-213h-661z" />
<glyph unicode="&#x306;" horiz-adv-x="0" d="M-766 1303v172h213v-101q0 -31 31 -31h188q31 0 31 31v101h213v-172q0 -66 -43 -109t-109 -43h-370q-66 0 -110 43t-44 109z" />
<glyph unicode="&#x307;" horiz-adv-x="0" d="M-383 1151v324h277v-324h-277z" />
<glyph unicode="&#x308;" horiz-adv-x="0" d="M-750 1151v324h246v-324h-246zM-354 1151v324h245v-324h-245z" />
<glyph unicode="&#x30a;" horiz-adv-x="0" d="M-563 1351.5q0 104.5 72.5 175t177 70.5t177.5 -70.5t73 -175t-73 -175t-177.5 -70.5t-177 70.5t-72.5 175zM-393 1351.5q0 -32.5 22.5 -56t57 -23.5t57.5 23.5t23 56t-23 56.5t-57.5 24t-57 -24t-22.5 -56.5z" />
<glyph unicode="&#x30b;" horiz-adv-x="0" d="M-924 1151l242 324h256l-250 -324h-248zM-522 1151l241 324h256l-249 -324h-248z" />
<glyph unicode="&#x30c;" horiz-adv-x="0" d="M-776 1475h252l125 -177l125 177h249l-241 -324h-269z" />
<glyph unicode="&#x312;" horiz-adv-x="0" d="M-537 1151l250 324h262l-241 -324h-271z" />
<glyph unicode="&#x326;" horiz-adv-x="0" d="M-537 -410l242 324h270l-249 -324h-263z" />
<glyph unicode="&#x327;" horiz-adv-x="0" d="M-512 -254h258q27 0 27 22.5t-27 22.5h-166v223h160v-84h22q84 0 129.5 -49t45.5 -118.5t-46.5 -121t-128.5 -51.5h-274v156z" />
<glyph unicode="&#x328;" horiz-adv-x="0" d="M-486.5 -297q-48.5 113 50.5 213l76 84h274l-145 -156q-14 -16 -6 -32.5t28 -16.5h125v-205h-215q-139 0 -187.5 113z" />
<glyph unicode="&#x401;" horiz-adv-x="1269" d="M135 0v1372h1051v-282h-760v-256h672v-271h-672v-280h760v-283h-1051zM342 1475v262h246v-262h-246zM737 1475v262h246v-262h-246z" />
<glyph unicode="&#x404;" horiz-adv-x="1531" d="M66 684q0 303 196.5 511t511.5 208q274 0 463.5 -162t226.5 -410h-303q-35 129 -138 208t-251 77q-150 -2 -253 -85t-140 -216h502v-256h-502q37 -135 141.5 -219t255.5 -84q150 0 255 82t136 217h301q-33 -254 -222 -419t-472 -165q-315 0 -511.5 206t-196.5 507z" />
<glyph unicode="&#x406;" horiz-adv-x="561" d="M135 0v1372h291v-1372h-291z" />
<glyph unicode="&#x407;" horiz-adv-x="561" d="M-39 1475v262h246v-262h-246zM135 0v1372h291v-1372h-291zM356 1475v262h246v-262h-246z" />
<glyph unicode="&#x40e;" horiz-adv-x="1388" d="M31 1372h327l387 -782l308 784h299l-437 -1091q-109 -283 -358 -283h-338v281h332q27 0 43 8zM354 1626v111h217v-47q0 -31 31 -31h182q31 0 31 31v47h215v-111q0 -66 -42.5 -108.5t-108.5 -42.5h-373q-66 0 -109 43t-43 108z" />
<glyph unicode="&#x410;" horiz-adv-x="1521" d="M35 0l563 1372h324l565 -1372h-330l-115 291h-575l-113 -291h-319zM567 547h373l-186 475z" />
<glyph unicode="&#x411;" horiz-adv-x="1337" d="M135 0v1372h1022v-282h-731v-216h395q215 2 337 -123.5t122 -306.5q0 -182 -124 -313t-335 -131h-686zM426 283h367q86 0 138 48t52 117.5t-51 117.5t-139 48h-367v-331z" />
<glyph unicode="&#x412;" horiz-adv-x="1368" d="M135 0v1372h723q172 0 287 -101.5t115 -262.5q0 -92 -47.5 -168t-129.5 -117v-10q96 -37 155.5 -119t59.5 -199q0 -170 -119.5 -282.5t-295.5 -112.5h-748zM426 264h416q70 0 114.5 46t44.5 110q0 61 -46 104t-117 43h-412v-303zM426 817h383q68 0 111 43t43 102.5 t-43 101.5t-109 42h-385v-289z" />
<glyph unicode="&#x413;" horiz-adv-x="1159" d="M135 0v1372h975v-282h-684v-1090h-291z" />
<glyph unicode="&#x414;" horiz-adv-x="1574" d="M43 283h41q37 2 57.5 6t50 38.5t41.5 102.5q10 57 16.5 196.5t7.5 256t2 288.5t1 201h1081v-1089h183v-568h-277v285h-925v-285h-279v568zM487 283h564v807h-508q-8 -567 -31 -701q-11 -61 -25 -106z" />
<glyph unicode="&#x415;" horiz-adv-x="1269" d="M135 0v1372h1051v-282h-760v-256h672v-271h-672v-280h760v-283h-1051z" />
<glyph unicode="&#x416;" horiz-adv-x="2009" d="M72 1372h319l326 -541h141v541h293v-541h141l326 541h319l-329 -541h2q285 0 284 -296v-535h-290v475q0 82 -84 82h-369v-557h-293v557h-369q-84 0 -83 -82v-475h-291v535q0 297 284 296h2z" />
<glyph unicode="&#x417;" horiz-adv-x="1247" d="M76 0v285h637q70 0 112.5 37.5t42.5 95.5q0 55 -43 94t-114 39h-486v280h473q68 0 109 39t41 92.5t-40 90.5t-108 37h-624v282h672q174 0 288.5 -97t114.5 -259q0 -100 -54.5 -181t-146.5 -118v-8q96 -33 157.5 -116t61.5 -200q0 -170 -118.5 -281.5t-294.5 -111.5h-680z " />
<glyph unicode="&#x418;" horiz-adv-x="1505" d="M135 0v1372h291v-928l651 928h293v-1372h-293v928l-651 -928h-291z" />
<glyph unicode="&#x419;" horiz-adv-x="1505" d="M135 0v1372h291v-928l651 928h293v-1372h-293v928l-651 -928h-291zM410 1626v111h217v-47q0 -31 30 -31h183q31 0 30 31v47h215v-111q0 -66 -42.5 -108.5t-108.5 -42.5h-373q-66 0 -108.5 43t-42.5 108z" />
<glyph unicode="&#x41a;" horiz-adv-x="1435" d="M135 0v1372h291v-532h303l303 532h322l-310 -532q281 -2 281 -295v-545h-291v483q0 82 -86 82h-522v-565h-291z" />
<glyph unicode="&#x41b;" horiz-adv-x="1488" d="M51 0v291h55q27 0 42.5 3t39 15.5t40 44t26.5 82.5q14 76 20.5 251t7.5 414.5t1 270.5h1071v-1372h-293v1090h-498q-8 -596 -31 -730q-14 -86 -39.5 -150.5t-61.5 -102t-68.5 -61t-78.5 -33t-72 -11.5t-67 -2h-94z" />
<glyph unicode="&#x41c;" horiz-adv-x="1818" d="M135 0v1372h404l372 -913l373 913h399v-1372h-290v942l-392 -942h-186l-389 938v-938h-291z" />
<glyph unicode="&#x41d;" horiz-adv-x="1499" d="M135 0v1372h291v-530h645v530h293v-1372h-293v559h-645v-559h-291z" />
<glyph unicode="&#x41e;" horiz-adv-x="1581" d="M68 684q0 301 200.5 510t522 209t522 -209t200.5 -510t-199.5 -507t-523 -206t-523 206t-199.5 507zM365 686q0 -178 116.5 -304t309 -126t309.5 125t117 305t-117 305t-309.5 125t-309 -125t-116.5 -305z" />
<glyph unicode="&#x41f;" horiz-adv-x="1488" d="M135 0v1372h1219v-1372h-293v1090h-635v-1090h-291z" />
<glyph unicode="&#x420;" horiz-adv-x="1359" d="M135 0v1372h688q203 0 340 -134t137 -337q0 -207 -138 -339t-339 -132h-397v-430h-291zM426 707h375q88 0 146.5 53t58.5 141q0 82 -59.5 135.5t-145.5 53.5h-375v-383z" />
<glyph unicode="&#x421;" horiz-adv-x="1527" d="M66 684q0 303 196.5 511t511.5 208q274 0 463.5 -162t226.5 -410h-303q-35 129 -138 208t-251 77q-184 -2 -297 -126t-113 -304t113 -305t301 -125q150 0 255 82t136 217h301q-33 -254 -222 -419t-472 -165q-315 0 -511.5 206t-196.5 507z" />
<glyph unicode="&#x422;" horiz-adv-x="1312" d="M51 1090v282h1213v-282h-461v-1090h-293v1090h-459z" />
<glyph unicode="&#x423;" horiz-adv-x="1388" d="M31 1372h327l387 -782l308 784h299l-437 -1091q-109 -283 -358 -283h-338v281h332q27 0 43 8z" />
<glyph unicode="&#x424;" horiz-adv-x="1767" d="M94 565v490q0 150 84 233.5t234 83.5h325v103h293v-103h328q150 0 232.5 -84t82.5 -233v-490q0 -150 -83 -233.5t-232 -83.5h-328v-248h-293v248h-325q-150 0 -234 84t-84 233zM385 618q0 -94 96 -94h256v572h-256q-96 0 -96 -95v-383zM1030 524h256q96 0 96 94v383 q0 94 -96 95h-256v-572z" />
<glyph unicode="&#x425;" horiz-adv-x="1409" d="M37 0l495 696l-481 676h367l291 -428l301 428h336l-472 -670l500 -702h-366l-308 453l-307 -453h-356z" />
<glyph unicode="&#x426;" horiz-adv-x="1585" d="M135 0v1372h291v-1089h635v1089h293v-1089h182v-568h-279v285h-1122z" />
<glyph unicode="&#x427;" horiz-adv-x="1366" d="M86 788v584h293v-518q0 -94 94 -94h467v612h291v-1372h-291v475h-541q-150 0 -231.5 82t-81.5 231z" />
<glyph unicode="&#x428;" horiz-adv-x="2029" d="M135 0v1372h291v-1089h444v1089h291v-1089h441v1089h292v-1372h-1759z" />
<glyph unicode="&#x429;" horiz-adv-x="2125" d="M135 0v1372h291v-1089h444v1089h291v-1089h441v1089h292v-1089h181v-568h-277v285h-1663z" />
<glyph unicode="&#x42a;" horiz-adv-x="1570" d="M51 1090v282h627v-434h358q203 0 340 -131t137 -336q0 -203 -137 -337t-340 -134h-651v1090h-334zM678 283h336q92 0 147.5 55t55.5 133q0 80 -54.5 134t-148.5 54h-336v-376z" />
<glyph unicode="&#x42b;" horiz-adv-x="1806" d="M135 0v1372h291v-434h336q203 0 340 -131t137 -336q0 -203 -137 -337t-340 -134h-627zM426 283h313q94 0 149.5 55t55.5 133q0 80 -55 134t-150 54h-313v-376zM1378 0v1372h293v-1372h-293z" />
<glyph unicode="&#x42c;" horiz-adv-x="1351" d="M135 0v1372h291v-434h391q203 0 340 -131t137 -336q0 -203 -137 -337t-340 -134h-682zM426 283h369q92 0 147 55t55 133q0 80 -54 134t-148 54h-369v-376z" />
<glyph unicode="&#x42d;" horiz-adv-x="1529" d="M61 555h301q31 -135 136.5 -217t257 -82t256 84t141.5 219h-504v256h504q-37 133 -140.5 216t-254.5 85q-147 2 -251 -76.5t-138 -208.5h-303q37 248 226.5 410t463.5 162q315 0 511.5 -208t196.5 -511q0 -301 -196.5 -507t-511.5 -206q-283 0 -471.5 165t-223.5 419z " />
<glyph unicode="&#x42e;" horiz-adv-x="1851" d="M135 0v1372h291v-534h217v6q0 252 157.5 405.5t397.5 153.5t399.5 -153.5t159.5 -403.5v-318q0 -252 -161.5 -405.5t-401.5 -153.5t-395.5 155t-155.5 404v29h-217v-557h-291zM934 528q0 -125 72.5 -196.5t187.5 -71.5q119 0 194.5 72.5t75.5 195.5v318 q0 123 -74.5 195.5t-191.5 72.5t-190.5 -72.5t-73.5 -197.5v-316z" />
<glyph unicode="&#x42f;" horiz-adv-x="1501" d="M158 0v438q0 213 168 256v6q-135 98 -136 289q0 182 130.5 282.5t343.5 100.5h702v-1372h-291v467h-540q-86 0 -86 -82v-385h-291zM481 911q0 -84 56.5 -132t148.5 -48h389v359h-391q-88 0 -145.5 -48.5t-57.5 -130.5z" />
<glyph unicode="&#x430;" horiz-adv-x="1259" d="M51 507.5q0 237.5 136.5 391.5t351.5 152q106 0 192 -45t135 -117h11v131h274v-1020h-274v135h-11q-49 -74 -135 -119t-194 -47q-209 0 -347.5 150.5t-138.5 388zM330 510q0 -121 76.5 -200t197.5 -79t197 81t76 198q0 119 -77 198.5t-196 79.5q-121 0 -197.5 -78.5 t-76.5 -199.5z" />
<glyph unicode="&#x431;" horiz-adv-x="1222" d="M80 500v450q0 231 147.5 378t378.5 147h459v-281h-467q-113 0 -182.5 -68.5t-69.5 -181.5v-119h8q125 154 344 154q207 0 342.5 -137t135.5 -348q0 -225 -152 -374t-395 -149q-246 0 -397.5 149.5t-151.5 379.5zM360 485q0 -106 76 -176.5t193 -70.5q119 0 193.5 71.5 t74.5 176t-73.5 174t-194.5 69.5q-119 0 -194 -69.5t-75 -174.5z" />
<glyph unicode="&#x432;" horiz-adv-x="1122" d="M109 0v1020h610q150 0 230.5 -80t80.5 -192q0 -150 -129 -213v-9q86 -29 130 -93t44 -144q0 -117 -82 -203t-229 -86h-655zM385 227h317q43 0 69 27t26 63q0 35 -24.5 59.5t-70.5 24.5h-317v-174zM385 625h281q41 0 64.5 25.5t23.5 60.5q0 33 -22.5 57.5t-65.5 24.5h-281 v-168z" />
<glyph unicode="&#x433;" horiz-adv-x="931" d="M109 0v1020h790v-266h-514v-754h-276z" />
<glyph unicode="&#x434;" horiz-adv-x="1316" d="M31 -229v489h37q33 0 50 3t40.5 16.5t37 50.5t17.5 94q10 147 10 596h889v-760h174v-489h-264v229h-727v-229h-264zM451 260h385v498h-351q-4 -231 -8 -312q-6 -114 -26 -186z" />
<glyph unicode="&#x435;" horiz-adv-x="1155" d="M49 510q0 229 151 385t382 156q254 0 401 -180.5t119 -452.5h-770q12 -82 78.5 -138.5t169.5 -60.5q72 -4 134 25.5t89 79.5h289q-49 -168 -188.5 -261.5t-323.5 -93.5q-248 0 -389.5 157t-141.5 384zM334 633h487q-23 80 -87 125t-154.5 45t-157 -46t-88.5 -124z" />
<glyph unicode="&#x436;" horiz-adv-x="1609" d="M68 1020h292l222 -393h86v393h276v-393h82l221 393h295l-231 -395q92 -10 150.5 -71.5t58.5 -164.5v-389h-277v311q0 76 -80 76h-219v-387h-276v387h-222q-82 0 -81 -76v-311h-277v389q0 102 59.5 163.5t151.5 72.5z" />
<glyph unicode="&#x437;" horiz-adv-x="1046" d="M63 0v258h566q37 0 56.5 21.5t19.5 50t-18.5 48t-53.5 19.5h-389v232h366q33 0 53.5 19.5t20.5 47.5q0 27 -20.5 47.5t-55.5 20.5h-545v258h584q152 0 237 -82t85 -192q0 -70 -36 -129.5t-102 -88.5v-10q80 -25 121 -88t41 -141q0 -115 -85 -203t-234 -88h-611z" />
<glyph unicode="&#x438;" horiz-adv-x="1214" d="M109 0v1020h276v-619l444 619h277v-1020h-277v618l-444 -618h-276z" />
<glyph unicode="&#x439;" horiz-adv-x="1214" d="M109 0v1020h276v-619l444 619h277v-1020h-277v618l-444 -618h-276zM264 1303v172h213v-101q0 -31 31 -31h188q31 0 31 31v101h213v-172q0 -66 -43 -109t-109 -43h-370q-66 0 -110 43t-44 109z" />
<glyph unicode="&#x43a;" horiz-adv-x="1167" d="M109 0v1020h276v-393h195l217 393h299l-228 -395q92 -10 150.5 -73t58.5 -163v-389h-276v311q0 76 -82 76h-334v-387h-276z" />
<glyph unicode="&#x43b;" horiz-adv-x="1212" d="M35 -6v274h20q33 0 50.5 3t42 16.5t38 49.5t17.5 93q6 137 10 590h891v-1020h-277v758h-352q-4 -258 -8 -338q-4 -88 -21.5 -157.5t-38 -114t-55.5 -75t-61.5 -46t-69.5 -23.5t-66.5 -9t-66.5 -1h-53z" />
<glyph unicode="&#x43c;" horiz-adv-x="1511" d="M109 0v1020h428l223 -612l221 612h424v-1020h-277v709l-266 -709h-213l-264 707v-707h-276z" />
<glyph unicode="&#x43d;" horiz-adv-x="1202" d="M109 0v1020h276v-371h432v371h277v-1020h-277v387h-432v-387h-276z" />
<glyph unicode="&#x43e;" horiz-adv-x="1193" d="M49 510q0 231 151.5 386t397.5 155t397.5 -155t151.5 -386q0 -233 -151.5 -387t-397.5 -154t-397.5 153.5t-151.5 387.5zM326 510q0 -117 75.5 -194.5t196.5 -77.5q119 0 195.5 78.5t76.5 193.5q0 117 -75.5 195.5t-196.5 78.5t-196.5 -78.5t-75.5 -195.5z" />
<glyph unicode="&#x43f;" horiz-adv-x="1183" d="M109 0v1020h968v-1020h-276v756h-416v-756h-276z" />
<glyph unicode="&#x440;" horiz-adv-x="1259" d="M109 -410v1430h274v-131h10q49 72 136.5 117t191.5 45q215 2 351 -152t136 -391.5t-138 -388t-347 -150.5q-109 2 -195 47t-135 119h-10v-545h-274zM383 510q0 -117 76 -198t196.5 -81t197.5 79t77 200t-77 199.5t-198 78.5q-119 0 -195.5 -79.5t-76.5 -198.5z" />
<glyph unicode="&#x441;" horiz-adv-x="1144" d="M49 509.5q0 233.5 147.5 387.5t389.5 154q207 0 347 -116t171 -302h-289q-25 68 -85 109.5t-142 41.5q-119 0 -190.5 -78.5t-71.5 -195.5q0 -115 71.5 -193.5t190.5 -78.5q80 0 141.5 42t85.5 109h289q-33 -186 -173 -303t-345 -117q-242 0 -389.5 153.5t-147.5 387z" />
<glyph unicode="&#x442;" horiz-adv-x="1005" d="M31 756v264h944v-264h-334v-756h-276v756h-334z" />
<glyph unicode="&#x443;" horiz-adv-x="1169" d="M14 1020h303l308 -774l249 774h281l-405 -1186q-41 -117 -125 -180.5t-203 -63.5h-291v271h283q41 0 69 18z" />
<glyph unicode="&#x444;" horiz-adv-x="1536" d="M82 319v383q0 143 89 230.5t237 87.5h223v352h276v-352h221q145 0 235.5 -87t90.5 -231v-383q0 -145 -90 -232t-236 -87h-221v-410h-276v410h-223q-147 0 -236.5 87t-89.5 232zM358 356q0 -41 27 -66.5t70 -25.5h176v492h-176q-43 0 -70 -25.5t-27 -66.5v-308zM907 264 h174q41 0 69 25.5t28 66.5v308q0 41 -28 66.5t-69 25.5h-174v-492z" />
<glyph unicode="&#x445;" horiz-adv-x="1146" d="M12 0l385 512l-381 508h355l211 -303l204 303h326l-362 -502l385 -518h-355l-213 301l-207 -301h-348z" />
<glyph unicode="&#x446;" horiz-adv-x="1280" d="M109 0v1020h276v-756h416v756h276v-756h174v-493h-264v229h-878z" />
<glyph unicode="&#x447;" horiz-adv-x="1114" d="M59 614v406h277v-367q0 -76 84 -75h311v442h277v-1020h-277v317h-364q-141 0 -224.5 80t-83.5 217z" />
<glyph unicode="&#x448;" horiz-adv-x="1652" d="M109 0v1020h276v-756h303v756h277v-756h303v756h276v-1020h-1435z" />
<glyph unicode="&#x449;" horiz-adv-x="1748" d="M109 0v1020h276v-756h303v756h277v-756h303v756h276v-756h174v-493h-264v229h-1345z" />
<glyph unicode="&#x44a;" horiz-adv-x="1306" d="M31 758v262h575v-303h297q168 0 267.5 -105.5t99.5 -251.5q0 -147 -99.5 -253.5t-267.5 -106.5h-573v758h-299zM606 252h281q49 0 79.5 32.5t30.5 80.5q0 45 -30.5 77.5t-79.5 32.5h-281v-223z" />
<glyph unicode="&#x44b;" horiz-adv-x="1490" d="M109 0v1020h276v-303h262q166 0 266.5 -105.5t100.5 -251.5q0 -147 -100.5 -253.5t-266.5 -106.5h-538zM385 252h246q49 0 79.5 32.5t30.5 80.5q0 45 -30.5 77.5t-79.5 32.5h-246v-223zM1106 0v1020h276v-1020h-276z" />
<glyph unicode="&#x44c;" horiz-adv-x="1091" d="M109 0v1020h276v-303h303q166 0 266.5 -105.5t100.5 -251.5q0 -147 -100.5 -253.5t-266.5 -106.5h-579zM385 252h287q49 0 79.5 32.5t30.5 80.5q0 45 -30.5 77.5t-79.5 32.5h-287v-223z" />
<glyph unicode="&#x44d;" horiz-adv-x="1144" d="M41 389h289q25 -68 86 -109.5t141 -41.5q90 0 154.5 46t91.5 124h-305v208h303q-29 76 -92.5 122t-151.5 46q-82 0 -142.5 -42t-84.5 -109h-289q31 186 171 302t347 116q242 0 389.5 -154t147.5 -387.5t-147.5 -387t-389.5 -153.5q-205 0 -345 117t-173 303z" />
<glyph unicode="&#x44e;" horiz-adv-x="1611" d="M109 0v1020h276v-373h152q41 182 175.5 293t327.5 111q233 0 378 -155t145 -386t-145.5 -386t-377.5 -155q-199 0 -335 118t-173 306h-147v-393h-276zM788 510q0 -119 69.5 -195.5t180.5 -76.5q109 0 178.5 78.5t69.5 193.5q0 117 -69.5 195.5t-178.5 78.5 q-111 0 -180.5 -77.5t-69.5 -196.5z" />
<glyph unicode="&#x44f;" horiz-adv-x="1157" d="M76 0v264q0 164 133 201v10q-127 70 -127 227q0 131 96 224.5t271 93.5h602v-1020h-277v338h-319q-100 0 -101 -94v-244h-278zM354 666q0 -43 31 -73t82 -30h307v207h-309q-51 0 -81 -31.5t-30 -72.5z" />
<glyph unicode="&#x451;" horiz-adv-x="1155" d="M49 510q0 229 151 385t382 156q254 0 401 -180.5t119 -452.5h-770q12 -82 78.5 -138.5t169.5 -60.5q72 -4 134 25.5t89 79.5h289q-49 -168 -188.5 -261.5t-323.5 -93.5q-248 0 -389.5 157t-141.5 384zM262 1151v324h246v-324h-246zM334 633h487q-23 80 -87 125t-154.5 45 t-157 -46t-88.5 -124zM657 1151v324h246v-324h-246z" />
<glyph unicode="&#x454;" horiz-adv-x="1144" d="M49 509.5q0 233.5 147.5 387.5t389.5 154q207 0 347 -116t171 -302h-289q-25 68 -85 109.5t-142 41.5q-88 0 -151.5 -46t-92.5 -122h303v-208h-305q27 -78 91.5 -124t154.5 -46q80 0 141.5 42t85.5 109h289q-33 -186 -173 -303t-345 -117q-242 0 -389.5 153.5t-147.5 387 z" />
<glyph unicode="&#x456;" horiz-adv-x="491" d="M109 0v1020h276v-1020h-276zM109 1151v324h276v-324h-276z" />
<glyph unicode="&#x457;" horiz-adv-x="491" d="M-74 1151v324h246v-324h-246zM109 0v1020h276v-1020h-276zM322 1151v324h245v-324h-245z" />
<glyph unicode="&#x45e;" horiz-adv-x="1169" d="M14 1020h303l308 -774l249 774h281l-405 -1186q-41 -117 -125 -180.5t-203 -63.5h-291v271h283q41 0 69 18zM246 1303v172h213v-101q0 -31 30 -31h189q31 0 31 31v101h213v-172q0 -66 -43 -109t-109 -43h-371q-66 0 -109.5 43t-43.5 109z" />
<glyph unicode="&#x490;" horiz-adv-x="1159" d="M127 0v1372h704v266h279v-548h-690v-1090h-293z" />
<glyph unicode="&#x491;" horiz-adv-x="935" d="M109 0v1020h532v264h264v-530h-520v-754h-276z" />
<glyph unicode="&#x1e80;" horiz-adv-x="2004" d="M41 1372h311l260 -913l250 913h281l250 -911l258 911h313l-393 -1372h-326l-241 872l-244 -872h-326zM702 1737h277l235 -262h-262z" />
<glyph unicode="&#x1e81;" horiz-adv-x="1611" d="M16 1020h287l189 -637l190 637h248l194 -637l185 637h286l-325 -1020h-264l-199 649l-201 -649h-264zM535 1475h270l242 -324h-263z" />
<glyph unicode="&#x1e82;" horiz-adv-x="2004" d="M41 1372h311l260 -913l250 913h281l250 -911l258 911h313l-393 -1372h-326l-241 872l-244 -872h-326zM788 1475l234 262h278l-249 -262h-263z" />
<glyph unicode="&#x1e83;" horiz-adv-x="1611" d="M16 1020h287l189 -637l190 637h248l194 -637l185 637h286l-325 -1020h-264l-199 649l-201 -649h-264zM571 1151l242 324h270l-249 -324h-263z" />
<glyph unicode="&#x1e84;" horiz-adv-x="2004" d="M41 1372h311l260 -913l250 913h281l250 -911l258 911h313l-393 -1372h-326l-241 872l-244 -872h-326zM682 1475v262h246v-262h-246zM1077 1475v262h246v-262h-246z" />
<glyph unicode="&#x1e85;" horiz-adv-x="1611" d="M16 1020h287l189 -637l190 637h248l194 -637l185 637h286l-325 -1020h-264l-199 649l-201 -649h-264zM485 1151v324h246v-324h-246zM881 1151v324h245v-324h-245z" />
<glyph unicode="&#x1e9e;" horiz-adv-x="1390" d="M125 0v1061q0 147 81 229t230 82h740v-196l-213 -332q172 -25 272 -145.5t100 -278.5q0 -174 -118.5 -297t-321.5 -123h-260v281h244q78 0 120.5 42t42.5 105.5t-43 107.5t-116 44h-248v196l203 314h-326q-96 0 -96 -95v-995h-291z" />
<glyph unicode="&#x1ef2;" horiz-adv-x="1449" d="M31 1372h336l362 -573l361 573h329l-549 -842v-530h-290v528zM424 1737h276l236 -262h-262z" />
<glyph unicode="&#x1ef3;" horiz-adv-x="1169" d="M14 1020h303l308 -774l249 774h281l-405 -1186q-41 -117 -125 -180.5t-203 -63.5h-291v271h283q41 0 69 18zM330 1475h270l242 -324h-262z" />
<glyph unicode="&#x2000;" horiz-adv-x="967" />
<glyph unicode="&#x2001;" horiz-adv-x="1935" />
<glyph unicode="&#x2002;" horiz-adv-x="967" />
<glyph unicode="&#x2003;" horiz-adv-x="1935" />
<glyph unicode="&#x2004;" horiz-adv-x="645" />
<glyph unicode="&#x2005;" horiz-adv-x="483" />
<glyph unicode="&#x2006;" horiz-adv-x="322" />
<glyph unicode="&#x2007;" horiz-adv-x="322" />
<glyph unicode="&#x2008;" horiz-adv-x="241" />
<glyph unicode="&#x2009;" horiz-adv-x="387" />
<glyph unicode="&#x200a;" horiz-adv-x="107" />
<glyph unicode="&#x2010;" horiz-adv-x="946" d="M109 432v250h729v-250h-729z" />
<glyph unicode="&#x2011;" horiz-adv-x="946" d="M109 432v250h729v-250h-729z" />
<glyph unicode="&#x2012;" horiz-adv-x="946" d="M109 432v250h729v-250h-729z" />
<glyph unicode="&#x2013;" horiz-adv-x="1501" d="M111 416v262h1280v-262h-1280z" />
<glyph unicode="&#x2014;" horiz-adv-x="1759" d="M111 416v260h1538v-260h-1538z" />
<glyph unicode="&#x2018;" horiz-adv-x="542" d="M45 885l201 590h248l-152 -590h-297z" />
<glyph unicode="&#x2019;" horiz-adv-x="544" d="M51 885l152 590h297l-201 -590h-248z" />
<glyph unicode="&#x201a;" horiz-adv-x="581" d="M51 -283l152 590h297l-201 -590h-248z" />
<glyph unicode="&#x201c;" horiz-adv-x="946" d="M51 887l201 588h248l-152 -588h-297zM453 887l202 588h246l-151 -588h-297z" />
<glyph unicode="&#x201d;" horiz-adv-x="946" d="M45 885l152 590h297l-203 -590h-246zM446 885l152 590h297l-201 -590h-248z" />
<glyph unicode="&#x201e;" horiz-adv-x="944" d="M14 -283l152 590h297l-201 -590h-248zM412 -283l151 590h297l-201 -590h-247z" />
<glyph unicode="&#x2020;" horiz-adv-x="978" d="M76 813v207h305v352h217v-352h305v-207h-305v-813h-217v813h-305z" />
<glyph unicode="&#x2021;" horiz-adv-x="1030" d="M102 369v206h304v238h-304v207h304v352h219v-352h303v-207h-303v-238h303v-206h-303v-369h-219v369h-304z" />
<glyph unicode="&#x2022;" horiz-adv-x="819" d="M100 520q0 131 91.5 222.5t222.5 91.5q125 0 215 -92.5t90 -221.5q0 -125 -90 -215t-215 -90q-129 0 -221.5 90t-92.5 215z" />
<glyph unicode="&#x2026;" horiz-adv-x="1751" d="M143 0v307h297v-307h-297zM727 0v307h297v-307h-297zM1311 0v307h297v-307h-297z" />
<glyph unicode="&#x202f;" horiz-adv-x="387" />
<glyph unicode="&#x2030;" horiz-adv-x="2377" d="M78 1065q0 139 98 238.5t242 99.5q141 0 238.5 -99.5t97.5 -238.5q0 -143 -96.5 -241.5t-240 -98.5t-241.5 98.5t-98 241.5zM221 0l963 1372h223l-963 -1372h-223zM276 1065q0 -61 41 -103t100.5 -42t102.5 42t43 103q0 59 -43 101t-102 42q-57 0 -99.5 -42t-42.5 -101z M868 309q0 139 98.5 238.5t241.5 99.5q141 0 238.5 -99t97.5 -239q0 -143 -96 -241.5t-239.5 -98.5t-242 98.5t-98.5 241.5zM1067 309q0 -61 41 -103t100.5 -42t102.5 42t43 103q0 59 -43 101.5t-103 42.5q-57 0 -99 -42t-42 -102zM1624 309q0 139 98.5 238.5t241.5 99.5 q141 0 238.5 -99t97.5 -239q0 -143 -97.5 -241.5t-238.5 -98.5q-143 0 -241.5 98.5t-98.5 241.5zM1821 309q0 -61 42 -103t101 -42t102 42t43 103q0 59 -43 101.5t-102 42.5t-101 -42t-42 -102z" />
<glyph unicode="&#x2039;" horiz-adv-x="620" d="M43 502l293 389h256l-301 -389l301 -389h-256z" />
<glyph unicode="&#x203a;" horiz-adv-x="620" d="M29 113l301 389l-301 389h256l293 -389l-293 -389h-256z" />
<glyph unicode="&#x2044;" horiz-adv-x="624" d="M-272 0l962 1372h209l-962 -1372h-209z" />
<glyph unicode="&#x205f;" horiz-adv-x="483" />
<glyph unicode="&#x2070;" horiz-adv-x="774" d="M45 885v172q0 150 98.5 243t243.5 93q143 0 242.5 -92.5t99.5 -241.5v-174q0 -150 -100.5 -243t-245.5 -93q-143 0 -240.5 94.5t-97.5 241.5zM242 885q0 -66 40 -103t101 -37q63 0 107.5 37t44.5 103v174q0 61 -43 100t-105 39q-63 0 -104 -37.5t-41 -103.5v-172z" />
<glyph unicode="&#x2074;" horiz-adv-x="768" d="M14 754v143l324 475h278v-438h136v-180h-136v-189h-196v189h-406zM252 934h168v260z" />
<glyph unicode="&#x2075;" horiz-adv-x="704" d="M63 889l43 483h512v-190h-354l-10 -117h156q115 0 188.5 -67.5t73.5 -176t-75 -182.5t-187 -74h-334v191h321q33 0 52.5 19.5t21.5 43.5q2 29 -18.5 49.5t-55.5 20.5h-334z" />
<glyph unicode="&#x2076;" horiz-adv-x="729" d="M43 877q2 10 53 319q14 80 73.5 128t135.5 48h309v-192h-286q-43 0 -49 -41l-23 -125h4q72 61 182 61q121 0 194 -69.5t73 -180.5q0 -123 -94.5 -199.5t-241.5 -76.5q-113 0 -198 48t-118 130q-23 57 -14 150zM233 819q0 -37 38 -61.5t101.5 -24.5t102.5 24.5t39 61.5 t-38 61.5t-101.5 24.5t-102.5 -24.5t-39 -61.5z" />
<glyph unicode="&#x2077;" horiz-adv-x="620" d="M10 1182v190h598v-147l-319 -660h-213l309 617h-375z" />
<glyph unicode="&#x2078;" horiz-adv-x="743" d="M37 797q0 127 131 186q-113 63 -113 174q0 104 89 170t227 66q139 0 227 -64.5t88 -171.5q0 -111 -113 -174q131 -59 132 -186q0 -117 -94.5 -182.5t-240 -65.5t-239.5 67.5t-94 180.5zM233 813q0 -33 38.5 -60.5t99.5 -27.5q66 0 102.5 26.5t36.5 61.5q0 31 -38 57.5 t-101.5 26.5t-100.5 -25.5t-37 -58.5zM248 1138.5q0 -32.5 33.5 -54t91.5 -21.5q53 0 88 22.5t35 53.5q0 33 -35 56.5t-90 23.5q-51 0 -87 -24t-36 -56.5z" />
<glyph unicode="&#x2079;" horiz-adv-x="729" d="M20 1114q0 123 93.5 201t240.5 78q115 0 200 -48.5t116 -132.5q23 -53 14 -147q-2 -33 -51 -320q-14 -82 -73.5 -130t-137.5 -48h-307v193h282q47 0 54 41l20 125h-4q-68 -61 -180 -62q-121 0 -194 70t-73 180zM213 1120q0 -37 39 -61.5t102.5 -24.5t102.5 24.5t39 61.5 q0 39 -39 63.5t-102.5 24.5t-102.5 -24.5t-39 -63.5z" />
<glyph unicode="&#x2080;" horiz-adv-x="774" d="M45 317v172q0 150 98.5 243t243.5 93q143 0 242.5 -92t99.5 -241v-175q0 -147 -100.5 -240t-245.5 -93q-143 0 -240.5 93t-97.5 240zM242 317q0 -66 40 -102.5t101 -36.5q63 0 107.5 37t44.5 102v175q0 63 -43 101t-105 38q-63 0 -104 -38t-41 -104v-172z" />
<glyph unicode="&#x2081;" horiz-adv-x="481" d="M8 616v191h387v-807h-194v616h-193z" />
<glyph unicode="&#x2082;" horiz-adv-x="686" d="M35 0v156l381 348q29 29 28 59q0 23 -18 38t-47 15h-338v191h344q115 0 185.5 -69t68.5 -163q-4 -113 -100 -200l-203 -182h301v-193h-602z" />
<glyph unicode="&#x2083;" horiz-adv-x="692" d="M41 0v190h338q33 0 56.5 19.5t23.5 48.5q0 27 -21.5 47.5t-58.5 20.5h-184v114l165 176h-319v191h586v-143l-174 -185q84 -12 144 -70.5t60 -154.5q0 -109 -74.5 -181.5t-181.5 -72.5h-360z" />
<glyph unicode="&#x2084;" horiz-adv-x="768" d="M14 188v144l324 475h278v-438h136v-181h-136v-188h-196v188h-406zM252 369h168v260z" />
<glyph unicode="&#x2085;" horiz-adv-x="704" d="M63 324l43 483h512v-191h-354l-10 -116h156q115 0 188.5 -67.5t73.5 -176.5t-75 -182.5t-187 -73.5h-334v190h321q33 0 52.5 19.5t21.5 44.5q2 29 -18.5 49.5t-55.5 20.5h-334z" />
<glyph unicode="&#x2086;" horiz-adv-x="724" d="M43 311q2 10 53 320q14 80 73.5 128t137.5 48h303v-193h-286q-39 0 -50 -41l-20 -124h4q68 61 182 61q121 0 193 -69.5t72 -180.5q0 -123 -93.5 -199.5t-240.5 -76.5q-115 0 -199 48t-117 130q-20 53 -12 149zM229 254q0 -37 39 -61.5t102.5 -24.5t102.5 24.5t39 61.5 t-38 61.5t-101 24.5q-66 0 -105 -24.5t-39 -61.5z" />
<glyph unicode="&#x2087;" horiz-adv-x="620" d="M10 616v191h598v-148l-319 -659h-213l309 616h-375z" />
<glyph unicode="&#x2088;" horiz-adv-x="743" d="M37 229q0 127 131 189q-113 59 -113 174q0 104 88 168.5t227.5 64.5t227.5 -63.5t88 -169.5q0 -115 -113 -174q131 -61 132 -189q0 -117 -93.5 -181t-240.5 -64q-145 0 -239.5 66.5t-94.5 178.5zM233 246q0 -31 38.5 -59.5t99.5 -28.5q66 0 102.5 27.5t36.5 60.5 q0 31 -38 57.5t-101.5 26.5t-100.5 -25.5t-37 -58.5zM248 571.5q0 -32.5 33.5 -54t91.5 -21.5q53 0 88 22.5t35 52.5q0 33 -35 56.5t-90 23.5q-51 0 -87 -23.5t-36 -56z" />
<glyph unicode="&#x2089;" horiz-adv-x="724" d="M20 547q0 123 93.5 199.5t240.5 76.5q115 0 199 -48t117 -130q20 -53 12 -149q0 -6 -53 -320q-14 -80 -73.5 -128t-135.5 -48h-305v193h286q43 0 50 40l20 125h-4q-66 -61 -180 -61q-121 0 -194 69.5t-73 180.5zM213 553q0 -37 39 -61.5t102.5 -24.5t102.5 24.5t39 61.5 t-39 61.5t-102.5 24.5t-102.5 -24.5t-39 -61.5z" />
<glyph unicode="&#x20ac;" horiz-adv-x="1259" d="M96 373v164h135q-2 14 -2 45q0 29 2 43h-135v163h164q55 166 193.5 268.5t357.5 102.5h332v-262h-363q-152 0 -219 -109h467v-163h-518q-2 -14 -2 -45q0 -29 2 -43h518v-164h-469q68 -113 221 -113h363v-260h-332q-219 0 -357.5 102.5t-191.5 270.5h-166z" />
<glyph unicode="&#x20b4;" horiz-adv-x="1230" d="M123 369v168h985v-168h-594q-31 0 -47 -17.5t-16 -40t16 -40t47 -17.5h522v-254h-577q-131 0 -210 56.5t-79 154.5q0 55 27.5 97t78.5 57v4h-153zM123 621v167h596q29 0 45 16.5t18 39.5q0 23 -16 41t-47 18h-524v254h579q131 0 209 -55t78 -152q0 -61 -28.5 -103 t-78.5 -54v-5h154v-167h-985z" />
<glyph unicode="&#x20bd;" horiz-adv-x="1378" d="M117 0v233h186v127h-186v240h186v555h571q131 0 227.5 -58.5t139.5 -147.5t43 -191.5t-43 -191.5t-139.5 -147.5t-227.5 -58.5h-286v-127h549v-233h-549v-227h-285v227h-186zM588 600h264q78 0 122 45t44 99.5t-44 99.5t-122 45h-264v-289z" />
<glyph unicode="&#x2116;" horiz-adv-x="2273" d="M162 0v1372h332l593 -870v870h291v-1372h-291l-632 928v-928h-293zM1491 1063q0 141 99.5 240.5t242.5 99.5q141 0 239.5 -99.5t98.5 -240.5q0 -145 -97.5 -244.5t-240.5 -99.5t-242.5 99.5t-99.5 244.5zM1503 408v231h658v-231h-658zM1710 1063q2 -53 36 -89t85 -36 t86 36t35 89q0 49 -35 84t-86 35t-86 -35t-35 -84z" />
<glyph unicode="&#x2122;" horiz-adv-x="1816" d="M84 1212v160h676v-160h-252v-546h-166v546h-258zM821 666v706h248l170 -436l172 436h244v-706h-164v501l-197 -501h-116l-193 495v-495h-164z" />
<glyph unicode="&#x215b;" horiz-adv-x="1753" d="M29 1182v190h385v-807h-195v617h-190zM231 0l963 1372h211l-963 -1372h-211zM1018 229q0 127 131 189q-113 59 -113 174q0 104 88 168.5t228 64.5q137 0 226 -63.5t89 -169.5q0 -113 -115 -174q133 -61 134 -189q0 -117 -93.5 -181t-240.5 -64q-145 0 -239.5 66.5 t-94.5 178.5zM1214 246q0 -31 38.5 -59.5t99.5 -28.5q66 0 102.5 27.5t36.5 60.5q0 31 -38 57.5t-101.5 26.5t-100.5 -25.5t-37 -58.5zM1229 571.5q0 -32.5 32.5 -54t90.5 -21.5q55 0 90 22.5t35 52.5q0 33 -35 56.5t-90 23.5q-51 0 -87 -23.5t-36 -56z" />
<glyph unicode="&#x215c;" horiz-adv-x="1798" d="M68 565v191h338q33 0 56 19.5t23 47.5q0 27 -21.5 47.5t-57.5 20.5h-185v115l166 176h-319v190h585v-143l-174 -185q84 -12 144.5 -70.5t60.5 -154.5q0 -109 -74.5 -181.5t-181.5 -72.5h-360zM301 0l963 1372h211l-963 -1372h-211zM1063 229q0 127 131 189 q-113 59 -113 174q0 104 88 168.5t227.5 64.5t227.5 -63.5t88 -169.5q0 -115 -113 -174q131 -61 132 -189q0 -117 -93.5 -181t-240.5 -64q-145 0 -239.5 66.5t-94.5 178.5zM1260 246q0 -31 39 -59.5t98 -28.5q68 0 104.5 27.5t36.5 60.5q0 31 -39 57.5t-102.5 26.5 t-100 -25.5t-36.5 -58.5zM1274 571.5q0 -32.5 33.5 -54t91.5 -21.5q55 0 90 22.5t35 52.5q0 33 -36 56.5t-91 23.5q-51 0 -87 -23.5t-36 -56z" />
<glyph unicode="&#x215d;" horiz-adv-x="1783" d="M90 889l43 483h512v-190h-354l-10 -117h155q115 0 188.5 -67.5t73.5 -176t-74.5 -182.5t-187.5 -74h-334v191h322q33 0 52.5 19.5t21.5 43.5q2 29 -18.5 49.5t-55.5 20.5h-334zM287 0l962 1372h211l-962 -1372h-211zM1049 229q0 127 131 189q-113 59 -113 174 q0 104 88 168.5t227.5 64.5t227.5 -63.5t88 -169.5q0 -115 -113 -174q131 -61 131 -189q0 -117 -93 -181t-241 -64q-145 0 -239 66.5t-94 178.5zM1245 246q0 -31 38 -59.5t99 -28.5q66 0 103 27.5t37 60.5q0 31 -38 57.5t-101.5 26.5t-100.5 -25.5t-37 -58.5zM1260 571.5 q0 -32.5 33.5 -54t90.5 -21.5q53 0 88 22.5t35 52.5q0 33 -35 56.5t-90 23.5q-51 0 -86.5 -23.5t-35.5 -56z" />
<glyph unicode="&#x2190;" horiz-adv-x="1310" d="M117 559l1024 594v-1184z" />
<glyph unicode="&#x2191;" horiz-adv-x="1449" d="M117 0l608 1055l610 -1055h-1218z" />
<glyph unicode="&#x2192;" horiz-adv-x="1310" d="M170 -31v1184l1024 -594z" />
<glyph unicode="&#x2193;" horiz-adv-x="1415" d="M117 1020h1183l-593 -1024z" />
<glyph unicode="&#x2212;" horiz-adv-x="1316" d="M162 535v256h991v-256h-991z" />
<glyph unicode="&#x2460;" horiz-adv-x="1650" d="M109 686q0 297 209.5 507t506.5 210t507 -210t210 -507t-210 -507t-507 -210t-506.5 210t-209.5 507zM264 686.5q0 -231.5 165 -396.5t396.5 -165t396 165t164.5 396.5t-164.5 396t-396 164.5t-396.5 -164.5t-165 -396zM588 899h190v-616h195v807h-385v-191z" />
<glyph unicode="&#x2461;" horiz-adv-x="1650" d="M109 686q0 297 209.5 507t506.5 210t507 -210t210 -507t-210 -507t-507 -210t-506.5 210t-209.5 507zM264 686.5q0 -231.5 165 -396.5t396.5 -165t396 165t164.5 396.5t-164.5 396t-396 164.5t-396.5 -164.5t-165 -396zM532 283h603v192h-301l202 182q100 88 101 203 q0 96 -71 163t-183 67h-344v-191h338q29 0 47 -15.5t18 -37.5q0 -31 -29 -60l-381 -348v-155z" />
<glyph unicode="&#x2462;" horiz-adv-x="1650" d="M109 686q0 297 209.5 507t506.5 210t507 -210t210 -507t-210 -507t-507 -210t-506.5 210t-209.5 507zM264 686.5q0 -231.5 165 -396.5t396.5 -165t396 165t164.5 396.5t-164.5 396t-396 164.5t-396.5 -164.5t-165 -396zM539 283h360q106 0 181 72.5t75 181.5 q0 96 -60.5 154.5t-144.5 68.5h-2l176 186v144h-585v-191h331l-178 -188v-103h185q37 0 58 -20.5t21 -46.5q0 -29 -23.5 -48.5t-55.5 -19.5h-338v-190z" />
<glyph unicode="&#x2463;" horiz-adv-x="1650" d="M109 686q0 297 209.5 507t506.5 210t507 -210t210 -507t-210 -507t-507 -210t-506.5 210t-209.5 507zM264 686.5q0 -231.5 165 -396.5t396.5 -165t396 165t164.5 396.5t-164.5 396t-396 164.5t-396.5 -164.5t-165 -396zM430 471h406v-188h198v188h135v180h-135v439h-280 l-324 -476v-143zM668 651l168 258v-258h-168z" />
<glyph unicode="&#x2464;" horiz-adv-x="1650" d="M109 686q0 297 209.5 507t506.5 210t507 -210t210 -507t-210 -507t-507 -210t-506.5 210t-209.5 507zM264 686.5q0 -231.5 165 -396.5t396.5 -165t396 165t164.5 396.5t-164.5 396t-396 164.5t-396.5 -164.5t-165 -396zM545 606h332q37 0 56 -20.5t17 -48.5 q0 -25 -20.5 -44.5t-52.5 -19.5h-322v-190h334q113 0 187.5 73.5t74.5 182t-73.5 176t-188.5 67.5h-156l10 117h355v191h-510z" />
<glyph unicode="&#x2465;" horiz-adv-x="1650" d="M109 686q0 297 209.5 507t506.5 210t507 -210t210 -507t-210 -507t-507 -210t-506.5 210t-209.5 507zM264 686.5q0 -231.5 165 -396.5t396.5 -165t396 165t164.5 396.5t-164.5 396t-396 164.5t-396.5 -164.5t-165 -396zM498 594q-8 -96 12 -150q33 -82 117 -130t198 -48 q147 0 240.5 77t93.5 200q0 111 -71.5 180.5t-192.5 69.5q-115 0 -182 -62h-4l20 125q10 41 49 41h287v193h-303q-78 0 -137.5 -48.5t-73.5 -128.5q-51 -309 -53 -319zM684 536.5q0 36.5 39 61.5t104 25q63 0 101.5 -25t38.5 -61.5t-39 -61t-102.5 -24.5t-102.5 24.5t-39 61 z" />
<glyph unicode="&#x2466;" horiz-adv-x="1650" d="M109 686q0 297 209.5 507t506.5 210t507 -210t210 -507t-210 -507t-507 -210t-506.5 210t-209.5 507zM264 686.5q0 -231.5 165 -396.5t396.5 -165t396 165t164.5 396.5t-164.5 396t-396 164.5t-396.5 -164.5t-165 -396zM537 899h376l-311 -616h213l320 659v148h-598v-191 z" />
<glyph unicode="&#x2467;" horiz-adv-x="1650" d="M109 686q0 297 209.5 507t506.5 210t507 -210t210 -507t-210 -507t-507 -210t-506.5 210t-209.5 507zM264 686.5q0 -231.5 165 -396.5t396.5 -165t396 165t164.5 396.5t-164.5 396t-396 164.5t-396.5 -164.5t-165 -396zM492 514q0 127 131 186q-113 63 -113 174 q0 104 89 170t226 66q139 0 227.5 -64.5t88.5 -171.5q0 -111 -113 -174q131 -59 131 -186q0 -117 -94 -182.5t-239.5 -65.5t-239.5 67.5t-94 180.5zM688 530.5q0 -32.5 38 -60.5t99 -28q66 0 103 27t37 61q0 31 -38 57.5t-101.5 26.5t-100.5 -25.5t-37 -58zM702 856 q0 -33 33 -54.5t90 -21.5q55 0 90 22.5t35 53.5q0 33 -34.5 56.5t-90.5 23.5q-51 0 -87 -23.5t-36 -56.5z" />
<glyph unicode="&#x2468;" horiz-adv-x="1650" d="M109 686q0 297 209.5 507t506.5 210t507 -210t210 -507t-210 -507t-507 -210t-506.5 210t-209.5 507zM264 686.5q0 -231.5 165 -396.5t396.5 -165t396 165t164.5 396.5t-164.5 396t-396 164.5t-396.5 -164.5t-165 -396zM492 831q0 -109 73.5 -179t192.5 -70q111 0 182 61 h4l-22 -123q-6 -43 -50 -43h-286v-190h305q76 0 136 47t75 129q51 299 53 319q8 96 -14 150q-33 82 -117 130t-197 48q-147 0 -241 -78t-94 -201zM686 838q0 39 39 63.5t102.5 24.5t101.5 -24.5t38 -61.5t-39 -62.5t-102.5 -25.5t-101.5 25.5t-38 60.5z" />
<glyph unicode="&#x24ea;" horiz-adv-x="1650" d="M109 686q0 297 209.5 507t506.5 210t507 -210t210 -507t-210 -507t-507 -210t-506.5 210t-209.5 507zM264 686.5q0 -231.5 165 -396.5t396.5 -165t396 165t164.5 396.5t-164.5 396t-396 164.5t-396.5 -164.5t-165 -396zM485 600q0 -147 97.5 -241.5t240.5 -94.5 q145 0 244.5 93.5t99.5 242.5v174q0 150 -98 242t-242 92q-145 0 -243.5 -93t-98.5 -243v-172zM680 600v172q0 66 41 103.5t104 37.5q61 0 103.5 -37.5t42.5 -101.5v-174q0 -66 -43 -102.5t-107 -36.5q-61 0 -101 36.5t-40 102.5z" />
<glyph unicode="&#x24ff;" horiz-adv-x="1650" d="M109 686q0 297 209.5 507t506.5 210t507 -210t210 -507t-210 -507t-507 -210t-506.5 210t-209.5 507zM485 600q0 -147 97.5 -241.5t240.5 -94.5q145 0 244.5 93.5t99.5 242.5v174q0 150 -98 242t-242 92q-145 0 -243.5 -93t-98.5 -243v-172zM680 600v172q0 66 41 103.5 t104 37.5q61 0 103.5 -37.5t42.5 -101.5v-174q0 -66 -43 -102.5t-107 -36.5q-61 0 -101 36.5t-40 102.5z" />
<glyph unicode="&#x25fc;" horiz-adv-x="1024" d="M0 0v1024h1024v-1024h-1024z" />
<glyph unicode="&#x2776;" horiz-adv-x="1650" d="M109 686q0 297 209.5 507t506.5 210t507 -210t210 -507t-210 -507t-507 -210t-506.5 210t-209.5 507zM588 899h190v-616h195v807h-385v-191z" />
<glyph unicode="&#x2777;" horiz-adv-x="1650" d="M109 686q0 297 209.5 507t506.5 210t507 -210t210 -507t-210 -507t-507 -210t-506.5 210t-209.5 507zM532 283h603v192h-301l202 182q100 88 101 203q0 96 -71 163t-183 67h-344v-191h338q29 0 47 -15.5t18 -37.5q0 -31 -29 -60l-381 -348v-155z" />
<glyph unicode="&#x2778;" horiz-adv-x="1650" d="M109 686q0 297 209.5 507t506.5 210t507 -210t210 -507t-210 -507t-507 -210t-506.5 210t-209.5 507zM539 283h360q106 0 181 72.5t75 181.5q0 96 -60.5 154.5t-144.5 68.5h-2l176 186v144h-585v-191h333l-180 -188v-103h185q37 0 58 -20.5t21 -46.5q0 -29 -23.5 -48.5 t-55.5 -19.5h-338v-190z" />
<glyph unicode="&#x2779;" horiz-adv-x="1650" d="M109 686q0 297 209.5 507t506.5 210t507 -210t210 -507t-210 -507t-507 -210t-506.5 210t-209.5 507zM430 471h406v-188h198v188h135v180h-135v439h-280l-324 -476v-143zM668 651l168 258v-258h-168z" />
<glyph unicode="&#x277a;" horiz-adv-x="1650" d="M109 686q0 297 209.5 507t506.5 210t507 -210t210 -507t-210 -507t-507 -210t-506.5 210t-209.5 507zM545 606h332q37 0 56 -20.5t17 -48.5q0 -25 -20.5 -44.5t-52.5 -19.5h-322v-190h334q113 0 187.5 73.5t74.5 182t-73.5 176t-188.5 67.5h-156l10 117h355v191h-510z " />
<glyph unicode="&#x277b;" horiz-adv-x="1650" d="M109 686q0 297 209.5 507t506.5 210t507 -210t210 -507t-210 -507t-507 -210t-506.5 210t-209.5 507zM498 594q-8 -96 12 -150q33 -82 117 -130t198 -48q147 0 240.5 77t93.5 200q0 111 -71.5 180.5t-192.5 69.5q-115 0 -182 -62h-4l20 125q10 41 49 41h287v193h-303 q-78 0 -137.5 -48.5t-73.5 -128.5q-51 -309 -53 -319zM684 536.5q0 36.5 39 61.5t104 25q63 0 101.5 -25t38.5 -61.5t-39 -61t-102.5 -24.5t-102.5 24.5t-39 61z" />
<glyph unicode="&#x277c;" horiz-adv-x="1650" d="M109 686q0 297 209.5 507t506.5 210t507 -210t210 -507t-210 -507t-507 -210t-506.5 210t-209.5 507zM537 899h376l-311 -616h213l320 659v148h-598v-191z" />
<glyph unicode="&#x277d;" horiz-adv-x="1650" d="M109 686q0 297 209.5 507t506.5 210t507 -210t210 -507t-210 -507t-507 -210t-506.5 210t-209.5 507zM492 514q0 -113 94 -180.5t239.5 -67.5t239.5 65.5t94 182.5q0 127 -131 186q113 63 113 174q0 106 -88 171t-228 65q-137 0 -226 -65.5t-89 -170.5q0 -111 113 -174 q-131 -59 -131 -186zM688 530.5q0 32.5 37 58t100.5 25.5t101.5 -26.5t38 -57.5q0 -35 -37 -61.5t-103 -26.5q-61 0 -99 28t-38 60.5zM702 856q0 33 36 56.5t87 23.5q55 0 90 -23.5t35 -56.5q0 -31 -34.5 -53.5t-90.5 -22.5q-57 0 -90 21.5t-33 54.5z" />
<glyph unicode="&#x277e;" horiz-adv-x="1650" d="M109 686q0 297 209.5 507t506.5 210t507 -210t210 -507t-210 -507t-507 -210t-506.5 210t-209.5 507zM492 831q0 -109 73.5 -179t192.5 -70q111 0 182 61h4l-22 -123q-6 -43 -50 -43h-286v-190h305q76 0 136 47t75 129q51 299 53 319q8 96 -14 150q-33 82 -117 130 t-197 48q-147 0 -241 -78t-94 -201zM686 838q0 39 39 63.5t102.5 24.5t101.5 -24.5t38 -61.5t-39 -62.5t-102.5 -25.5t-101.5 25.5t-38 60.5z" />
<glyph unicode="&#xfb00;" horiz-adv-x="1632" d="M31 754v266h143v156q0 133 85 216t220 83h324v-269h-271q-37 0 -59 -20.5t-22 -55.5v-110h452v156q0 133 85 216t220 83h391v-269h-337q-37 0 -59.5 -20.5t-22.5 -55.5v-110h419v-266h-419v-754h-277v754h-452v-754h-277v754h-143z" />
<glyph horiz-adv-x="1042" d="M74 0v283h303v807h-303v282h897v-282h-303v-807h303v-283h-897z" />
<glyph horiz-adv-x="1433" d="M135 0v1372h291v-532h238l372 532h334l-461 -643l477 -729h-348l-358 557h-254v-557h-291z" />
<glyph horiz-adv-x="1433" d="M135 0v1372h291v-532h238l372 532h334l-461 -643l477 -729h-348l-358 557h-254v-557h-291zM418 -410l241 324h271l-250 -324h-262z" />
<glyph horiz-adv-x="491" d="M109 0v1020h276v-1020h-276zM109 1151v324h276v-324h-276z" />
<glyph horiz-adv-x="1148" d="M104 0v1475h275v-830h160l278 375h313l-360 -488l369 -532h-328l-268 391h-164v-391h-275z" />
<glyph horiz-adv-x="1148" d="M104 0v1475h275v-830h160l278 375h313l-360 -488l369 -532h-328l-268 391h-164v-391h-275zM311 -410l242 324h270l-250 -324h-262z" />
<glyph horiz-adv-x="1157" d="M109 0v1475h276v-601h6q63 145 238 146h456v-264h-270l309 -756h-295l-290 754q-72 -6 -113 -57.5t-41 -135.5v-561h-276z" />
<glyph horiz-adv-x="2324" d="M68 985q0 158 107.5 272.5t297.5 114.5h1808v-282h-460v-1090h-291v1090h-1036q-53 0 -82 -29t-29 -70q0 -35 22.5 -63.5t63.5 -38.5l489 -115q152 -35 232 -140.5t80 -236.5q0 -162 -109.5 -279.5t-304.5 -117.5h-735v285h725q51 0 83 32.5t32 75.5q0 84 -93 105 l-491 116q-150 37 -229.5 140.5t-79.5 230.5z" />
<glyph horiz-adv-x="2076" d="M51 1090v282h1974v-282h-419v-1090h-291v1090h-553v-1090h-293v1090h-418z" />
<glyph horiz-adv-x="1669" d="M31 754v266h143v156q0 133 85 216t220 83h283v-269h-230q-37 0 -59 -20.5t-22 -55.5v-110h456v352h277v-352h420v-266h-420v-408q0 -37 22.5 -57.5t59.5 -20.5h338v-268h-390q-141 0 -224 81t-83 218v455h-456v-754h-277v754h-143z" />
<glyph horiz-adv-x="985" d="M-209 -139h236q37 0 59.5 20.5t22.5 55.5v1083h276v-1131q0 -141 -83 -220t-224 -79h-287v271zM109 1151v324h276v-324h-276zM602 -410v1430h277v-1430h-277zM602 1151v324h277v-324h-277z" />
<glyph horiz-adv-x="1603" d="M109 0v1020h262v-160h10q59 160 246 160h215v352h276v-352h420v-266h-420v-408q0 -78 82 -78h338v-268h-391q-139 0 -222 81t-83 218v455h-230q-100 0 -163.5 -65.5t-63.5 -170.5v-518h-276z" />
<glyph horiz-adv-x="1669" d="M31 754v266h143v352h277v-352h456v352h277v-352h420v-266h-420v-408q0 -37 22.5 -57.5t59.5 -20.5h338v-268h-390q-141 0 -224 81t-83 218v455h-456v-408q0 -37 22.5 -57.5t58.5 -20.5h271v-268h-322q-141 0 -224 81t-83 218v455h-143z" />
<glyph horiz-adv-x="2119" d="M31 0l440 725l-426 647h334l342 -532h194v532h291v-532h193l342 532h334l-424 -647l440 -725h-346l-330 557h-209v-557h-291v557h-210l-328 -557h-346z" />
<glyph horiz-adv-x="1402" d="M135 0v1372h291v-532h238l372 532h334l-461 -643l477 -729h-348l-358 557h-254v-557h-291z" />
<glyph horiz-adv-x="1771" d="M61 805q0 244 167 405.5t427 161.5h86v103h291v-103h82q260 0 428 -162.5t168 -408.5q0 -244 -168 -402.5t-428 -158.5h-82v-240h-291v240h-84q-262 0 -429 159.5t-167 405.5zM358 805q0 -129 82.5 -209t221.5 -80h79v580h-82q-135 0 -218 -81t-83 -210zM1032 516h82 q137 0 219 79t82 206q0 129 -82 212t-219 83h-82v-580z" />
<glyph horiz-adv-x="1042" d="M74 0v283h303v807h-303v282h897v-282h-303v-807h303v-283h-897z" />
<glyph horiz-adv-x="1042" d="M74 0v283h303v807h-303v282h897v-282h-303v-807h303v-283h-897zM190 1475v262h246v-262h-246zM586 1475v262h245v-262h-245z" />
<glyph horiz-adv-x="1970" d="M135 0v1372h291v-536h209q39 256 200.5 411.5t417.5 155.5q305 0 474 -203t169 -518q0 -313 -168.5 -512t-474.5 -199q-266 0 -430 165t-194 431h-203v-567h-291zM915 686q0 -184 87.5 -307t255 -123t254.5 122t87 308t-87 308t-254.5 122t-255 -122t-87.5 -308z" />
<glyph horiz-adv-x="1689" d="M14 0l348 535l-342 485h334l252 -381h101v381h276v-381h100l252 381h334l-342 -485l348 -535h-338l-247 397h-107v-397h-276v397h-107l-248 -397h-338z" />
<glyph horiz-adv-x="1150" d="M109 0v1020h276v-375h156l274 375h315l-360 -488l369 -532h-322l-272 391h-160v-391h-276z" />
<glyph horiz-adv-x="1517" d="M47 508q0 227 153.5 372.5t393.5 145.5h27v346h276v-346h27q238 0 393.5 -145.5t155.5 -372.5q0 -223 -157 -367.5t-392 -144.5h-27v-406h-276v406h-27q-238 0 -392.5 144.5t-154.5 367.5zM324 508q0 -113 73.5 -184.5t194.5 -71.5h29v518h-29q-121 0 -194.5 -72.5 t-73.5 -189.5zM897 252h27q117 0 194.5 71.5t77.5 184.5q0 115 -77 188.5t-195 73.5h-27v-518z" />
<glyph horiz-adv-x="1122" d="M2 1475v262h246v-262h-246zM135 0v1372h291v-1372h-291zM432 1475v262h246v-262h-246zM694 0v1372h291v-1372h-291zM872 1475v262h248v-262h-248z" />
<glyph horiz-adv-x="991" d="M-27 1151v324h248v-324h-248zM109 0v1020h276v-1020h-276zM373 1151v324h245v-324h-245zM604 0v1020h277v-1020h-277zM770 1151v324h248v-324h-248z" />
<glyph horiz-adv-x="1357" d="M66 578q0 260 172 435t448 175q268 0 437 -175t169 -435.5t-169 -436.5t-437 -176q-279 0 -449.5 175t-170.5 438zM342 577.5q0 -145.5 93 -243.5t251 -98q145 0 237.5 100t92.5 242q0 143 -92.5 242.5t-237.5 99.5q-156 0 -250 -98.5t-94 -244z" />
<glyph horiz-adv-x="839" d="M49 889v266h662v-1155h-277v889h-385z" />
<glyph horiz-adv-x="1146" d="M66 0v211l657 565q35 35 35 64q0 20 -16.5 34.5t-41.5 14.5h-606v268h641q139 0 227.5 -80t88.5 -198q-1 -150 -142 -269l-401 -342h569v-268h-1011z" />
<glyph horiz-adv-x="1148" d="M59 39h568q76 0 127 52t51 122t-50 121t-128 51h-308v172l328 332h-588v268h967v-203l-334 -340q156 -8 272.5 -119.5t116.5 -287.5q0 -186 -123.5 -310t-302.5 -124h-596v266z" />
<glyph horiz-adv-x="1347" d="M47 135v172l571 848h424v-754h250v-266h-250v-364h-276v364h-719zM422 401h344v519z" />
<glyph horiz-adv-x="1142" d="M82 385l63 772h813v-268h-583l-21 -258h305q182 0 305 -112.5t123 -299.5q0 -193 -124.5 -319.5t-303.5 -126.5h-561v266h533q76 0 128 52t52 122t-50 121t-130 51h-549z" />
<glyph horiz-adv-x="1241" d="M72 440q0 39 8 80l94 567q20 127 106.5 206t235.5 79h498v-268h-473q-82 0 -97 -80l-36 -217h8q137 106 340 90q207 -14 317.5 -138t110.5 -308q0 -211 -153.5 -345.5t-399.5 -134.5q-250 0 -404.5 132.5t-154.5 336.5zM352 442q0 -86 75 -144t204 -58q123 0 199.5 57 t76.5 149q0 88 -74.5 144.5t-201.5 56.5q-129 0 -204 -57.5t-75 -147.5z" />
<glyph horiz-adv-x="1087" d="M49 887v268h989v-186l-596 -1196h-307l572 1114h-658z" />
<glyph horiz-adv-x="1257" d="M70 389q0 113 64.5 198t182.5 122v6q-102 35 -158.5 113.5t-56.5 181.5q0 178 144.5 285.5t376.5 107.5q236 0 382 -106.5t146 -286.5q0 -102 -57.5 -181t-161.5 -112v-8q121 -37 185.5 -122t64.5 -198q0 -197 -156 -307.5t-403 -110.5q-242 0 -397.5 114t-155.5 304z M362 409.5q0 -71.5 71 -122.5t190 -51q127 0 196.5 50t69.5 124q0 72 -70.5 120t-195.5 48t-193 -48.5t-68 -120zM389 983q0 -68 63.5 -111t174.5 -43q109 2 172 44t63 110q0 70 -64 113t-175 43q-104 0 -169 -44t-65 -112z" />
<glyph horiz-adv-x="1241" d="M57 709q0 211 153.5 345t399.5 134q250 0 404.5 -133t154.5 -338q0 -37 -8 -78l-96 -582q-20 -127 -106.5 -205.5t-235.5 -78.5h-504v266h477q84 0 99 82l39 229h-11q-137 -104 -338 -88q-207 14 -317.5 138t-110.5 309zM334 713q0 -90 74.5 -146.5t201.5 -56.5 q129 0 204 58.5t75 148.5q0 86 -75 143.5t-204 57.5q-123 0 -199.5 -57.5t-76.5 -147.5z" />
<glyph d="M37 578q0 260 172 435t448 175q268 0 437.5 -175t169.5 -435.5t-169.5 -436.5t-437.5 -176q-279 0 -449.5 175t-170.5 438zM313 577.5q0 -145.5 93 -243.5t251 -98q145 0 237.5 100t92.5 242q0 143 -92 242.5t-238 99.5q-156 0 -250 -98.5t-94 -244z" />
<glyph d="M109 0v264h501v625h-399v266h676v-891h307v-264h-1085z" />
<glyph d="M121 0v211l702 565q41 35 41 64q0 49 -61 49h-666v268h703q143 0 229 -80t86 -198q1 -148 -149 -269l-420 -342h600v-268h-1065z" />
<glyph d="M123 39h608q80 0 130 52t48 122q-2 68 -51 115t-127 47h-362v182l370 332h-616v268h1007v-203l-376 -340h20q164 0 288 -112.5t124 -294.5q0 -186 -124 -310t-302 -124h-637v266z" />
<glyph d="M41 135v172l573 848h424v-754h215v-266h-215v-364h-276v364h-721zM408 401h354v533z" />
<glyph d="M147 385l66 772h854v-268h-625l-20 -258h346q182 0 304 -112.5t122 -299.5q0 -193 -124 -319.5t-302 -126.5h-602v266h573q76 0 127.5 52t51.5 122t-50.5 121t-128.5 51h-592z" />
<glyph d="M92 440q0 39 8 80l95 567q20 127 107 206t239 79h530v-268h-504q-86 0 -100 -80l-39 -213h12q139 102 344 86q209 -12 322 -137t113 -309q0 -211 -157 -345.5t-405 -134.5q-254 0 -409.5 132.5t-155.5 336.5zM379 442q0 -86 74.5 -144t203.5 -58q123 0 200 57t77 149 q0 88 -75 143.5t-202 57.5t-202.5 -55t-75.5 -150z" />
<glyph d="M121 887v268h1042v-186l-624 -1196h-308l598 1114h-708z" />
<glyph d="M84 389q0 111 63.5 197t182.5 123v6q-102 35 -157.5 115.5t-55.5 179.5q0 178 148.5 285.5t383.5 107.5q238 0 387.5 -107.5t149.5 -285.5q0 -100 -56.5 -180t-162.5 -115v-6q121 -35 185.5 -122t64.5 -198q0 -197 -159 -307.5t-409 -110.5q-246 0 -405.5 114t-159.5 304 zM377 409.5q0 -71.5 74.5 -122.5t197.5 -51q129 0 202 50t73 124q0 70 -74 119t-201 49q-129 0 -200.5 -48.5t-71.5 -120zM403 983q0 -68 66 -111t180 -43q115 2 181.5 44t66.5 110q0 70 -67.5 113t-180.5 43q-111 0 -178.5 -44t-67.5 -112z" />
<glyph d="M86 709q0 211 156.5 345t404.5 134q254 0 409.5 -133t155.5 -338q0 -37 -8 -78l-96 -582q-20 -125 -106.5 -204.5t-239.5 -79.5h-539v266h512q88 0 103 82l41 227h-11q-141 -102 -348 -86q-209 14 -321.5 138t-112.5 309zM379 713q0 -90 72.5 -146.5t195.5 -56.5 q125 0 198 57.5t73 149.5q0 86 -72 143.5t-199 57.5q-121 0 -194.5 -57.5t-73.5 -147.5z" />
<glyph horiz-adv-x="1310" d="M96 528v316q0 248 158 403.5t399 155.5q238 0 397.5 -155.5t159.5 -401.5v-318q0 -246 -160.5 -402.5t-400 -156.5t-396.5 156.5t-157 402.5zM389 528q0 -125 71.5 -196.5t188.5 -71.5t194 73t77 195v318q0 123 -75 195.5t-191.5 72.5t-190.5 -72.5t-74 -197.5v-316z" />
<glyph d="M139 0v283h449v807h-334v282h625v-1089h282v-283h-1022z" />
<glyph d="M147 0v227l650 625q53 51 53 115q0 51 -39 87t-100 36h-551v282h549q193 0 311.5 -110.5t118.5 -272.5q0 -189 -154 -330l-397 -376h557v-283h-998z" />
<glyph d="M150 0v283h573q68 0 111 43t43 102t-42 101t-112 42h-317v179l313 340h-569v282h964v-213l-321 -348q154 -6 265 -109.5t111 -279.5q0 -182 -118.5 -302t-294.5 -120h-606z" />
<glyph d="M68 330v209l557 833h419v-778h187v-264h-187v-330h-292v330h-684zM426 594h326v504z" />
<glyph d="M166 571l72 801h847v-282h-614l-25 -256h306q190 0 308 -114t118 -290q0 -184 -120 -307t-306 -123h-568v283h549q70 0 110 43t40 102t-40 101t-110 42h-567z" />
<glyph d="M102 428q0 39 7 80l100 584q23 131 112 205.5t230 74.5h518v-282h-489q-84 0 -97 -78l-39 -217h9q104 76 268 79q233 2 363 -119.5t130 -324.5q0 -199 -154.5 -329t-397.5 -130q-252 0 -406 128t-154 329zM389 428q0 -80 71.5 -130t201.5 -50q125 0 195.5 51t70.5 131 q0 84 -72 134t-201 50q-123 0 -194.5 -51t-71.5 -135z" />
<glyph d="M147 1090v282h1006v-217l-561 -1155h-318l545 1090h-672z" />
<glyph d="M94 387q0 109 58.5 195t169.5 127v8q-96 41 -145.5 119.5t-49.5 175.5q0 178 145.5 284.5t376.5 106.5q233 0 380 -106.5t147 -284.5q0 -211 -199 -295v-8q115 -39 172 -126t57 -196q0 -195 -155.5 -305.5t-401.5 -110.5q-244 0 -399.5 113t-155.5 303zM387 409.5 q0 -71.5 71.5 -122.5t190.5 -51q125 0 194.5 50t69.5 124q0 72 -70.5 120t-193.5 48q-125 0 -193.5 -48.5t-68.5 -120zM414 983q0 -68 62.5 -111t172.5 -43q111 2 174.5 44t63.5 110q0 70 -64.5 113t-173.5 43q-106 0 -170.5 -44t-64.5 -112z" />
<glyph d="M96 942q0 199 153.5 329t395.5 130q250 0 402.5 -128t152.5 -329q0 -41 -6 -80l-98 -583q-23 -131 -112 -206t-230 -75h-502v283h473q82 0 96 77l37 218h-8q-102 -76 -264 -80q-233 -4 -361.5 117.5t-128.5 326.5zM381 942q0 -84 70.5 -134t197.5 -50q123 0 193.5 51 t70.5 135q0 80 -70.5 130t-197.5 50q-125 0 -194.5 -51t-69.5 -131z" />
<glyph horiz-adv-x="774" d="M45 317v172q0 150 98.5 243t243.5 93q143 0 242.5 -92t99.5 -241v-175q0 -147 -100.5 -240t-245.5 -93q-143 0 -240.5 93t-97.5 240zM242 317q0 -66 40 -102.5t101 -36.5q63 0 107.5 37t44.5 102v175q0 63 -43 101t-105 38q-63 0 -104 -38t-41 -104v-172z" />
<glyph horiz-adv-x="481" d="M8 616v191h387v-807h-194v616h-193z" />
<glyph horiz-adv-x="686" d="M35 0v156l381 348q29 29 28 59q0 23 -18 38t-47 15h-338v191h344q115 0 185.5 -69t68.5 -163q-4 -113 -100 -200l-203 -182h301v-193h-602z" />
<glyph horiz-adv-x="692" d="M41 0v190h338q33 0 56.5 19.5t23.5 48.5q0 27 -21.5 47.5t-58.5 20.5h-184v114l165 176h-319v191h586v-143l-174 -185q84 -12 144 -70.5t60 -154.5q0 -109 -74.5 -181.5t-181.5 -72.5h-360z" />
<glyph horiz-adv-x="768" d="M14 188v144l324 475h278v-438h136v-181h-136v-188h-196v188h-406zM252 369h168v260z" />
<glyph horiz-adv-x="704" d="M63 324l43 483h512v-191h-354l-10 -116h156q115 0 188.5 -67.5t73.5 -176.5t-75 -182.5t-187 -73.5h-334v190h321q33 0 52.5 19.5t21.5 44.5q2 29 -18.5 49.5t-55.5 20.5h-334z" />
<glyph horiz-adv-x="724" d="M43 311q2 10 53 320q14 80 73.5 128t137.5 48h303v-193h-284q-43 0 -50 -41l-22 -124h4q72 61 182 61q121 0 193 -69.5t72 -180.5q0 -123 -93.5 -199.5t-240.5 -76.5q-115 0 -199 48t-117 130q-20 53 -12 149zM229 254q0 -37 39 -61.5t102.5 -24.5t102.5 24.5t39 61.5 t-38 61.5t-101 24.5q-66 0 -105 -24.5t-39 -61.5z" />
<glyph horiz-adv-x="620" d="M10 616v191h598v-148l-319 -659h-213l309 616h-375z" />
<glyph horiz-adv-x="743" d="M37 229q0 127 131 189q-113 59 -113 174q0 104 88 168.5t227.5 64.5t227.5 -63.5t88 -169.5q0 -115 -113 -174q131 -61 132 -189q0 -117 -93.5 -181t-240.5 -64q-145 0 -239.5 66.5t-94.5 178.5zM233 246q0 -31 38.5 -59.5t99.5 -28.5q66 0 102.5 27.5t36.5 60.5 q0 31 -38 57.5t-101.5 26.5t-100.5 -25.5t-37 -58.5zM248 571.5q0 -32.5 33.5 -54t91.5 -21.5q53 0 88 22.5t35 52.5q0 33 -35 56.5t-90 23.5q-51 0 -87 -23.5t-36 -56z" />
<glyph horiz-adv-x="727" d="M20 547q0 123 93.5 199.5t240.5 76.5q115 0 199 -48t117 -130q20 -53 12 -149q0 -6 -53 -320q-14 -80 -73.5 -128t-135.5 -48h-305v193h286q39 0 50 40l20 125h-4q-68 -61 -180 -61q-121 0 -194 69.5t-73 180.5zM213 553q0 -37 39 -61.5t102.5 -24.5t102.5 24.5t39 61.5 t-39 61.5t-102.5 24.5t-102.5 -24.5t-39 -61.5z" />
<glyph horiz-adv-x="774" d="M45 885v172q0 150 98.5 243t243.5 93q143 0 242.5 -92.5t99.5 -241.5v-174q0 -150 -100.5 -243t-245.5 -93q-143 0 -240.5 94.5t-97.5 241.5zM242 885q0 -66 40 -103t101 -37q63 0 107.5 37t44.5 103v174q0 61 -43 100t-105 39q-63 0 -104 -37.5t-41 -103.5v-172z" />
<glyph horiz-adv-x="481" d="M8 1182v190h387v-807h-194v617h-193z" />
<glyph horiz-adv-x="686" d="M35 565v156l381 348q29 29 28 59q0 23 -18 38.5t-47 15.5h-338v190h344q115 0 185.5 -68.5t68.5 -162.5q-4 -113 -100 -201l-203 -182h301v-193h-602z" />
<glyph horiz-adv-x="692" d="M41 565v191h338q33 0 56.5 19.5t23.5 47.5q0 27 -21.5 47.5t-58.5 20.5h-184v115l165 176h-319v190h586v-143l-174 -185q84 -12 144 -70.5t60 -154.5q0 -109 -74.5 -181.5t-181.5 -72.5h-360z" />
<glyph horiz-adv-x="768" d="M14 754v143l324 475h278v-438h136v-180h-136v-189h-196v189h-406zM252 934h168v260z" />
<glyph horiz-adv-x="704" d="M63 889l43 483h512v-190h-354l-10 -117h156q115 0 188.5 -67.5t73.5 -176t-75 -182.5t-187 -74h-334v191h321q33 0 52.5 19.5t21.5 43.5q2 29 -18.5 49.5t-55.5 20.5h-334z" />
<glyph horiz-adv-x="729" d="M43 877q2 10 53 319q14 80 73.5 128t135.5 48h309v-192h-286q-43 0 -49 -41l-21 -125h4q68 61 180 61q121 0 194 -69.5t73 -180.5q0 -123 -94.5 -199.5t-241.5 -76.5q-113 0 -198 48t-118 130q-23 57 -14 150zM233 819q0 -37 38 -61.5t101.5 -24.5t102.5 24.5t39 61.5 t-38 61.5t-101.5 24.5t-102.5 -24.5t-39 -61.5z" />
<glyph horiz-adv-x="620" d="M10 1182v190h598v-147l-319 -660h-213l309 617h-375z" />
<glyph horiz-adv-x="743" d="M37 797q0 127 131 186q-113 63 -113 174q0 104 89 170t227 66q139 0 227 -64.5t88 -171.5q0 -111 -113 -174q131 -59 132 -186q0 -117 -94.5 -182.5t-240 -65.5t-239.5 67.5t-94 180.5zM233 813q0 -33 38.5 -60.5t99.5 -27.5q66 0 102.5 26.5t36.5 61.5q0 31 -38 57.5 t-101.5 26.5t-100.5 -25.5t-37 -58.5zM248 1138.5q0 -32.5 33.5 -54t91.5 -21.5q53 0 88 22.5t35 53.5q0 33 -35 56.5t-90 23.5q-51 0 -87 -24t-36 -56.5z" />
<glyph horiz-adv-x="729" d="M20 1114q0 123 93.5 201t240.5 78q115 0 200 -48.5t116 -132.5q23 -53 14 -147q-2 -33 -51 -320q-14 -82 -73.5 -130t-137.5 -48h-307v193h282q43 0 54 41l20 125h-4q-72 -61 -180 -62q-121 0 -194 70t-73 180zM213 1120q0 -37 39 -61.5t102.5 -24.5t102.5 24.5t39 61.5 q0 39 -39 63.5t-102.5 24.5t-102.5 -24.5t-39 -63.5z" />
<glyph horiz-adv-x="1282" d="M100 504q0 227 160 387t387 160q219 0 377 -160t158 -387q0 -217 -159 -376t-376 -159q-227 0 -387 158t-160 377z" />
<glyph horiz-adv-x="653" d="M160 1065v307h297v-307h-297zM166 0l18 918h252l19 -918h-289z" />
<glyph horiz-adv-x="1069" d="M82 380.5q0 151.5 104.5 265.5t290.5 114h78v139h270v-385h-327q-63 0 -99.5 -37t-36.5 -88q0 -49 36.5 -85t99.5 -36h495v-268h-518q-184 0 -288.5 114.5t-104.5 266zM543 1065v307h297v-307h-297z" />
<glyph horiz-adv-x="819" d="M100 682q0 131 91.5 222t222.5 91q125 0 215 -92t90 -221q0 -125 -90 -215t-215 -90q-129 0 -221.5 90t-92.5 215z" />
<glyph horiz-adv-x="1665" d="M117 678q0 303 211 514t510 211q293 0 501.5 -212t208.5 -513q0 -291 -210 -500t-500 -209q-299 0 -510 209t-211 500z" />
<glyph horiz-adv-x="636" d="M110.5 690.5q0.5 491.5 247.5 947.5h258q-244 -475 -244 -948t244 -950h-258q-248 459 -247.5 950.5z" />
<glyph horiz-adv-x="638" d="M20 -260q244 473 244 950q0 479 -244 948h259q250 -459 249 -948q1 -487 -249 -950h-259z" />
<glyph horiz-adv-x="677" d="M82 559v254h35q35 0 55.5 21.5t20.5 54.5v471q0 125 77.5 201.5t204.5 76.5h162v-239h-109q-35 0 -56 -21.5t-21 -54.5v-440q0 -76 -33 -126t-90 -67v-10q55 -14 89 -64.5t34 -126.5v-440q0 -33 21.5 -54.5t55.5 -21.5h109v-239h-162q-127 0 -204.5 75.5t-77.5 200.5v473 q0 33 -20.5 54.5t-55.5 21.5h-35z" />
<glyph horiz-adv-x="677" d="M41 -27h109q35 0 56 21.5t21 54.5v440q0 76 34 126.5t89 64.5v10q-57 16 -90 66.5t-33 126.5v440q0 33 -21.5 54.5t-55.5 21.5h-109v239h162q127 0 204.5 -76.5t77.5 -201.5v-471q0 -33 21.5 -54.5t54.5 -21.5h35v-254h-35q-33 0 -54.5 -21.5t-21.5 -54.5v-473 q0 -125 -77.5 -200.5t-204.5 -75.5h-162v239z" />
<glyph horiz-adv-x="681" d="M133 -266v1904h518v-239h-260v-1426h260v-239h-518z" />
<glyph horiz-adv-x="681" d="M31 -27h260v1426h-260v239h518v-1904h-518v239z" />
<glyph horiz-adv-x="946" d="M109 522v250h729v-250h-729z" />
<glyph horiz-adv-x="1501" d="M111 565v262h1280v-262h-1280z" />
<glyph horiz-adv-x="1759" d="M111 565v262h1538v-262h-1538z" />
<glyph horiz-adv-x="1220" d="M92 326l144 147q-51 92 -52 203q0 104 49 198l-141 146l170 172l146 -143q92 51 202 51q109 0 201 -51l145 143l172 -172l-143 -143q51 -97 51 -201q0 -111 -53 -205l145 -145l-172 -172l-147 145q-94 -49 -199 -49q-109 0 -200 51l-148 -147zM408 676q0 -84 59 -143.5 t143 -59.5t142.5 59.5t58.5 143.5q0 82 -59.5 141.5t-141.5 59.5q-84 0 -143 -59.5t-59 -141.5z" />
<glyph d="M98 973q2 145 109.5 252.5t288.5 107.5h24v178h271v-178h331v-280h-618q-45 0 -71.5 -20.5t-29.5 -55.5q0 -68 74 -86l436 -105q145 -35 223 -134t74 -224q-4 -147 -112.5 -257t-290.5 -110h-16v-180h-271v180h-373v279h658q45 0 73.5 25.5t30.5 60.5q0 72 -78 92 l-436 105q-145 35 -222 133t-75 217z" />
<glyph horiz-adv-x="1318" d="M109 436v199h118q-2 16 -2 49q0 37 2 55h-118v197h155q66 201 234 318.5t415 117.5h291v-282h-295q-223 0 -321 -154h465v-197h-529q-2 -16 -2 -53q0 -35 2 -51h529v-199h-465q100 -154 321 -153h295v-283h-291q-248 0 -416.5 118t-234.5 318h-153z" />
<glyph horiz-adv-x="1357" d="M123 436v199h1110v-199h-645q-45 0 -70.5 -22.5t-28.5 -53.5q-2 -33 25 -56t74 -23h557v-281h-617q-160 0 -254 65.5t-94 180.5q0 66 34 116t93 68v6h-184zM123 737v199h647q47 0 71.5 22.5t24.5 55.5q2 31 -24.5 54.5t-71.5 23.5h-557v280h614q160 0 254.5 -65.5 t94.5 -180.5q0 -66 -33 -115.5t-92 -70.5v-4h182v-199h-1110z" />
<glyph horiz-adv-x="1409" d="M117 203v252h174v110h-174v252h174v555h592q137 0 239.5 -59.5t147.5 -149.5t45 -194.5t-45 -194.5t-146.5 -149.5t-240.5 -59.5h-301v-110h536v-252h-536v-203h-291v203h-174zM582 817h278q72 0 113 43t41 93.5t-41 93.5t-113 43h-278v-273z" />
<glyph horiz-adv-x="1271" d="M117 0v283h145v276h-145v254h145v137q0 182 119 302t295 120h420v-282h-389q-68 0 -111 -44.5t-43 -107.5v-125h391v-254h-391v-276h625v-283h-1061z" />
<glyph d="M133 326l143 147q-51 92 -51 203q0 104 49 198l-141 146l170 172l146 -143q92 51 202 51q109 0 201 -51l145 143l172 -172l-143 -143q51 -97 51 -201q0 -111 -53 -205l145 -145l-172 -172l-147 145q-94 -49 -199 -49q-109 0 -200 51l-148 -147zM449 676q0 -84 59 -143.5 t143 -59.5t142.5 59.5t58.5 143.5q0 82 -59.5 141.5t-141.5 59.5q-84 0 -143 -59.5t-59 -141.5z" />
<glyph d="M94 973q2 145 109.5 252.5t288.5 107.5h24v178h270v-178h332v-280h-618q-45 0 -72 -20.5t-29 -55.5q0 -68 74 -86l436 -105q145 -35 223 -134t74 -224q-4 -147 -112.5 -257t-290.5 -110h-17v-180h-270v180h-373v279h658q45 0 73.5 25.5t30.5 60.5q0 72 -78 92l-436 105 q-145 35 -222 133t-75 217z" />
<glyph d="M94 436v199h121q-2 16 -2 49q0 37 2 55h-121v197h158q66 201 233.5 318.5t415.5 117.5h289v-282h-293q-223 0 -322 -154h463v-197h-526q-2 -16 -2 -53q0 -35 2 -51h526v-199h-463q100 -154 322 -153h293v-283h-289q-248 0 -417 118t-234 318h-156z" />
<glyph d="M102 436v199h1096v-199h-633q-45 0 -69.5 -22.5t-26.5 -53.5q-2 -33 23.5 -56t72.5 -23h545v-281h-602q-160 0 -254 65.5t-94 180.5q0 66 32.5 116t92.5 68v6h-183zM102 737v199h633q45 0 70.5 23.5t25.5 54t-25.5 54.5t-70.5 24h-545v280h603q160 0 254 -65.5t94 -180.5 q0 -66 -34 -115.5t-93 -70.5v-4h184v-199h-1096z" />
<glyph d="M72 203v252h174v110h-174v252h174v555h585q137 0 240 -59.5t148 -149.5t45 -194.5t-45 -194.5t-147 -149.5t-241 -59.5h-294v-110h530v-252h-530v-203h-291v203h-174zM537 817h272q72 0 113 43t41 93.5t-41 93.5t-113 43h-272v-273z" />
<glyph d="M125 0v283h143v276h-143v254h143v137q0 182 119 302t295 120h420v-282h-389q-68 0 -110 -44.5t-42 -107.5v-125h389v-254h-389v-276h623v-283h-1059z" />
<glyph d="M20 1372h336l301 -450l304 450h327l-393 -547h287v-223h-381v-125h381v-221h-381v-256h-293v256h-381v221h381v125h-381v223h285z" />
<glyph horiz-adv-x="1415" d="M72 1372h336l305 -430l305 430h328l-396 -547h287v-223h-383v-125h383v-221h-383v-256h-291v256h-383v221h383v125h-383v223h285z" />
<glyph d="M125 510q0 197 107.5 340t291.5 186v215h269v-215q156 -33 258 -141.5t129 -261.5h-291q-25 68 -84.5 109.5t-140.5 41.5q-119 0 -191 -78.5t-72 -195.5t72 -194.5t191 -77.5q80 0 141 42t84 109h291q-29 -154 -131.5 -263.5t-255.5 -141.5v-213h-269v213 q-184 43 -291.5 186t-107.5 340z" />
<glyph d="M133 219l143 148q-51 92 -51 202q0 104 49 199l-141 145l170 172l146 -143q92 51 202 51q109 0 201 -51l145 143l172 -172l-143 -143q51 -97 51 -201q0 -111 -53 -204l145 -146l-172 -172l-147 146q-94 -49 -199 -50q-109 0 -200 52l-148 -148zM449 569q0 -84 59 -143 t143 -59t142.5 59t58.5 143q0 82 -59.5 141.5t-141.5 59.5q-84 0 -143 -59.5t-59 -141.5z" />
<glyph d="M172 831q0 139 95 232.5t241 93.5h12v215h254v-215h289v-262h-551q-31 0 -49.5 -17.5t-18.5 -41.5q1 -50 54 -68l383 -129q117 -39 182 -121t65 -188q0 -139 -97 -234.5t-243 -95.5h-14v-223h-254v223h-305v262h576q31 0 51 19.5t20 44.5q0 45 -53 65l-391 135 q-115 41 -180.5 121t-65.5 184z" />
<glyph d="M100 373v164h136q-2 14 -3 45q0 29 3 43h-136v163h164q55 166 193.5 268.5t357.5 102.5h332v-262h-363q-152 0 -219 -109h467v-163h-518q-2 -14 -2 -45q0 -29 2 -43h518v-164h-469q68 -113 221 -113h363v-260h-332q-219 0 -357.5 102.5t-191.5 270.5h-166z" />
<glyph d="M156 369v168h987v-168h-596q-31 0 -47.5 -17.5t-16.5 -40t16.5 -40t47.5 -17.5h524v-254h-579q-131 0 -210 56.5t-79 154.5q0 55 27.5 97t78.5 57v4h-153zM156 621v167h598q29 0 45 16.5t18 39.5q0 23 -16.5 41t-46.5 18h-527v254h582q131 0 209 -55t78 -152 q0 -61 -29 -103t-78 -54v-5h154v-167h-987z" />
<glyph d="M96 0v233h187v127h-187v240h187v555h544q131 0 227.5 -58.5t139.5 -147.5t43 -191.5t-43 -191.5t-139.5 -147.5t-227.5 -58.5h-260v-127h523v-233h-523v-227h-284v227h-187zM567 600h238q78 0 122 45t44 99.5t-44 99.5t-122 45h-238v-289z" />
<glyph d="M141 0v268h144v193h-144v239h144v35q0 182 118.5 302t294.5 120h389v-268h-366q-70 0 -113 -44t-43 -108v-37h385v-239h-385v-193h604v-268h-1028z" />
<glyph d="M33 1157h325l297 -432l299 432h320l-391 -553h297v-231h-385v-142h385v-229h-385v-229h-283v229h-385v229h385v142h-385v231h293z" />
<glyph horiz-adv-x="1193" d="M86 537v358l512 508l510 -508v-358l-385 403v-940h-252v938z" />
<glyph horiz-adv-x="1554" d="M88 385v254h936l-399 381h358l508 -510l-508 -510h-358l403 385h-940z" />
<glyph horiz-adv-x="1193" d="M86 473v358l387 -405v942h252v-936l383 399v-358l-512 -508z" />
<glyph horiz-adv-x="1554" d="M63 510l506 510h361l-400 -381h936v-254h-940l404 -385h-361z" />
<glyph horiz-adv-x="1193" d="M86 895l512 508l510 -508h-385v-895h-252v895h-385z" />
<glyph horiz-adv-x="1554" d="M88 385v254h895v381l508 -510l-508 -510v385h-895z" />
<glyph horiz-adv-x="1193" d="M86 473h387v895h252v-895h383l-512 -508z" />
<glyph horiz-adv-x="1554" d="M63 510l506 510v-381h897v-254h-897v-385z" />
<glyph horiz-adv-x="1554" d="M90 561v252h938l-401 383h358l506 -510l-506 -510h-358l403 385h-940z" />
<glyph horiz-adv-x="1554" d="M63 686l506 510h361l-402 -383h938v-252h-940l404 -385h-361z" />
<glyph horiz-adv-x="1554" d="M90 561v252h895v383l506 -510l-506 -510v385h-895z" />
<glyph horiz-adv-x="1554" d="M63 686l506 510v-383h897v-252h-897v-385z" />
<glyph horiz-adv-x="1351" d="M211 96v1184l1024 -594z" />
<glyph horiz-adv-x="1351" d="M117 686l1024 594v-1184z" />
<glyph horiz-adv-x="1642" d="M85 387.5q26 149.5 153 233.5l206 139l-98 98q-78 78 -96.5 170t16.5 167t119 126t195 51h274q139 0 225 -94t71 -223t-142 -217l-156 -105l156 -155l446 303l2 -314l-260 -178l389 -389h-377l-237 238l-271 -185q-141 -96 -300.5 -76.5t-250 140.5t-64.5 270.5z M354.5 366.5q-10.5 -44.5 16.5 -79.5q27 -41 74 -49.5t94 22.5l243 164l-159 160l-215 -144q-43 -29 -53.5 -73.5zM540.5 1081.5q-10.5 -24.5 12.5 -49.5l121 -121l172 117q31 18 21.5 48t-46.5 30h-235q-35 0 -45.5 -24.5z" />
<glyph horiz-adv-x="0" d="M-486.5 -297q-48.5 113 50.5 213l76 84h274l-145 -156q-14 -16 -6 -32.5t28 -16.5h125v-205h-215q-139 0 -187.5 113z" />
<glyph horiz-adv-x="0" d="M-461 0h203v-162q0 -43 45 -43h145v-205h-206q-82 0 -134.5 51.5t-52.5 135.5v223z" />
<glyph horiz-adv-x="0" d="M-750 1475v262h246v-262h-246zM-354 1475v262h245v-262h-245z" />
<glyph horiz-adv-x="0" d="M-383 1475v262h277v-262h-277z" />
<glyph horiz-adv-x="0" d="M-539 1737h277l235 -262h-262z" />
<glyph horiz-adv-x="0" d="M-537 1475l234 262h278l-249 -262h-263z" />
<glyph horiz-adv-x="0" d="M-936 1475l234 262h278l-250 -262h-262zM-535 1475l234 262h276l-249 -262h-261z" />
<glyph horiz-adv-x="0" d="M-778 1475l241 262h271l241 -262h-256l-120 141l-121 -141h-256z" />
<glyph horiz-adv-x="0" d="M-778 1737h256l121 -142l120 142h256l-241 -262h-271z" />
<glyph horiz-adv-x="0" d="M-762 1626v111h217v-47q0 -31 31 -31h182q31 0 31 31v47h215v-111q0 -66 -43 -108.5t-109 -42.5h-372q-66 0 -109 42.5t-43 108.5z" />
<glyph horiz-adv-x="0" d="M-563 1689.5q0 104.5 72.5 175t177 70.5t177.5 -70.5t73 -175t-73 -175t-177.5 -70.5t-177 70.5t-72.5 175zM-393 1690q0 -33 23.5 -55.5t56 -22.5t56.5 22.5t24 55.5q0 35 -23 57t-57.5 22t-57 -22.5t-22.5 -56.5z" />
<glyph horiz-adv-x="0" d="M-760 1475v174q0 96 71 134t171 1l184 -72q10 -4 17.5 1t7.5 16v81h217v-170q0 -94 -73 -136t-171 -3l-184 74q-25 8 -25 -16v-84h-215z" />
<glyph horiz-adv-x="0" d="M-770 1475v213h661v-213h-661z" />
<glyph horiz-adv-x="0" d="M-537 -410l242 324h270l-249 -324h-263z" />
<glyph horiz-adv-x="0" d="M-494 -254h256q27 0 27 22.5t-27 22.5h-178v361h160v-222h37q84 0 129 -49t45 -118.5t-46 -121t-128 -51.5h-275v156z" />
<glyph horiz-adv-x="0" d="M-502.5 -297q-48.5 113 49.5 213l76 84h293l-145 -158q-14 -14 -7 -31.5t27 -17.5h125v-203h-231q-139 0 -187.5 113z" />
<glyph horiz-adv-x="0" d="M-772 1303v172h213v-101q0 -31 31 -31h188q31 0 31 31v101h213v-172q0 -66 -43 -109t-109 -43h-370q-66 0 -110 43t-44 109z" />
<glyph horiz-adv-x="0" d="M-733 1626v111h217v-47q0 -31 31 -31h182q31 0 31 31v47h215v-111q0 -66 -43 -108.5t-109 -42.5h-373q-66 0 -108.5 42.5t-42.5 108.5z" />
</font>
</defs>
</svg>
