<?xml version="1.0" standalone="no"?>
<!DOCTYPE svg PUBLIC "-//W3C//DTD SVG 1.1//EN" "http://www.w3.org/Graphics/SVG/1.1/DTD/svg11.dtd" >
<svg xmlns="http://www.w3.org/2000/svg" xmlns:xlink="http://www.w3.org/1999/xlink" version="1.1">
<metadata></metadata>
<defs>
<font id="nekstmedium" horiz-adv-x="645" >
<font-face units-per-em="1000" ascent="783" descent="-217" />
<missing-glyph horiz-adv-x="250" />
<glyph unicode="&#xd;" horiz-adv-x="333" />
<glyph unicode=" "  horiz-adv-x="250" />
<glyph unicode="&#x09;" horiz-adv-x="250" />
<glyph unicode="&#xa0;" horiz-adv-x="250" />
<glyph unicode="!" horiz-adv-x="311" d="M100 225l-6 445h103l-6 -445h-91zM87 120h115v-120h-115v120z" />
<glyph unicode="&#x22;" horiz-adv-x="441" d="M87 720h97l-34 -257h-63v257zM274 720h97l-34 -257h-63v257z" />
<glyph unicode="#" horiz-adv-x="784" d="M737 495l-24 -82h-137l-46 -156h137l-24 -82h-138l-52 -175h-88l52 175h-150l-52 -175h-88l52 175h-132l24 82h133l46 156h-133l24 82h134l52 175h88l-52 -175h150l52 175h88l-52 -175h136zM292 257h150l46 156h-150z" />
<glyph unicode="$" horiz-adv-x="579" d="M206 361l196 -79q53 -21 80 -60t27 -83q0 -56 -41 -97.5t-110 -41.5h-23v-114h-92v114h-151v92h266q24 0 39.5 15.5t15.5 36.5q0 33 -33 46l-203 81q-53 21 -80 59.5t-27 82.5q0 57 41.5 98.5t110.5 41.5h21v117h92v-117h152v-92h-266q-23 0 -36.5 -14.5t-13.5 -35.5 q0 -35 35 -50z" />
<glyph unicode="%" horiz-adv-x="834" d="M225 359q-70 0 -117 47t-47 116q0 67 47.5 115t116.5 48q68 0 115 -48t47 -115q0 -69 -47 -116t-115 -47zM141 0l470 670h89l-470 -670h-89zM225 438q35 0 59.5 24.5t24.5 59.5q0 34 -25 58.5t-59 24.5t-58.5 -24.5t-24.5 -58.5q0 -35 24 -59.5t59 -24.5zM611 -15 q-70 0 -117 47.5t-47 116.5q0 67 47.5 114.5t116.5 47.5q68 0 115 -47.5t47 -114.5q0 -69 -47 -116.5t-115 -47.5zM611 65q35 0 59.5 24.5t24.5 59.5q0 34 -25 58.5t-59 24.5t-58.5 -24.5t-24.5 -58.5q0 -35 24 -59.5t59 -24.5z" />
<glyph unicode="&#x26;" horiz-adv-x="801" d="M573 183l176 -183h-126l-125 129l-149 -107q-61 -44 -136 -34t-118 68q-43 59 -31 130.5t71 113.5l116 82l-79 81q-38 45 -38.5 91t36.5 81t94 35h260v-92h-266q-20 0 -27 -16.5t7 -31.5l270 -280l193 138v-113zM294 96l139 99l-119 122l-120 -85q-28 -20 -34 -54.5 t16 -64.5q20 -27 54.5 -32.5t63.5 15.5z" />
<glyph unicode="'" horiz-adv-x="254" d="M87 720h97l-34 -257h-63v257z" />
<glyph unicode="(" horiz-adv-x="271" d="M261 -200h-90q-131 221 -131 460t131 460h90q-130 -229 -130 -460q0 -230 130 -460z" />
<glyph unicode=")" horiz-adv-x="271" d="M100 -200h-90q131 229 131 460t-131 460h90q131 -219 131 -460t-131 -460z" />
<glyph unicode="*" horiz-adv-x="465" d="M363 614l33 -58l-112 -56l112 -56l-33 -58l-104 69l7 -125h-67l7 125l-104 -69l-33 58l112 56l-112 56l33 58l104 -69l-7 125h67l-7 -125z" />
<glyph unicode="+" horiz-adv-x="610" d="M350 369h195v-90h-195v-195h-90v195h-195v90h195v195h90v-195z" />
<glyph unicode="," horiz-adv-x="311" d="M138 120h113l-93 -257h-92z" />
<glyph unicode="-" horiz-adv-x="494" d="M72 233v87h350v-87h-350z" />
<glyph unicode="." horiz-adv-x="295" d="M90 120h115v-120h-115v120z" />
<glyph unicode="/" horiz-adv-x="499" d="M13 -200l388 1000h85l-388 -1000h-85z" />
<glyph unicode="0" horiz-adv-x="646" d="M63 245v180q0 111 74 185t186 74q111 0 186 -74t75 -185v-180q0 -111 -75 -185t-186 -74q-112 0 -186 74t-74 185zM160 425v-180q0 -72 46 -117.5t117 -45.5t117.5 45.5t46.5 117.5v180q0 72 -46.5 118t-117.5 46t-117 -46t-46 -118z" />
<glyph unicode="1" horiz-adv-x="389" d="M302 670v-670h-97v575h-170v95h267z" />
<glyph unicode="2" horiz-adv-x="549" d="M424 342l-237 -247h312v-95h-455v75l314 331q37 36 37 83q0 38 -28.5 62t-74.5 24h-240v95h241q87 0 143 -49.5t56 -128.5q0 -80 -68 -150z" />
<glyph unicode="3" horiz-adv-x="570" d="M310 385h22q82 0 137.5 -54t55.5 -135q0 -82 -56 -139t-138 -57h-284v95h280q41 0 69.5 29.5t28.5 71.5t-28.5 71.5t-69.5 29.5h-151v70l180 208h-309v95h443v-74z" />
<glyph unicode="4" horiz-adv-x="624" d="M491 259h98v-90h-98v-169h-97v169h-358v69l324 432h131v-411zM394 563l-228 -304h228v304z" />
<glyph unicode="5" horiz-adv-x="580" d="M162 396h176q94 0 146 -58t52 -139q0 -80 -52.5 -139.5t-145.5 -59.5h-269v95h266q46 0 72 30.5t27 72.5t-25.5 73t-73.5 31h-274l38 368h383v-95h-301z" />
<glyph unicode="6" horiz-adv-x="620" d="M50 210q0 21 5 44l58 298q22 118 161 118h223v-95h-221q-32 0 -49 -12t-23 -41l-27 -136h3q67 47 148 47q115 1 182 -60.5t67 -160.5t-72.5 -162t-187.5 -63q-122 0 -194.5 62.5t-72.5 160.5zM147 210q0 -59 43.5 -93.5t126.5 -34.5q75 0 119 36t44 94t-45.5 93.5 t-122.5 35.5q-75 0 -120 -36t-45 -95z" />
<glyph unicode="7" horiz-adv-x="529" d="M35 575v95h458v-75l-278 -595h-108l273 575h-345z" />
<glyph unicode="8" horiz-adv-x="637" d="M52 188q0 55 31 97.5t89 63.5v2q-51 21 -77.5 59.5t-26.5 88.5q0 83 70.5 134t179.5 51t180 -50.5t71 -134.5q0 -50 -27 -88.5t-78 -59.5v-2q58 -21 89.5 -63.5t31.5 -97.5q0 -90 -76 -145.5t-191 -55.5q-114 0 -190 56t-76 145zM166 492q0 -43 42 -69.5t110 -26.5 t110.5 26.5t42.5 69.5q0 44 -42 70.5t-111 26.5t-110.5 -26.5t-41.5 -70.5zM150 193q0 -50 47.5 -80.5t120.5 -30.5q75 0 122 30.5t47 80.5q0 49 -47 78.5t-122 29.5t-121.5 -29t-46.5 -79z" />
<glyph unicode="9" horiz-adv-x="620" d="M570 460q0 -21 -5 -44l-58 -298q-22 -118 -161 -118h-223v95h221q32 0 49 12t23 41l27 136h-3q-67 -47 -148 -47q-115 -1 -182 60.5t-67 160.5t72.5 162t187.5 63q122 0 194.5 -62.5t72.5 -160.5zM473 460q0 59 -43.5 93.5t-126.5 34.5q-75 0 -119 -36t-44 -94 t45.5 -93.5t122.5 -35.5q75 0 120 36t45 95z" />
<glyph unicode=":" horiz-adv-x="317" d="M90 495h115v-120h-115v120zM90 120h115v-120h-115v120z" />
<glyph unicode=";" horiz-adv-x="316" d="M84 495h115v-120h-115v120zM100 120h113l-93 -257h-92z" />
<glyph unicode="&#x3c;" horiz-adv-x="604" d="M525 89l-460 180v90l460 200v-94l-333 -147v-2l333 -133v-94z" />
<glyph unicode="=" horiz-adv-x="696" d="M108 379v90h480v-90h-480zM108 179v90h480v-90h-480z" />
<glyph unicode="&#x3e;" horiz-adv-x="604" d="M539 359v-90l-460 -180v94l333 133v2l-333 147v94z" />
<glyph unicode="?" horiz-adv-x="526" d="M30 670h242q89 0 139 -53.5t50 -125.5q0 -73 -50 -126t-139 -53h-52v-87h-95v174h147q44 0 69 27t25 63q0 37 -24.5 63t-69.5 26h-242v92zM229 0h-115v120h115v-120z" />
<glyph unicode="@" horiz-adv-x="1014" d="M309 670h408q94 0 155 -60t61 -151v-287q0 -69 -42.5 -107t-100.5 -38q-45 0 -82 22.5t-53 65.5q-58 -88 -163 -88q-93 0 -155.5 62t-62.5 162q0 99 62.5 161t155.5 62q96 0 154 -72v59h86v-293q0 -31 17 -46.5t41 -15.5q23 0 39.5 15.5t16.5 46.5v282q0 57 -39 96 t-98 39h-391q-60 0 -99.5 -38.5t-39.5 -96.5v-396q0 -58 39.5 -97t99.5 -39h408v-85h-417q-94 0 -155.5 59t-61.5 149v418q0 91 61.5 151t155.5 60zM502 111q64 0 103.5 40.5t39.5 99.5q0 58 -39.5 98t-102.5 40q-62 0 -102 -39t-40 -99q0 -61 39.5 -100.5t101.5 -39.5z" />
<glyph unicode="A" horiz-adv-x="752" d="M719 0h-109l-76 179h-318l-75 -179h-108l290 670h105zM374 554l-118 -281h238z" />
<glyph unicode="B" horiz-adv-x="695" d="M544 352v-4q46 -20 71 -61t25 -94q0 -82 -56 -137.5t-142 -55.5h-352v670h338q82 0 137 -50t55 -130q0 -94 -76 -138zM425 575h-238v-186h237q42 0 70 26.5t28 66.5q0 41 -28 67t-69 26zM187 96h255q44 0 72 27t28 70q0 44 -29.5 72.5t-74.5 28.5h-251v-198z" />
<glyph unicode="C" horiz-adv-x="773" d="M623 255h103q-24 -118 -114.5 -193t-219.5 -75q-151 0 -246.5 101t-95.5 247q0 145 96 247t246 102q126 0 216.5 -73.5t115.5 -189.5h-102q-22 74 -83.5 121t-144.5 47q-107 0 -176.5 -74.5t-69.5 -179.5q0 -106 69.5 -179.5t176.5 -73.5q87 0 148.5 48.5t80.5 124.5z " />
<glyph unicode="D" horiz-adv-x="744" d="M90 1v669h269q144 0 238 -94.5t94 -238.5v-3q0 -144 -94 -238.5t-238 -94.5h-269zM358 575h-171v-479h171q103 0 169 66.5t66 171.5v3q0 105 -66 171.5t-169 66.5z" />
<glyph unicode="E" horiz-adv-x="643" d="M586 0h-496v670h496v-95h-399v-182h369v-95h-369v-203h399v-95z" />
<glyph unicode="F" horiz-adv-x="626" d="M581 670v-95h-394v-189h364v-95h-364v-291h-97v670h491z" />
<glyph unicode="G" horiz-adv-x="794" d="M401 350h345q1 -161 -96 -262t-250 -101q-152 0 -249.5 101t-97.5 247q0 147 97 248t250 101q121 0 210.5 -65.5t121.5 -170.5h-106q-27 61 -87.5 101t-139.5 40q-110 0 -179 -74t-69 -178q0 -106 71 -180t180 -75q90 -1 152.5 46.5t83.5 127.5h-237v94z" />
<glyph unicode="H" horiz-adv-x="759" d="M572 395v275h97v-670h-97v300h-385v-300h-97v670h97v-275h385z" />
<glyph unicode="I" horiz-adv-x="277" d="M90 0v670h97v-670h-97z" />
<glyph unicode="J" horiz-adv-x="483" d="M301 670h97v-528q0 -65 -38 -103.5t-103 -38.5h-219v95h207q27 0 41.5 15t14.5 41v519z" />
<glyph unicode="K" horiz-adv-x="725" d="M513 392h4q125 0 125 -123v-269h-97v253q0 46 -48 46h-310v-299h-97v670h97v-278h222l139 278h107z" />
<glyph unicode="L" horiz-adv-x="599" d="M90 0v670h98v-574h373v-96h-471z" />
<glyph unicode="M" horiz-adv-x="906" d="M816 670v-670h-97v520l-225 -520h-84l-223 517v-517h-97v670h134l231 -534l230 534h131z" />
<glyph unicode="N" horiz-adv-x="783" d="M596 166v504h97v-670h-97l-409 542v-542h-97v670h119z" />
<glyph unicode="O" horiz-adv-x="803" d="M401 -13q-153 0 -250.5 100.5t-97.5 247.5q0 146 97.5 247.5t250.5 101.5q154 0 251.5 -101t97.5 -248t-97.5 -247.5t-251.5 -100.5zM401 81q112 0 181.5 73.5t69.5 180.5t-70 180.5t-181 73.5q-110 0 -180 -73.5t-70 -180.5q0 -106 69.5 -180t180.5 -74z" />
<glyph unicode="P" horiz-adv-x="681" d="M406 670q98 0 163 -62t65 -155q0 -94 -65 -154.5t-163 -60.5h-219v-238h-97v670h316zM187 331h216q59 0 96 34t37 88q0 53 -37.5 87.5t-95.5 34.5h-216v-244z" />
<glyph unicode="Q" horiz-adv-x="823" d="M615 92v-3h157v-94h-373q-152 0 -249.5 100t-97.5 243t97 244.5t251 101.5q153 0 250.5 -99.5t97.5 -239.5q0 -80 -36 -148.5t-97 -104.5zM399 89q110 0 180 73t70 176q0 105 -70 178t-180 73q-109 0 -179 -73t-70 -178q0 -103 69.5 -176t179.5 -73z" />
<glyph unicode="R" horiz-adv-x="726" d="M187 0h-97v670h337q96 0 157 -50t61 -137q0 -91 -66 -139v-2q75 -19 75 -115v-227h-97v207q0 45 -50 45h-320v-252zM187 575v-228h235q54 0 89.5 31t35.5 82t-36 83t-89 32h-235z" />
<glyph unicode="S" horiz-adv-x="660" d="M238 670h331v-95h-325q-39 0 -62.5 -23t-23.5 -55q0 -27 16.5 -48.5t47.5 -29.5l246 -60q70 -17 107 -67t37 -109q0 -74 -51.5 -128.5t-140.5 -54.5h-345v96h341q41 0 65.5 25.5t24.5 59.5q0 28 -17.5 51.5t-50.5 31.5l-247 60q-68 17 -103.5 65t-35.5 105q0 71 50 123.5 t136 52.5z" />
<glyph unicode="T" horiz-adv-x="654" d="M38 670h578v-95h-241v-575h-97v575h-240v95z" />
<glyph unicode="U" horiz-adv-x="730" d="M76 284v386h97v-382q0 -90 53.5 -148.5t138.5 -58.5q86 0 139 58t53 149v382h97v-386q0 -134 -80.5 -216t-208.5 -82q-129 0 -209 82.5t-80 215.5z" />
<glyph unicode="V" horiz-adv-x="751" d="M378 117l234 553h106l-288 -670h-108l-289 670h108z" />
<glyph unicode="W" horiz-adv-x="1005" d="M706 159l156 511h106l-208 -670h-105l-153 506l-152 -506h-105l-208 670h106l156 -510l151 510h104z" />
<glyph unicode="X" horiz-adv-x="697" d="M407 342l253 -342h-127l-185 260l-185 -260h-126l252 340l-245 330h128l177 -249l181 249h118z" />
<glyph unicode="Y" horiz-adv-x="716" d="M569 670h117l-280 -379v-291h-97v286l-279 384h119l210 -292z" />
<glyph unicode="Z" horiz-adv-x="623" d="M559 595l-376 -500h394v-95h-529v75l377 500h-368v95h502v-75z" />
<glyph unicode="[" horiz-adv-x="289" d="M284 720v-92h-125v-736h125v-92h-219v920h219z" />
<glyph unicode="\" horiz-adv-x="499" d="M0 800h85l388 -1000h-85z" />
<glyph unicode="]" horiz-adv-x="289" d="M5 720h219v-920h-219v92h125v736h-125v92z" />
<glyph unicode="^" horiz-adv-x="513" d="M304 670l150 -259h-97l-100 184l-101 -184h-97l150 259h95z" />
<glyph unicode="_" horiz-adv-x="744" d="M72 -200v63h600v-63h-600z" />
<glyph unicode="`" horiz-adv-x="266" d="M40 720h106l99 -145h-103z" />
<glyph unicode="a" horiz-adv-x="639" d="M473 423v72h94v-495h-94v77h-4q-63 -90 -178 -91q-108 -2 -179.5 72t-71.5 190t71 189t181 72q114 -1 177 -86h4zM305 78q74 0 120.5 49t46.5 121t-46.5 121t-120.5 49q-76 0 -123 -49t-47 -121t47 -121t123 -49z" />
<glyph unicode="b" horiz-adv-x="639" d="M348 509q108 2 179.5 -72t71.5 -190t-71 -189t-181 -72q-57 1 -102.5 24t-73.5 62h-5v-72h-94v720h94v-302h4q63 90 178 91zM334 77q76 0 123 49t47 121t-47 121t-123 49q-74 0 -120.5 -49t-46.5 -121t46.5 -121t120.5 -49z" />
<glyph unicode="c" horiz-adv-x="589" d="M554 315h-99q-16 45 -56.5 74t-95.5 29q-75 0 -121.5 -49t-46.5 -121t46.5 -121.5t121.5 -49.5q54 0 95.5 29t56.5 77h99q-18 -86 -87 -141.5t-165 -55.5q-116 0 -189 75.5t-73 186.5t73 186t189 75q96 0 165 -54.5t87 -139.5z" />
<glyph unicode="d" horiz-adv-x="639" d="M473 418v302h94v-720h-94v72h-5q-28 -39 -73.5 -62t-102.5 -24q-110 -1 -181 72t-71 189t71.5 190t179.5 72q115 -1 178 -91h4zM305 77q74 0 120.5 49t46.5 121t-46.5 121t-120.5 49q-76 0 -123 -49t-47 -121t47 -121t123 -49z" />
<glyph unicode="e" horiz-adv-x="590" d="M296 509q121 0 192.5 -85t61.5 -210h-409q5 -59 50 -98t111 -39q48 0 85 21t54 56h99q-25 -78 -90 -123t-152 -45q-116 0 -187 75.5t-71 185.5q0 111 72 186.5t184 75.5zM294 418q-58 0 -99 -33.5t-52 -86.5h304q-11 54 -52.5 87t-100.5 33z" />
<glyph unicode="f" horiz-adv-x="458" d="M434 628h-175q-50 0 -50 -49v-84h225v-92h-225v-403h-95v403h-90v92h90v100q0 55 35 90t90 35h195v-92z" />
<glyph unicode="g" horiz-adv-x="639" d="M473 423v72h94v-542q0 -73 -39.5 -113t-113.5 -40h-311v93h299q70 0 70 70l1 78v36h-4q-63 -90 -178 -91q-108 -2 -179.5 72t-71.5 190t71 189t181 72q114 -1 177 -86h4zM305 78q74 0 120.5 49t46.5 121t-46.5 121t-120.5 49q-76 0 -123 -49t-47 -121t47 -121t123 -49z " />
<glyph unicode="h" horiz-adv-x="611" d="M340 509q95 0 153 -61.5t58 -163.5v-284h-95v267q0 66 -36.5 108t-99.5 42q-68 0 -110.5 -47.5t-42.5 -122.5v-247h-95v720h95v-292h4q62 81 169 81z" />
<glyph unicode="i" horiz-adv-x="239" d="M72 720h95v-145h-95v145zM72 495h95v-495h-95v495z" />
<glyph unicode="j" horiz-adv-x="239" d="M72 720h95v-145h-95v145zM72 495h95v-572q0 -60 -33 -91.5t-93 -31.5h-128v94h109q50 0 50 48v553z" />
<glyph unicode="k" horiz-adv-x="585" d="M530 506l-115 -199q109 -8 109 -121v-186h-95v170q0 48 -50 48h-212v-218h-95v720h95v-412h144l115 198h104z" />
<glyph unicode="l" horiz-adv-x="316" d="M67 128v592h95v-579q0 -49 50 -49h80v-92h-94q-63 0 -97 33.5t-34 94.5z" />
<glyph unicode="m" horiz-adv-x="886" d="M639 508q86 0 135.5 -56t49.5 -148v-304h-95v294q0 57 -29.5 90t-80.5 33q-49 0 -86 -39t-37 -116v-262h-95v294q0 57 -29.5 90.5t-81.5 32.5q-55 -1 -89 -47t-34 -116v-254h-95v495h91v-71h4q51 84 146 84q109 0 157 -96h3q52 96 166 96z" />
<glyph unicode="n" horiz-adv-x="611" d="M340 509q95 0 153 -61.5t58 -163.5v-284h-95v267q0 66 -36.5 108t-99.5 42q-68 0 -110.5 -47.5t-42.5 -122.5v-247h-95v495h93v-67h4q64 81 171 81z" />
<glyph unicode="o" horiz-adv-x="610" d="M307 -14q-119 0 -193.5 75.5t-74.5 186.5t74.5 186t193.5 75q117 0 190.5 -75t73.5 -186t-74 -186.5t-190 -75.5zM307 77q74 0 121.5 50t47.5 121q0 72 -47.5 121t-121.5 49q-76 0 -124 -49t-48 -121t48 -121.5t124 -49.5z" />
<glyph unicode="p" horiz-adv-x="639" d="M347 509q110 1 181 -72t71 -189t-71.5 -190t-179.5 -72q-115 1 -178 91h-4v-277h-94v695h94v-72h5q28 39 73.5 62t102.5 24zM334 78q76 0 123 49t47 121t-47 121t-123 49q-74 0 -120.5 -49t-46.5 -121t46.5 -121t120.5 -49z" />
<glyph unicode="q" horiz-adv-x="639" d="M473 423v72h94v-695h-94v277h-4q-63 -90 -178 -91q-108 -2 -179.5 72t-71.5 190t71 189t181 72q57 -1 102.5 -24t73.5 -62h5zM305 78q74 0 120.5 49t46.5 121t-46.5 121t-120.5 49q-76 0 -123 -49t-47 -121t47 -121t123 -49z" />
<glyph unicode="r" horiz-adv-x="437" d="M317 495h95v-96h-94q-69 0 -110 -43t-41 -118v-238h-95v495h92v-85h4q39 85 149 85z" />
<glyph unicode="s" horiz-adv-x="526" d="M180 495h275v-92h-273q-19 0 -30.5 -11.5t-11.5 -30.5q0 -35 33 -42l204 -46q52 -12 82.5 -48t30.5 -86q0 -60 -40 -99.5t-101 -39.5h-289v92h287q19 0 31 12.5t12 33.5q0 36 -34 44l-205 45q-51 11 -81 47.5t-30 85.5q0 59 39.5 97t100.5 38z" />
<glyph unicode="t" horiz-adv-x="474" d="M434 495v-92h-225v-261q0 -49 50 -49h175v-93h-194q-61 0 -93.5 32t-32.5 92v279h-90v92h90v175h95v-175h225z" />
<glyph unicode="u" horiz-adv-x="583" d="M59 221v274h95v-273q0 -63 38 -104t99 -41q62 0 100 41t38 104v273h95v-274q0 -106 -64 -170.5t-169 -64.5q-104 0 -168 64.5t-64 170.5z" />
<glyph unicode="v" horiz-adv-x="574" d="M291 122l165 373h100l-223 -495h-93l-222 495h103l166 -373h4z" />
<glyph unicode="w" horiz-adv-x="791" d="M555 135l113 360h102l-165 -495h-95l-115 359l-113 -359h-96l-165 495h103l113 -359l112 359h93z" />
<glyph unicode="x" horiz-adv-x="547" d="M331 254l198 -254h-125l-133 175l-131 -175h-121l194 250l-190 245h124l128 -170l128 170h116z" />
<glyph unicode="y" horiz-adv-x="566" d="M293 79l157 416h97l-218 -572q-24 -64 -62.5 -93.5t-101.5 -29.5h-117v95h117q32 0 49 12.5t29 43.5l1 2l-226 542h105z" />
<glyph unicode="z" horiz-adv-x="507" d="M461 423l-290 -331h300v-92h-435v72l290 331h-280v92h415v-72z" />
<glyph unicode="{" horiz-adv-x="313" d="M203 580v-214q0 -80 -54 -104v-5q54 -22 54 -102v-215q0 -48 50 -48h30v-92h-48q-60 0 -93 31.5t-33 91.5v243q0 48 -50 48h-19v93h19q50 0 50 48v242q0 60 33 91.5t93 31.5h48v-92h-30q-50 0 -50 -48z" />
<glyph unicode="|" horiz-adv-x="300" d="M108 -130v930h84v-930h-84z" />
<glyph unicode="}" horiz-adv-x="313" d="M254 307h19v-93h-19q-50 0 -50 -48v-243q0 -60 -33 -91.5t-93 -31.5h-48v92h30q50 0 50 48v215q0 80 54 102v5q-54 24 -54 104v214q0 48 -50 48h-30v92h48q60 0 93 -31.5t33 -91.5v-242q0 -48 50 -48z" />
<glyph unicode="~" horiz-adv-x="695" d="M191 197h-87v174q0 51 39.5 72t88.5 -6l256 -141q5 -3 10.5 -1t5.5 10v144h87v-173q0 -51 -39.5 -72t-88.5 6l-256 141q-5 3 -10.5 1t-5.5 -10v-145z" />
<glyph unicode="&#xa1;" horiz-adv-x="271" d="M182 495v-120h-115v120h115zM176 -200h-103l6 470h91z" />
<glyph unicode="&#xa2;" horiz-adv-x="655" d="M335 77q54 0 95.5 29t56.5 77h99q-15 -75 -70.5 -127.5t-135.5 -65.5v-115h-95v115q-96 16 -154.5 88t-58.5 170t58.5 169.5t154.5 87.5v115h95v-115q80 -12 135.5 -64t70.5 -126h-99q-16 45 -56.5 74t-95.5 29q-75 0 -121.5 -49t-46.5 -121t46.5 -121.5t121.5 -49.5z " />
<glyph unicode="&#xa3;" horiz-adv-x="641" d="M253 232v-139h320v-93h-495v93h79v139h-79v90h79v36q0 81 55.5 138t136.5 57h187v-92h-183q-42 0 -71 -32t-29 -79v-28h213v-90h-213z" />
<glyph unicode="&#xa4;" horiz-adv-x="641" d="M523 330q0 -61 -33 -110l77 -77l-61 -61l-77 77q-50 -32 -108 -32q-59 0 -109 32l-77 -77l-61 61l77 77q-33 49 -33 110q0 58 32 108l-76 76l61 61l76 -76q49 33 110 33q60 0 109 -33l76 76l61 -61l-76 -76q32 -50 32 -108zM202 330q0 -50 35 -84.5t84 -34.5t83.5 35 t34.5 84t-34.5 83.5t-83.5 34.5t-84 -34.5t-35 -83.5z" />
<glyph unicode="&#xa5;" horiz-adv-x="722" d="M550 552h113l-234 -293h182v-84h-202v-89h202v-84h-202v-124h-95v124h-206v84h206v89h-206v84h182l-230 293h116l187 -239z" />
<glyph unicode="&#xa6;" horiz-adv-x="300" d="M108 398v402h84v-402h-84zM108 -130v408h84v-408h-84z" />
<glyph unicode="&#xa7;" horiz-adv-x="589" d="M362 80l69 -32q41 -19 63 -50.5t20.5 -65t-17 -63.5t-51.5 -49.5t-82 -19.5h-254v92h264q38 0 44.5 33t-24.5 47l-185 86q-62 29 -100 81.5t-38 115.5q0 68 45 120.5t111 64.5l-69 32q-41 19 -63 50.5t-20.5 65t17 63.5t51.5 49.5t82 19.5h254v-92h-264q-38 0 -44.5 -33 t24.5 -47l185 -86q62 -29 100 -81.5t38 -115.5q0 -68 -45 -120.5t-111 -64.5zM164 260q0 -54 38 -90.5t92 -36.5q55 0 93 36.5t38 90.5t-38 90.5t-92 36.5q-55 0 -93 -36.5t-38 -90.5z" />
<glyph unicode="&#xa8;" horiz-adv-x="429" d="M124 720h92v-145h-92v145zM317 720h92v-145h-92v145z" />
<glyph unicode="&#xa9;" horiz-adv-x="837" d="M419 -14q-146 0 -248 102t-102 247t102.5 247t247.5 102t247 -102t102 -247t-102 -247t-247 -102zM418 49q119 0 202.5 83t83.5 203q0 119 -83.5 202.5t-202.5 83.5t-202 -83.5t-83 -202.5q0 -120 83 -203t202 -83zM597 383h-70q-11 32 -39.5 52.5t-67.5 20.5 q-53 0 -85.5 -34.5t-32.5 -85.5t32.5 -86t85.5 -35q38 0 67 20.5t40 54.5h70q-12 -61 -61 -100.5t-116 -39.5q-82 0 -133.5 53.5t-51.5 132.5t51.5 132t133.5 53q67 0 116 -39t61 -99z" />
<glyph unicode="&#xab;" horiz-adv-x="502" d="M194 425h102l-153 -190l153 -190h-102l-150 190zM385 425h102l-153 -190l153 -190h-102l-150 190z" />
<glyph unicode="&#xad;" horiz-adv-x="494" d="M72 233v87h350v-87h-350z" />
<glyph unicode="&#xae;" horiz-adv-x="569" d="M285 685q86 0 147 -60.5t61 -147.5t-61 -147.5t-147 -60.5q-87 0 -148 60.5t-61 147.5t61 147.5t148 60.5zM285 301q73 0 124 51.5t51 124.5t-51 124.5t-124 51.5t-124.5 -51.5t-51.5 -124.5t51.5 -124.5t124.5 -51.5zM190 593h120q33 0 54.5 -17.5t20.5 -45.5 q-1 -37 -36 -54q35 0 35 -35v-77h-35v70q0 16 -17 16h-108v-86h-34v229zM224 483h84q17 0 29 10.5t12 26.5q0 18 -12 29t-29 11h-84v-77z" />
<glyph unicode="&#xb0;" horiz-adv-x="431" d="M216 419q-56 0 -94.5 38.5t-38.5 94.5q0 55 38.5 93.5t94.5 38.5q55 0 93 -38.5t38 -93.5q0 -56 -38 -94.5t-93 -38.5zM216 494q23 0 39.5 17t16.5 41t-16.5 40.5t-39.5 16.5q-25 0 -41 -16.5t-16 -40.5t16.5 -41t40.5 -17z" />
<glyph unicode="&#xb2;" horiz-adv-x="345" d="M264 469l-127 -120h175v-73h-288v59l194 184q18 16 18 39q0 16 -15 27.5t-36 11.5h-157v73h157q54 0 89 -32t35 -78q0 -49 -45 -91z" />
<glyph unicode="&#xb3;" horiz-adv-x="353" d="M205 507h1q48 0 84 -31.5t36 -79.5q0 -51 -37 -85.5t-88 -34.5h-174v73h170q22 0 38.5 15t16.5 33t-16.5 32.5t-38.5 14.5h-91v48l99 105h-178v73h280v-55z" />
<glyph unicode="&#xb4;" horiz-adv-x="266" d="M42 575l99 145h106l-102 -145h-103z" />
<glyph unicode="&#xb6;" horiz-adv-x="587" d="M479 670v-670h-97v238h-89q-98 0 -163 60.5t-65 154.5q0 93 65 155t163 62h186z" />
<glyph unicode="&#xb7;" horiz-adv-x="317" d="M90 395h115v-120h-115v120z" />
<glyph unicode="&#xb8;" horiz-adv-x="302" d="M161 -41h11q39 0 60 -23t21 -55t-21.5 -56.5t-59.5 -24.5h-123v69h117q17 0 17 17q0 14 -17 14h-75v100h70v-41z" />
<glyph unicode="&#xb9;" horiz-adv-x="244" d="M186 670v-394h-73v321h-102v73h175z" />
<glyph unicode="&#xbb;" horiz-adv-x="505" d="M154 235l-153 190h102l150 -190l-150 -190h-102zM348 235l-153 190h102l150 -190l-150 -190h-102z" />
<glyph unicode="&#xbc;" horiz-adv-x="815" d="M215 276h-73v321h-102v73h175v-394zM120 0l470 670h84l-470 -670h-84zM711 165h60v-69h-60v-96h-75v96h-210v55l180 243h105v-229zM636 324l-114 -159h114v159z" />
<glyph unicode="&#xbd;" horiz-adv-x="883" d="M215 276h-73v321h-102v73h175v-394zM120 0l470 670h84l-470 -670h-84zM760 193l-127 -120h175v-73h-288v59l194 184q18 16 18 39q0 16 -15 27.5t-36 11.5h-157v73h157q54 0 89 -32t35 -78q0 -49 -45 -91z" />
<glyph unicode="&#xbe;" horiz-adv-x="917" d="M351 396q0 -51 -37 -85.5t-88 -34.5h-174v73h170q22 0 38.5 15t16.5 33t-16.5 32.5t-38.5 14.5h-91v48l99 105h-178v73h280v-55l-102 -108h1q48 0 84 -31.5t36 -79.5zM206 0l470 670h84l-470 -670h-84zM797 165h60v-69h-60v-96h-75v96h-210v55l180 243h105v-229zM722 324 l-114 -159h114v159z" />
<glyph unicode="&#xbf;" horiz-adv-x="495" d="M294 495h115v-120h-115v120zM253 -108h242v-92h-242q-89 0 -139 53.5t-50 125.5q0 73 50 126t139 53h52v112h95v-199h-147q-44 0 -69 -27t-25 -63q0 -37 24.5 -63t69.5 -26z" />
<glyph unicode="&#xc0;" horiz-adv-x="752" d="M359 835l99 -115h-103l-102 115h106zM719 0h-109l-76 179h-318l-75 -179h-108l290 670h105zM374 554l-118 -281h238z" />
<glyph unicode="&#xc1;" horiz-adv-x="752" d="M393 835h106l-102 -115h-103zM719 0h-109l-76 179h-318l-75 -179h-108l290 670h105zM374 554l-118 -281h238z" />
<glyph unicode="&#xc2;" horiz-adv-x="752" d="M434 720l-59 66l-59 -66h-103l108 115h108l108 -115h-103zM719 0h-109l-76 179h-318l-75 -179h-108l290 670h105zM374 554l-118 -281h238z" />
<glyph unicode="&#xc3;" horiz-adv-x="752" d="M306 772v-52h-78v77q0 45 37.5 64t76.5 -5l86 -53q7 -4 12.5 -0.5t5.5 10.5v52h78v-77q0 -45 -37.5 -64t-76.5 5l-86 53q-7 4 -12.5 1t-5.5 -11zM719 0h-109l-76 179h-318l-75 -179h-108l290 670h105zM374 554l-118 -281h238z" />
<glyph unicode="&#xc4;" horiz-adv-x="752" d="M233 835h92v-115h-92v115zM426 835h92v-115h-92v115zM719 0h-109l-76 179h-318l-75 -179h-108l290 670h105zM374 554l-118 -281h238z" />
<glyph unicode="&#xc5;" horiz-adv-x="752" d="M376 706q-47 0 -80 32.5t-33 79.5t33 79.5t80 32.5t80 -32.5t33 -79.5t-33 -79.5t-80 -32.5zM376 862q-19 0 -31.5 -12.5t-12.5 -31.5t12.5 -31.5t31.5 -12.5t31.5 12.5t12.5 31.5t-12.5 31.5t-31.5 12.5zM719 0h-109l-76 179h-318l-75 -179h-108l290 670h105zM374 554 l-118 -281h238z" />
<glyph unicode="&#xc6;" horiz-adv-x="988" d="M931 670v-95h-319v-182h289v-95h-289v-203h319v-95h-416v204h-265l-107 -204h-111l362 670h537zM446 576l-146 -278h215v278h-69z" />
<glyph unicode="&#xc7;" horiz-adv-x="773" d="M623 255h103q-23 -114 -109 -188.5t-209 -79.5v-28h11q39 0 60 -23t21 -55t-21.5 -56.5t-59.5 -24.5h-123v69h117q17 0 17 17q0 14 -17 14h-75v91q-129 18 -208.5 115t-79.5 229q0 145 96 247t246 102q126 0 216.5 -73.5t115.5 -189.5h-102q-22 74 -83.5 121t-144.5 47 q-107 0 -176.5 -74.5t-69.5 -179.5q0 -106 69.5 -179.5t176.5 -73.5q87 0 148.5 48.5t80.5 124.5z" />
<glyph unicode="&#xc8;" horiz-adv-x="643" d="M217 835h106l99 -115h-103zM586 0h-496v670h496v-95h-399v-182h369v-95h-369v-203h399v-95z" />
<glyph unicode="&#xc9;" horiz-adv-x="643" d="M258 720l99 115h106l-102 -115h-103zM586 0h-496v670h496v-95h-399v-182h369v-95h-369v-203h399v-95z" />
<glyph unicode="&#xca;" horiz-adv-x="643" d="M398 720l-59 66l-59 -66h-103l108 115h108l108 -115h-103zM586 670v-95h-399v-182h369v-95h-369v-203h399v-95h-496v670h496z" />
<glyph unicode="&#xcb;" horiz-adv-x="643" d="M197 835h92v-115h-92v115zM390 835h92v-115h-92v115zM586 0h-496v670h496v-95h-399v-182h369v-95h-369v-203h399v-95z" />
<glyph unicode="&#xcc;" horiz-adv-x="277" d="M16 835h106l99 -115h-103zM90 0v670h97v-670h-97z" />
<glyph unicode="&#xcd;" horiz-adv-x="277" d="M57 720l99 115h106l-102 -115h-103zM90 0v670h97v-670h-97z" />
<glyph unicode="&#xce;" horiz-adv-x="277" d="M192 835l108 -115h-103l-59 66l-59 -66h-103l108 115h108zM187 0h-97v670h97v-670z" />
<glyph unicode="&#xcf;" horiz-adv-x="277" d="M-4 835h92v-115h-92v115zM189 835h92v-115h-92v115zM90 0v670h97v-670h-97z" />
<glyph unicode="&#xd0;" horiz-adv-x="769" d="M115 670h269q144 0 238 -94.5t94 -238.5v-3q0 -144 -94 -238.5t-238 -94.5h-269v306h-76v82h76v281zM618 334v3q0 105 -66 171.5t-169 66.5h-171v-186h207v-82h-207v-211h171q103 0 169 66.5t66 171.5z" />
<glyph unicode="&#xd1;" horiz-adv-x="783" d="M322 772v-52h-78v77q0 45 37.5 64t76.5 -5l86 -53q7 -4 12.5 -0.5t5.5 10.5v52h78v-77q0 -45 -37.5 -64t-76.5 5l-86 53q-7 4 -12.5 1t-5.5 -11zM596 166v504h97v-670h-97l-409 542v-542h-97v670h119z" />
<glyph unicode="&#xd2;" horiz-adv-x="803" d="M279 835h106l99 -115h-103zM401 -13q-153 0 -250.5 100.5t-97.5 247.5q0 146 97.5 247.5t250.5 101.5q154 0 251.5 -101t97.5 -248t-97.5 -247.5t-251.5 -100.5zM401 81q112 0 181.5 73.5t69.5 180.5t-70 180.5t-181 73.5q-110 0 -180 -73.5t-70 -180.5q0 -106 69.5 -180 t180.5 -74z" />
<glyph unicode="&#xd3;" horiz-adv-x="803" d="M320 720l99 115h106l-102 -115h-103zM401 -13q-153 0 -250.5 100.5t-97.5 247.5q0 146 97.5 247.5t250.5 101.5q154 0 251.5 -101t97.5 -248t-97.5 -247.5t-251.5 -100.5zM401 81q112 0 181.5 73.5t69.5 180.5t-70 180.5t-181 73.5q-110 0 -180 -73.5t-70 -180.5 q0 -106 69.5 -180t180.5 -74z" />
<glyph unicode="&#xd4;" horiz-adv-x="803" d="M460 720l-59 66l-59 -66h-103l108 115h108l108 -115h-103zM401 684q154 0 251.5 -101t97.5 -248t-97.5 -247.5t-251.5 -100.5q-153 0 -250.5 100.5t-97.5 247.5q0 146 97.5 247.5t250.5 101.5zM401 81q112 0 181.5 73.5t69.5 180.5t-70 180.5t-181 73.5 q-110 0 -180 -73.5t-70 -180.5q0 -106 69.5 -180t180.5 -74z" />
<glyph unicode="&#xd5;" horiz-adv-x="803" d="M332 720h-78v77q0 45 37.5 64t76.5 -5l86 -53q7 -4 12.5 -0.5t5.5 10.5v52h78v-77q0 -45 -37.5 -64t-76.5 5l-86 53q-7 4 -12.5 1t-5.5 -11v-52zM401 -13q-153 0 -250.5 100.5t-97.5 247.5q0 146 97.5 247.5t250.5 101.5q154 0 251.5 -101t97.5 -248t-97.5 -247.5 t-251.5 -100.5zM401 81q112 0 181.5 73.5t69.5 180.5t-70 180.5t-181 73.5q-110 0 -180 -73.5t-70 -180.5q0 -106 69.5 -180t180.5 -74z" />
<glyph unicode="&#xd6;" horiz-adv-x="803" d="M259 835h92v-115h-92v115zM452 835h92v-115h-92v115zM401 -13q-153 0 -250.5 100.5t-97.5 247.5q0 146 97.5 247.5t250.5 101.5q154 0 251.5 -101t97.5 -248t-97.5 -247.5t-251.5 -100.5zM401 81q112 0 181.5 73.5t69.5 180.5t-70 180.5t-181 73.5q-110 0 -180 -73.5 t-70 -180.5q0 -106 69.5 -180t180.5 -74z" />
<glyph unicode="&#xd7;" horiz-adv-x="572" d="M445 547l64 -64l-159 -159l159 -159l-64 -64l-159 159l-159 -159l-64 64l159 159l-159 159l64 64l159 -159z" />
<glyph unicode="&#xd8;" horiz-adv-x="806" d="M720 670l-69 -84q101 -101 101 -251q0 -147 -97.5 -247.5t-251.5 -100.5q-111 0 -195 56l-34 -42l-95 -1l72 89q-96 99 -96 246q0 146 97.5 247.5t250.5 101.5q107 0 191 -52l31 38h95zM153 335q0 -99 60 -170l319 391q-57 33 -129 33q-110 0 -180 -73.5t-70 -180.5z M403 81q112 0 181.5 73.5t69.5 180.5q0 104 -65 175l-320 -393q58 -36 134 -36z" />
<glyph unicode="&#xd9;" horiz-adv-x="730" d="M242 835h106l99 -115h-103zM76 284v386h97v-382q0 -90 53.5 -148.5t138.5 -58.5q86 0 139 58t53 149v382h97v-386q0 -134 -80.5 -216t-208.5 -82q-129 0 -209 82.5t-80 215.5z" />
<glyph unicode="&#xda;" horiz-adv-x="730" d="M283 720l99 115h106l-102 -115h-103zM76 284v386h97v-382q0 -90 53.5 -148.5t138.5 -58.5q86 0 139 58t53 149v382h97v-386q0 -134 -80.5 -216t-208.5 -82q-129 0 -209 82.5t-80 215.5z" />
<glyph unicode="&#xdb;" horiz-adv-x="730" d="M423 720l-59 66l-59 -66h-103l108 115h108l108 -115h-103zM557 288v382h97v-386q0 -134 -80.5 -216t-208.5 -82q-129 0 -209 82.5t-80 215.5v386h97v-382q0 -90 53.5 -148.5t138.5 -58.5q86 0 139 58t53 149z" />
<glyph unicode="&#xdc;" horiz-adv-x="730" d="M222 835h92v-115h-92v115zM415 835h92v-115h-92v115zM76 284v386h97v-382q0 -90 53.5 -148.5t138.5 -58.5q86 0 139 58t53 149v382h97v-386q0 -134 -80.5 -216t-208.5 -82q-129 0 -209 82.5t-80 215.5z" />
<glyph unicode="&#xdd;" horiz-adv-x="716" d="M376 835h106l-102 -115h-103zM569 670h117l-280 -379v-291h-97v286l-279 384h119l210 -292z" />
<glyph unicode="&#xde;" horiz-adv-x="680" d="M187 571h219q98 0 163 -62t65 -155q0 -94 -65 -154.5t-163 -60.5h-219v-139h-97v670h97v-99zM187 232h216q59 0 96 34t37 88q0 53 -37.5 87.5t-95.5 34.5h-216v-244z" />
<glyph unicode="&#xdf;" horiz-adv-x="661" d="M554 648l-92 -166q72 -18 116 -82.5t44 -150.5q0 -108 -68.5 -178.5t-178.5 -70.5h-69v92h65q68 0 107.5 42.5t41.5 108.5q2 71 -42.5 118t-117.5 47h-7v60l89 160h-183q-50 0 -50 -49v-579h-95v403h-90v92h90v100q0 55 35 90t90 35h315v-72z" />
<glyph unicode="&#xe0;" horiz-adv-x="639" d="M289 720l99 -145h-103l-102 145h106zM473 423v72h94v-495h-94v77h-4q-63 -90 -178 -91q-108 -2 -179.5 72t-71.5 190t71 189t181 72q114 -1 177 -86h4zM305 78q74 0 120.5 49t46.5 121t-46.5 121t-120.5 49q-76 0 -123 -49t-47 -121t47 -121t123 -49z" />
<glyph unicode="&#xe1;" horiz-adv-x="639" d="M311 720h106l-102 -145h-103zM473 423v72h94v-495h-94v77h-4q-63 -90 -178 -91q-108 -2 -179.5 72t-71.5 190t71 189t181 72q114 -1 177 -86h4zM305 78q74 0 120.5 49t46.5 121t-46.5 121t-120.5 49q-76 0 -123 -49t-47 -121t47 -121t123 -49z" />
<glyph unicode="&#xe2;" horiz-adv-x="639" d="M367 575l-64 86l-64 -86h-98l111 145h102l111 -145h-98zM473 423v72h94v-495h-94v77h-4q-63 -90 -178 -91q-108 -2 -179.5 72t-71.5 190t71 189t181 72q114 -1 177 -86h4zM305 78q74 0 120.5 49t46.5 121t-46.5 121t-120.5 49q-76 0 -123 -49t-47 -121t47 -121t123 -49z " />
<glyph unicode="&#xe3;" horiz-adv-x="639" d="M234 627v-52h-78v77q0 45 37.5 64t76.5 -5l86 -53q7 -4 12.5 -1t5.5 11v52h78v-77q0 -45 -37.5 -64t-76.5 5l-86 53q-7 4 -12.5 1t-5.5 -11zM473 423v72h94v-495h-94v77h-4q-63 -90 -178 -91q-108 -2 -179.5 72t-71.5 190t71 189t181 72q114 -1 177 -86h4zM305 78 q74 0 120.5 49t46.5 121t-46.5 121t-120.5 49q-76 0 -123 -49t-47 -121t47 -121t123 -49z" />
<glyph unicode="&#xe4;" horiz-adv-x="639" d="M161 720h92v-145h-92v145zM354 720h92v-145h-92v145zM473 423v72h94v-495h-94v77h-4q-63 -90 -178 -91q-108 -2 -179.5 72t-71.5 190t71 189t181 72q114 -1 177 -86h4zM305 78q74 0 120.5 49t46.5 121t-46.5 121t-120.5 49q-76 0 -123 -49t-47 -121t47 -121t123 -49z" />
<glyph unicode="&#xe5;" horiz-adv-x="639" d="M304 548q-47 0 -80 32.5t-33 79.5t33 79.5t80 32.5t80 -32.5t33 -79.5t-33 -79.5t-80 -32.5zM304 704q-19 0 -31.5 -12.5t-12.5 -31.5t12.5 -31.5t31.5 -12.5t31.5 12.5t12.5 31.5t-12.5 31.5t-31.5 12.5zM473 423v72h94v-495h-94v77h-4q-63 -90 -178 -91 q-108 -2 -179.5 72t-71.5 190t71 189t181 72q114 -1 177 -86h4zM305 78q74 0 120.5 49t46.5 121t-46.5 121t-120.5 49q-76 0 -123 -49t-47 -121t47 -121t123 -49z" />
<glyph unicode="&#xe6;" horiz-adv-x="1026" d="M745 509q112 0 181.5 -82.5t59.5 -212.5h-415q6 -62 57.5 -100t115.5 -38q43 0 79 20t54 58h99q-24 -79 -85.5 -123.5t-144.5 -44.5q-114 0 -179 85v-71h-94v79q-65 -93 -182 -93q-106 0 -178.5 72.5t-72.5 189.5t72 189t179 72q117 0 182 -89v75h94v-72q64 86 178 86z M305 78q74 0 120.5 49t46.5 121t-46.5 121t-120.5 49q-76 0 -123 -49t-47 -121t47 -121t123 -49zM728 418q-58 0 -101 -33.5t-54 -86.5h310q-11 54 -53 87t-102 33z" />
<glyph unicode="&#xe7;" horiz-adv-x="589" d="M303 77q54 0 95.5 29t56.5 77h99q-15 -75 -71 -128t-136 -66v-30h11q39 0 60 -23t21 -55t-21.5 -56.5t-59.5 -24.5h-123v69h117q17 0 17 17q0 14 -17 14h-75v87q-106 9 -171.5 82.5t-65.5 178.5q0 111 73 186t189 75q96 0 165 -54.5t87 -139.5h-99q-16 45 -56.5 74 t-95.5 29q-75 0 -121.5 -49t-46.5 -121t46.5 -121.5t121.5 -49.5z" />
<glyph unicode="&#xe8;" horiz-adv-x="590" d="M282 720l99 -145h-103l-102 145h106zM296 509q121 0 192.5 -85t61.5 -210h-409q5 -59 50 -98t111 -39q48 0 85 21t54 56h99q-25 -78 -90 -123t-152 -45q-116 0 -187 75.5t-71 185.5q0 111 72 186.5t184 75.5zM294 418q-58 0 -99 -33.5t-52 -86.5h304q-11 54 -52.5 87 t-100.5 33z" />
<glyph unicode="&#xe9;" horiz-adv-x="590" d="M304 720h106l-102 -145h-103zM296 509q121 0 192.5 -85t61.5 -210h-409q5 -59 50 -98t111 -39q48 0 85 21t54 56h99q-25 -78 -90 -123t-152 -45q-116 0 -187 75.5t-71 185.5q0 111 72 186.5t184 75.5zM294 418q-58 0 -99 -33.5t-52 -86.5h304q-11 54 -52.5 87t-100.5 33z " />
<glyph unicode="&#xea;" horiz-adv-x="590" d="M360 575l-64 86l-64 -86h-98l111 145h102l111 -145h-98zM296 509q121 0 192.5 -85t61.5 -210h-409q5 -59 50 -98t111 -39q48 0 85 21t54 56h99q-25 -78 -90 -123t-152 -45q-116 0 -187 75.5t-71 185.5q0 111 72 186.5t184 75.5zM294 418q-58 0 -99 -33.5t-52 -86.5h304 q-11 54 -52.5 87t-100.5 33z" />
<glyph unicode="&#xeb;" horiz-adv-x="590" d="M154 720h92v-145h-92v145zM347 720h92v-145h-92v145zM296 509q121 0 192.5 -85t61.5 -210h-409q5 -59 50 -98t111 -39q48 0 85 21t54 56h99q-25 -78 -90 -123t-152 -45q-116 0 -187 75.5t-71 185.5q0 111 72 186.5t184 75.5zM294 418q-58 0 -99 -33.5t-52 -86.5h304 q-11 54 -52.5 87t-100.5 33z" />
<glyph unicode="&#xec;" horiz-adv-x="239" d="M-1 720h106l99 -145h-103zM72 495h95v-495h-95v495z" />
<glyph unicode="&#xed;" horiz-adv-x="239" d="M28 575l99 145h106l-102 -145h-103zM72 495h95v-495h-95v495z" />
<glyph unicode="&#xee;" horiz-adv-x="239" d="M170 720l111 -145h-98l-64 86l-64 -86h-98l111 145h102zM167 0h-95v495h95v-495z" />
<glyph unicode="&#xef;" horiz-adv-x="239" d="M-23 720h92v-145h-92v145zM170 720h92v-145h-92v145zM72 495h95v-495h-95v495z" />
<glyph unicode="&#xf0;" horiz-adv-x="600" d="M480 575h-53q130 -187 130 -325q0 -113 -71 -188t-188 -75q-114 0 -187 71t-73 179q0 111 75 178.5t173 65.5q65 -2 112 -31l3 2q-36 58 -83 123h-163v81h101l-53 63h117l49 -63h111v-81zM298 78q73 0 118 46t45 113t-46 111t-117 44q-72 0 -118 -45t-46 -112t46 -112 t118 -45z" />
<glyph unicode="&#xf1;" horiz-adv-x="611" d="M242 627v-52h-78v77q0 45 37.5 64t76.5 -5l86 -53q7 -4 12.5 -1t5.5 11v52h78v-77q0 -45 -37.5 -64t-76.5 5l-86 53q-7 4 -12.5 1t-5.5 -11zM340 509q95 0 153 -61.5t58 -163.5v-284h-95v267q0 66 -36.5 108t-99.5 42q-68 0 -110.5 -47.5t-42.5 -122.5v-247h-95v495h93 v-67h4q64 81 171 81z" />
<glyph unicode="&#xf2;" horiz-adv-x="610" d="M184 720h106l99 -145h-103zM307 -14q-119 0 -193.5 75.5t-74.5 186.5t74.5 186t193.5 75q117 0 190.5 -75t73.5 -186t-74 -186.5t-190 -75.5zM307 77q74 0 121.5 50t47.5 121q0 72 -47.5 121t-121.5 49q-76 0 -124 -49t-48 -121t48 -121.5t124 -49.5z" />
<glyph unicode="&#xf3;" horiz-adv-x="610" d="M213 575l99 145h106l-102 -145h-103zM307 -14q-119 0 -193.5 75.5t-74.5 186.5t74.5 186t193.5 75q117 0 190.5 -75t73.5 -186t-74 -186.5t-190 -75.5zM307 77q74 0 121.5 50t47.5 121q0 72 -47.5 121t-121.5 49q-76 0 -124 -49t-48 -121t48 -121.5t124 -49.5z" />
<glyph unicode="&#xf4;" horiz-adv-x="610" d="M368 575l-64 86l-64 -86h-98l111 145h102l111 -145h-98zM307 509q117 0 190.5 -75t73.5 -186t-74 -186.5t-190 -75.5q-119 0 -193.5 75.5t-74.5 186.5t74.5 186t193.5 75zM307 77q74 0 121.5 50t47.5 121q0 72 -47.5 121t-121.5 49q-76 0 -124 -49t-48 -121t48 -121.5 t124 -49.5z" />
<glyph unicode="&#xf5;" horiz-adv-x="610" d="M235 575h-78v77q0 45 37.5 64t76.5 -5l86 -53q7 -4 12.5 -1t5.5 11v52h78v-77q0 -45 -37.5 -64t-76.5 5l-86 53q-7 4 -12.5 1t-5.5 -11v-52zM307 -14q-119 0 -193.5 75.5t-74.5 186.5t74.5 186t193.5 75q117 0 190.5 -75t73.5 -186t-74 -186.5t-190 -75.5zM307 77 q74 0 121.5 50t47.5 121q0 72 -47.5 121t-121.5 49q-76 0 -124 -49t-48 -121t48 -121.5t124 -49.5z" />
<glyph unicode="&#xf6;" horiz-adv-x="610" d="M162 720h92v-145h-92v145zM355 720h92v-145h-92v145zM307 -14q-119 0 -193.5 75.5t-74.5 186.5t74.5 186t193.5 75q117 0 190.5 -75t73.5 -186t-74 -186.5t-190 -75.5zM307 77q74 0 121.5 50t47.5 121q0 72 -47.5 121t-121.5 49q-76 0 -124 -49t-48 -121t48 -121.5 t124 -49.5z" />
<glyph unicode="&#xf7;" horiz-adv-x="611" d="M248 564h115v-120h-115v120zM65 279v90h480v-90h-480zM248 204h115v-120h-115v120z" />
<glyph unicode="&#xf8;" horiz-adv-x="615" d="M555 509l-56 -73q75 -73 75 -188q0 -111 -74 -186.5t-190 -75.5q-75 0 -134 32l-24 -32h-95l59 76q-74 76 -74 186q0 111 74.5 186t193.5 75q68 0 128 -29l22 29h95zM138 248q0 -63 37 -109l204 265q-31 14 -69 14q-76 0 -124 -49t-48 -121zM310 77q74 0 121.5 50 t47.5 121q0 65 -39 112l-206 -267q35 -16 76 -16z" />
<glyph unicode="&#xf9;" horiz-adv-x="583" d="M171 720h106l99 -145h-103zM59 221v274h95v-273q0 -63 38 -104t99 -41q62 0 100 41t38 104v273h95v-274q0 -106 -64 -170.5t-169 -64.5q-104 0 -168 64.5t-64 170.5z" />
<glyph unicode="&#xfa;" horiz-adv-x="583" d="M200 575l99 145h106l-102 -145h-103zM59 221v274h95v-273q0 -63 38 -104t99 -41q62 0 100 41t38 104v273h95v-274q0 -106 -64 -170.5t-169 -64.5q-104 0 -168 64.5t-64 170.5z" />
<glyph unicode="&#xfb;" horiz-adv-x="583" d="M355 575l-64 86l-64 -86h-98l111 145h102l111 -145h-98zM429 222v273h95v-274q0 -106 -64 -170.5t-169 -64.5q-104 0 -168 64.5t-64 170.5v274h95v-273q0 -63 38 -104t99 -41q62 0 100 41t38 104z" />
<glyph unicode="&#xfc;" horiz-adv-x="583" d="M149 720h92v-145h-92v145zM342 720h92v-145h-92v145zM59 221v274h95v-273q0 -63 38 -104t99 -41q62 0 100 41t38 104v273h95v-274q0 -106 -64 -170.5t-169 -64.5q-104 0 -168 64.5t-64 170.5z" />
<glyph unicode="&#xfd;" horiz-adv-x="566" d="M295 720h106l-102 -145h-103zM293 79l157 416h97l-218 -572q-24 -64 -62.5 -93.5t-101.5 -29.5h-117v95h117q32 0 49 12.5t29 43.5l1 2l-226 542h105z" />
<glyph unicode="&#xfe;" horiz-adv-x="639" d="M347 509q110 1 181 -72t71 -189t-71.5 -190t-179.5 -72q-115 1 -178 91h-4v-277h-94v920h94v-297h5q28 39 73.5 62t102.5 24zM334 78q76 0 123 49t47 121t-47 121t-123 49q-74 0 -120.5 -49t-46.5 -121t46.5 -121t120.5 -49z" />
<glyph unicode="&#xff;" horiz-adv-x="566" d="M145 720h92v-145h-92v145zM338 720h92v-145h-92v145zM293 79l157 416h97l-218 -572q-24 -64 -62.5 -93.5t-101.5 -29.5h-117v95h117q32 0 49 12.5t29 43.5l1 2l-226 542h105z" />
<glyph unicode="&#x100;" horiz-adv-x="752" d="M229 802h294v-82h-294v82zM719 0h-109l-76 179h-318l-75 -179h-108l290 670h105zM374 554l-118 -281h238z" />
<glyph unicode="&#x101;" horiz-adv-x="639" d="M157 657h294v-82h-294v82zM473 423v72h94v-495h-94v77h-4q-63 -90 -178 -91q-108 -2 -179.5 72t-71.5 190t71 189t181 72q114 -1 177 -86h4zM305 78q74 0 120.5 49t46.5 121t-46.5 121t-120.5 49q-76 0 -123 -49t-47 -121t47 -121t123 -49z" />
<glyph unicode="&#x102;" horiz-adv-x="752" d="M453 720h-154q-35 0 -57.5 22.5t-22.5 57.5v35h85v-20q0 -11 7.5 -18.5t17.5 -7.5h94q10 0 17.5 7.5t7.5 18.5v20h85v-35q0 -35 -22.5 -57.5t-57.5 -22.5zM719 0h-109l-76 179h-318l-75 -179h-108l290 670h105zM374 554l-118 -281h238z" />
<glyph unicode="&#x103;" horiz-adv-x="639" d="M379 575h-150q-35 0 -58.5 23.5t-23.5 58.5v63h80v-47q0 -11 7.5 -18.5t17.5 -7.5h104q10 0 17.5 7.5t7.5 18.5v47h80v-63q0 -35 -23.5 -58.5t-58.5 -23.5zM473 423v72h94v-495h-94v77h-4q-63 -90 -178 -91q-108 -2 -179.5 72t-71.5 190t71 189t181 72q114 -1 177 -86h4z M305 78q74 0 120.5 49t46.5 121t-46.5 121t-120.5 49q-76 0 -123 -49t-47 -121t47 -121t123 -49z" />
<glyph unicode="&#x104;" horiz-adv-x="752" d="M719 0l-80 -100q-6 -7 -2 -14.5t13 -7.5h69v-78h-103q-52 0 -72 41t14 82l64 77h-12l-76 179h-318l-75 -179h-108l290 670h105zM374 554l-118 -281h238z" />
<glyph unicode="&#x105;" horiz-adv-x="639" d="M567 495v-495l-81 -99q-6 -7 -2 -14.5t13 -7.5h70v-79h-100q-52 0 -72 41t14 82l64 77v77h-4q-63 -90 -178 -91q-108 -2 -179.5 72t-71.5 190t71 189t181 72q114 -1 177 -86h4v72h94zM305 78q74 0 120.5 49t46.5 121t-46.5 121t-120.5 49q-76 0 -123 -49t-47 -121 t47 -121t123 -49z" />
<glyph unicode="&#x106;" horiz-adv-x="773" d="M301 720l99 115h106l-102 -115h-103zM623 255h103q-24 -118 -114.5 -193t-219.5 -75q-151 0 -246.5 101t-95.5 247q0 145 96 247t246 102q126 0 216.5 -73.5t115.5 -189.5h-102q-22 74 -83.5 121t-144.5 47q-107 0 -176.5 -74.5t-69.5 -179.5q0 -106 69.5 -179.5 t176.5 -73.5q87 0 148.5 48.5t80.5 124.5z" />
<glyph unicode="&#x107;" horiz-adv-x="589" d="M211 575l99 145h106l-102 -145h-103zM554 315h-99q-16 45 -56.5 74t-95.5 29q-75 0 -121.5 -49t-46.5 -121t46.5 -121.5t121.5 -49.5q54 0 95.5 29t56.5 77h99q-18 -86 -87 -141.5t-165 -55.5q-116 0 -189 75.5t-73 186.5t73 186t189 75q96 0 165 -54.5t87 -139.5z" />
<glyph unicode="&#x10a;" horiz-adv-x="773" d="M335 835h95v-115h-95v115zM623 255h103q-24 -118 -114.5 -193t-219.5 -75q-151 0 -246.5 101t-95.5 247q0 145 96 247t246 102q126 0 216.5 -73.5t115.5 -189.5h-102q-22 74 -83.5 121t-144.5 47q-107 0 -176.5 -74.5t-69.5 -179.5q0 -106 69.5 -179.5t176.5 -73.5 q87 0 148.5 48.5t80.5 124.5z" />
<glyph unicode="&#x10b;" horiz-adv-x="589" d="M255 720h95v-145h-95v145zM554 315h-99q-16 45 -56.5 74t-95.5 29q-75 0 -121.5 -49t-46.5 -121t46.5 -121.5t121.5 -49.5q54 0 95.5 29t56.5 77h99q-18 -86 -87 -141.5t-165 -55.5q-116 0 -189 75.5t-73 186.5t73 186t189 75q96 0 165 -54.5t87 -139.5z" />
<glyph unicode="&#x10c;" horiz-adv-x="773" d="M330 720l-108 115h103l59 -66l59 66h103l-108 -115h-108zM623 255h103q-24 -118 -114.5 -193t-219.5 -75q-151 0 -246.5 101t-95.5 247q0 145 96 247t246 102q126 0 216.5 -73.5t115.5 -189.5h-102q-22 74 -83.5 121t-144.5 47q-107 0 -176.5 -74.5t-69.5 -179.5 q0 -106 69.5 -179.5t176.5 -73.5q87 0 148.5 48.5t80.5 124.5z" />
<glyph unicode="&#x10d;" horiz-adv-x="589" d="M252 575l-111 145h98l64 -86l64 86h98l-111 -145h-102zM303 77q54 0 95.5 29t56.5 77h99q-18 -86 -87 -141.5t-165 -55.5q-116 0 -189 75.5t-73 186.5t73 186t189 75q96 0 165 -54.5t87 -139.5h-99q-16 45 -56.5 74t-95.5 29q-75 0 -121.5 -49t-46.5 -121t46.5 -121.5 t121.5 -49.5z" />
<glyph unicode="&#x10e;" horiz-adv-x="744" d="M296 720l-108 115h103l59 -66l59 66h103l-108 -115h-108zM90 670h269q144 0 238 -94.5t94 -238.5v-3q0 -144 -94 -238.5t-238 -94.5h-269v669zM593 334v3q0 105 -66 171.5t-169 66.5h-171v-479h171q103 0 169 66.5t66 171.5z" />
<glyph unicode="&#x10f;" horiz-adv-x="729" d="M469 418h4v302h94v-720h-94v72h-5q-28 -39 -73.5 -62t-102.5 -24q-110 -1 -181 72t-71 189t71.5 190t179.5 72q115 -1 178 -91zM607 509l30 211h92l-40 -211h-82zM305 77q74 0 120.5 49t46.5 121t-46.5 121t-120.5 49q-76 0 -123 -49t-47 -121t47 -121t123 -49z" />
<glyph unicode="&#x110;" horiz-adv-x="769" d="M115 670h269q144 0 238 -94.5t94 -238.5v-3q0 -144 -94 -238.5t-238 -94.5h-269v306h-76v82h76v281zM618 334v3q0 105 -66 171.5t-169 66.5h-171v-186h207v-82h-207v-211h171q103 0 169 66.5t66 171.5z" />
<glyph unicode="&#x111;" horiz-adv-x="639" d="M567 657h70v-82h-70v-575h-94v72h-5q-28 -39 -73.5 -62t-102.5 -24q-110 -1 -181 72t-71 189t71.5 190t179.5 72q115 -1 178 -91h4v157h-181v82h181v63h94v-63zM305 77q74 0 120.5 49t46.5 121t-46.5 121t-120.5 49q-76 0 -123 -49t-47 -121t47 -121t123 -49z" />
<glyph unicode="&#x112;" horiz-adv-x="643" d="M487 720h-294v82h294v-82zM586 0h-496v670h496v-95h-399v-182h369v-95h-369v-203h399v-95z" />
<glyph unicode="&#x113;" horiz-adv-x="590" d="M150 657h294v-82h-294v82zM296 509q121 0 192.5 -85t61.5 -210h-409q5 -59 50 -98t111 -39q48 0 85 21t54 56h99q-25 -78 -90 -123t-152 -45q-116 0 -187 75.5t-71 185.5q0 111 72 186.5t184 75.5zM294 418q-58 0 -99 -33.5t-52 -86.5h304q-11 54 -52.5 87t-100.5 33z " />
<glyph unicode="&#x116;" horiz-adv-x="643" d="M292 835h95v-115h-95v115zM586 0h-496v670h496v-95h-399v-182h369v-95h-369v-203h399v-95z" />
<glyph unicode="&#x117;" horiz-adv-x="590" d="M249 720h95v-145h-95v145zM296 509q121 0 192.5 -85t61.5 -210h-409q5 -59 50 -98t111 -39q48 0 85 21t54 56h99q-25 -78 -90 -123t-152 -45q-116 0 -187 75.5t-71 185.5q0 111 72 186.5t184 75.5zM294 418q-58 0 -99 -33.5t-52 -86.5h304q-11 54 -52.5 87t-100.5 33z " />
<glyph unicode="&#x118;" horiz-adv-x="643" d="M586 670v-95h-399v-182h369v-95h-369v-203h399v-95l-80 -100q-6 -7 -2 -14.5t13 -7.5h69v-78h-103q-52 0 -72 41t14 82l64 77h-399v670h496z" />
<glyph unicode="&#x119;" horiz-adv-x="590" d="M296 509q121 0 192.5 -85t61.5 -210h-409q5 -59 50 -98t111 -39q48 0 85 21t54 56h99q-18 -57 -58 -97t-95 -58l-81 -98q-6 -7 -2 -14.5t13 -7.5h70v-79h-100q-52 0 -72 41t14 82l53 63q-110 6 -176 81t-66 180q0 111 72 186.5t184 75.5zM294 418q-58 0 -99 -33.5 t-52 -86.5h304q-11 54 -52.5 87t-100.5 33z" />
<glyph unicode="&#x11a;" horiz-adv-x="643" d="M287 720l-108 115h103l59 -66l59 66h103l-108 -115h-108zM586 670v-95h-399v-182h369v-95h-369v-203h399v-95h-496v670h496z" />
<glyph unicode="&#x11b;" horiz-adv-x="590" d="M246 575l-111 145h98l64 -86l64 86h98l-111 -145h-102zM296 509q121 0 192.5 -85t61.5 -210h-409q5 -59 50 -98t111 -39q48 0 85 21t54 56h99q-25 -78 -90 -123t-152 -45q-116 0 -187 75.5t-71 185.5q0 111 72 186.5t184 75.5zM294 418q-58 0 -99 -33.5t-52 -86.5h304 q-11 54 -52.5 87t-100.5 33z" />
<glyph unicode="&#x11e;" horiz-adv-x="794" d="M476 720h-154q-35 0 -57.5 22.5t-22.5 57.5v35h85v-20q0 -11 7.5 -18.5t17.5 -7.5h94q10 0 17.5 7.5t7.5 18.5v20h85v-35q0 -35 -22.5 -57.5t-57.5 -22.5zM401 350h345q1 -161 -96 -262t-250 -101q-152 0 -249.5 101t-97.5 247q0 147 97 248t250 101q121 0 210.5 -65.5 t121.5 -170.5h-106q-27 61 -87.5 101t-139.5 40q-110 0 -179 -74t-69 -178q0 -106 71 -180t180 -75q90 -1 152.5 46.5t83.5 127.5h-237v94z" />
<glyph unicode="&#x11f;" horiz-adv-x="639" d="M387 575h-150q-35 0 -58.5 23.5t-23.5 58.5v63h80v-47q0 -11 7.5 -18.5t17.5 -7.5h104q10 0 17.5 7.5t7.5 18.5v47h80v-63q0 -35 -23.5 -58.5t-58.5 -23.5zM473 423v72h94v-542q0 -73 -39.5 -113t-113.5 -40h-311v93h299q70 0 70 70l1 78v36h-4q-63 -90 -178 -91 q-108 -2 -179.5 72t-71.5 190t71 189t181 72q114 -1 177 -86h4zM305 78q74 0 120.5 49t46.5 121t-46.5 121t-120.5 49q-76 0 -123 -49t-47 -121t47 -121t123 -49z" />
<glyph unicode="&#x120;" horiz-adv-x="794" d="M351 835h95v-115h-95v115zM401 350h345q1 -161 -96 -262t-250 -101q-152 0 -249.5 101t-97.5 247q0 147 97 248t250 101q121 0 210.5 -65.5t121.5 -170.5h-106q-27 61 -87.5 101t-139.5 40q-110 0 -179 -74t-69 -178q0 -106 71 -180t180 -75q90 -1 152.5 46.5t83.5 127.5 h-237v94z" />
<glyph unicode="&#x121;" horiz-adv-x="639" d="M264 720h95v-145h-95v145zM473 423v72h94v-542q0 -73 -39.5 -113t-113.5 -40h-311v93h299q70 0 70 70l1 78v36h-4q-63 -90 -178 -91q-108 -2 -179.5 72t-71.5 190t71 189t181 72q114 -1 177 -86h4zM305 78q74 0 120.5 49t46.5 121t-46.5 121t-120.5 49q-76 0 -123 -49 t-47 -121t47 -121t123 -49z" />
<glyph unicode="&#x122;" horiz-adv-x="794" d="M401 350h345q1 -161 -96 -262t-250 -101q-152 0 -249.5 101t-97.5 247q0 147 97 248t250 101q121 0 210.5 -65.5t121.5 -170.5h-106q-27 61 -87.5 101t-139.5 40q-110 0 -179 -74t-69 -178q0 -106 71 -180t180 -75q90 -1 152.5 46.5t83.5 127.5h-237v94zM389 -200h-103 l99 145h106z" />
<glyph unicode="&#x123;" horiz-adv-x="639" d="M311 720h103l-99 -145h-106zM473 423v72h94v-542q0 -73 -39.5 -113t-113.5 -40h-311v93h299q70 0 70 70l1 78v36h-4q-63 -90 -178 -91q-108 -2 -179.5 72t-71.5 190t71 189t181 72q114 -1 177 -86h4zM305 78q74 0 120.5 49t46.5 121t-46.5 121t-120.5 49q-76 0 -123 -49 t-47 -121t47 -121t123 -49z" />
<glyph unicode="&#x126;" horiz-adv-x="780" d="M678 577h54v-82h-54v-495h-97v300h-385v-300h-97v495h-46v82h46v93h97v-93h385v93h97v-93zM196 395h385v100h-385v-100z" />
<glyph unicode="&#x127;" horiz-adv-x="611" d="M340 509q95 0 153 -61.5t58 -163.5v-284h-95v267q0 66 -36.5 108t-99.5 42q-68 0 -110.5 -47.5t-42.5 -122.5v-247h-95v575h-82v82h82v63h95v-63h168v-82h-168v-147h4q62 81 169 81z" />
<glyph unicode="&#x12a;" horiz-adv-x="277" d="M286 720h-294v82h294v-82zM90 0v670h97v-670h-97z" />
<glyph unicode="&#x12b;" horiz-adv-x="239" d="M267 575h-294v82h294v-82zM72 495h95v-495h-95v495z" />
<glyph unicode="&#x12e;" horiz-adv-x="277" d="M187 670v-670l-80 -100q-6 -7 -2 -14.5t13 -7.5h69v-78h-103q-52 0 -72 41t14 82l64 77v670h97z" />
<glyph unicode="&#x12f;" horiz-adv-x="239" d="M72 575v145h95v-145h-95zM8 -77l64 77v495h95v-495h-1l-81 -99q-6 -7 -2 -14.5t13 -7.5h70v-79h-100q-52 0 -72 41t14 82z" />
<glyph unicode="&#x130;" horiz-adv-x="277" d="M91 835h95v-115h-95v115zM90 0v670h97v-670h-97z" />
<glyph unicode="&#x131;" horiz-adv-x="239" d="M72 495h95v-495h-95v495z" />
<glyph unicode="&#x136;" horiz-adv-x="725" d="M513 392h4q125 0 125 -123v-269h-97v253q0 46 -48 46h-310v-299h-97v670h97v-278h222l139 278h107zM333 -200h-103l99 145h106z" />
<glyph unicode="&#x137;" horiz-adv-x="585" d="M530 506l-115 -199q109 -8 109 -121v-186h-95v170q0 48 -50 48h-212v-218h-95v720h95v-412h144l115 198h104zM284 -200h-103l99 145h106z" />
<glyph unicode="&#x139;" horiz-adv-x="599" d="M129 720l99 115h106l-102 -115h-103zM90 0v670h98v-574h373v-96h-471z" />
<glyph unicode="&#x13a;" horiz-adv-x="316" d="M68 770l99 115h106l-102 -115h-103zM67 128v592h95v-579q0 -49 50 -49h80v-92h-94q-63 0 -97 33.5t-34 94.5z" />
<glyph unicode="&#x13b;" horiz-adv-x="599" d="M90 0v670h98v-574h373v-96h-471zM168 -200l99 145h106l-102 -145h-103z" />
<glyph unicode="&#x13c;" horiz-adv-x="316" d="M67 128v592h95v-579q0 -49 50 -49h80v-92h-94q-63 0 -97 33.5t-34 94.5zM47 -200l99 145h106l-102 -145h-103z" />
<glyph unicode="&#x13d;" horiz-adv-x="599" d="M90 0v670h98v-574h373v-96h-471zM293 459l30 211h92l-40 -211h-82z" />
<glyph unicode="&#x13e;" horiz-adv-x="327" d="M67 128v592h95v-579q0 -49 50 -49h80v-92h-94q-63 0 -97 33.5t-34 94.5zM205 509l30 211h92l-40 -211h-82z" />
<glyph unicode="&#x141;" horiz-adv-x="626" d="M215 305v-209h373v-96h-471v249l-76 -44v94l76 44v327h98v-271l192 110v-94z" />
<glyph unicode="&#x142;" horiz-adv-x="360" d="M322 509v-96l-133 -76v-196q0 -49 50 -49h80v-92h-94q-63 0 -97 33.5t-34 94.5v155l-66 -37v95l66 38v341h95v-287z" />
<glyph unicode="&#x143;" horiz-adv-x="783" d="M409 835h106l-102 -115h-103zM596 166v504h97v-670h-97l-409 542v-542h-97v670h119z" />
<glyph unicode="&#x144;" horiz-adv-x="611" d="M319 720h106l-102 -145h-103zM340 509q95 0 153 -61.5t58 -163.5v-284h-95v267q0 66 -36.5 108t-99.5 42q-68 0 -110.5 -47.5t-42.5 -122.5v-247h-95v495h93v-67h4q64 81 171 81z" />
<glyph unicode="&#x145;" horiz-adv-x="783" d="M596 166v504h97v-670h-97l-409 542v-542h-97v670h119zM372 -200h-103l99 145h106z" />
<glyph unicode="&#x146;" horiz-adv-x="611" d="M340 509q95 0 153 -61.5t58 -163.5v-284h-95v267q0 66 -36.5 108t-99.5 42q-68 0 -110.5 -47.5t-42.5 -122.5v-247h-95v495h93v-67h4q64 81 171 81zM312 -200h-103l99 145h106z" />
<glyph unicode="&#x147;" horiz-adv-x="783" d="M339 720l-108 115h103l59 -66l59 66h103l-108 -115h-108zM596 166v504h97v-670h-97l-409 542v-542h-97v670h119z" />
<glyph unicode="&#x148;" horiz-adv-x="611" d="M261 575l-111 145h98l64 -86l64 86h98l-111 -145h-102zM340 509q95 0 153 -61.5t58 -163.5v-284h-95v267q0 66 -36.5 108t-99.5 42q-68 0 -110.5 -47.5t-42.5 -122.5v-247h-95v495h93v-67h4q64 81 171 81z" />
<glyph unicode="&#x14a;" horiz-adv-x="784" d="M596 166v504h97v-747q0 -60 -33 -91.5t-93 -31.5h-128v96h107q50 0 50 48v56l-409 542v-542h-97v670h119z" />
<glyph unicode="&#x14b;" horiz-adv-x="612" d="M340 509q95 0 153 -61.5t58 -163.5v-361q0 -60 -33 -91.5t-93 -31.5h-128v94h109q50 0 50 48v325q0 66 -36.5 108t-99.5 42q-68 0 -110.5 -47.5t-42.5 -122.5v-247h-95v495h93v-67h4q64 81 171 81z" />
<glyph unicode="&#x14c;" horiz-adv-x="803" d="M549 720h-294v82h294v-82zM401 -13q-153 0 -250.5 100.5t-97.5 247.5q0 146 97.5 247.5t250.5 101.5q154 0 251.5 -101t97.5 -248t-97.5 -247.5t-251.5 -100.5zM401 81q112 0 181.5 73.5t69.5 180.5t-70 180.5t-181 73.5q-110 0 -180 -73.5t-70 -180.5q0 -106 69.5 -180 t180.5 -74z" />
<glyph unicode="&#x14d;" horiz-adv-x="610" d="M452 575h-294v82h294v-82zM307 -14q-119 0 -193.5 75.5t-74.5 186.5t74.5 186t193.5 75q117 0 190.5 -75t73.5 -186t-74 -186.5t-190 -75.5zM307 77q74 0 121.5 50t47.5 121q0 72 -47.5 121t-121.5 49q-76 0 -124 -49t-48 -121t48 -121.5t124 -49.5z" />
<glyph unicode="&#x150;" horiz-adv-x="803" d="M204 720l99 115h106l-102 -115h-103zM395 720l99 115h106l-102 -115h-103zM401 -13q-153 0 -250.5 100.5t-97.5 247.5q0 146 97.5 247.5t250.5 101.5q154 0 251.5 -101t97.5 -248t-97.5 -247.5t-251.5 -100.5zM401 81q112 0 181.5 73.5t69.5 180.5t-70 180.5t-181 73.5 q-110 0 -180 -73.5t-70 -180.5q0 -106 69.5 -180t180.5 -74z" />
<glyph unicode="&#x151;" horiz-adv-x="610" d="M139 575l99 145h106l-102 -145h-103zM330 575l99 145h106l-102 -145h-103zM307 -14q-119 0 -193.5 75.5t-74.5 186.5t74.5 186t193.5 75q117 0 190.5 -75t73.5 -186t-74 -186.5t-190 -75.5zM307 77q74 0 121.5 50t47.5 121q0 72 -47.5 121t-121.5 49q-76 0 -124 -49 t-48 -121t48 -121.5t124 -49.5z" />
<glyph unicode="&#x152;" horiz-adv-x="1158" d="M1101 670v-95h-379v-182h349v-95h-349v-203h379v-95h-476v87q-94 -100 -240 -100q-148 0 -239.5 100.5t-91.5 247.5t91.5 248t239.5 101q146 0 240 -101v87h476zM387 81q108 0 172 73.5t64 180.5q0 108 -64.5 181t-171.5 73q-106 0 -170.5 -73.5t-64.5 -180.5 t64.5 -180.5t170.5 -73.5z" />
<glyph unicode="&#x153;" horiz-adv-x="1019" d="M733 509q118 0 187 -85t59 -210h-409q5 -59 50 -98t111 -39q48 0 85 21t54 56h99q-24 -78 -87 -123t-147 -45q-71 0 -126 31.5t-87 85.5q-34 -55 -90.5 -86t-128.5 -31q-117 0 -190.5 75.5t-73.5 186.5q0 112 73.5 186.5t190.5 74.5q72 0 129 -31t91 -86q32 54 87 85.5 t123 31.5zM307 77q74 0 121.5 50t47.5 121q0 72 -47.5 121t-121.5 49q-76 0 -124 -49t-48 -121t48 -121.5t124 -49.5zM723 418q-58 0 -99 -33.5t-52 -86.5h304q-11 54 -52.5 87t-100.5 33z" />
<glyph unicode="&#x154;" horiz-adv-x="726" d="M271 720l99 115h106l-102 -115h-103zM187 0h-97v670h337q96 0 157 -50t61 -137q0 -91 -66 -139v-2q75 -19 75 -115v-227h-97v207q0 45 -50 45h-320v-252zM187 575v-228h235q54 0 89.5 31t35.5 82t-36 83t-89 32h-235z" />
<glyph unicode="&#x155;" horiz-adv-x="437" d="M266 720h106l-102 -145h-103zM317 495h95v-96h-94q-69 0 -110 -43t-41 -118v-238h-95v495h92v-85h4q39 85 149 85z" />
<glyph unicode="&#x156;" horiz-adv-x="726" d="M187 0h-97v670h337q96 0 157 -50t61 -137q0 -91 -66 -139v-2q75 -19 75 -115v-227h-97v207q0 45 -50 45h-320v-252zM187 575v-228h235q54 0 89.5 31t35.5 82t-36 83t-89 32h-235zM240 -200l99 145h106l-102 -145h-103z" />
<glyph unicode="&#x157;" horiz-adv-x="437" d="M317 495h95v-96h-94q-69 0 -110 -43t-41 -118v-238h-95v495h92v-85h4q39 85 149 85zM129 -200h-103l99 145h106z" />
<glyph unicode="&#x158;" horiz-adv-x="726" d="M300 720l-108 115h103l59 -66l59 66h103l-108 -115h-108zM579 344v-2q75 -19 75 -115v-227h-97v207q0 45 -50 45h-320v-252h-97v670h337q96 0 157 -50t61 -137q0 -91 -66 -139zM187 347h235q54 0 89.5 31t35.5 82t-36 83t-89 32h-235v-228z" />
<glyph unicode="&#x159;" horiz-adv-x="437" d="M208 575l-111 145h98l64 -86l64 86h98l-111 -145h-102zM164 410h4q39 85 149 85h95v-96h-94q-69 0 -110 -43t-41 -118v-238h-95v495h92v-85z" />
<glyph unicode="&#x15a;" horiz-adv-x="660" d="M250 720l99 115h106l-102 -115h-103zM238 670h331v-95h-325q-39 0 -62.5 -23t-23.5 -55q0 -27 16.5 -48.5t47.5 -29.5l246 -60q70 -17 107 -67t37 -109q0 -74 -51.5 -128.5t-140.5 -54.5h-345v96h341q41 0 65.5 25.5t24.5 59.5q0 28 -17.5 51.5t-50.5 31.5l-247 60 q-68 17 -103.5 65t-35.5 105q0 71 50 123.5t136 52.5z" />
<glyph unicode="&#x15b;" horiz-adv-x="526" d="M173 575l99 145h106l-102 -145h-103zM180 495h275v-92h-273q-19 0 -30.5 -11.5t-11.5 -30.5q0 -35 33 -42l204 -46q52 -12 82.5 -48t30.5 -86q0 -60 -40 -99.5t-101 -39.5h-289v92h287q19 0 31 12.5t12 33.5q0 36 -34 44l-205 45q-51 11 -81 47.5t-30 85.5q0 59 39.5 97 t100.5 38z" />
<glyph unicode="&#x15e;" horiz-adv-x="660" d="M420 0h-88v-41h11q39 0 60 -23t21 -55t-21.5 -56.5t-59.5 -24.5h-123v69h117q17 0 17 17q0 14 -17 14h-75v100h-187v96h341q41 0 65.5 25.5t24.5 59.5q0 28 -17.5 51.5t-50.5 31.5l-247 60q-68 17 -103.5 65t-35.5 105q0 71 50 123.5t136 52.5h331v-95h-325 q-39 0 -62.5 -23t-23.5 -55q0 -27 16.5 -48.5t47.5 -29.5l246 -60q70 -17 107 -67t37 -109q0 -74 -51.5 -128.5t-140.5 -54.5z" />
<glyph unicode="&#x15f;" horiz-adv-x="526" d="M349 0h-65v-41h11q39 0 60 -23t21 -55t-21.5 -56.5t-59.5 -24.5h-123v69h117q17 0 17 17q0 14 -17 14h-75v100h-154v92h287q19 0 31 12.5t12 33.5q0 36 -34 44l-205 45q-51 11 -81 47.5t-30 85.5q0 59 39.5 97t100.5 38h275v-92h-273q-19 0 -30.5 -11.5t-11.5 -30.5 q0 -35 33 -42l204 -46q52 -12 82.5 -48t30.5 -86q0 -60 -40 -99.5t-101 -39.5z" />
<glyph unicode="&#x160;" horiz-adv-x="660" d="M279 720l-108 115h103l59 -66l59 66h103l-108 -115h-108zM222 419l246 -60q70 -17 107 -67t37 -109q0 -74 -51.5 -128.5t-140.5 -54.5h-345v96h341q41 0 65.5 25.5t24.5 59.5q0 28 -17.5 51.5t-50.5 31.5l-247 60q-68 17 -103.5 65t-35.5 105q0 71 50 123.5t136 52.5h331 v-95h-325q-39 0 -62.5 -23t-23.5 -55q0 -27 16.5 -48.5t47.5 -29.5z" />
<glyph unicode="&#x161;" horiz-adv-x="526" d="M214 575l-111 145h98l64 -86l64 86h98l-111 -145h-102zM173 319l204 -46q52 -12 82.5 -48t30.5 -86q0 -60 -40 -99.5t-101 -39.5h-289v92h287q19 0 31 12.5t12 33.5q0 36 -34 44l-205 45q-51 11 -81 47.5t-30 85.5q0 59 39.5 97t100.5 38h275v-92h-273q-19 0 -30.5 -11.5 t-11.5 -30.5q0 -35 33 -42z" />
<glyph unicode="&#x162;" horiz-adv-x="654" d="M375 575v-575h-66v-41h11q39 0 60 -23t21 -55t-21.5 -56.5t-59.5 -24.5h-123v69h117q17 0 17 17q0 14 -17 14h-75v161h39v514h-240v95h578v-95h-241z" />
<glyph unicode="&#x163;" horiz-adv-x="474" d="M434 495v-92h-225v-261q0 -49 50 -49h175v-93h-141v-41h11q39 0 60 -23t21 -55t-21.5 -56.5t-59.5 -24.5h-123v69h117q17 0 17 17q0 14 -17 14h-75v100h17q-61 0 -93.5 32t-32.5 92v279h-90v92h90v175h95v-175h225z" />
<glyph unicode="&#x164;" horiz-adv-x="654" d="M274 720l-108 115h103l59 -66l59 66h103l-108 -115h-108zM38 670h578v-95h-241v-575h-97v575h-240v95z" />
<glyph unicode="&#x165;" horiz-adv-x="474" d="M332 720h92l-35 -179h-82zM434 495v-92h-225v-261q0 -49 50 -49h175v-93h-194q-61 0 -93.5 32t-32.5 92v279h-90v92h90v175h95v-175h225z" />
<glyph unicode="&#x166;" horiz-adv-x="654" d="M616 670v-95h-241v-186h128v-82h-128v-307h-97v307h-155v82h155v186h-240v95h578z" />
<glyph unicode="&#x167;" horiz-adv-x="517" d="M461 495v-92h-225v-93h215v-92h-215v-76q0 -49 50 -49h175v-93h-194q-61 0 -93.5 32t-32.5 92v94h-100v92h100v93h-90v92h90v175h95v-175h225z" />
<glyph unicode="&#x16a;" horiz-adv-x="730" d="M512 720h-294v82h294v-82zM76 284v386h97v-382q0 -90 53.5 -148.5t138.5 -58.5q86 0 139 58t53 149v382h97v-386q0 -134 -80.5 -216t-208.5 -82q-129 0 -209 82.5t-80 215.5z" />
<glyph unicode="&#x16b;" horiz-adv-x="583" d="M439 575h-294v82h294v-82zM59 221v274h95v-273q0 -63 38 -104t99 -41q62 0 100 41t38 104v273h95v-274q0 -106 -64 -170.5t-169 -64.5q-104 0 -168 64.5t-64 170.5z" />
<glyph unicode="&#x16e;" horiz-adv-x="730" d="M365 706q-47 0 -80 32.5t-33 79.5t33 79.5t80 32.5t80 -32.5t33 -79.5t-33 -79.5t-80 -32.5zM365 774q19 0 31.5 12.5t12.5 31.5t-12.5 31.5t-31.5 12.5t-31.5 -12.5t-12.5 -31.5t12.5 -31.5t31.5 -12.5zM76 284v386h97v-382q0 -90 53.5 -148.5t138.5 -58.5q86 0 139 58 t53 149v382h97v-386q0 -134 -80.5 -216t-208.5 -82q-129 0 -209 82.5t-80 215.5z" />
<glyph unicode="&#x16f;" horiz-adv-x="583" d="M292 548q-47 0 -80 32.5t-33 79.5t33 79.5t80 32.5t80 -32.5t33 -79.5t-33 -79.5t-80 -32.5zM292 616q19 0 31.5 12.5t12.5 31.5t-12.5 31.5t-31.5 12.5t-31.5 -12.5t-12.5 -31.5t12.5 -31.5t31.5 -12.5zM59 221v274h95v-273q0 -63 38 -104t99 -41q62 0 100 41t38 104 v273h95v-274q0 -106 -64 -170.5t-169 -64.5q-104 0 -168 64.5t-64 170.5z" />
<glyph unicode="&#x170;" horiz-adv-x="730" d="M167 720l99 115h106l-102 -115h-103zM358 720l99 115h106l-102 -115h-103zM76 284v386h97v-382q0 -90 53.5 -148.5t138.5 -58.5q86 0 139 58t53 149v382h97v-386q0 -134 -80.5 -216t-208.5 -82q-129 0 -209 82.5t-80 215.5z" />
<glyph unicode="&#x171;" horiz-adv-x="583" d="M126 575l99 145h106l-102 -145h-103zM317 575l99 145h106l-102 -145h-103zM59 221v274h95v-273q0 -63 38 -104t99 -41q62 0 100 41t38 104v273h95v-274q0 -106 -64 -170.5t-169 -64.5q-104 0 -168 64.5t-64 170.5z" />
<glyph unicode="&#x172;" horiz-adv-x="730" d="M557 288v382h97v-386q0 -107 -52 -182t-141 -102l-80 -100q-6 -7 -2 -14.5t13 -7.5h69v-78h-103q-52 0 -72 41t14 82l53 63q-124 5 -200.5 86.5t-76.5 211.5v386h97v-382q0 -90 53.5 -148.5t138.5 -58.5q86 0 139 58t53 149z" />
<glyph unicode="&#x173;" horiz-adv-x="583" d="M429 222v273h95v-274q0 -82 -39.5 -140.5t-108.5 -81.5l-80 -98q-6 -7 -2 -14.5t13 -7.5h70v-79h-100q-52 0 -72 41t14 82l53 64q-96 6 -154.5 69.5t-58.5 164.5v274h95v-273q0 -63 38 -104t99 -41q62 0 100 41t38 104z" />
<glyph unicode="&#x174;" horiz-adv-x="1005" d="M561 720l-59 66l-59 -66h-103l108 115h108l108 -115h-103zM706 159l156 511h106l-208 -670h-105l-153 506l-152 -506h-105l-208 670h106l156 -510l151 510h104z" />
<glyph unicode="&#x175;" horiz-adv-x="791" d="M459 575l-64 86l-64 -86h-98l111 145h102l111 -145h-98zM555 135l113 360h102l-165 -495h-95l-115 359l-113 -359h-96l-165 495h103l113 -359l112 359h93z" />
<glyph unicode="&#x176;" horiz-adv-x="716" d="M417 720l-59 66l-59 -66h-103l108 115h108l108 -115h-103zM569 670h117l-280 -379v-291h-97v286l-279 384h119l210 -292z" />
<glyph unicode="&#x177;" horiz-adv-x="566" d="M351 575l-64 86l-64 -86h-98l111 145h102l111 -145h-98zM293 79l157 416h97l-218 -572q-24 -64 -62.5 -93.5t-101.5 -29.5h-117v95h117q32 0 49 12.5t29 43.5l1 2l-226 542h105z" />
<glyph unicode="&#x178;" horiz-adv-x="716" d="M216 835h92v-115h-92v115zM409 835h92v-115h-92v115zM569 670h117l-280 -379v-291h-97v286l-279 384h119l210 -292z" />
<glyph unicode="&#x179;" horiz-adv-x="623" d="M330 835h106l-102 -115h-103zM559 595l-376 -500h394v-95h-529v75l377 500h-368v95h502v-75z" />
<glyph unicode="&#x17a;" horiz-adv-x="507" d="M261 720h106l-102 -145h-103zM461 423l-290 -331h300v-92h-435v72l290 331h-280v92h415v-72z" />
<glyph unicode="&#x17b;" horiz-adv-x="623" d="M265 835h95v-115h-95v115zM559 595l-376 -500h394v-95h-529v75l377 500h-368v95h502v-75z" />
<glyph unicode="&#x17c;" horiz-adv-x="507" d="M206 720h95v-145h-95v145zM461 423l-290 -331h300v-92h-435v72l290 331h-280v92h415v-72z" />
<glyph unicode="&#x17d;" horiz-adv-x="623" d="M260 720l-108 115h103l59 -66l59 66h103l-108 -115h-108zM559 595l-376 -500h394v-95h-529v75l377 500h-368v95h502v-75z" />
<glyph unicode="&#x17e;" horiz-adv-x="507" d="M203 575l-111 145h98l64 -86l64 86h98l-111 -145h-102zM461 423l-290 -331h300v-92h-435v72l290 331h-280v92h415v-72z" />
<glyph unicode="&#x218;" horiz-adv-x="660" d="M238 670h331v-95h-325q-39 0 -62.5 -23t-23.5 -55q0 -27 16.5 -48.5t47.5 -29.5l246 -60q70 -17 107 -67t37 -109q0 -74 -51.5 -128.5t-140.5 -54.5h-345v96h341q41 0 65.5 25.5t24.5 59.5q0 28 -17.5 51.5t-50.5 31.5l-247 60q-68 17 -103.5 65t-35.5 105q0 71 50 123.5 t136 52.5zM209 -200l99 145h106l-102 -145h-103z" />
<glyph unicode="&#x219;" horiz-adv-x="526" d="M180 495h275v-92h-273q-19 0 -30.5 -11.5t-11.5 -30.5q0 -35 33 -42l204 -46q52 -12 82.5 -48t30.5 -86q0 -60 -40 -99.5t-101 -39.5h-289v92h287q19 0 31 12.5t12 33.5q0 36 -34 44l-205 45q-51 11 -81 47.5t-30 85.5q0 59 39.5 97t100.5 38zM147 -200l99 145h106 l-102 -145h-103z" />
<glyph unicode="&#x21a;" horiz-adv-x="654" d="M38 575v95h578v-95h-241v-575h-97v575h-240zM289 -200h-103l99 145h106z" />
<glyph unicode="&#x21b;" horiz-adv-x="474" d="M434 495v-92h-225v-261q0 -49 50 -49h175v-93h-194q-61 0 -93.5 32t-32.5 92v279h-90v92h90v175h95v-175h225zM259 -200h-103l99 145h106z" />
<glyph unicode="&#x2c6;" horiz-adv-x="380" d="M249 720l111 -145h-98l-64 86l-64 -86h-98l111 145h102z" />
<glyph unicode="&#x2d9;" horiz-adv-x="239" d="M124 720h95v-145h-95v145z" />
<glyph unicode="&#x2da;" horiz-adv-x="326" d="M193 548q-47 0 -80 32.5t-33 79.5t33 79.5t80 32.5t80 -32.5t33 -79.5t-33 -79.5t-80 -32.5zM193 616q19 0 31.5 12.5t12.5 31.5t-12.5 31.5t-31.5 12.5t-31.5 -12.5t-12.5 -31.5t12.5 -31.5t31.5 -12.5z" />
<glyph unicode="&#x2dc;" horiz-adv-x="428" d="M144 575h-78v77q0 45 37.5 64t76.5 -5l86 -53q7 -4 12.5 -1t5.5 11v52h78v-77q0 -45 -37.5 -64t-76.5 5l-86 53q-7 4 -12.5 1t-5.5 -11v-52z" />
<glyph unicode="&#x300;" horiz-adv-x="0" d="M-236 720h106l99 -145h-103z" />
<glyph unicode="&#x301;" horiz-adv-x="0" d="M-235 575l99 145h106l-102 -145h-103z" />
<glyph unicode="&#x302;" horiz-adv-x="0" d="M-139 720l111 -145h-98l-64 86l-64 -86h-98l111 145h102z" />
<glyph unicode="&#x303;" horiz-adv-x="0" d="M-284 575h-78v77q0 45 37.5 64t76.5 -5l86 -53q7 -4 12.5 -1t5.5 11v52h78v-77q0 -45 -37.5 -64t-76.5 5l-86 53q-7 4 -12.5 1t-5.5 -11v-52z" />
<glyph unicode="&#x304;" horiz-adv-x="0" d="M-72 575h-294v82h294v-82z" />
<glyph unicode="&#x306;" horiz-adv-x="0" d="M-368 657v63h80v-47q0 -11 7.5 -18.5t17.5 -7.5h104q10 0 17.5 7.5t7.5 18.5v47h80v-63q0 -35 -23.5 -58.5t-58.5 -23.5h-150q-35 0 -58.5 23.5t-23.5 58.5z" />
<glyph unicode="&#x307;" horiz-adv-x="0" d="M-167 720h95v-145h-95v145z" />
<glyph unicode="&#x308;" horiz-adv-x="0" d="M-357 720h92v-145h-92v145zM-164 720h92v-145h-92v145z" />
<glyph unicode="&#x30a;" horiz-adv-x="0" d="M-163 548q-47 0 -80 32.5t-33 79.5t33 79.5t80 32.5t80 -32.5t33 -79.5t-33 -79.5t-80 -32.5zM-163 616q19 0 31.5 12.5t12.5 31.5t-12.5 31.5t-31.5 12.5t-31.5 -12.5t-12.5 -31.5t12.5 -31.5t31.5 -12.5z" />
<glyph unicode="&#x30b;" horiz-adv-x="0" d="M-426 575l99 145h106l-102 -145h-103zM-235 575l99 145h106l-102 -145h-103z" />
<glyph unicode="&#x30c;" horiz-adv-x="0" d="M-190 634l64 86h98l-111 -145h-102l-111 145h98z" />
<glyph unicode="&#x312;" horiz-adv-x="0" d="M-31 720l-99 -145h-106l102 145h103z" />
<glyph unicode="&#x326;" horiz-adv-x="0" d="M-235 -200l99 145h106l-102 -145h-103z" />
<glyph unicode="&#x327;" horiz-adv-x="0" d="M-141 -41h11q39 0 60 -23t21 -55t-21.5 -56.5t-59.5 -24.5h-123v69h117q17 0 17 17q0 14 -17 14h-75v100h70v-41z" />
<glyph unicode="&#x328;" horiz-adv-x="0" d="M-150 0h94l-81 -99q-6 -7 -2 -14.5t13 -7.5h70v-79h-100q-52 0 -72 41t14 82z" />
<glyph unicode="&#x401;" horiz-adv-x="643" d="M197 835h92v-115h-92v115zM390 835h92v-115h-92v115zM586 0h-496v670h496v-95h-399v-182h369v-95h-369v-203h399v-95z" />
<glyph unicode="&#x404;" horiz-adv-x="776" d="M623 255h103q-24 -118 -114.5 -193t-219.5 -75q-151 0 -246.5 101t-95.5 247q0 145 96 247t246 102q126 0 216.5 -73.5t115.5 -189.5h-102q-22 74 -83.5 121t-144.5 47q-94 0 -159.5 -58t-81.5 -146h292v-94h-294q15 -91 81.5 -150t161.5 -59q87 0 148.5 48.5t80.5 124.5 z" />
<glyph unicode="&#x406;" horiz-adv-x="277" d="M90 0v670h97v-670h-97z" />
<glyph unicode="&#x407;" horiz-adv-x="277" d="M-4 835h92v-115h-92v115zM189 835h92v-115h-92v115zM90 0v670h97v-670h-97z" />
<glyph unicode="&#x40e;" horiz-adv-x="677" d="M419 720h-154q-35 0 -57.5 22.5t-22.5 57.5v35h85v-20q0 -11 7.5 -18.5t17.5 -7.5h94q10 0 17.5 7.5t7.5 18.5v20h85v-35q0 -35 -22.5 -57.5t-57.5 -22.5zM361 259l182 414h101l-256 -576q-21 -47 -60.5 -72t-88.5 -25h-113v96h113q51 0 70 43l4 10l-283 521h111z" />
<glyph unicode="&#x410;" horiz-adv-x="752" d="M719 0h-109l-76 179h-318l-75 -179h-108l290 670h105zM374 554l-118 -281h238z" />
<glyph unicode="&#x411;" horiz-adv-x="670" d="M187 414h222q91 0 153.5 -59t62.5 -147q0 -89 -62.5 -148.5t-153.5 -59.5h-319v670h469v-95h-372v-161zM187 95h218q52 0 87 31.5t35 81.5q0 49 -34.5 80t-87.5 31h-218v-224z" />
<glyph unicode="&#x412;" horiz-adv-x="695" d="M544 352v-4q46 -20 71 -61t25 -94q0 -82 -56 -137.5t-142 -55.5h-352v670h338q82 0 137 -50t55 -130q0 -94 -76 -138zM425 575h-238v-186h237q42 0 70 26.5t28 66.5q0 41 -28 67t-69 26zM187 96h255q44 0 72 27t28 70q0 44 -29.5 72.5t-74.5 28.5h-251v-198z" />
<glyph unicode="&#x413;" horiz-adv-x="587" d="M187 0h-97v670h459v-95h-362v-575z" />
<glyph unicode="&#x414;" horiz-adv-x="774" d="M644 670v-575h92v-241h-92v146h-524v-146h-92v241q22 0 32 1.5t24.5 7.5t22.5 20t14 38q5 19 8.5 49t5.5 70t3 76t1.5 87t0.5 81v80v65h504zM200 95h347v480h-310q0 -335 -20 -427q-5 -28 -17 -53z" />
<glyph unicode="&#x415;" horiz-adv-x="643" d="M586 0h-496v670h496v-95h-399v-182h369v-95h-369v-203h399v-95z" />
<glyph unicode="&#x416;" horiz-adv-x="1001" d="M750 389h49q125 0 125 -127v-262h-97v252q0 46 -48 46h-230v-298h-97v298h-230q-48 0 -48 -46v-252h-97v262q0 127 125 127h49l-196 281h111l193 -281h93v281h97v-281h93l193 281h111z" />
<glyph unicode="&#x417;" horiz-adv-x="641" d="M484 349v-2q45 -21 71.5 -62t26.5 -93q0 -82 -56 -137t-142 -55h-334v96h334q44 0 72 27t28 70q0 44 -29.5 72.5t-74.5 28.5h-270v95h262q42 0 70 26.5t28 66.5q0 41 -28 67t-69 26h-323v95h327q82 0 137 -49t55 -128q0 -46 -23 -84.5t-62 -59.5z" />
<glyph unicode="&#x418;" horiz-adv-x="758" d="M187 150l384 520h97v-670h-97v520l-384 -520h-97v670h97v-520z" />
<glyph unicode="&#x419;" horiz-adv-x="758" d="M457 720h-154q-35 0 -57.5 22.5t-22.5 57.5v35h85v-20q0 -11 7.5 -18.5t17.5 -7.5h94q10 0 17.5 7.5t7.5 18.5v20h85v-35q0 -35 -22.5 -57.5t-57.5 -22.5zM187 150l384 520h97v-670h-97v520l-384 -520h-97v670h97v-520z" />
<glyph unicode="&#x41a;" horiz-adv-x="730" d="M518 392h4q125 0 125 -123v-269h-97v253q0 46 -48 46h-315v-299h-97v670h97v-278h227l139 278h107z" />
<glyph unicode="&#x41b;" horiz-adv-x="766" d="M676 670v-670h-97v575h-315q0 -340 -21 -438q-8 -38 -24 -65t-32.5 -40.5t-40 -21t-38.5 -9t-36 -1.5h-34v96h17q17 0 25.5 0.5t21.5 4t20 10t14 19.5t12 32t8.5 49t5.5 70t3 76t1.5 87t0.5 81v80v65h509z" />
<glyph unicode="&#x41c;" horiz-adv-x="906" d="M816 670v-670h-97v520l-225 -520h-84l-223 517v-517h-97v670h134l231 -534l230 534h131z" />
<glyph unicode="&#x41d;" horiz-adv-x="759" d="M572 395v275h97v-670h-97v300h-385v-300h-97v670h97v-275h385z" />
<glyph unicode="&#x41e;" horiz-adv-x="803" d="M401 -13q-153 0 -250.5 100.5t-97.5 247.5q0 146 97.5 247.5t250.5 101.5q154 0 251.5 -101t97.5 -248t-97.5 -247.5t-251.5 -100.5zM401 81q112 0 181.5 73.5t69.5 180.5t-70 180.5t-181 73.5q-110 0 -180 -73.5t-70 -180.5q0 -106 69.5 -180t180.5 -74z" />
<glyph unicode="&#x41f;" horiz-adv-x="754" d="M664 670v-670h-97v575h-380v-575h-97v670h574z" />
<glyph unicode="&#x420;" horiz-adv-x="681" d="M406 670q98 0 163 -62t65 -155q0 -94 -65 -154.5t-163 -60.5h-219v-238h-97v670h316zM187 331h216q59 0 96 34t37 88q0 53 -37.5 87.5t-95.5 34.5h-216v-244z" />
<glyph unicode="&#x421;" horiz-adv-x="773" d="M623 255h103q-24 -118 -114.5 -193t-219.5 -75q-151 0 -246.5 101t-95.5 247q0 145 96 247t246 102q126 0 216.5 -73.5t115.5 -189.5h-102q-22 74 -83.5 121t-144.5 47q-107 0 -176.5 -74.5t-69.5 -179.5q0 -106 69.5 -179.5t176.5 -73.5q87 0 148.5 48.5t80.5 124.5z " />
<glyph unicode="&#x422;" horiz-adv-x="654" d="M38 670h578v-95h-241v-575h-97v575h-240v95z" />
<glyph unicode="&#x423;" horiz-adv-x="677" d="M361 259l182 414h101l-256 -576q-21 -47 -60.5 -72t-88.5 -25h-113v96h113q51 0 70 43l4 10l-283 521h111z" />
<glyph unicode="&#x424;" horiz-adv-x="891" d="M494 670h188q65 0 103 -38.5t38 -103.5v-261q0 -65 -38 -103.5t-103 -38.5h-188v-125h-97v125h-188q-65 0 -103 38.5t-38 103.5v261q0 65 38 103.5t103 38.5h188v50h97v-50zM221 217h176v361h-176q-27 0 -41.5 -15t-14.5 -41v-249q0 -26 14.5 -41t41.5 -15zM726 273v249 q0 26 -14.5 41t-41.5 15h-176v-361h176q27 0 41.5 15t14.5 41z" />
<glyph unicode="&#x425;" horiz-adv-x="697" d="M407 342l253 -342h-127l-185 260l-185 -260h-126l252 340l-245 330h128l177 -249l181 249h118z" />
<glyph unicode="&#x426;" horiz-adv-x="795" d="M757 95v-241h-92v146h-575v670h97v-575h380v575h97v-575h93z" />
<glyph unicode="&#x427;" horiz-adv-x="696" d="M509 350v320h97v-670h-97v255h-307q-65 0 -103 38.5t-38 103.5v273h97v-264q0 -26 14.5 -41t41.5 -15h295z" />
<glyph unicode="&#x428;" horiz-adv-x="1040" d="M853 95v575h97v-670h-860v670h97v-575h285v575h97v-575h284z" />
<glyph unicode="&#x429;" horiz-adv-x="1079" d="M950 95h91v-241h-92v146h-859v670h97v-575h285v575h97v-575h284v575h97v-575z" />
<glyph unicode="&#x42a;" horiz-adv-x="802" d="M326 432h203q98 0 163 -60.5t65 -154.5q0 -93 -65 -155t-163 -62h-300v575h-191v95h288v-238zM326 95h200q58 0 95.5 34.5t37.5 87.5q0 54 -37 88t-96 34h-200v-244z" />
<glyph unicode="&#x42b;" horiz-adv-x="885" d="M187 432h189q98 0 163 -60.5t65 -154.5q0 -93 -65 -155t-163 -62h-286v670h97v-238zM698 0v670h97v-670h-97zM187 95h186q58 0 95.5 34.5t37.5 87.5q0 54 -37 88t-96 34h-186v-244z" />
<glyph unicode="&#x42c;" horiz-adv-x="669" d="M187 432h209q98 0 163 -60.5t65 -154.5q0 -93 -65 -155t-163 -62h-306v670h97v-238zM187 95h206q58 0 95.5 34.5t37.5 87.5q0 54 -37 88t-96 34h-206v-244z" />
<glyph unicode="&#x42d;" horiz-adv-x="776" d="M384 684q150 0 246 -102t96 -247q0 -146 -95.5 -247t-246.5 -101q-129 0 -219.5 75t-114.5 193h103q19 -76 80.5 -124.5t148.5 -48.5q95 0 161.5 59t81.5 150h-294v94h292q-16 88 -81.5 146t-159.5 58q-83 0 -144.5 -47t-83.5 -121h-102q25 116 115.5 189.5t216.5 73.5z " />
<glyph unicode="&#x42e;" horiz-adv-x="901" d="M575 684q112 0 186.5 -72.5t74.5 -186.5v-180q0 -113 -74.5 -186t-186.5 -73t-186 73t-74 186v56h-128v-301h-97v671h97v-275h128v29q0 113 74 186t186 73zM739 245v180q0 72 -46.5 118t-117.5 46t-117 -46t-46 -118v-180q0 -72 46 -117.5t117 -45.5t117.5 45.5 t46.5 117.5z" />
<glyph unicode="&#x42f;" horiz-adv-x="737" d="M647 670v-670h-97v252h-320q-50 0 -50 -45v-207h-97v227q0 96 75 115v2q-66 48 -66 139q0 87 61 137t157 50h337zM315 347h235v228h-235q-53 0 -89 -32t-36 -83t35.5 -82t89.5 -31z" />
<glyph unicode="&#x430;" horiz-adv-x="639" d="M473 423v72h94v-495h-94v77h-4q-63 -90 -178 -91q-108 -2 -179.5 72t-71.5 190t71 189t181 72q114 -1 177 -86h4zM305 78q74 0 120.5 49t46.5 121t-46.5 121t-120.5 49q-76 0 -123 -49t-47 -121t47 -121t123 -49z" />
<glyph unicode="&#x431;" horiz-adv-x="618" d="M338 480q105 0 173.5 -69.5t68.5 -173.5q0 -107 -72 -178.5t-188 -71.5t-189.5 71.5t-73.5 179.5v211q0 120 71.5 195.5t189.5 75.5h211v-97h-219q-76 0 -121 -45.5t-45 -121.5v-64h4q65 88 190 88zM320 78q73 0 119 45.5t46 112.5q0 65 -46 110t-119 45 q-74 0 -120.5 -44.5t-46.5 -111.5q0 -68 46.5 -112.5t120.5 -44.5z" />
<glyph unicode="&#x432;" horiz-adv-x="569" d="M451 260v-4q38 -15 57 -47t19 -69q0 -57 -40.5 -98.5t-110.5 -41.5h-304v495h286q71 0 110 -39t39 -94q0 -70 -56 -102zM354 403h-187v-110h187q27 0 42.5 16.5t15.5 39.5q0 22 -15 38t-43 16zM167 92h204q28 0 44 16.5t16 39.5q0 22 -16 38t-44 16h-204v-110z" />
<glyph unicode="&#x433;" horiz-adv-x="476" d="M452 495v-92h-285v-403h-95v495h380z" />
<glyph unicode="&#x434;" horiz-adv-x="641" d="M533 495v-403h84v-217h-93v125h-408v-125h-93v217h6q17 0 26.5 1.5t24 9t23 27.5t10.5 52q3 38 3 313h417zM185 92h253v311h-229q0 -140 -4 -212q-3 -57 -20 -99z" />
<glyph unicode="&#x435;" horiz-adv-x="590" d="M296 509q121 0 192.5 -85t61.5 -210h-409q5 -59 50 -98t111 -39q48 0 85 21t54 56h99q-25 -78 -90 -123t-152 -45q-116 0 -187 75.5t-71 185.5q0 111 72 186.5t184 75.5zM294 418q-58 0 -99 -33.5t-52 -86.5h304q-11 54 -52.5 87t-100.5 33z" />
<glyph unicode="&#x436;" horiz-adv-x="791" d="M741 495l-116 -197q53 -4 81.5 -35t28.5 -87v-176h-95v160q0 48 -49 48h-148v-208h-95v208h-148q-49 0 -49 -48v-160h-95v176q0 56 28.5 87t81.5 35l-116 197h103l117 -197h78v197h95v-197h78l117 197h103z" />
<glyph unicode="&#x437;" horiz-adv-x="524" d="M406 256v-4q35 -12 53.5 -43t18.5 -68q0 -57 -40.5 -99t-110.5 -42h-287v92h282q28 0 44 16.5t16 39.5q0 22 -16 38t-44 16h-207v90h200q27 0 42.5 16.5t15.5 39.5q0 22 -15 38.5t-43 16.5h-275v92h279q71 0 110 -39.5t39 -94.5q0 -34 -16 -63t-46 -42z" />
<glyph unicode="&#x438;" horiz-adv-x="611" d="M167 134l277 361h95v-495h-95v360l-277 -360h-95v495h95v-361z" />
<glyph unicode="&#x439;" horiz-adv-x="611" d="M377 575h-150q-35 0 -58.5 23.5t-23.5 58.5v63h80v-47q0 -11 7.5 -18.5t17.5 -7.5h104q10 0 17.5 7.5t7.5 18.5v47h80v-63q0 -35 -23.5 -58.5t-58.5 -23.5zM167 134l277 361h95v-495h-95v360l-277 -360h-95v495h95v-361z" />
<glyph unicode="&#x43a;" horiz-adv-x="579" d="M525 495l-114 -198q52 -5 80 -35.5t28 -85.5v-176h-95v160q0 48 -50 48h-207v-208h-95v495h95v-197h139l116 197h103z" />
<glyph unicode="&#x43b;" horiz-adv-x="619" d="M547 495v-495h-95v403h-233q0 -149 -4 -222q-3 -52 -17 -89.5t-30 -55t-43 -27.5t-41.5 -11t-39.5 -1h-16v95h10q17 0 26.5 1.5t24 9t23 27.5t10.5 52q3 38 3 313h422z" />
<glyph unicode="&#x43c;" horiz-adv-x="737" d="M665 495v-495h-95v386l-167 -386h-69l-167 386v-386h-95v495h145l151 -356l152 356h145z" />
<glyph unicode="&#x43d;" horiz-adv-x="612" d="M445 299v196h95v-495h-95v207h-278v-207h-95v495h95v-196h278z" />
<glyph unicode="&#x43e;" horiz-adv-x="610" d="M307 -14q-119 0 -193.5 75.5t-74.5 186.5t74.5 186t193.5 75q117 0 190.5 -75t73.5 -186t-74 -186.5t-190 -75.5zM307 77q74 0 121.5 50t47.5 121q0 72 -47.5 121t-121.5 49q-76 0 -124 -49t-48 -121t48 -121.5t124 -49.5z" />
<glyph unicode="&#x43f;" horiz-adv-x="607" d="M535 495v-495h-95v403h-273v-403h-95v495h463z" />
<glyph unicode="&#x440;" horiz-adv-x="639" d="M347 509q110 1 181 -72t71 -189t-71.5 -190t-179.5 -72q-115 1 -178 91h-4v-277h-94v695h94v-72h5q28 39 73.5 62t102.5 24zM334 78q76 0 123 49t47 121t-47 121t-123 49q-74 0 -120.5 -49t-46.5 -121t46.5 -121t120.5 -49z" />
<glyph unicode="&#x441;" horiz-adv-x="589" d="M554 315h-99q-16 45 -56.5 74t-95.5 29q-75 0 -121.5 -49t-46.5 -121t46.5 -121.5t121.5 -49.5q54 0 95.5 29t56.5 77h99q-18 -86 -87 -141.5t-165 -55.5q-116 0 -189 75.5t-73 186.5t73 186t189 75q96 0 165 -54.5t87 -139.5z" />
<glyph unicode="&#x442;" horiz-adv-x="493" d="M469 495v-92h-175v-403h-95v403h-175v92h445z" />
<glyph unicode="&#x443;" horiz-adv-x="566" d="M293 79l157 416h97l-218 -572q-24 -64 -62.5 -93.5t-101.5 -29.5h-117v95h117q32 0 49 12.5t29 43.5l1 2l-226 542h105z" />
<glyph unicode="&#x444;" horiz-adv-x="761" d="M428 495h118q66 0 109.5 -43.5t43.5 -109.5v-189q0 -66 -43.5 -109.5t-109.5 -43.5h-118v-200h-95v200h-118q-66 0 -109.5 43.5t-43.5 109.5v189q0 66 43.5 109.5t109.5 43.5h118v175h95v-175zM228 92h105v311h-105q-31 0 -51 -20t-20 -51v-169q0 -31 20 -51t51 -20z M604 163v169q0 31 -20 51t-51 20h-105v-311h105q31 0 51 20t20 51z" />
<glyph unicode="&#x445;" horiz-adv-x="547" d="M331 254l198 -254h-125l-133 175l-131 -175h-121l194 250l-190 245h124l128 -170l128 170h116z" />
<glyph unicode="&#x446;" horiz-adv-x="642" d="M535 92h83v-217h-93v125h-453v495h95v-403h273v403h95v-403z" />
<glyph unicode="&#x447;" horiz-adv-x="563" d="M396 271v224h95v-495h-95v180h-224q-61 0 -94.5 31.5t-33.5 91.5v192h95v-176q0 -48 52 -48h205z" />
<glyph unicode="&#x448;" horiz-adv-x="832" d="M665 92v403h95v-495h-688v495h95v-403h202v403h95v-403h201z" />
<glyph unicode="&#x449;" horiz-adv-x="867" d="M760 92h83v-217h-93v125h-678v495h95v-403h202v403h95v-403h201v403h95v-403z" />
<glyph unicode="&#x44a;" horiz-adv-x="644" d="M445 333q70 0 118.5 -48.5t48.5 -116.5q0 -70 -48.5 -119t-118.5 -49h-276v403h-145v92h240v-162h181zM445 92q30 0 51 22t21 54q0 30 -21 51.5t-51 21.5h-181v-149h181z" />
<glyph unicode="&#x44b;" horiz-adv-x="735" d="M167 333h166q70 0 118.5 -48.5t48.5 -116.5q0 -70 -48.5 -119t-118.5 -49h-261v495h95v-162zM568 0v495h95v-495h-95zM167 92h166q30 0 51 22t21 54q0 30 -21 51.5t-51 21.5h-166v-149z" />
<glyph unicode="&#x44c;" horiz-adv-x="552" d="M353 333q70 0 118.5 -48.5t48.5 -116.5q0 -70 -48.5 -119t-118.5 -49h-281v495h95v-162h186zM353 92q30 0 51 22t21 54q0 30 -21 51.5t-51 21.5h-186v-149h186z" />
<glyph unicode="&#x44d;" horiz-adv-x="588" d="M287 509q116 0 189 -75t73 -186t-73 -186.5t-189 -75.5q-96 0 -165 55.5t-87 141.5h99q15 -48 56.5 -77t95.5 -29q63 0 106.5 35.5t56.5 91.5h-202v90h201q-13 55 -56.5 89.5t-105.5 34.5q-55 0 -95.5 -29t-56.5 -74h-99q18 85 87 139.5t165 54.5z" />
<glyph unicode="&#x44e;" horiz-adv-x="813" d="M520 509q113 0 183.5 -74.5t70.5 -186.5t-70.5 -187t-183.5 -75q-104 0 -173.5 62.5t-82.5 160.5h-97v-209h-95v495h95v-194h100q16 92 84 150t169 58zM520 77q71 0 115 49t44 122q0 72 -44 121t-115 49q-73 0 -117.5 -49t-44.5 -121q0 -74 44.5 -122.5t117.5 -48.5z" />
<glyph unicode="&#x44f;" horiz-adv-x="584" d="M512 495v-495h-95v173h-214q-50 0 -50 -46v-127h-95v142q0 77 58 96v3q-56 34 -56 107q0 60 44 103.5t122 43.5h286zM231 265h186v138h-191q-33 0 -52 -20.5t-19 -48.5q0 -29 21.5 -49t54.5 -20z" />
<glyph unicode="&#x451;" horiz-adv-x="590" d="M154 720h92v-145h-92v145zM347 720h92v-145h-92v145zM296 509q121 0 192.5 -85t61.5 -210h-409q5 -59 50 -98t111 -39q48 0 85 21t54 56h99q-25 -78 -90 -123t-152 -45q-116 0 -187 75.5t-71 185.5q0 111 72 186.5t184 75.5zM294 418q-58 0 -99 -33.5t-52 -86.5h304 q-11 54 -52.5 87t-100.5 33z" />
<glyph unicode="&#x454;" horiz-adv-x="588" d="M302 77q54 0 95.5 29t56.5 77h99q-18 -86 -87 -141.5t-165 -55.5q-116 0 -189 75.5t-73 186.5t73 186t189 75q96 0 165 -54.5t87 -139.5h-99q-16 45 -56.5 74t-95.5 29q-62 0 -105.5 -34.5t-56.5 -89.5h201v-90h-202q13 -56 56.5 -91.5t106.5 -35.5z" />
<glyph unicode="&#x456;" horiz-adv-x="239" d="M72 720h95v-145h-95v145zM72 495h95v-495h-95v495z" />
<glyph unicode="&#x457;" horiz-adv-x="239" d="M-23 720h92v-145h-92v145zM170 720h92v-145h-92v145zM72 495h95v-495h-95v495z" />
<glyph unicode="&#x45e;" horiz-adv-x="566" d="M353 575h-150q-35 0 -58.5 23.5t-23.5 58.5v63h80v-47q0 -11 7.5 -18.5t17.5 -7.5h104q10 0 17.5 7.5t7.5 18.5v47h80v-63q0 -35 -23.5 -58.5t-58.5 -23.5zM293 79l157 416h97l-218 -572q-24 -64 -62.5 -93.5t-101.5 -29.5h-117v95h117q32 0 49 12.5t29 43.5l1 2 l-226 542h105z" />
<glyph unicode="&#x490;" horiz-adv-x="587" d="M457 670v130h92v-225h-373v-575h-97v670h378z" />
<glyph unicode="&#x491;" horiz-adv-x="484" d="M367 495v145h93v-237h-293v-403h-95v495h295z" />
<glyph unicode="&#x1e80;" horiz-adv-x="1005" d="M486 835l99 -115h-103l-102 115h106zM706 159l156 511h106l-208 -670h-105l-153 506l-152 -506h-105l-208 670h106l156 -510l151 510h104z" />
<glyph unicode="&#x1e81;" horiz-adv-x="791" d="M381 720l99 -145h-103l-102 145h106zM555 135l113 360h102l-165 -495h-95l-115 359l-113 -359h-96l-165 495h103l113 -359l112 359h93z" />
<glyph unicode="&#x1e82;" horiz-adv-x="1005" d="M520 835h106l-102 -115h-103zM706 159l156 511h106l-208 -670h-105l-153 506l-152 -506h-105l-208 670h106l156 -510l151 510h104z" />
<glyph unicode="&#x1e83;" horiz-adv-x="791" d="M403 720h106l-102 -145h-103zM555 135l113 360h102l-165 -495h-95l-115 359l-113 -359h-96l-165 495h103l113 -359l112 359h93z" />
<glyph unicode="&#x1e84;" horiz-adv-x="1005" d="M360 835h92v-115h-92v115zM553 835h92v-115h-92v115zM706 159l156 511h106l-208 -670h-105l-153 506l-152 -506h-105l-208 670h106l156 -510l151 510h104z" />
<glyph unicode="&#x1e85;" horiz-adv-x="791" d="M253 720h92v-145h-92v145zM446 720h92v-145h-92v145zM555 135l113 360h102l-165 -495h-95l-115 359l-113 -359h-96l-165 495h103l113 -359l112 359h93z" />
<glyph unicode="&#x1e9e;" horiz-adv-x="690" d="M575 605l-127 -196q86 -6 141 -64t55 -142q0 -88 -60.5 -145.5t-154.5 -57.5h-107v93h104q55 0 87.5 31t32.5 79t-33 80t-87 32h-104v65l127 195h-211q-27 0 -41.5 -14.5t-14.5 -39.5v-521h-97v531q0 63 38 101t103 38h349v-65z" />
<glyph unicode="&#x1ef2;" horiz-adv-x="716" d="M342 835l99 -115h-103l-102 115h106zM569 670h117l-280 -379v-291h-97v286l-279 384h119l210 -292z" />
<glyph unicode="&#x1ef3;" horiz-adv-x="566" d="M273 720l99 -145h-103l-102 145h106zM293 79l157 416h97l-218 -572q-24 -64 -62.5 -93.5t-101.5 -29.5h-117v95h117q32 0 49 12.5t29 43.5l1 2l-226 542h105z" />
<glyph unicode="&#x2000;" horiz-adv-x="465" />
<glyph unicode="&#x2001;" horiz-adv-x="930" />
<glyph unicode="&#x2002;" horiz-adv-x="465" />
<glyph unicode="&#x2003;" horiz-adv-x="930" />
<glyph unicode="&#x2004;" horiz-adv-x="310" />
<glyph unicode="&#x2005;" horiz-adv-x="232" />
<glyph unicode="&#x2006;" horiz-adv-x="155" />
<glyph unicode="&#x2007;" horiz-adv-x="155" />
<glyph unicode="&#x2008;" horiz-adv-x="116" />
<glyph unicode="&#x2009;" horiz-adv-x="186" />
<glyph unicode="&#x200a;" horiz-adv-x="51" />
<glyph unicode="&#x2010;" horiz-adv-x="494" d="M72 233v87h350v-87h-350z" />
<glyph unicode="&#x2011;" horiz-adv-x="494" d="M72 233v87h350v-87h-350z" />
<glyph unicode="&#x2012;" horiz-adv-x="494" d="M72 233v87h350v-87h-350z" />
<glyph unicode="&#x2013;" horiz-adv-x="747" d="M72 228v92h603v-92h-603z" />
<glyph unicode="&#x2014;" horiz-adv-x="868" d="M72 228v90h724v-90h-724z" />
<glyph unicode="&#x2018;" horiz-adv-x="282" d="M158 463h-113l93 257h92z" />
<glyph unicode="&#x2019;" horiz-adv-x="285" d="M127 720h113l-93 -257h-92z" />
<glyph unicode="&#x201a;" horiz-adv-x="311" d="M138 120h113l-93 -257h-92z" />
<glyph unicode="&#x201c;" horiz-adv-x="468" d="M168 464h-113l93 257h92zM351 464h-113l93 257h92z" />
<glyph unicode="&#x201d;" horiz-adv-x="468" d="M117 720h113l-93 -257h-92zM300 720h113l-93 -257h-92z" />
<glyph unicode="&#x201e;" horiz-adv-x="476" d="M124 120h113l-93 -257h-92zM317 120h113l-93 -257h-92z" />
<glyph unicode="&#x2020;" horiz-adv-x="510" d="M299 495h153v-84h-153v-411h-88v411h-153v84h153v175h88v-175z" />
<glyph unicode="&#x2021;" horiz-adv-x="538" d="M466 495v-84h-153v-147h153v-84h-153v-180h-88v180h-153v84h153v147h-153v84h153v175h88v-175h153z" />
<glyph unicode="&#x2022;" horiz-adv-x="416" d="M210 391q54 0 92.5 -39.5t38.5 -95.5q0 -53 -39 -92t-92 -39q-56 0 -95.5 38.5t-39.5 92.5q0 56 39.5 95.5t95.5 39.5z" />
<glyph unicode="&#x2026;" horiz-adv-x="885" d="M90 120h115v-120h-115v120zM385 120h115v-120h-115v120zM680 120h115v-120h-115v120z" />
<glyph unicode="&#x202f;" horiz-adv-x="186" />
<glyph unicode="&#x2030;" horiz-adv-x="1206" d="M225 359q-70 0 -117 47t-47 116q0 67 47.5 115t116.5 48q68 0 115 -48t47 -115q0 -69 -47 -116t-115 -47zM141 0l470 670h89l-470 -670h-89zM225 438q35 0 59.5 24.5t24.5 59.5q0 34 -25 58.5t-59 24.5t-58.5 -24.5t-24.5 -58.5q0 -35 24 -59.5t59 -24.5zM611 -15 q-70 0 -117 47.5t-47 116.5q0 67 47.5 114.5t116.5 47.5q68 0 115 -47.5t47 -114.5q0 -69 -47 -116.5t-115 -47.5zM983 -15q-70 0 -117 47.5t-47 116.5q0 67 47.5 114.5t116.5 47.5q68 0 115 -47.5t47 -114.5q0 -69 -47 -116.5t-115 -47.5zM611 65q35 0 59.5 24.5t24.5 59.5 q0 34 -25 58.5t-59 24.5t-58.5 -24.5t-24.5 -58.5q0 -35 24 -59.5t59 -24.5zM983 65q35 0 59.5 24.5t24.5 59.5q0 34 -25 58.5t-59 24.5t-58.5 -24.5t-24.5 -58.5q0 -35 24 -59.5t59 -24.5z" />
<glyph unicode="&#x2039;" horiz-adv-x="311" d="M190 425h102l-153 -190l153 -190h-102l-150 190z" />
<glyph unicode="&#x203a;" horiz-adv-x="311" d="M172 235l-153 190h102l150 -190l-150 -190h-102z" />
<glyph unicode="&#x2044;" horiz-adv-x="354" d="M-100 0l470 670h84l-470 -670h-84z" />
<glyph unicode="&#x205f;" horiz-adv-x="232" />
<glyph unicode="&#x2070;" horiz-adv-x="400" d="M36 426v96q0 68 47.5 112.5t116.5 44.5t116 -44t47 -113v-96q0 -69 -47.5 -113t-116.5 -44q-68 0 -115.5 44.5t-47.5 112.5zM110 522v-96q0 -37 25.5 -60.5t63.5 -23.5t64.5 23.5t26.5 60.5v96q0 37 -26 60.5t-64 23.5q-39 0 -64.5 -23.5t-25.5 -60.5z" />
<glyph unicode="&#x2074;" horiz-adv-x="376" d="M299 441h60v-69h-60v-96h-75v96h-210v55l180 243h105v-229zM224 600l-114 -159h114v159z" />
<glyph unicode="&#x2075;" horiz-adv-x="366" d="M118 514h94q56 0 92 -34t36 -82q0 -50 -36 -86t-92 -36h-163v73h161q23 0 38.5 14.5t15.5 33.5q0 18 -15 33t-39 15h-166l23 225h242v-73h-183z" />
<glyph unicode="&#x2076;" horiz-adv-x="379" d="M166 670h143v-73h-142q-28 0 -32 -25l-15 -74h2q40 28 96 28q61 0 100 -34.5t39 -91.5q0 -58 -46.5 -94.5t-115.5 -36.5q-55 0 -96.5 23.5t-57.5 62.5q-11 27 -7 66q3 38 32 172q8 35 34 56t66 21zM105 400q0 -27 24 -44t64 -17q41 0 66 17.5t25 44.5q0 26 -25 43t-64 17 q-40 0 -65 -17t-25 -44z" />
<glyph unicode="&#x2077;" horiz-adv-x="314" d="M12 597v73h288v-56l-167 -338h-79l162 321h-204z" />
<glyph unicode="&#x2078;" horiz-adv-x="390" d="M289 481q69 -30 69 -92q0 -55 -46.5 -87.5t-116.5 -32.5q-69 0 -116 33.5t-47 86.5q0 62 69 92q-60 28 -60 85q0 50 44 81.5t110 31.5t110 -31.5t44 -81.5q0 -57 -60 -85zM195 610q-33 0 -56.5 -14t-23.5 -35t22.5 -34t57.5 -13t58.5 13t23.5 34t-23.5 35t-58.5 14z M195 337q39 0 65 16t26 39t-26.5 39t-64.5 16t-63.5 -16t-25.5 -39q0 -22 26 -38.5t63 -16.5z" />
<glyph unicode="&#x2079;" horiz-adv-x="379" d="M213 278h-143v73h137q33 0 37 25l15 74h-2q-40 -28 -96 -28q-61 0 -100 34.5t-39 91.5q0 58 46.5 94.5t115.5 36.5q55 0 97 -23.5t57 -62.5q11 -27 7 -66q-3 -38 -32 -172q-8 -35 -34 -56t-66 -21zM274 548q0 27 -24 44t-64 17q-41 0 -66 -17.5t-25 -44.5q0 -26 25 -43 t64 -17q40 0 65 17t25 44z" />
<glyph unicode="&#x2080;" horiz-adv-x="400" d="M36 150v96q0 68 47.5 112.5t116.5 44.5t116 -44t47 -113v-96q0 -69 -47.5 -113t-116.5 -44q-68 0 -115.5 44.5t-47.5 112.5zM110 246v-96q0 -37 25.5 -60.5t63.5 -23.5t64.5 23.5t26.5 60.5v96q0 37 -26 60.5t-64 23.5q-39 0 -64.5 -23.5t-25.5 -60.5z" />
<glyph unicode="&#x2081;" horiz-adv-x="244" d="M186 394v-394h-73v321h-102v73h175z" />
<glyph unicode="&#x2082;" horiz-adv-x="345" d="M264 193l-127 -120h175v-73h-288v59l194 184q18 16 18 39q0 16 -15 27.5t-36 11.5h-157v73h157q54 0 89 -32t35 -78q0 -49 -45 -91z" />
<glyph unicode="&#x2083;" horiz-adv-x="353" d="M205 231h1q48 0 84 -31.5t36 -79.5q0 -51 -37 -85.5t-88 -34.5h-174v73h170q22 0 38.5 15t16.5 33t-16.5 32.5t-38.5 14.5h-91v48l99 105h-178v73h280v-55z" />
<glyph unicode="&#x2084;" horiz-adv-x="376" d="M299 165h60v-69h-60v-96h-75v96h-210v55l180 243h105v-229zM224 324l-114 -159h114v159z" />
<glyph unicode="&#x2085;" horiz-adv-x="366" d="M118 238h94q56 0 92 -34t36 -82q0 -50 -36 -86t-92 -36h-163v73h161q23 0 38.5 14.5t15.5 33.5q0 18 -15 33t-39 15h-166l23 225h242v-73h-183z" />
<glyph unicode="&#x2086;" horiz-adv-x="375" d="M167 394h138v-73h-142q-28 0 -32 -25l-15 -74h2q40 28 96 28q61 0 100 -34.5t39 -91.5q0 -58 -46.5 -94.5t-115.5 -36.5q-55 0 -96 23.5t-57 62.5q-9 23 -5 66q2 22 34 172q8 35 34 56t66 21zM101 124q0 -27 24 -44t64 -17q41 0 66 17.5t25 44.5q0 26 -25 43t-64 17 q-40 0 -65 -17t-25 -44z" />
<glyph unicode="&#x2087;" horiz-adv-x="314" d="M12 321v73h288v-56l-167 -338h-79l162 321h-204z" />
<glyph unicode="&#x2088;" horiz-adv-x="390" d="M289 205q69 -30 69 -92q0 -55 -46.5 -87.5t-116.5 -32.5q-69 0 -116 33.5t-47 86.5q0 62 69 92q-60 28 -60 85q0 50 44 81.5t110 31.5t110 -31.5t44 -81.5q0 -57 -60 -85zM195 334q-33 0 -56.5 -14t-23.5 -35t22.5 -34t57.5 -13t58.5 13t23.5 34t-23.5 35t-58.5 14z M195 61q39 0 65 16t26 39t-26.5 39t-64.5 16t-63.5 -16t-25.5 -39q0 -22 26 -38.5t63 -16.5z" />
<glyph unicode="&#x2089;" horiz-adv-x="375" d="M208 0h-138v73h142q28 0 32 25l15 74h-2q-40 -28 -96 -28q-61 0 -100 34.5t-39 91.5q0 58 46.5 94.5t115.5 36.5q55 0 96 -23.5t57 -62.5q9 -23 5 -66q-2 -22 -34 -172q-8 -35 -34 -56t-66 -21zM274 270q0 27 -24 44t-64 17q-41 0 -66 -17.5t-25 -44.5q0 -26 25 -43 t64 -17q40 0 65 17t25 44z" />
<glyph unicode="&#x20ac;" horiz-adv-x="630" d="M554 463h-150q-101 0 -152 -71h231v-80h-261q-3 -17 -3 -34q0 -11 2 -31h262v-80h-233q49 -75 154 -75h150v-92h-144q-102 0 -169 46t-97 121h-84v80h65q-1 10 -1 31q0 12 2 34h-66v80h86q30 73 97 118t167 45h144v-92z" />
<glyph unicode="&#x20b4;" horiz-adv-x="658" d="M571 302h-484v77h305q24 0 37.5 12t13.5 28t-12.5 27.5t-36.5 11.5h-269v95h286q65 0 101 -27t36 -71q0 -27 -13.5 -47t-33.5 -28v-1h70v-77zM87 251h484v-77h-305q-24 0 -37 -11.5t-13 -27.5t12.5 -28t35.5 -12h269v-95h-286q-65 0 -101 27.5t-36 72.5q0 25 13.5 44.5 t33.5 27.5v2h-70v77z" />
<glyph unicode="&#x20bd;" horiz-adv-x="724" d="M443 167h-169v-80h298v-87h-298v-122h-95v122h-100v87h100v80h-100v88h100v298h264q67 0 116 -28.5t71.5 -71.5t22.5 -93t-22 -93t-71.5 -71.5t-116.5 -28.5zM440 460h-166v-205h166q56 0 87.5 32t31.5 70.5t-31.5 70.5t-87.5 32z" />
<glyph unicode="&#x2116;" horiz-adv-x="1142" d="M912 363q-67 0 -114 47t-47 114t47 113.5t114 46.5q66 0 111.5 -46.5t46.5 -113.5t-45 -114t-113 -47zM227 670l367 -499v499h97v-670h-97l-389 536v-536h-97v670h119zM912 600q-33 0 -55 -22t-21 -54t22.5 -54.5t53.5 -22.5q31 0 53 22.5t22 54.5t-21.5 54t-53.5 22z M1060 234h-299v85h299v-85z" />
<glyph unicode="&#x2122;" horiz-adv-x="909" d="M190 612h-129v58h317v-58h-128v-287h-60v287zM801 670v-345h-60v269l-116 -269h-43l-114 266v-266h-60v345h91l106 -245l107 245h89z" />
<glyph unicode="&#x215b;" horiz-adv-x="879" d="M215 276h-73v321h-102v73h175v-394zM120 0l470 670h84l-470 -670h-84zM757 205q69 -30 69 -92q0 -55 -46.5 -87.5t-116.5 -32.5q-69 0 -116 33.5t-47 86.5q0 62 69 92q-60 28 -60 85q0 50 44 81.5t110 31.5t110 -31.5t44 -81.5q0 -57 -60 -85zM663 334q-33 0 -56.5 -14 t-23.5 -35t22.5 -34t57.5 -13t58.5 13t23.5 34t-23.5 35t-58.5 14zM663 61q39 0 65 16t26 39t-26.5 39t-64.5 16t-63.5 -16t-25.5 -39q0 -22 26 -38.5t63 -16.5z" />
<glyph unicode="&#x215c;" horiz-adv-x="935" d="M351 396q0 -51 -37 -85.5t-88 -34.5h-174v73h170q22 0 38.5 15t16.5 33t-16.5 32.5t-38.5 14.5h-91v48l99 105h-178v73h280v-55l-102 -108h1q48 0 84 -31.5t36 -79.5zM176 0l470 670h84l-470 -670h-84zM813 205q69 -30 69 -92q0 -55 -46.5 -87.5t-116.5 -32.5 q-69 0 -116 33.5t-47 86.5q0 62 69 92q-60 28 -60 85q0 50 44 81.5t110 31.5t110 -31.5t44 -81.5q0 -57 -60 -85zM719 334q-33 0 -56.5 -14t-23.5 -35t22.5 -34t57.5 -13t58.5 13t23.5 34t-23.5 35t-58.5 14zM719 61q39 0 65 16t26 39t-26.5 39t-64.5 16t-63.5 -16 t-25.5 -39q0 -22 26 -38.5t63 -16.5z" />
<glyph unicode="&#x215d;" horiz-adv-x="927" d="M66 349h161q23 0 38.5 14.5t15.5 33.5q0 18 -15 33t-39 15h-166l23 225h242v-73h-183l-8 -83h94q56 0 92 -34t36 -82q0 -50 -36 -86t-92 -36h-163v73zM168 0l470 670h84l-470 -670h-84zM805 205q69 -30 69 -92q0 -55 -46.5 -87.5t-116.5 -32.5q-69 0 -116 33.5t-47 86.5 q0 62 69 92q-60 28 -60 85q0 50 44 81.5t110 31.5t110 -31.5t44 -81.5q0 -57 -60 -85zM711 334q-33 0 -56.5 -14t-23.5 -35t22.5 -34t57.5 -13t58.5 13t23.5 34t-23.5 35t-58.5 14zM711 61q39 0 65 16t26 39t-26.5 39t-64.5 16t-63.5 -16t-25.5 -39q0 -22 26 -38.5t63 -16.5 z" />
<glyph unicode="&#x2190;" horiz-adv-x="660" d="M570 -15l-500 288l500 290v-578z" />
<glyph unicode="&#x2191;" horiz-adv-x="735" d="M70 0l297 515l298 -515h-595z" />
<glyph unicode="&#x2192;" horiz-adv-x="660" d="M90 563l500 -290l-500 -288v578z" />
<glyph unicode="&#x2193;" horiz-adv-x="718" d="M648 495l-290 -500l-288 500h578z" />
<glyph unicode="&#x2212;" horiz-adv-x="696" d="M108 279v90h480v-90h-480z" />
<glyph unicode="&#x2460;" horiz-adv-x="818" d="M409 -14q-144 0 -246.5 102.5t-102.5 246.5t102.5 246.5t246.5 102.5t246.5 -102.5t102.5 -246.5t-102.5 -246.5t-246.5 -102.5zM409 45q119 0 204.5 85.5t85.5 204.5t-85.5 204.5t-204.5 85.5t-204.5 -85.5t-85.5 -204.5t85.5 -204.5t204.5 -85.5zM301 532v-73h102v-321 h73v394h-175z" />
<glyph unicode="&#x2461;" horiz-adv-x="818" d="M409 -14q-144 0 -246.5 102.5t-102.5 246.5t102.5 246.5t246.5 102.5t246.5 -102.5t102.5 -246.5t-102.5 -246.5t-246.5 -102.5zM409 45q119 0 204.5 85.5t85.5 204.5t-85.5 204.5t-204.5 85.5t-204.5 -85.5t-85.5 -204.5t85.5 -204.5t204.5 -85.5zM271 197v-59h288v73 h-175l127 120q45 42 45 91q0 46 -35 78t-89 32h-157v-73h157q21 0 36 -11.5t15 -27.5q0 -23 -18 -39z" />
<glyph unicode="&#x2462;" horiz-adv-x="818" d="M409 -14q-144 0 -246.5 102.5t-102.5 246.5t102.5 246.5t246.5 102.5t246.5 -102.5t102.5 -246.5t-102.5 -246.5t-246.5 -102.5zM409 45q119 0 204.5 85.5t85.5 204.5t-85.5 204.5t-204.5 85.5t-204.5 -85.5t-85.5 -204.5t85.5 -204.5t204.5 -85.5zM270 211v-73h174 q51 0 88 34.5t37 85.5q0 48 -36 79.5t-84 31.5h-1l102 108v55h-280v-73h178l-99 -105v-48h91q22 0 38.5 -14.5t16.5 -32.5t-16.5 -33t-38.5 -15h-170z" />
<glyph unicode="&#x2463;" horiz-adv-x="818" d="M409 -14q-144 0 -246.5 102.5t-102.5 246.5t102.5 246.5t246.5 102.5t246.5 -102.5t102.5 -246.5t-102.5 -246.5t-246.5 -102.5zM409 45q119 0 204.5 85.5t85.5 204.5t-85.5 204.5t-204.5 85.5t-204.5 -85.5t-85.5 -204.5t85.5 -204.5t204.5 -85.5zM221 289v-55h210v-96 h75v96h60v69h-60v229h-105zM431 303h-114l114 159v-159z" />
<glyph unicode="&#x2464;" horiz-adv-x="818" d="M409 -14q-144 0 -246.5 102.5t-102.5 246.5t102.5 246.5t246.5 102.5t246.5 -102.5t102.5 -246.5t-102.5 -246.5t-246.5 -102.5zM409 45q119 0 204.5 85.5t85.5 204.5t-85.5 204.5t-204.5 85.5t-204.5 -85.5t-85.5 -204.5t85.5 -204.5t204.5 -85.5zM296 532l-23 -225h166 q24 0 39 -15t15 -33q0 -19 -15.5 -33.5t-38.5 -14.5h-161v-73h163q56 0 92 36t36 86q0 48 -36 82t-92 34h-94l8 83h183v73h-242z" />
<glyph unicode="&#x2465;" horiz-adv-x="818" d="M409 -14q-144 0 -246.5 102.5t-102.5 246.5t102.5 246.5t246.5 102.5t246.5 -102.5t102.5 -246.5t-102.5 -246.5t-246.5 -102.5zM409 45q119 0 204.5 85.5t85.5 204.5t-85.5 204.5t-204.5 85.5t-204.5 -85.5t-85.5 -204.5t85.5 -204.5t204.5 -85.5zM523 459v73h-138 q-40 0 -66 -21t-34 -56q-32 -150 -34 -172q-4 -43 5 -66q16 -39 57 -62.5t96 -23.5q69 0 115.5 36.5t46.5 94.5q0 57 -39 91.5t-100 34.5q-56 0 -96 -28h-2l15 74q4 25 32 25h142zM319 262q0 27 25 44t65 17q39 0 64 -17t25 -43q0 -27 -25 -44.5t-66 -17.5q-40 0 -64 17 t-24 44z" />
<glyph unicode="&#x2466;" horiz-adv-x="818" d="M409 -14q-144 0 -246.5 102.5t-102.5 246.5t102.5 246.5t246.5 102.5t246.5 -102.5t102.5 -246.5t-102.5 -246.5t-246.5 -102.5zM409 45q119 0 204.5 85.5t85.5 204.5t-85.5 204.5t-204.5 85.5t-204.5 -85.5t-85.5 -204.5t85.5 -204.5t204.5 -85.5zM265 532v-73h204 l-162 -321h79l167 338v56h-288z" />
<glyph unicode="&#x2467;" horiz-adv-x="818" d="M409 -14q-144 0 -246.5 102.5t-102.5 246.5t102.5 246.5t246.5 102.5t246.5 -102.5t102.5 -246.5t-102.5 -246.5t-246.5 -102.5zM409 45q119 0 204.5 85.5t85.5 204.5t-85.5 204.5t-204.5 85.5t-204.5 -85.5t-85.5 -204.5t85.5 -204.5t204.5 -85.5zM246 251q0 62 69 92 q-60 28 -60 85q0 50 44 81.5t110 31.5t110 -31.5t44 -81.5q0 -57 -60 -85q69 -30 69 -92q0 -55 -46.5 -87.5t-116.5 -32.5q-69 0 -116 33.5t-47 86.5zM328 423q0 -21 22.5 -34t57.5 -13t58.5 13t23.5 34t-23.5 35t-58.5 14q-33 0 -56.5 -14t-23.5 -35zM319 254 q0 -22 26 -38.5t63 -16.5q39 0 65 16t26 39t-26.5 39t-64.5 16t-63.5 -16t-25.5 -39z" />
<glyph unicode="&#x2468;" horiz-adv-x="818" d="M409 -14q-144 0 -246.5 102.5t-102.5 246.5t102.5 246.5t246.5 102.5t246.5 -102.5t102.5 -246.5t-102.5 -246.5t-246.5 -102.5zM409 45q119 0 204.5 85.5t85.5 204.5t-85.5 204.5t-204.5 85.5t-204.5 -85.5t-85.5 -204.5t85.5 -204.5t204.5 -85.5zM297 214v-73h138 q40 0 66 21t34 56q32 150 34 172q4 43 -5 66q-16 39 -57 62.5t-96 23.5q-69 0 -115.5 -36.5t-46.5 -94.5q0 -57 39 -91.5t100 -34.5q56 0 96 28h2l-15 -74q-4 -25 -32 -25h-142zM501 411q0 -27 -25 -44t-65 -17q-39 0 -64 17t-25 43q0 27 25 44.5t66 17.5q40 0 64 -17 t24 -44z" />
<glyph unicode="&#x24ea;" horiz-adv-x="818" d="M409 -14q-144 0 -246.5 102.5t-102.5 246.5t102.5 246.5t246.5 102.5t246.5 -102.5t102.5 -246.5t-102.5 -246.5t-246.5 -102.5zM409 45q119 0 204.5 85.5t85.5 204.5t-85.5 204.5t-204.5 85.5t-204.5 -85.5t-85.5 -204.5t85.5 -204.5t204.5 -85.5zM246 383v-96 q0 -68 47.5 -112.5t115.5 -44.5q69 0 116.5 44t47.5 113v96q0 69 -47 113t-116 44t-116.5 -44.5t-47.5 -112.5zM319 287v96q0 37 25.5 60.5t64.5 23.5q38 0 64 -23.5t26 -60.5v-96q0 -37 -26.5 -60.5t-64.5 -23.5t-63.5 23.5t-25.5 60.5z" />
<glyph unicode="&#x24ff;" horiz-adv-x="818" d="M409 -14q-144 0 -246.5 102.5t-102.5 246.5t102.5 246.5t246.5 102.5t246.5 -102.5t102.5 -246.5t-102.5 -246.5t-246.5 -102.5zM246 383v-96q0 -68 47.5 -112.5t115.5 -44.5q69 0 116.5 44t47.5 113v96q0 69 -47 113t-116 44t-116.5 -44.5t-47.5 -112.5zM319 287v96 q0 37 25.5 60.5t64.5 23.5q38 0 64 -23.5t26 -60.5v-96q0 -37 -26.5 -60.5t-64.5 -23.5t-63.5 23.5t-25.5 60.5z" />
<glyph unicode="&#x25fc;" horiz-adv-x="495" d="M0 495h495v-495h-495v495z" />
<glyph unicode="&#x2776;" horiz-adv-x="818" d="M409 -14q-144 0 -246.5 102.5t-102.5 246.5t102.5 246.5t246.5 102.5t246.5 -102.5t102.5 -246.5t-102.5 -246.5t-246.5 -102.5zM301 532v-73h102v-321h73v394h-175z" />
<glyph unicode="&#x2777;" horiz-adv-x="818" d="M409 -14q-144 0 -246.5 102.5t-102.5 246.5t102.5 246.5t246.5 102.5t246.5 -102.5t102.5 -246.5t-102.5 -246.5t-246.5 -102.5zM271 197v-59h288v73h-175l127 120q45 42 45 91q0 46 -35 78t-89 32h-157v-73h157q21 0 36 -11.5t15 -27.5q0 -23 -18 -39z" />
<glyph unicode="&#x2778;" horiz-adv-x="818" d="M409 -14q-144 0 -246.5 102.5t-102.5 246.5t102.5 246.5t246.5 102.5t246.5 -102.5t102.5 -246.5t-102.5 -246.5t-246.5 -102.5zM270 211v-73h174q51 0 88 34.5t37 85.5q0 48 -36 79.5t-84 31.5h-1l102 108v55h-280v-73h179l-100 -105v-48h91q22 0 38.5 -14.5t16.5 -32.5 t-16.5 -33t-38.5 -15h-170z" />
<glyph unicode="&#x2779;" horiz-adv-x="818" d="M409 -14q-144 0 -246.5 102.5t-102.5 246.5t102.5 246.5t246.5 102.5t246.5 -102.5t102.5 -246.5t-102.5 -246.5t-246.5 -102.5zM221 289v-55h210v-96h75v96h60v69h-60v229h-105zM431 303h-114l114 159v-159z" />
<glyph unicode="&#x277a;" horiz-adv-x="818" d="M409 -14q-144 0 -246.5 102.5t-102.5 246.5t102.5 246.5t246.5 102.5t246.5 -102.5t102.5 -246.5t-102.5 -246.5t-246.5 -102.5zM296 532l-23 -225h166q24 0 39 -15t15 -33q0 -19 -15.5 -33.5t-38.5 -14.5h-161v-73h163q56 0 92 36t36 86q0 48 -36 82t-92 34h-94l8 83 h183v73h-242z" />
<glyph unicode="&#x277b;" horiz-adv-x="818" d="M409 -14q-144 0 -246.5 102.5t-102.5 246.5t102.5 246.5t246.5 102.5t246.5 -102.5t102.5 -246.5t-102.5 -246.5t-246.5 -102.5zM523 459v73h-138q-40 0 -66 -21t-34 -56q-32 -150 -34 -172q-4 -43 5 -66q16 -39 57 -62.5t96 -23.5q69 0 115.5 36.5t46.5 94.5 q0 57 -39 91.5t-100 34.5q-56 0 -96 -28h-2l15 74q4 25 32 25h142zM319 262q0 27 25 44t65 17q39 0 64 -17t25 -43q0 -27 -25 -44.5t-66 -17.5q-40 0 -64 17t-24 44z" />
<glyph unicode="&#x277c;" horiz-adv-x="818" d="M409 -14q-144 0 -246.5 102.5t-102.5 246.5t102.5 246.5t246.5 102.5t246.5 -102.5t102.5 -246.5t-102.5 -246.5t-246.5 -102.5zM265 532v-73h204l-162 -321h79l167 338v56h-288z" />
<glyph unicode="&#x277d;" horiz-adv-x="818" d="M409 -14q-144 0 -246.5 102.5t-102.5 246.5t102.5 246.5t246.5 102.5t246.5 -102.5t102.5 -246.5t-102.5 -246.5t-246.5 -102.5zM246 251q0 -53 47 -86.5t116 -33.5q70 0 116.5 32.5t46.5 87.5q0 62 -69 92q60 28 60 85q0 50 -44 81.5t-110 31.5t-110 -31.5t-44 -81.5 q0 -57 60 -85q-69 -30 -69 -92zM328 423q0 21 23.5 35t56.5 14q35 0 58.5 -14t23.5 -35t-23.5 -34t-58.5 -13t-57.5 13t-22.5 34zM319 254q0 23 25.5 39t63.5 16t64.5 -16t26.5 -39t-26 -39t-65 -16q-37 0 -63 16.5t-26 38.5z" />
<glyph unicode="&#x277e;" horiz-adv-x="818" d="M409 -14q-144 0 -246.5 102.5t-102.5 246.5t102.5 246.5t246.5 102.5t246.5 -102.5t102.5 -246.5t-102.5 -246.5t-246.5 -102.5zM297 214v-73h138q40 0 66 21t34 56q32 150 34 172q4 43 -5 66q-16 39 -57 62.5t-96 23.5q-69 0 -115.5 -36.5t-46.5 -94.5q0 -57 39 -91.5 t100 -34.5q56 0 96 28h2l-15 -74q-4 -25 -32 -25h-142zM501 411q0 -27 -25 -44t-65 -17q-39 0 -64 17t-25 43q0 27 25 44.5t66 17.5q40 0 64 -17t24 -44z" />
<glyph unicode="&#xfb00;" horiz-adv-x="842" d="M818 628h-175q-50 0 -50 -49v-84h225v-92h-225v-403h-95v403h-289v-403h-95v403h-90v92h90v100q0 55 35 90t90 35h195v-92h-175q-50 0 -50 -49v-84h289v100q0 55 35 90t90 35h195v-92z" />
<glyph horiz-adv-x="512" d="M465 670v-95h-160v-480h160v-95h-418v95h161v480h-161v95h418z" />
<glyph horiz-adv-x="717" d="M677 0h-121l-225 297h-144v-297h-97v670h97v-278h139l223 278h117l-258 -320z" />
<glyph horiz-adv-x="717" d="M666 670l-258 -320l269 -350h-121l-225 297h-144v-297h-97v670h97v-278h139l223 278h117zM333 -200h-103l99 145h106z" />
<glyph horiz-adv-x="239" d="M72 720h95v-145h-95v145zM72 495h95v-495h-95v495z" />
<glyph horiz-adv-x="554" d="M537 0h-120l-164 208h-86v-208h-95v720h95v-423h93l160 198h111l-191 -242z" />
<glyph horiz-adv-x="554" d="M531 495l-191 -242l197 -253h-120l-164 208h-86v-208h-95v720h95v-423h93l160 198h111zM274 -200h-103l99 145h106z" />
<glyph horiz-adv-x="575" d="M373 403l171 -403h-106l-167 401q-49 -8 -76.5 -44t-27.5 -95v-262h-95v720h95v-295h4q32 70 131 70h230v-92h-159z" />
<glyph horiz-adv-x="1152" d="M52 494q0 71 50 123.5t136 52.5h886v-95h-241v-575h-97v575h-542q-39 0 -62.5 -23t-23.5 -55q0 -27 16.5 -48.5t47.5 -29.5l246 -60q70 -17 107 -67t37 -109q0 -74 -51.5 -128.5t-140.5 -54.5h-345v96h341q41 0 65.5 25.5t24.5 59.5q0 28 -17.5 51.5t-50.5 31.5l-247 60 q-68 17 -103.5 65t-35.5 105z" />
<glyph horiz-adv-x="1116" d="M1078 670v-95h-241v-575h-97v575h-365v-575h-97v575h-240v95h1040z" />
<glyph horiz-adv-x="858" d="M818 495v-92h-225v-261q0 -49 50 -49h175v-93h-194q-61 0 -93.5 32t-32.5 92v279h-289v-403h-95v403h-90v92h90v100q0 55 35 90t90 35h175v-92h-155q-50 0 -50 -49v-84h289v175h95v-175h225z" />
<glyph horiz-adv-x="478" d="M72 720h95v-145h-95v145zM311 720h95v-145h-95v145zM72 495h95v-572q0 -60 -33 -91.5t-93 -31.5h-128v94h109q50 0 50 48v553zM311 495h95v-695h-95v695z" />
<glyph horiz-adv-x="817" d="M777 495v-92h-225v-261q0 -49 50 -49h175v-93h-194q-61 0 -93.5 32t-32.5 92v279h-139q-69 0 -110 -43t-41 -118v-242h-95v495h92v-85h4q39 85 149 85h140v175h95v-175h225z" />
<glyph horiz-adv-x="858" d="M818 495v-92h-225v-261q0 -49 50 -49h175v-93h-194q-61 0 -93.5 32t-32.5 92v279h-289v-261q0 -49 50 -49h175v-93h-194q-61 0 -93.5 32t-32.5 92v279h-90v92h90v175h95v-175h289v175h95v-175h225z" />
<glyph horiz-adv-x="1046" d="M1016 0h-119l-185 297h-140v-297h-97v297h-141l-185 -297h-119l225 350l-214 320h115l182 -278h137v278h97v-278h136l182 278h115l-214 -320z" />
<glyph horiz-adv-x="692" d="M677 0h-123l-223 297h-144v-297h-97v670h97v-278h140l224 278h115l-258 -320z" />
<glyph horiz-adv-x="872" d="M484 670h46q125 0 209 -79t84 -199q0 -121 -83.5 -199.5t-209.5 -78.5h-46v-114h-97v114h-46q-125 0 -208.5 78.5t-83.5 199.5q0 120 84 199t208 79h46v50h97v-50zM341 206h46v372h-46q-84 0 -139.5 -52.5t-55.5 -133.5q0 -83 55 -134.5t140 -51.5zM484 206h46 q85 0 140.5 52t55.5 134q0 81 -56 133.5t-140 52.5h-46v-372z" />
<glyph horiz-adv-x="512" d="M465 670v-95h-160v-480h160v-95h-418v95h161v480h-161v95h418z" />
<glyph horiz-adv-x="512" d="M110 835h92v-115h-92v115zM303 835h92v-115h-92v115zM465 670v-95h-160v-480h160v-95h-418v95h161v480h-161v95h418z" />
<glyph horiz-adv-x="1012" d="M634 684q148 0 235.5 -101t87.5 -249t-87.5 -247.5t-235.5 -99.5q-140 0 -226 89t-96 225h-125v-301h-97v671h97v-275h128q18 126 103 207t216 81zM634 82q106 0 165.5 72t59.5 180t-60 181.5t-165 73.5t-165 -73.5t-60 -181.5t59.5 -180t165.5 -72z" />
<glyph horiz-adv-x="813" d="M794 0h-123l-153 208h-64v-208h-95v208h-64l-153 -208h-123l189 253l-183 242h115l148 -198h71v198h95v-198h71l148 198h115l-183 -242z" />
<glyph horiz-adv-x="555" d="M537 0h-119l-163 208h-88v-208h-95v495h95v-198h95l158 198h111l-191 -242z" />
<glyph horiz-adv-x="741" d="M418 496h25q113 0 186.5 -70.5t73.5 -178.5q0 -107 -73.5 -177.5t-186.5 -70.5h-25v-199h-95v199h-26q-113 0 -186 70.5t-73 177.5q0 108 73 178.5t186 70.5h26v174h95v-174zM297 89h26v317h-26q-73 0 -118.5 -44.5t-45.5 -114.5q0 -69 45.5 -113.5t118.5 -44.5zM418 89 h25q73 0 119 44.5t46 113.5q0 70 -46 114.5t-119 44.5h-25v-317z" />
<glyph horiz-adv-x="553" d="M16 835h92v-115h-92v115zM230 835h92v-115h-92v115zM445 835h92v-115h-92v115zM90 0v670h97v-670h-97zM366 0v670h97v-670h-97z" />
<glyph horiz-adv-x="482" d="M-3 720h92v-145h-92v145zM195 720h92v-145h-92v145zM393 720h92v-145h-92v145zM72 495h95v-495h-95v495zM315 495h95v-495h-95v495z" />
<glyph horiz-adv-x="688" d="M346 -14q-131 0 -213 83.5t-82 207.5t82 207.5t213 83.5q128 0 209.5 -84t81.5 -207t-81.5 -207t-209.5 -84zM346 79q86 0 141 57.5t55 140.5t-55 141t-141 58q-89 0 -144 -57.5t-55 -141.5t55 -141t144 -57z" />
<glyph horiz-adv-x="413" d="M37 553h290v-553h-95v461h-195v92z" />
<glyph horiz-adv-x="587" d="M447 292l-244 -200h336v-92h-492v72l346 286q32 26 32 55q0 21 -15.5 34.5t-39.5 13.5h-313v92h315q64 0 106 -37.5t42 -94.5q0 -69 -73 -129z" />
<glyph horiz-adv-x="582" d="M302 289h25q88 0 147 -58.5t59 -144.5q0 -87 -59.5 -147.5t-146.5 -60.5h-290v92h286q48 0 81.5 34.5t33.5 82.5q0 47 -33.5 80.5t-81.5 33.5h-157v68l198 192h-327v92h462v-72z" />
<glyph horiz-adv-x="697" d="M501 141h157v-92h-157v-174h-95v174h-368v72l332 432h131v-412zM406 458l-244 -317h244v317z" />
<glyph horiz-adv-x="587" d="M152 289h184q89 0 147.5 -58.5t58.5 -144.5q0 -88 -59 -148t-147 -60h-280v92h276q49 0 82 34t33 83q0 48 -33 81t-82 33h-277l34 352h394v-92h-315z" />
<glyph horiz-adv-x="640" d="M392 454q97 -11 149 -73.5t52 -156.5q0 -104 -74.5 -170.5t-190.5 -66.5q-124 0 -198 65.5t-74 169.5q0 18 3 35l53 292q4 24 12.5 43t25.5 38t48.5 29.5t76.5 10.5h227v-92h-226q-63 0 -74 -56l-22 -119h3q36 29 92.5 43.5t116.5 7.5zM328 82q76 0 122 39.5t46 102.5 t-47.5 102t-125.5 39q-77 0 -123.5 -39.5t-46.5 -103.5t45 -102t130 -38z" />
<glyph horiz-adv-x="559" d="M37 461v92h483v-72l-305 -603h-104l302 583h-376z" />
<glyph horiz-adv-x="651" d="M472 352v-4q59 -19 92 -61t33 -98q0 -90 -78 -146t-194 -56q-115 0 -193 56.5t-78 145.5q0 56 33 98t91 61v4q-50 18 -79 56.5t-29 88.5q0 84 72 135.5t183 51.5t183.5 -51t72.5 -136q0 -51 -29 -89.5t-80 -55.5zM325 589q-70 0 -113.5 -26.5t-43.5 -70.5 q0 -43 43.5 -69.5t113.5 -26.5t114 26.5t44 69.5q0 44 -43.5 70.5t-114.5 26.5zM325 82q77 0 125.5 30.5t48.5 80.5q0 49 -49 78.5t-125 29.5t-124.5 -29.5t-48.5 -78.5q0 -50 49 -80.5t124 -30.5z" />
<glyph horiz-adv-x="638" d="M312 568q124 0 198 -65.5t74 -169.5q0 -19 -3 -35l-56 -299q-4 -24 -12.5 -43t-25.5 -38t-48.5 -29.5t-76.5 -10.5h-237v92h236q63 0 74 56l25 126h-3q-36 -29 -92.5 -43.5t-116.5 -7.5q-97 11 -149 73.5t-52 156.5q0 104 74.5 170.5t190.5 66.5zM144 331 q0 -63 47.5 -102t125.5 -39q77 0 123.5 39.5t46.5 103.5t-45 102t-130 38q-76 0 -122 -39.5t-46 -102.5z" />
<glyph d="M324 -14q-131 0 -213 83.5t-82 207.5t82 207.5t213 83.5q128 0 209.5 -84t81.5 -207t-81.5 -207t-209.5 -84zM324 79q86 0 141 57.5t55 140.5t-55 141t-141 58q-89 0 -144 -57.5t-55 -141.5t55 -141t144 -57z" />
<glyph d="M424 92h159v-92h-521v92h267v369h-215v92h310v-461z" />
<glyph d="M476 292l-244 -200h336v-92h-492v72l346 286q32 26 32 55q0 21 -15.5 34.5t-39.5 13.5h-313v92h315q64 0 106 -37.5t42 -94.5q0 -69 -73 -129z" />
<glyph d="M343 289h25q88 0 147 -58.5t59 -144.5q0 -87 -59.5 -147.5t-146.5 -60.5h-290v92h286q48 0 81.5 34.5t33.5 82.5q0 47 -33.5 80.5t-81.5 33.5h-157v68l198 192h-327v92h462v-72z" />
<glyph d="M500 141h127v-92h-127v-174h-95v174h-368v72l332 432h131v-412zM405 458l-244 -317h244v317z" />
<glyph d="M186 289h184q89 0 147.5 -58.5t58.5 -144.5q0 -88 -59 -148t-147 -60h-280v92h276q49 0 82 34t33 83q0 48 -33 81t-82 33h-277l34 352h394v-92h-315z" />
<glyph d="M391 454q97 -11 149 -73.5t52 -156.5q0 -104 -74.5 -170.5t-190.5 -66.5q-124 0 -198 65.5t-74 169.5q0 18 3 35l53 292q4 24 12.5 43t25.5 38t48.5 29.5t76.5 10.5h227v-92h-226q-63 0 -74 -56l-22 -119h3q36 29 92.5 43.5t116.5 7.5zM327 82q76 0 122 39.5t46 102.5 t-47.5 102t-125.5 39q-77 0 -123.5 -39.5t-46.5 -103.5t45 -102t130 -38z" />
<glyph d="M76 461v92h483v-72l-305 -603h-104l302 583h-376z" />
<glyph d="M469 352v-4q59 -19 92 -61t33 -98q0 -90 -78 -146t-194 -56q-115 0 -193 56.5t-78 145.5q0 56 33 98t91 61v4q-50 18 -79 56.5t-29 88.5q0 84 72 135.5t183 51.5t183.5 -51t72.5 -136q0 -51 -29 -89.5t-80 -55.5zM322 589q-70 0 -113.5 -26.5t-43.5 -70.5 q0 -43 43.5 -69.5t113.5 -26.5t114 26.5t44 69.5q0 44 -43.5 70.5t-114.5 26.5zM322 82q77 0 125.5 30.5t48.5 80.5q0 49 -49 78.5t-125 29.5t-124.5 -29.5t-48.5 -78.5q0 -50 49 -80.5t124 -30.5z" />
<glyph d="M318 568q124 0 198 -65.5t74 -169.5q0 -19 -3 -35l-56 -299q-4 -24 -12.5 -43t-25.5 -38t-48.5 -29.5t-76.5 -10.5h-237v92h236q63 0 74 56l25 126h-3q-36 -29 -92.5 -43.5t-116.5 -7.5q-97 11 -149 73.5t-52 156.5q0 104 74.5 170.5t190.5 66.5zM150 331 q0 -63 47.5 -102t125.5 -39q77 0 123.5 39.5t46.5 103.5t-45 102t-130 38q-76 0 -122 -39.5t-46 -102.5z" />
<glyph d="M62 245v180q0 111 74 185t186 74q111 0 186 -74t75 -185v-180q0 -111 -75 -185t-186 -74q-112 0 -186 74t-74 185zM159 425v-180q0 -72 46 -117.5t117 -45.5t117.5 45.5t46.5 117.5v180q0 72 -46.5 118t-117.5 46t-117 -46t-46 -118z" />
<glyph d="M412 670v-575h149v-95h-476v95h230v480h-180v95h277z" />
<glyph d="M476 342l-239 -247h314v-95h-458v75l317 331q37 38 37 83q0 38 -28.5 62t-74.5 24h-243v95h244q87 0 143 -49.5t56 -128.5q0 -80 -68 -150z" />
<glyph d="M349 385h22q82 0 137.5 -54t55.5 -135q0 -82 -56 -139t-138 -57h-284v95h280q41 0 69.5 29.5t28.5 71.5t-28.5 71.5t-69.5 29.5h-151v70l180 208h-309v95h443v-74z" />
<glyph d="M499 259h98v-90h-98v-169h-97v169h-358v69l324 432h131v-411zM402 563l-228 -304h228v304z" />
<glyph d="M195 396h178q94 0 146 -58t52 -139q0 -80 -52.5 -139.5t-145.5 -59.5h-271v95h268q46 0 72 30.5t27 72.5t-25 73t-74 31h-276l38 368h385v-95h-303z" />
<glyph d="M61 210q0 21 5 44l58 298q22 118 161 118h223v-95h-221q-32 0 -49 -12t-23 -41l-27 -136h3q67 47 148 47q115 0 182 -61t67 -160t-72.5 -162t-187.5 -63q-122 0 -194.5 62.5t-72.5 160.5zM158 210q0 -59 43.5 -93.5t126.5 -34.5q75 0 119 36t44 94t-45.5 93.5 t-122.5 35.5q-75 0 -120 -36t-45 -95z" />
<glyph d="M85 575v95h469v-75l-278 -595h-108l273 575h-356z" />
<glyph d="M56 188q0 55 31 97.5t89 63.5v2q-51 21 -77.5 59.5t-26.5 88.5q0 83 70.5 134t179.5 51t180 -50.5t71 -134.5q0 -50 -27 -88.5t-78 -59.5v-2q58 -21 89.5 -63.5t31.5 -97.5q0 -90 -76 -145.5t-191 -55.5q-114 0 -190 56t-76 145zM170 492q0 -43 42 -69.5t110 -26.5 t110.5 26.5t42.5 69.5q0 44 -42 70.5t-111 26.5t-110.5 -26.5t-41.5 -70.5zM154 193q0 -50 47.5 -80.5t120.5 -30.5q75 0 122 30.5t47 80.5q0 49 -47 78.5t-122 29.5t-121.5 -29t-46.5 -79z" />
<glyph d="M583 460q0 -21 -5 -44l-58 -298q-22 -118 -161 -118h-223v95h221q32 0 49 12t23 41l27 136h-3q-67 -47 -148 -47q-115 -1 -182 60.5t-67 160.5t72.5 162t187.5 63q122 0 194.5 -62.5t72.5 -160.5zM486 460q0 59 -43.5 93.5t-126.5 34.5q-75 0 -119 -36t-44 -94 t45.5 -93.5t122.5 -35.5q75 0 120 36t45 95z" />
<glyph horiz-adv-x="400" d="M36 150v96q0 68 47.5 112.5t116.5 44.5t116 -44t47 -113v-96q0 -69 -47.5 -113t-116.5 -44q-68 0 -115.5 44.5t-47.5 112.5zM110 246v-96q0 -37 25.5 -60.5t63.5 -23.5t64.5 23.5t26.5 60.5v96q0 37 -26 60.5t-64 23.5q-39 0 -64.5 -23.5t-25.5 -60.5z" />
<glyph horiz-adv-x="244" d="M186 394v-394h-73v321h-102v73h175z" />
<glyph horiz-adv-x="345" d="M264 193l-127 -120h175v-73h-288v59l194 184q18 16 18 39q0 16 -15 27.5t-36 11.5h-157v73h157q54 0 89 -32t35 -78q0 -49 -45 -91z" />
<glyph horiz-adv-x="353" d="M205 231h1q48 0 84 -31.5t36 -79.5q0 -51 -37 -85.5t-88 -34.5h-174v73h170q22 0 38.5 15t16.5 33t-16.5 32.5t-38.5 14.5h-91v48l99 105h-178v73h280v-55z" />
<glyph horiz-adv-x="376" d="M299 165h60v-69h-60v-96h-75v96h-210v55l180 243h105v-229zM224 324l-114 -159h114v159z" />
<glyph horiz-adv-x="366" d="M118 238h94q56 0 92 -34t36 -82q0 -50 -36 -86t-92 -36h-163v73h161q23 0 38.5 14.5t15.5 33.5q0 18 -15 33t-39 15h-166l23 225h242v-73h-183z" />
<glyph horiz-adv-x="375" d="M167 394h138v-73h-141q-28 0 -32 -25l-15 -74h2q40 28 95 28q61 0 100 -34.5t39 -91.5q0 -58 -46.5 -94.5t-115.5 -36.5q-55 0 -96 23.5t-57 62.5q-9 23 -5 66q2 22 34 172q8 35 34 56t66 21zM101 124q0 -27 24 -44t64 -17q41 0 66 17.5t25 44.5q0 26 -25 43t-64 17 q-40 0 -65 -17t-25 -44z" />
<glyph horiz-adv-x="314" d="M12 321v73h288v-56l-167 -338h-79l162 321h-204z" />
<glyph horiz-adv-x="390" d="M289 205q69 -30 69 -92q0 -55 -46.5 -87.5t-116.5 -32.5q-69 0 -116 33.5t-47 86.5q0 62 69 92q-60 28 -60 85q0 50 44 81.5t110 31.5t110 -31.5t44 -81.5q0 -57 -60 -85zM195 334q-33 0 -56.5 -14t-23.5 -35t22.5 -34t57.5 -13t58.5 13t23.5 34t-23.5 35t-58.5 14z M195 61q39 0 65 16t26 39t-26.5 39t-64.5 16t-63.5 -16t-25.5 -39q0 -22 26 -38.5t63 -16.5z" />
<glyph horiz-adv-x="375" d="M208 0h-138v73h141q28 0 32 25l15 74h-2q-40 -28 -95 -28q-61 0 -100 34.5t-39 91.5q0 58 46.5 94.5t115.5 36.5q55 0 96 -23.5t57 -62.5q9 -23 5 -66q-2 -22 -34 -172q-8 -35 -34 -56t-66 -21zM274 270q0 27 -24 44t-64 17q-41 0 -66 -17.5t-25 -44.5q0 -26 25 -43 t64 -17q40 0 65 17t25 44z" />
<glyph horiz-adv-x="400" d="M36 426v96q0 68 47.5 112.5t116.5 44.5t116 -44t47 -113v-96q0 -69 -47.5 -113t-116.5 -44q-68 0 -115.5 44.5t-47.5 112.5zM110 522v-96q0 -37 25.5 -60.5t63.5 -23.5t64.5 23.5t26.5 60.5v96q0 37 -26 60.5t-64 23.5q-39 0 -64.5 -23.5t-25.5 -60.5z" />
<glyph horiz-adv-x="244" d="M186 670v-394h-73v321h-102v73h175z" />
<glyph horiz-adv-x="345" d="M264 469l-127 -120h175v-73h-288v59l194 184q18 16 18 39q0 16 -15 27.5t-36 11.5h-157v73h157q54 0 89 -32t35 -78q0 -49 -45 -91z" />
<glyph horiz-adv-x="353" d="M205 507h1q48 0 84 -31.5t36 -79.5q0 -51 -37 -85.5t-88 -34.5h-174v73h170q22 0 38.5 15t16.5 33t-16.5 32.5t-38.5 14.5h-91v48l99 105h-178v73h280v-55z" />
<glyph horiz-adv-x="376" d="M299 441h60v-69h-60v-96h-75v96h-210v55l180 243h105v-229zM224 600l-114 -159h114v159z" />
<glyph horiz-adv-x="366" d="M118 514h94q56 0 92 -34t36 -82q0 -50 -36 -86t-92 -36h-163v73h161q23 0 38.5 14.5t15.5 33.5q0 18 -15 33t-39 15h-166l23 225h242v-73h-183z" />
<glyph horiz-adv-x="379" d="M166 670h143v-73h-141q-28 0 -32 -25l-15 -74h2q40 28 95 28q61 0 100 -34.5t39 -91.5q0 -58 -46.5 -94.5t-115.5 -36.5q-55 0 -96.5 23.5t-57.5 62.5q-11 27 -7 66q3 38 32 172q8 35 34 56t66 21zM105 400q0 -27 24 -44t64 -17q41 0 66 17.5t25 44.5q0 26 -25 43t-64 17 q-40 0 -65 -17t-25 -44z" />
<glyph horiz-adv-x="314" d="M12 597v73h288v-56l-167 -338h-79l162 321h-204z" />
<glyph horiz-adv-x="390" d="M289 481q69 -30 69 -92q0 -55 -46.5 -87.5t-116.5 -32.5q-69 0 -116 33.5t-47 86.5q0 62 69 92q-60 28 -60 85q0 50 44 81.5t110 31.5t110 -31.5t44 -81.5q0 -57 -60 -85zM195 610q-33 0 -56.5 -14t-23.5 -35t22.5 -34t57.5 -13t58.5 13t23.5 34t-23.5 35t-58.5 14z M195 337q39 0 65 16t26 39t-26.5 39t-64.5 16t-63.5 -16t-25.5 -39q0 -22 26 -38.5t63 -16.5z" />
<glyph horiz-adv-x="379" d="M213 278h-143v73h136q33 0 37 25l15 74h-2q-40 -28 -95 -28q-61 0 -100 34.5t-39 91.5q0 58 46.5 94.5t115.5 36.5q55 0 97 -23.5t57 -62.5q11 -27 7 -66q-3 -38 -32 -172q-8 -35 -34 -56t-66 -21zM274 548q0 27 -24 44t-64 17q-41 0 -66 -17.5t-25 -44.5q0 -26 25 -43 t64 -17q40 0 65 17t25 44z" />
<glyph horiz-adv-x="673" d="M340 509q106 0 182 -77.5t76 -187.5q0 -105 -76.5 -181.5t-181.5 -76.5q-110 0 -187.5 76t-77.5 182q0 110 77.5 187.5t187.5 77.5z" />
<glyph horiz-adv-x="304" d="M210 670v-120h-115v120h115zM205 0h-103l6 445h91z" />
<glyph horiz-adv-x="535" d="M303 670h115v-120h-115v120zM260 92h242v-92h-242q-89 0 -139 53.5t-50 125.5q0 73 50 126t139 53h52v87h95v-174h-147q-44 0 -69 -27t-25 -63q0 -37 24.5 -63t69.5 -26z" />
<glyph horiz-adv-x="416" d="M210 468q54 0 92.5 -39.5t38.5 -95.5q0 -53 -39 -92t-92 -39q-56 0 -95.5 38.5t-39.5 92.5q0 56 39.5 95.5t95.5 39.5z" />
<glyph horiz-adv-x="838" d="M422 684q142 0 244 -103.5t102 -249.5q0 -141 -102 -243t-244 -102q-146 0 -249 101.5t-103 243.5q0 147 103 250t249 103z" />
<glyph horiz-adv-x="271" d="M261 -120h-90q-109 221 -109 460t109 460h90q-108 -230 -108 -460t108 -460z" />
<glyph horiz-adv-x="271" d="M100 -120h-90q108 230 108 460t-108 460h90q109 -221 109 -460t-109 -460z" />
<glyph horiz-adv-x="303" d="M203 660v-219q0 -80 -54 -104v-5q54 -22 54 -102v-220q0 -48 50 -48h30v-92h-48q-60 0 -93 31.5t-33 91.5v248q0 48 -50 48h-19v93h19q50 0 50 48v247q0 60 33 91.5t93 31.5h48v-92h-30q-50 0 -50 -48z" />
<glyph horiz-adv-x="303" d="M244 382h19v-93h-19q-50 0 -50 -48v-248q0 -60 -33 -91.5t-93 -31.5h-48v92h30q50 0 50 48v220q0 80 54 102v5q-54 24 -54 104v219q0 48 -50 48h-30v92h48q60 0 93 -31.5t33 -91.5v-247q0 -48 50 -48z" />
<glyph horiz-adv-x="289" d="M284 800v-92h-125v-746h125v-92h-219v930h219z" />
<glyph horiz-adv-x="289" d="M5 800h219v-930h-219v92h125v746h-125v92z" />
<glyph horiz-adv-x="494" d="M72 233v87h350v-87h-350z" />
<glyph horiz-adv-x="747" d="M72 303v92h603v-92h-603z" />
<glyph horiz-adv-x="868" d="M72 303v92h724v-92h-724z" />
<glyph horiz-adv-x="641" d="M523 330q0 -61 -33 -110l77 -77l-61 -61l-77 77q-50 -32 -108 -32q-59 0 -109 32l-77 -77l-61 61l77 77q-33 49 -33 110q0 58 32 108l-76 76l61 61l76 -76q49 33 110 33q60 0 109 -33l76 76l61 -61l-76 -76q32 -50 32 -108zM202 330q0 -50 35 -84.5t84 -34.5t83.5 35 t34.5 84t-34.5 83.5t-83.5 34.5t-84 -34.5t-35 -83.5z" />
<glyph horiz-adv-x="654" d="M236 419l209 -54q72 -18 108 -69t32 -108q-5 -65 -55 -111.5t-131 -46.5h-22v-95h-96v95h-188v95h305q37 0 60 20t25 48q2 26 -15.5 48.5t-50.5 31.5l-209 55q-69 19 -103.5 64.5t-32.5 99.5q3 65 52.5 111.5t131.5 46.5h25v95h96v-95h169v-94h-289q-34 0 -57.5 -17 t-25.5 -47q-2 -25 14 -45t48 -28z" />
<glyph horiz-adv-x="679" d="M603 575h-128q-149 0 -206 -117h250v-86h-275q-2 -24 -2 -37q0 -14 2 -38h275v-86h-250q59 -116 206 -116h128v-95h-123q-117 0 -200 57t-118 154h-84v86h66q-2 24 -2 38q0 13 2 37h-66v86h84q34 97 117 154.5t201 57.5h123v-95z" />
<glyph horiz-adv-x="718" d="M631 369h-544v89h331q39 0 60.5 18.5t19.5 42.5q-1 23 -22 40t-58 17h-279v94h290q85 0 128.5 -34.5t43.5 -88.5q0 -28 -16 -51.5t-37 -35.5v-2h83v-89zM87 301h544v-89h-331q-36 0 -57 -16t-23 -39q-2 -25 19 -44t61 -19h279v-94h-290q-85 0 -128.5 34.5t-43.5 88.5 q0 28 16 51t37 35v3h-83v89z" />
<glyph horiz-adv-x="739" d="M455 284h-179v-77h308v-87h-308v-120h-97v120h-100v87h100v77h-100v90h100v296h276q51 0 92.5 -16.5t67.5 -43.5t40 -62t14 -71t-13.5 -71t-39 -62t-67.5 -43.5t-94 -16.5zM452 575h-176v-201h176q56 0 87.5 31.5t31.5 69t-31.5 69t-87.5 31.5z" />
<glyph horiz-adv-x="647" d="M255 286v-191h324v-95h-501v95h79v191h-79v92h79v96q0 82 55.5 139t136.5 57h192v-94h-188q-41 0 -69.5 -31.5t-28.5 -77.5v-89h216v-92h-216z" />
<glyph d="M525 330q0 -61 -33 -110l77 -77l-61 -61l-77 77q-50 -32 -108 -32q-59 0 -109 32l-77 -77l-61 61l77 77q-33 49 -33 110q0 58 32 108l-76 76l61 61l76 -76q49 33 110 33q60 0 109 -33l76 76l61 -61l-76 -76q32 -50 32 -108zM204 330q0 -50 35 -84.5t84 -34.5t83.5 35 t34.5 84t-34.5 83.5t-83.5 34.5t-84 -34.5t-35 -83.5z" />
<glyph d="M230 419l209 -54q72 -18 108 -69t32 -108q-5 -65 -55 -111.5t-131 -46.5h-22v-95h-96v95h-188v95h305q37 0 60 20t25 48q2 26 -15.5 48.5t-50.5 31.5l-209 55q-69 19 -103.5 64.5t-32.5 99.5q3 65 52.5 111.5t131.5 46.5h25v95h96v-95h169v-94h-289q-34 0 -57.5 -17 t-25.5 -47q-2 -25 14 -45t48 -28z" />
<glyph d="M584 575h-128q-149 0 -206 -117h250v-86h-275q-2 -24 -2 -37q0 -14 2 -38h275v-86h-250q59 -116 206 -116h128v-95h-123q-117 0 -200 57t-118 154h-84v86h66q-2 24 -2 38q0 13 2 37h-66v86h84q34 97 117 154.5t201 57.5h123v-95z" />
<glyph d="M595 369h-544v89h331q39 0 60 18t20 43q-1 23 -22 40t-58 17h-279v94h290q85 0 128.5 -34.5t43.5 -88.5q0 -28 -16 -51.5t-37 -35.5v-2h83v-89zM51 301h544v-89h-331q-36 0 -57 -16t-23 -39q-2 -25 19 -44t61 -19h279v-94h-290q-85 0 -128.5 34.5t-43.5 88.5q0 28 16 51 t37 35v3h-83v89z" />
<glyph d="M404 284h-169v-77h298v-87h-298v-120h-97v120h-100v87h100v77h-100v90h100v296h266q51 0 92.5 -16.5t67.5 -43.5t40 -62t14 -71t-13.5 -71t-39 -62t-67.5 -43.5t-94 -16.5zM401 575h-166v-201h166q56 0 87.5 31.5t31.5 69t-31.5 69t-87.5 31.5z" />
<glyph d="M251 286v-191h324v-95h-501v95h79v191h-79v92h79v96q0 82 55.5 139t136.5 57h192v-94h-188q-41 0 -69.5 -31.5t-28.5 -77.5v-89h216v-92h-216z" />
<glyph d="M510 670h116l-229 -293h181v-86h-202v-75h202v-86h-202v-130h-97v130h-206v86h206v75h-206v86h182l-225 293h118l181 -236z" />
<glyph horiz-adv-x="725" d="M550 670h116l-234 -293h181v-86h-202v-75h202v-86h-202v-130h-97v130h-206v86h206v75h-206v86h182l-230 293h118l186 -237z" />
<glyph d="M331 77q54 0 95.5 29t56.5 77h99q-15 -75 -70.5 -127.5t-135.5 -65.5v-115h-95v115q-96 16 -154.5 88t-58.5 170t58.5 169.5t154.5 87.5v115h95v-115q80 -12 135.5 -64t70.5 -126h-99q-16 45 -56.5 74t-95.5 29q-75 0 -121.5 -49t-46.5 -121t46.5 -121.5t121.5 -49.5z " />
<glyph d="M525 330q0 -61 -33 -110l77 -77l-61 -61l-77 77q-50 -32 -108 -32q-59 0 -109 32l-77 -77l-61 61l77 77q-33 49 -33 110q0 58 32 108l-76 76l61 61l76 -76q49 33 110 33q60 0 109 -33l76 76l61 -61l-76 -76q32 -50 32 -108zM204 330q0 -50 35 -84.5t84 -34.5t83.5 35 t34.5 84t-34.5 83.5t-83.5 34.5t-84 -34.5t-35 -83.5z" />
<glyph d="M239 361l196 -79q53 -21 80 -60t27 -83q0 -56 -41 -97.5t-110 -41.5h-23v-114h-92v114h-151v92h266q24 0 39.5 15.5t15.5 36.5q0 33 -33 46l-203 81q-53 21 -80 59.5t-27 82.5q0 57 41.5 98.5t110.5 41.5h21v117h92v-117h152v-92h-266q-23 0 -36.5 -14.5t-13.5 -35.5 q0 -35 35 -50z" />
<glyph d="M554 463h-150q-101 0 -152 -71h231v-80h-261q-3 -17 -3 -34q0 -11 2 -31h262v-80h-233q49 -75 154 -75h150v-92h-144q-102 0 -169 46t-97 121h-84v80h65q-1 10 -1 31q0 12 2 34h-66v80h86q30 73 97 118t167 45h144v-92z" />
<glyph d="M566 302h-487v77h308q24 0 37.5 12t13.5 28t-12.5 27.5t-36.5 11.5h-272v95h289q65 0 101 -27t36 -71q0 -27 -13.5 -47t-33.5 -28v-1h70v-77zM79 251h487v-77h-308q-24 0 -37 -11.5t-13 -27.5t12.5 -28t35.5 -12h272v-95h-289q-65 0 -101 27.5t-36 72.5q0 25 13.5 44.5 t33.5 27.5v2h-70v77z" />
<glyph d="M401 167h-169v-80h298v-87h-298v-122h-95v122h-100v87h100v80h-100v88h100v298h264q67 0 116 -28.5t71.5 -71.5t22.5 -93t-22 -93t-71.5 -71.5t-116.5 -28.5zM398 460h-166v-205h166q56 0 87.5 32t31.5 70.5t-31.5 70.5t-87.5 32z" />
<glyph d="M251 232v-139h320v-93h-495v93h79v139h-79v90h79v36q0 81 55.5 138t136.5 57h187v-92h-183q-42 0 -71 -32t-29 -79v-28h213v-90h-213z" />
<glyph d="M513 552h113l-234 -293h182v-84h-202v-89h202v-84h-202v-124h-95v124h-206v84h206v89h-206v84h182l-230 293h116l187 -239z" />
<glyph horiz-adv-x="617" d="M309 684l247 -242v-126l-203 205v-521h-90v519l-202 -203v126z" />
<glyph horiz-adv-x="800" d="M379 495h126l242 -248l-242 -247h-126l205 203h-521v90h519z" />
<glyph horiz-adv-x="617" d="M354 664v-519l202 203v-126l-248 -242l-247 242v126l203 -205v521h90z" />
<glyph horiz-adv-x="800" d="M218 293h519v-90h-521l205 -203h-126l-242 247l242 248h126z" />
<glyph horiz-adv-x="617" d="M309 684l247 -242h-203v-442h-90v442h-202z" />
<glyph horiz-adv-x="800" d="M505 495l242 -248l-242 -247v203h-442v90h442v202z" />
<glyph horiz-adv-x="618" d="M354 664v-442h202l-248 -242l-247 242h203v442h90z" />
<glyph horiz-adv-x="800" d="M295 293h442v-90h-442v-203l-242 247l242 248v-202z" />
<glyph horiz-adv-x="800" d="M379 583h126l242 -248l-242 -247h-126l205 203h-521v90h519z" />
<glyph horiz-adv-x="800" d="M218 381h519v-90h-521l205 -203h-126l-242 247l242 248h126z" />
<glyph horiz-adv-x="800" d="M505 583l242 -248l-242 -247v203h-442v90h442v202z" />
<glyph horiz-adv-x="800" d="M295 381h442v-90h-442v-203l-242 247l242 248v-202z" />
<glyph horiz-adv-x="680" d="M110 625l500 -290l-500 -288v578z" />
<glyph horiz-adv-x="680" d="M570 47l-500 288l500 290v-578z" />
<glyph horiz-adv-x="812" d="M581 188l182 -188h-132l-129 132l-153 -110q-61 -44 -136 -34t-118 68q-43 59 -31 130.5t71 113.5l119 85l-71 73q-31 32 -37.5 70t7.5 69t47.5 52t77.5 21h145q63 0 99.5 -40.5t29 -94.5t-58.5 -90l-95 -68l118 -122l185 133v-113zM253 527l82 -85l103 74q20 14 13 35.5 t-31 21.5h-147q-20 0 -27 -16t7 -30zM294 96l143 102l-119 122l-124 -88q-28 -20 -34 -54.5t16 -64.5q20 -27 54.5 -32.5t63.5 15.5z" />
<glyph horiz-adv-x="0" d="M-150 0h94l-81 -99q-6 -7 -2 -14.5t13 -7.5h70v-79h-100q-52 0 -72 41t14 82z" />
<glyph horiz-adv-x="0" d="M-43 -200h-83q-42 0 -66.5 24t-24.5 66v110h81v-96q0 -25 26 -25h67v-79z" />
<glyph horiz-adv-x="0" d="M-357 835h92v-115h-92v115zM-164 835h92v-115h-92v115z" />
<glyph horiz-adv-x="0" d="M-167 835h95v-115h-95v115z" />
<glyph horiz-adv-x="0" d="M-236 835h106l99 -115h-103z" />
<glyph horiz-adv-x="0" d="M-235 720l99 115h106l-102 -115h-103z" />
<glyph horiz-adv-x="0" d="M-426 720l99 115h106l-102 -115h-103zM-235 720l99 115h106l-102 -115h-103z" />
<glyph horiz-adv-x="0" d="M-137 835l108 -115h-103l-59 66l-59 -66h-103l108 115h108z" />
<glyph horiz-adv-x="0" d="M-191 769l59 66h103l-108 -115h-108l-108 115h103z" />
<glyph horiz-adv-x="0" d="M-366 800v35h85v-20q0 -11 7.5 -18.5t17.5 -7.5h94q10 0 17.5 7.5t7.5 18.5v20h85v-35q0 -35 -22.5 -57.5t-57.5 -22.5h-154q-35 0 -57.5 22.5t-22.5 57.5z" />
<glyph horiz-adv-x="0" d="M-163 706q-47 0 -80 32.5t-33 79.5t33 79.5t80 32.5t80 -32.5t33 -79.5t-33 -79.5t-80 -32.5zM-163 774q19 0 31.5 12.5t12.5 31.5t-12.5 31.5t-31.5 12.5t-31.5 -12.5t-12.5 -31.5t12.5 -31.5t31.5 -12.5z" />
<glyph horiz-adv-x="0" d="M-284 720h-78v77q0 45 37.5 64t76.5 -5l86 -53q7 -4 12.5 -0.5t5.5 10.5v52h78v-77q0 -45 -37.5 -64t-76.5 5l-86 53q-7 4 -12.5 1t-5.5 -11v-52z" />
<glyph horiz-adv-x="0" d="M-72 720h-294v82h294v-82z" />
<glyph horiz-adv-x="0" d="M-235 -200l99 145h106l-102 -145h-103z" />
<glyph horiz-adv-x="0" d="M-131 -41h11q39 0 60 -23t21 -55t-21.5 -56.5t-59.5 -24.5h-123v69h117q17 0 17 17q0 14 -17 14h-75v161h70v-102z" />
<glyph horiz-adv-x="0" d="M-153 0h97l-80 -100q-6 -7 -2 -14.5t13 -7.5h69v-78h-103q-52 0 -72 41t14 82z" />
<glyph horiz-adv-x="0" d="M-377 657v63h80v-47q0 -11 7.5 -18.5t17.5 -7.5h104q10 0 17.5 7.5t7.5 18.5v47h80v-63q0 -35 -23.5 -58.5t-58.5 -23.5h-150q-35 0 -58.5 23.5t-23.5 58.5z" />
<glyph horiz-adv-x="0" d="M-324 800v35h85v-20q0 -11 7.5 -18.5t17.5 -7.5h94q10 0 17.5 7.5t7.5 18.5v20h85v-35q0 -35 -22.5 -57.5t-57.5 -22.5h-154q-35 0 -57.5 22.5t-22.5 57.5z" />
</font>
</defs>
</svg>
