<svg width="279" height="279" viewBox="0 0 279 279" fill="none" xmlns="http://www.w3.org/2000/svg">
<path d="M278.676 133.696C278.082 115.222 269.229 102.325 251.575 95.9641C250.808 95.7922 250.134 95.338 249.687 94.6919C249.24 94.0458 249.054 93.2555 249.165 92.4785C249.165 88.9929 249.043 85.5073 249.165 82.0217C249.165 79.8257 248.415 79.2157 246.267 79.0066C234.647 77.846 223.791 72.6923 215.558 64.4268C207.324 56.1614 202.223 45.2977 201.128 33.6936C200.918 31.4629 200.045 30.8006 197.967 30.8878C195.278 31.0098 192.571 30.7483 189.899 30.9923C187.228 31.2363 185.901 30.1558 185.027 27.4021C180.505 13.146 170.604 4.60627 156.128 1.26008C148.462 -0.48272 140.674 0.0227528 132.973 0.231889C117.257 0.650162 104.266 6.90683 97.6652 21.5812C94.4871 28.6745 90.3835 30.4347 83.6956 29.4239C80.3953 28.9359 79.3999 30.2429 78.911 33.502C78.05 40.1757 75.8154 46.5997 72.3475 52.3702C68.8797 58.1407 64.2535 63.133 58.7598 67.0335C51.7953 72.1931 43.5308 75.3187 34.8893 76.0612C31.8858 76.3052 30.4364 77.3683 30.8206 80.6448C31.1175 83.1893 30.7158 85.8732 30.9254 88.3654C31.1349 90.8576 30.4539 92.3042 27.6425 93.0362C21.2663 94.9328 15.4909 98.4453 10.879 103.232C7.38339 107.082 4.68343 111.583 2.93386 116.477C-0.715698 127.474 -0.279144 138.802 0.646341 150.096C1.76391 163.533 8.52171 174.199 20.6229 179.532C28.4982 183.017 29.8428 187.758 29.3539 194.764C29.1094 197.866 30.5587 198.946 33.6146 199.417C45.1111 200.885 55.6867 206.457 63.3873 215.102C70.927 223.268 75.5766 233.675 76.6235 244.73C76.6038 245.124 76.6697 245.518 76.8167 245.884C76.9638 246.25 77.1885 246.581 77.4755 246.852C77.7625 247.124 78.1049 247.33 78.4793 247.457C78.8536 247.584 79.2511 247.629 79.6444 247.588C82.6653 247.588 85.7037 247.971 88.7246 247.797C91.4313 247.623 92.5662 248.529 93.4568 251.161C98.416 265.783 108.561 274.671 123.806 277.529C130.238 278.556 136.745 279.046 143.258 278.993C159.847 279.237 172.717 272.806 181.064 258.08C182.565 255.431 182.303 251.283 185.08 250.202C187.856 249.122 191.506 249.801 194.754 249.976C198.002 250.15 199.329 249.122 199.713 245.758C200.431 238.711 202.734 231.916 206.449 225.88C210.165 219.845 215.199 214.725 221.174 210.902C228.157 206.148 236.254 203.278 244.678 202.571C247.28 202.362 248.17 201.317 248.17 198.772C248.03 195.757 248.17 192.725 248.065 189.71C247.978 187.74 248.781 186.956 250.615 186.503C263.921 183.139 272.076 174.303 276.703 161.79C279.794 152.535 278.973 143.055 278.676 133.696ZM235.231 145.338C224.209 149.136 215.026 156.94 209.509 167.193C205.025 169.29 200.711 171.731 196.605 174.495C182.642 183.622 171.461 196.403 164.283 211.442C154.49 216.531 146.82 224.915 142.63 235.11C139.434 235.11 136.396 234.97 133.899 234.709C129.793 223.802 121.839 214.766 111.53 209.299C107.471 200.881 102.258 193.068 96.0412 186.084C87.6719 176.599 77.3892 168.985 65.8668 163.742C60.6627 154.69 53.0388 147.262 43.8473 142.288C43.7425 140.423 43.6552 138.558 43.6552 136.815C43.6552 135.665 43.6552 134.619 43.76 133.696C54.7583 129.646 63.869 121.683 69.3418 111.336C74.6102 108.846 79.6374 105.876 84.3591 102.465C97.4117 93.1832 107.798 80.6481 114.481 66.1099C123.388 60.7616 130.64 53.0592 135.435 43.8542H137.531C139.696 43.8542 142.42 43.6974 144.324 43.7322C148.332 54.4857 156.053 63.4588 166.099 69.0378C175.282 88.4831 190.835 104.221 210.19 113.654C215.364 124.008 224.188 132.089 234.969 136.345C234.969 137.147 234.969 137.931 234.969 138.715C234.969 140.963 235.143 143.089 235.143 144.832L235.231 145.338Z" fill="white" fill-opacity="0.5"/>
</svg>
