<svg width="57" height="45" viewBox="0 0 57 45" fill="none" xmlns="http://www.w3.org/2000/svg">
<g clip-path="url(#clip0_308_4382)">
<path d="M14.3059 45C7.96438 45 0.811725 40.4052 0.0743386 30.2674C-0.663048 20.3485 6.93203 6.85575 22.7858 0.437601L23.8919 0L28.8324 8.09562L27.5051 8.75203C20.205 12.3987 16.5918 18.671 15.1908 21.6613C23.4495 22.9741 26.4728 28.3712 26.4728 33.1848C26.399 39.6758 20.9424 45 14.3059 45ZM2.87641 30.0486C3.46632 38.363 9.21793 42.1556 14.3059 42.1556C19.4676 42.1556 23.6707 38.0713 23.6707 33.1118C23.6707 30.705 22.6384 24.8703 13.0523 24.141L11.2826 23.9951L11.8725 22.3177C12.02 21.8801 15.2645 12.4716 24.9243 6.92869L22.7858 3.42788C8.7755 9.48136 2.21276 21.2966 2.87641 30.0486Z" fill="#849795"/>
<path d="M42.4739 45C36.1323 45 28.9797 40.4052 28.2423 30.2674C27.5049 20.3485 35.1 6.85575 50.9538 0.437601L52.0599 0L57.0004 8.09562L55.6731 8.75203C48.373 12.3987 44.7598 18.671 43.3587 21.6613C51.6175 22.9741 54.6408 28.3712 54.6408 33.1848C54.6408 39.6758 49.1841 45 42.4739 45ZM31.0444 30.0486C31.6343 38.363 37.3859 42.1556 42.4739 42.1556C47.6356 42.1556 51.8387 38.0713 51.8387 33.1118C51.8387 30.705 50.8063 24.8703 41.2203 24.141L39.4506 23.9951L40.0405 22.3177C40.188 21.8801 43.4325 12.4716 53.0922 6.92869L50.9538 3.42788C37.0172 9.48136 30.4545 21.2966 31.0444 30.0486Z" fill="#849795"/>
</g>
<defs>
<clipPath id="clip0_308_4382">
<rect width="57" height="45" fill="white"/>
</clipPath>
</defs>
</svg>
