<svg width="56" height="16" viewBox="0 0 56 16" fill="none" xmlns="http://www.w3.org/2000/svg">
<path d="M12.972 2.984L14.424 5.536L9.496 8L14.424 10.464L12.972 13.016L8.396 9.98L8.704 15.48H5.756L6.064 9.98L1.488 13.016L0.0360003 10.464L4.964 8L0.0360003 5.536L1.488 2.984L6.064 6.02L5.756 0.519999H8.704L8.396 6.02L12.972 2.984ZM33.4251 2.984L34.8771 5.536L29.9491 8L34.8771 10.464L33.4251 13.016L28.8491 9.98L29.1571 15.48H26.2091L26.5171 9.98L21.9411 13.016L20.4891 10.464L25.4171 8L20.4891 5.536L21.9411 2.984L26.5171 6.02L26.2091 0.519999H29.1571L28.8491 6.02L33.4251 2.984ZM53.8783 2.984L55.3303 5.536L50.4023 8L55.3303 10.464L53.8783 13.016L49.3023 9.98L49.6103 15.48H46.6623L46.9703 9.98L42.3943 13.016L40.9423 10.464L45.8703 8L40.9423 5.536L42.3943 2.984L46.9703 6.02L46.6623 0.519999H49.6103L49.3023 6.02L53.8783 2.984Z" fill="black"/>
</svg>
